<svg width="212" height="77" viewBox="0 0 212 77" fill="none" xmlns="http://www.w3.org/2000/svg">
<path d="M71.7734 25.3972C70.4573 24.4665 68.7399 24 66.6213 24H58.419C57.7695 24 57.4107 24.3341 57.3425 25.0016L54.0105 46.5178C53.9758 46.7291 54.0272 46.9224 54.1642 47.0981C54.3003 47.2741 54.4716 47.3617 54.6767 47.3617H58.5727C59.2561 47.3617 59.6317 47.0283 59.7006 46.3599L60.6232 40.5593C60.6569 40.2782 60.7771 40.0496 60.9822 39.8736C61.1872 39.6979 61.4435 39.583 61.7511 39.5303C62.0587 39.478 62.3487 39.4518 62.6226 39.4518C62.8958 39.4518 63.2203 39.4695 63.5968 39.5045C63.9724 39.5396 64.2118 39.5567 64.3145 39.5567C67.2534 39.5567 69.5602 38.7048 71.2351 36.9993C72.9092 35.2944 73.7472 32.9302 73.7472 29.9063C73.7472 27.8323 73.0888 26.3293 71.7734 25.3972ZM67.5442 31.8577C67.3728 33.0883 66.929 33.8965 66.2114 34.2834C65.4936 34.6707 64.4683 34.8632 63.1357 34.8632L61.4438 34.9161L62.3155 29.2733C62.3835 28.8869 62.6056 28.6935 62.9818 28.6935H63.9561C65.3225 28.6935 66.3142 28.8961 66.9294 29.2997C67.5442 29.7043 67.7493 30.5573 67.5442 31.8577Z" fill="#003087"/>
<path d="M158.334 24H154.54C154.164 24 153.942 24.1934 153.874 24.5801L150.542 46.5178L150.49 46.6232C150.49 46.7999 150.559 46.9661 150.696 47.1244C150.832 47.2823 151.003 47.3615 151.208 47.3615H154.592C155.24 47.3615 155.599 47.0282 155.668 46.3597L159.001 24.7906V24.7382C159 24.2461 158.778 24 158.334 24Z" fill="#009CDE"/>
<path d="M112.502 32.4902C112.502 32.3148 112.433 32.1475 112.297 31.9895C112.16 31.8314 112.006 31.752 111.836 31.752H107.888C107.511 31.752 107.204 31.9286 106.965 32.2792L101.531 40.5063L99.276 32.5959C99.1044 32.0337 98.7286 31.752 98.1481 31.752H94.3028C94.1316 31.752 93.9777 31.8313 93.8418 31.9895C93.7047 32.1475 93.6367 32.315 93.6367 32.4902C93.6367 32.5611 93.97 33.5977 94.6363 35.6016C95.3025 37.6059 96.0203 39.7681 96.7894 42.0887C97.5584 44.4087 97.9596 45.6399 97.994 45.7796C95.1914 49.7175 93.7904 51.827 93.7904 52.1077C93.7904 52.5652 94.0125 52.7934 94.4569 52.7934H98.4043C98.7802 52.7934 99.0876 52.6181 99.327 52.2664L112.399 32.8593C112.467 32.7894 112.502 32.6669 112.502 32.4902Z" fill="#003087"/>
<path d="M149.26 31.7521H145.364C144.885 31.7521 144.595 32.3322 144.493 33.4925C143.603 32.0869 141.981 31.3828 139.622 31.3828C137.162 31.3828 135.068 32.3322 133.343 34.2307C131.617 36.1294 130.754 38.3621 130.754 40.9283C130.754 43.003 131.343 44.6551 132.522 45.8852C133.701 47.1165 135.282 47.731 137.265 47.731C138.255 47.731 139.264 47.5196 140.289 47.0981C141.314 46.6763 142.117 46.1141 142.699 45.4106C142.699 45.4459 142.664 45.6039 142.596 45.885C142.527 46.1668 142.493 46.3781 142.493 46.5178C142.493 47.081 142.715 47.3615 143.16 47.3615H146.697C147.346 47.3615 147.722 47.0282 147.825 46.3597L149.927 32.5959C149.96 32.3849 149.909 32.1918 149.773 32.0158C149.636 31.8403 149.465 31.7521 149.26 31.7521ZM142.57 42.1411C141.699 43.02 140.648 43.4593 139.418 43.4593C138.426 43.4593 137.624 43.1785 137.008 42.6156C136.393 42.054 136.085 41.2805 136.085 40.2953C136.085 38.9953 136.512 37.896 137.367 36.9995C138.22 36.1029 139.281 35.6547 140.546 35.6547C141.502 35.6547 142.296 35.9448 142.929 36.5248C143.561 37.1049 143.878 37.905 143.878 38.9245C143.878 40.19 143.442 41.2626 142.57 42.1411Z" fill="#009CDE"/>
<path d="M91.0242 31.7521H87.1281C86.649 31.7521 86.3591 32.3322 86.2564 33.4925C85.3337 32.0869 83.7102 31.3828 81.3863 31.3828C78.9256 31.3828 76.832 32.3322 75.1063 34.2307C73.3802 36.1294 72.5176 38.3621 72.5176 40.9283C72.5176 43.003 73.1072 44.6551 74.2863 45.8852C75.4654 47.1165 77.0457 47.731 79.0282 47.731C79.9846 47.731 80.9764 47.5196 82.0014 47.0981C83.0267 46.6763 83.847 46.1141 84.4622 45.4106C84.325 45.8325 84.257 46.2018 84.257 46.5178C84.257 47.081 84.4791 47.3615 84.9235 47.3615H88.4607C89.1095 47.3615 89.4859 47.0282 89.5885 46.3597L91.6903 32.5959C91.7239 32.3849 91.6727 32.1918 91.5365 32.0158C91.3997 31.8403 91.2291 31.7521 91.0242 31.7521ZM84.3341 42.1672C83.4624 43.0295 82.394 43.4593 81.1302 43.4593C80.1385 43.4593 79.3439 43.1785 78.7463 42.6156C78.1479 42.054 77.8491 41.2805 77.8491 40.2953C77.8491 38.9953 78.2761 37.896 79.1308 36.9995C79.9846 36.1029 81.0442 35.6547 82.3092 35.6547C83.2656 35.6547 84.0602 35.9448 84.6931 36.5248C85.3249 37.1049 85.6414 37.905 85.6414 38.9245C85.6414 40.2253 85.2057 41.3068 84.3341 42.1672Z" fill="#003087"/>
<path d="M130.01 25.3972C128.694 24.4665 126.977 24 124.858 24H116.707C116.023 24 115.647 24.3341 115.579 25.0016L112.247 46.5177C112.212 46.729 112.263 46.9222 112.401 47.0979C112.536 47.274 112.708 47.3615 112.913 47.3615H117.117C117.527 47.3615 117.8 47.1332 117.937 46.6761L118.86 40.5591C118.894 40.278 119.013 40.0495 119.219 39.8734C119.424 39.6977 119.68 39.5828 119.988 39.5301C120.295 39.4779 120.585 39.4516 120.859 39.4516C121.132 39.4516 121.457 39.4693 121.833 39.5043C122.209 39.5395 122.449 39.5565 122.55 39.5565C125.49 39.5565 127.796 38.7047 129.471 36.9991C131.146 35.2942 131.983 32.93 131.983 29.9061C131.983 27.8323 131.325 26.3293 130.01 25.3972ZM124.755 34.0724C124.003 34.5996 122.875 34.8632 121.372 34.8632L119.731 34.9161L120.603 29.2733C120.671 28.8869 120.893 28.6935 121.269 28.6935H122.192C122.943 28.6935 123.541 28.7287 123.986 28.7988C124.43 28.8697 124.858 29.0887 125.268 29.4579C125.678 29.8272 125.883 30.3634 125.883 31.0665C125.883 32.543 125.507 33.5448 124.755 34.0724Z" fill="#009CDE"/>
</svg>
