<svg width="32" height="32" viewBox="0 0 32 32" fill="none" xmlns="http://www.w3.org/2000/svg">
<path d="M4.21892 16.6056L6.83742 18.4776C6.93854 18.5497 7.06411 18.5785 7.18654 18.5579C7.30897 18.5372 7.41824 18.4689 7.49011 18.3675L9.36211 15.749V15.7492C9.51275 15.5378 9.46344 15.2445 9.25222 15.094C9.04099 14.9434 8.74765 14.9927 8.59702 15.2039L7.38482 16.9004C6.92768 14.9 7.11112 12.8061 7.90902 10.9154C8.70692 9.02479 10.0791 7.43279 11.8312 6.36452C13.5835 5.29646 15.6273 4.8061 17.6735 4.96325C19.7195 5.12015 21.6646 5.91636 23.2333 7.23933C24.8019 8.56224 25.9153 10.345 26.4155 12.3353C26.9157 14.3255 26.7774 16.4228 26.0204 18.33C25.9744 18.4455 25.9761 18.5744 26.0254 18.6885C26.0745 18.8028 26.1671 18.8926 26.2826 18.9384C26.3376 18.9601 26.3965 18.9714 26.4556 18.9712C26.6474 18.9714 26.82 18.8546 26.891 18.6764C27.719 16.5894 27.8711 14.2949 27.3256 12.1169C26.7801 9.93878 25.5645 7.98698 23.8505 6.53672C22.1364 5.08656 20.0103 4.21095 17.7723 4.03353C15.5343 3.85612 13.2965 4.38579 11.3755 5.54803C9.45436 6.71028 7.94655 8.4461 7.06484 10.5111C6.18296 12.5759 5.9717 14.8656 6.46061 17.0567L4.7618 15.8445V15.8447C4.66151 15.7639 4.53218 15.7277 4.40453 15.7453C4.27687 15.7628 4.16196 15.8322 4.08717 15.9371C4.01216 16.0419 3.98395 16.1732 4.00882 16.2996C4.03389 16.426 4.10994 16.5365 4.219 16.6052L4.21892 16.6056Z" fill="#ED712E"/>
<path d="M27.9673 20.6659C27.0313 19.559 25.4963 20.0669 24.6679 20.3383C24.1437 20.5115 22.8872 21.0403 21.6493 21.5645C21.7239 21.1688 21.6731 20.7597 21.5041 20.3945C20.8349 18.8664 19.1829 19.1589 17.9752 19.3743L17.9754 19.3741C17.6027 19.4552 17.2237 19.5028 16.8428 19.517C16.1975 19.5097 15.5602 19.3704 14.9708 19.1075C14.2053 18.7781 13.3773 18.6184 12.5441 18.6395C10.949 18.669 9.37618 19.0208 7.92036 19.6737L7.65836 19.7813C5.48444 20.6472 4.54844 20.8437 4.54844 20.8437C4.37064 20.8792 4.22941 21.014 4.18574 21.1901C4.16944 21.258 3.80194 22.8281 4.84324 25.0348C5.73704 26.9068 6.78317 27.6252 7.50142 27.885V27.8848C7.6531 27.9392 7.82192 27.9118 7.94853 27.8123C7.94853 27.8123 8.53581 27.3443 8.98525 27.0824C9.28234 26.9023 10.0054 26.7876 11.7744 27.279V27.2788C13.4112 27.7144 15.0935 27.9555 16.7866 27.9971C17.446 28.0186 18.1041 27.9285 18.7334 27.7305C20.5797 27.0285 25.0725 24.6885 26.8391 23.7291C27.7751 23.2189 28.2853 22.669 28.4024 22.0466C28.4795 21.5437 28.3186 21.0335 27.9672 20.666L27.9673 20.6659ZM27.4805 21.8756C27.422 22.1915 27.0336 22.5588 26.3901 22.9098C24.9065 23.7219 20.2403 26.1672 18.4036 26.8575C17.1143 27.3395 13.8686 26.8903 12.0249 26.3895C11.2883 26.1582 10.5244 26.0243 9.75284 25.9917C9.31514 25.9706 8.88039 26.0709 8.49614 26.2819C8.18025 26.4737 7.81982 26.7359 7.59293 26.9043C6.89093 26.5533 6.22402 25.7577 5.68815 24.63C5.22558 23.717 5.00936 22.699 5.06113 21.6768C6.06148 21.3847 7.04492 21.0379 8.00723 20.6377L8.27633 20.5278C9.62476 19.9186 11.0837 19.5921 12.5631 19.5684C13.278 19.5498 13.988 19.6915 14.6411 19.9825C15.3304 20.2848 16.074 20.444 16.8265 20.4505C17.268 20.4369 17.7071 20.3845 18.1394 20.2938C19.4287 20.0598 20.2993 19.9733 20.6455 20.7618C20.765 21.0071 20.7775 21.2908 20.6806 21.5457C20.5496 21.8687 20.2126 22.1635 19.6838 22.4021C19.2158 22.5987 18.8648 22.7508 18.7104 22.8116C17.7182 23.2 16.8641 23.0644 16.0382 22.9332L15.5842 22.863L15.584 22.8632C15.3255 22.8283 15.0878 23.0095 15.0529 23.2679C15.018 23.5264 15.1991 23.7643 15.4576 23.7992C15.6003 23.818 15.7455 23.8414 15.8905 23.8648C16.796 24.0075 17.821 24.169 19.0517 23.6893C19.1944 23.6331 19.48 23.5138 19.8591 23.35C19.9293 23.322 19.9972 23.2938 20.0626 23.2635L20.6664 23.0061C22.1896 22.3509 24.2771 21.4523 24.9625 21.2277C26.0506 20.8696 26.8134 20.7597 27.2511 21.2699C27.5344 21.6019 27.4945 21.8077 27.4805 21.8756Z" fill="#ED712E"/>
<path d="M16.4822 9.08722V9.70733C16.3199 9.74431 16.1628 9.80093 16.0142 9.87593C15.7758 9.99586 15.5744 10.1782 15.4315 10.4037C15.2884 10.6291 15.2092 10.889 15.2023 11.1558C15.1695 12.1831 16.0938 12.527 16.7678 12.7775C17.554 13.07 17.7928 13.2198 17.7577 13.5942L17.7575 13.594C17.7429 13.8545 17.573 14.0808 17.3269 14.1673C16.8706 14.3416 16.36 14.2985 15.9394 14.0503C15.7357 13.8901 15.4409 13.9252 15.2807 14.1289C15.1205 14.3324 15.1556 14.6272 15.3591 14.7874C15.6885 15.0241 16.0776 15.1643 16.4823 15.1923V15.7516C16.4823 16.01 16.6918 16.2196 16.9503 16.2196C17.2087 16.2196 17.4183 16.01 17.4183 15.7516V15.1221C17.5162 15.0972 17.6123 15.0659 17.7062 15.0285C17.9809 14.92 18.2197 14.7366 18.3956 14.4993C18.5714 14.2617 18.6771 13.9799 18.7007 13.6853C18.8131 12.5341 17.7858 12.1526 17.1072 11.8997C16.3795 11.6306 16.1384 11.4902 16.1478 11.186L16.1475 11.1862C16.1526 10.9771 16.276 10.7893 16.4659 10.7017C16.9043 10.5116 17.4091 10.5546 17.8089 10.8164C17.9142 10.8866 18.0433 10.9111 18.167 10.8845C18.2907 10.858 18.3983 10.7824 18.4654 10.6752C18.5324 10.568 18.5533 10.4381 18.523 10.3152C18.4927 10.1924 18.4142 10.0871 18.3051 10.0231C18.0341 9.8541 17.7329 9.73878 17.4182 9.68383V9.08714C17.4182 8.8287 17.2087 8.61914 16.9502 8.61914C16.6918 8.61914 16.4822 8.8287 16.4822 9.08714L16.4822 9.08722Z" fill="#ED712E"/>
<path d="M11.3342 12.4187C11.3342 13.9082 11.9259 15.3366 12.9791 16.3898C14.0324 17.443 15.4608 18.0347 16.9502 18.0347C18.4397 18.0347 19.8681 17.4431 20.9213 16.3898C21.9745 15.3366 22.5662 13.9082 22.5662 12.4187C22.5662 10.9293 21.9746 9.50082 20.9213 8.44763C19.8681 7.39445 18.4397 6.80273 16.9502 6.80273C15.4608 6.80273 14.0323 7.39439 12.9791 8.44763C11.9259 9.50087 11.3342 10.9293 11.3342 12.4187ZM21.6302 12.4187C21.6302 13.66 21.1371 14.8502 20.2594 15.7279C19.3817 16.6056 18.1915 17.0987 16.9502 17.0987C15.709 17.0987 14.5187 16.6057 13.641 15.7279C12.7633 14.8502 12.2702 13.66 12.2702 12.4187C12.2702 11.1775 12.7633 9.98722 13.641 9.10952C14.5187 8.23182 15.709 7.73873 16.9502 7.73873C18.1915 7.73873 19.3817 8.23181 20.2594 9.10952C21.1371 9.98723 21.6302 11.1775 21.6302 12.4187Z" fill="#ED712E"/>
</svg>
