<svg width="14" height="14" viewBox="0 0 14 14" fill="none" xmlns="http://www.w3.org/2000/svg">
<g clip-path="url(#clip0_1018_8346)">
<path d="M13.2473 1.05416e-06H0.765585C0.545442 -0.00041536 0.34362 0.122565 0.242987 0.318418C0.140966 0.516908 0.158872 0.755929 0.289209 0.937207L4.86198 7.37884C4.8635 7.38106 4.86517 7.38314 4.8667 7.38536C5.03285 7.60967 5.12265 7.88131 5.12321 8.16058V13.4124C5.12224 13.568 5.18331 13.7173 5.29296 13.8277C5.40262 13.938 5.5517 13.9999 5.70716 13.9999C5.78627 13.9999 5.86442 13.9841 5.93743 13.9539L8.50698 12.974C8.73725 12.9038 8.89008 12.6866 8.89008 12.4249V8.16058C8.89049 7.88145 8.98044 7.60967 9.14645 7.38536C9.14798 7.38314 9.14964 7.38106 9.15117 7.37884L13.7238 0.93693C13.8541 0.75579 13.872 0.516908 13.77 0.318418C13.6694 0.122565 13.4676 -0.00041536 13.2473 1.05416e-06ZM8.57346 6.96437C8.31806 7.31096 8.17995 7.73001 8.17912 8.16058V12.3386L5.83388 13.2328V8.16058C5.83305 7.73001 5.69494 7.31096 5.4394 6.96437L1.00003 0.710679H13.013L8.57346 6.96437Z" fill="#ED712E"/>
</g>
<defs>
<clipPath id="clip0_1018_8346">
<rect width="14" height="14" fill="white"/>
</clipPath>
</defs>
</svg>
