<svg width="48" height="48" viewBox="0 0 48 48" fill="none" xmlns="http://www.w3.org/2000/svg">
<path d="M47.9999 24C47.9999 10.7438 37.2561 0 23.9999 0C10.7436 0 -0.00012207 10.7438 -0.00012207 24C-0.00012207 37.2562 10.7436 48 23.9999 48C24.1405 48 24.2811 48 24.4218 47.9906V29.3156H19.2655V23.3063H24.4218V18.8812C24.4218 13.7531 27.553 10.9594 32.128 10.9594C34.3218 10.9594 36.2061 11.1188 36.7499 11.1938V16.5563H33.5999C31.1155 16.5563 30.628 17.7375 30.628 19.4719V23.2969H36.5811L35.803 29.3063H30.628V47.0719C40.6593 44.1938 47.9999 34.9594 47.9999 24Z" fill="#ED712E"/>
</svg>
