<svg width="32" height="32" viewBox="0 0 32 32" fill="none" xmlns="http://www.w3.org/2000/svg">
<path d="M25.6004 16.234C25.6004 15.5727 25.5364 14.89 25.4298 14.25H16.1924V18.026H21.4831C21.2698 19.242 20.5658 20.3087 19.5204 20.9913L22.6778 23.4447C24.5338 21.7167 25.6004 19.1993 25.6004 16.234Z" fill="white"/>
<path d="M16.192 25.7918C18.8373 25.7918 21.056 24.9171 22.6773 23.4238L19.52 20.9918C18.6453 21.5891 17.5147 21.9304 16.192 21.9304C13.632 21.9304 11.4773 20.2024 10.688 17.8984L7.44534 20.3944C9.10934 23.7011 12.48 25.7918 16.192 25.7918Z" fill="white"/>
<path d="M10.688 17.8775C10.2827 16.6615 10.2827 15.3388 10.688 14.1228L7.44533 11.6055C6.05867 14.3788 6.05867 17.6428 7.44533 20.3948L10.688 17.8775Z" fill="white"/>
<path d="M16.192 10.0901C17.5787 10.0687 18.944 10.6021 19.9467 11.5621L22.7413 8.74607C20.9707 7.08207 18.624 6.18607 16.192 6.2074C12.48 6.2074 9.10934 8.29807 7.44534 11.6047L10.688 14.1221C11.4773 11.7967 13.632 10.0901 16.192 10.0901Z" fill="white"/>
</svg>
