<svg width="32" height="32" viewBox="0 0 32 32" fill="none" xmlns="http://www.w3.org/2000/svg">
<path d="M16 4C9.37252 4 4 9.37252 4 16C4 22.6275 9.37252 28 16 28C22.6275 28 28 22.6275 28 16C28 9.37252 22.6275 4 16 4ZM16 23.0343C12.1151 23.0343 8.96568 19.8848 8.96568 16C8.96568 12.1151 12.115 8.96568 16 8.96568C19.885 8.96568 23.0343 12.115 23.0343 16C23.0343 19.885 19.885 23.0343 16 23.0343Z" stroke="#201F1F" stroke-miterlimit="10"/>
<path d="M9.78466 19.2892L6.18121 22.8926C6.9801 24.0287 7.97084 25.0194 9.10724 25.8187L12.7107 22.2152C11.4663 21.5553 10.4446 20.5336 9.78466 19.2892Z" stroke="#201F1F" stroke-miterlimit="10"/>
<path d="M22.8911 6.18025L19.2873 9.78405C20.5319 10.444 21.5534 11.4657 22.2133 12.7101L25.8171 9.10663C25.0179 7.96969 24.0273 6.97914 22.8911 6.18025Z" stroke="#201F1F" stroke-miterlimit="10"/>
<path d="M22.2641 19.1928C21.6223 20.4486 20.6189 21.4879 19.3856 22.1665L22.979 25.7599C24.1081 24.9514 25.0909 23.953 25.8807 22.8099L22.2641 19.1928Z" stroke="#201F1F" stroke-miterlimit="10"/>
<path d="M9.83465 12.6159C10.5128 11.3825 11.5522 10.3792 12.8084 9.73732L9.19176 6.12072C8.04828 6.91047 7.05031 7.89358 6.2417 9.02239L9.83465 12.6159Z" stroke="#201F1F" stroke-miterlimit="10"/>
</svg>
