<svg width="24" height="24" viewBox="0 0 24 24" fill="none" xmlns="http://www.w3.org/2000/svg">
<path fill-rule="evenodd" clip-rule="evenodd" d="M17.6245 6.49973C17.6245 3.4621 15.1061 1 11.9994 1C8.89273 1 6.37433 3.46229 6.37433 6.49973C6.37433 9.53736 8.89273 11.9999 11.9994 11.9999C15.1061 11.9999 17.6245 9.53745 17.6245 6.49973ZM11.9994 3.1997C13.8634 3.1997 15.3744 4.67717 15.3744 6.49973C15.3744 8.32229 13.8634 9.79976 11.9994 9.79976C10.1355 9.79976 8.62446 8.32229 8.62446 6.49973C8.62446 4.67717 10.1355 3.1997 11.9994 3.1997Z" fill="#201F1F"/>
<path d="M12 15.3C15.7279 15.3 18.75 18.255 18.75 21.9001C18.75 22.5076 19.2536 23 19.8749 23C20.4962 23 21 22.5076 21 21.9001C21 17.0401 16.9706 13.0999 12 13.0999C11.3786 13.0999 10.875 13.5925 10.875 14.2C10.875 14.8075 11.3786 15.2999 12 15.2999L12 15.3Z" fill="#201F1F"/>
<path d="M11.6705 19.3779L9.42062 21.5778C8.98123 22.0074 8.26894 22.0074 7.82957 21.5778C7.39037 21.1483 7.39037 20.4519 7.82957 20.0222L8.15915 19.7H4.12521C3.50388 19.7 3.00009 19.2076 3.00009 18.6C3.00009 17.9925 3.50388 17.5001 4.12521 17.5001H8.15915L7.82957 17.1778C7.39037 16.7482 7.39037 16.0517 7.82957 15.6223C8.26895 15.1926 8.98125 15.1926 9.42062 15.6223L11.6705 17.8222C12.1098 18.2518 12.1098 18.9483 11.6705 19.3779Z" fill="#201F1F"/>
</svg>
