<svg width="32" height="32" viewBox="0 0 32 32" fill="none" xmlns="http://www.w3.org/2000/svg">
<path fill-rule="evenodd" clip-rule="evenodd" d="M16.2157 4C16.0791 4 15.9432 4.05125 15.8386 4.15518L7.28998 12.7051C7.08141 12.9137 7.08194 13.2512 7.28998 13.4592C7.49802 13.6678 7.83554 13.6678 8.04408 13.4592L16.216 5.28734L17.7504 6.82178C16.6176 8.31358 16.7142 10.4266 18.0433 11.7562C19.3729 13.0858 21.487 13.1828 22.9786 12.0501L24.3568 13.4283C24.5648 13.6363 24.9023 13.6363 25.1109 13.4283C25.3195 13.2197 25.3189 12.8812 25.1109 12.6731L23.3818 10.944C23.1737 10.7354 22.8346 10.7354 22.6266 10.944C21.5568 12.0138 19.8405 12.0453 18.7973 11.0022C17.7541 9.95902 17.786 8.24277 18.856 7.17292C19.0641 6.96488 19.0641 6.62736 18.856 6.41882L16.5932 4.15651C16.4893 4.05258 16.3526 4.00026 16.216 4.00026L16.2157 4ZM5.53364 14.4677C5.23917 14.4677 5.00024 14.7066 5.00024 15.0011V18.2011C5.00024 18.4955 5.23917 18.7344 5.53364 18.7344C7.04669 18.7344 8.28239 19.9259 8.28239 21.4011C8.28239 22.8763 7.04669 24.0677 5.53364 24.0677C5.23917 24.0677 5.00024 24.3066 5.00024 24.6011V27.8011C5.00024 28.0955 5.23917 28.3344 5.53364 28.3344H26.8671C27.1616 28.3344 27.4005 28.0955 27.4005 27.8011V24.6011C27.4005 24.3066 27.1616 24.0677 26.8671 24.0677C25.3541 24.0677 24.1184 22.8763 24.1184 21.4011C24.1184 19.9259 25.3541 18.7344 26.8671 18.7344C27.1616 18.7344 27.4005 18.4955 27.4005 18.2011V15.0011C27.4005 14.7066 27.1616 14.4677 26.8671 14.4677H5.53364ZM6.06703 15.5343H11.5651V17.4009C11.5651 17.6953 11.8035 17.9343 12.0985 17.9343C12.3929 17.9343 12.6319 17.6953 12.6319 17.4009V15.5343H26.3338V17.7039C24.4777 17.9578 23.0517 19.5211 23.0517 21.4011C23.0517 23.2811 24.4777 24.8443 26.3338 25.0982V27.2678H12.6319V25.4012C12.6319 25.1068 12.3929 24.8678 12.0985 24.8678C11.8035 24.8678 11.5651 25.1068 11.5651 25.4012V27.2678H6.06703V25.0982C7.92312 24.8443 9.34918 23.2811 9.34918 21.4011C9.34918 19.5211 7.92312 17.9579 6.06703 17.7039V15.5343ZM16.2005 17.6687C15.9061 17.6687 15.6671 17.9066 15.6671 18.2011V24.6011C15.6671 24.8955 15.9061 25.1334 16.2005 25.1334C16.495 25.1334 16.7339 24.8955 16.7339 24.6011V18.2011C16.7339 17.9066 16.495 17.6687 16.2005 17.6687ZM19.4827 17.6687C19.1882 17.6687 18.9493 17.9066 18.9493 18.2011V24.6011C18.9493 24.8955 19.1882 25.1334 19.4827 25.1334C19.7777 25.1334 20.0161 24.8955 20.0161 24.6011V18.2011C20.0161 17.9066 19.7777 17.6687 19.4827 17.6687ZM12.0989 20.0677C11.8039 20.0677 11.5655 20.3066 11.5655 20.6011V22.2011C11.5655 22.4955 11.8039 22.7344 12.0989 22.7344C12.3934 22.7344 12.6323 22.4955 12.6323 22.2011V20.6011C12.6323 20.3066 12.3934 20.0677 12.0989 20.0677Z" fill="black"/>
</svg>
