<svg width="93" height="29" viewBox="0 0 93 29" fill="none" xmlns="http://www.w3.org/2000/svg">
<path d="M57.6826 21.9287C52.2847 25.9074 44.4607 28.0302 37.7244 28.0302C28.2791 28.0302 19.7758 24.5367 13.3428 18.7263C12.8373 18.2694 13.2902 17.6467 13.8967 18.0025C20.8392 22.0419 29.4233 24.472 38.2905 24.472C44.2707 24.472 50.8493 23.2347 56.8982 20.6671C57.812 20.279 58.5762 21.2656 57.6826 21.9287Z" fill="#FF9900"/>
<path d="M59.927 19.3612C59.2396 18.4797 55.366 18.9447 53.6274 19.1509C53.0977 19.2156 53.0168 18.7547 53.4939 18.4231C56.579 16.2518 61.6414 16.8785 62.2317 17.6064C62.822 18.3382 62.0781 23.4127 59.1789 25.8347C58.7342 26.2067 58.3096 26.0085 58.5077 25.5152C59.1587 23.8898 60.6184 20.2467 59.927 19.3612Z" fill="#FF9900"/>
<path d="M53.7485 3.09457V0.983923C53.7485 0.664495 53.9911 0.450195 54.2822 0.450195H63.7316C64.0349 0.450195 64.2775 0.668539 64.2775 0.983923V2.79132C64.2734 3.09457 64.0187 3.49083 63.5658 4.11755L58.6693 11.1086C60.4888 11.0641 62.4094 11.335 64.0591 12.265C64.4311 12.4752 64.5322 12.7825 64.5605 13.0858V15.338C64.5605 15.6453 64.2209 16.0051 63.865 15.8191C60.9578 14.2948 57.0964 14.129 53.8819 15.8353C53.5544 16.0132 53.2107 15.6574 53.2107 15.3501V13.2111C53.2107 12.8675 53.2147 12.2812 53.5584 11.7596L59.2313 3.62426H54.2943C53.9911 3.62426 53.7485 3.40996 53.7485 3.09457Z" fill="#221F1F"/>
<path d="M19.2784 16.2638H16.4035C16.1286 16.2436 15.9102 16.0374 15.89 15.7746V1.02023C15.89 0.72506 16.1367 0.490541 16.444 0.490541H19.1247C19.4037 0.502663 19.6261 0.716971 19.6463 0.983834V2.91254H19.6989C20.3984 1.04853 21.7125 0.179199 23.4835 0.179199C25.2828 0.179199 26.4069 1.04853 27.2156 2.91254C27.911 1.04853 29.492 0.179199 31.1862 0.179199C32.3911 0.179199 33.7093 0.676536 34.5139 1.79251C35.4237 3.03383 35.2377 4.83719 35.2377 6.41816L35.2336 15.7301C35.2336 16.0253 34.987 16.2638 34.6797 16.2638H31.8089C31.5218 16.2436 31.2913 16.0131 31.2913 15.7301V7.91017C31.2913 7.28749 31.3479 5.73482 31.2104 5.14449C30.9961 4.15386 30.3532 3.87486 29.5203 3.87486C28.8248 3.87486 28.097 4.33985 27.8019 5.08384C27.5067 5.82782 27.535 7.07318 27.535 7.91017V15.7301C27.535 16.0253 27.2883 16.2638 26.981 16.2638H24.1102C23.8191 16.2436 23.5927 16.0131 23.5927 15.7301L23.5886 7.91017C23.5886 6.26451 23.8595 3.84251 21.8176 3.84251C19.7515 3.84251 19.8323 6.20385 19.8323 7.91017V15.7301C19.8323 16.0253 19.5857 16.2638 19.2784 16.2638Z" fill="#221F1F"/>
<path d="M72.4128 0.179199C76.6786 0.179199 78.9873 3.84251 78.9873 8.5005C78.9873 13.0008 76.436 16.5711 72.4128 16.5711C68.2238 16.5711 65.9434 12.9078 65.9434 8.34281C65.9434 3.74952 68.2521 0.179199 72.4128 0.179199ZM72.4371 3.19153C70.3183 3.19153 70.1849 6.07851 70.1849 7.87782C70.1849 9.68118 70.1566 13.5305 72.4128 13.5305C74.6407 13.5305 74.7458 10.4252 74.7458 8.53285C74.7458 7.28749 74.6933 5.79952 74.3172 4.61884C73.9938 3.59183 73.3509 3.19153 72.4371 3.19153Z" fill="#221F1F"/>
<path d="M84.5187 16.2638H81.656C81.3689 16.2436 81.1384 16.0131 81.1384 15.7301L81.1344 0.971704C81.1587 0.700797 81.3972 0.490541 81.6883 0.490541H84.3529C84.6036 0.502663 84.8098 0.672494 84.8664 0.902967V3.15918H84.919C85.7236 1.14153 86.8518 0.179199 88.8371 0.179199C90.1269 0.179199 91.3844 0.64419 92.1931 1.91786C92.9452 3.09853 92.9452 5.08384 92.9452 6.51115V15.7988C92.9128 16.0576 92.6742 16.2638 92.3912 16.2638H89.5083C89.2454 16.2436 89.0271 16.0495 88.9988 15.7988V7.78482C88.9988 6.17151 89.1848 3.81017 87.1995 3.81017C86.5 3.81017 85.8571 4.2792 85.5377 4.99084C85.1333 5.89252 85.0808 6.79015 85.0808 7.78482V15.7301C85.0767 16.0253 84.826 16.2638 84.5187 16.2638Z" fill="#221F1F"/>
<path d="M46.2155 9.21622V8.59354C44.1372 8.59354 41.9417 9.03831 41.9417 11.4886C41.9417 12.7299 42.5846 13.571 43.6884 13.571C44.4971 13.571 45.2209 13.0736 45.6778 12.2649C46.2438 11.2703 46.2155 10.3362 46.2155 9.21622ZM49.1147 16.2234C48.9246 16.3932 48.6497 16.4054 48.4354 16.2922C47.4811 15.4997 47.3113 15.1317 46.7857 14.3756C45.2087 15.9849 44.0928 16.466 42.0468 16.466C39.6288 16.466 37.7446 14.974 37.7446 11.986C37.7446 9.65291 39.0102 8.06386 40.8095 7.28753C42.3703 6.60015 44.5497 6.47885 46.2155 6.28881V5.91681C46.2155 5.23348 46.2681 4.4248 45.8678 3.83447C45.516 3.30478 44.8448 3.08644 44.2545 3.08644C43.1587 3.08644 42.1802 3.64847 41.9417 4.81297C41.8931 5.07175 41.7031 5.32648 41.4443 5.33861L38.6544 5.0394C38.4199 4.98684 38.1611 4.79679 38.2258 4.43693C38.8687 1.05666 41.9215 0.0377197 44.6548 0.0377197C46.0538 0.0377197 47.8814 0.409712 48.9853 1.46908C50.3843 2.7751 50.2508 4.5178 50.2508 6.41415V10.8942C50.2508 12.2407 50.8088 12.831 51.3345 13.5588C51.5205 13.8176 51.5609 14.1289 51.3264 14.323C50.7401 14.8123 49.6969 15.722 49.1227 16.2315L49.1147 16.2234Z" fill="#221F1F"/>
<path d="M8.52633 9.21622V8.59354C6.44802 8.59354 4.25246 9.03831 4.25246 11.4886C4.25246 12.7299 4.89536 13.571 5.99921 13.571C6.80789 13.571 7.53165 13.0736 7.98856 12.2649C8.55463 11.2703 8.52633 10.3362 8.52633 9.21622ZM11.4254 16.2234C11.2354 16.3932 10.9605 16.4054 10.7462 16.2922C9.79191 15.4997 9.62209 15.1317 9.09645 14.3756C7.51952 15.9849 6.40355 16.466 4.35759 16.466C1.93964 16.466 0.0554199 14.974 0.0554199 11.986C0.0554199 9.65291 1.321 8.06386 3.12031 7.28753C4.68106 6.60015 6.86045 6.47885 8.52633 6.28881V5.91681C8.52633 5.23348 8.57889 4.4248 8.1786 3.83447C7.82682 3.30478 7.15562 3.08644 6.56528 3.08644C5.46952 3.08644 4.49102 3.64847 4.25246 4.81297C4.20394 5.07175 4.0139 5.32648 3.75513 5.33861L0.965184 5.0394C0.730666 4.98684 0.471889 4.79679 0.536583 4.43693C1.17948 1.05666 4.23224 0.0377197 6.96558 0.0377197C8.36459 0.0377197 10.1922 0.409712 11.2961 1.46908C12.6951 2.7751 12.5616 4.5178 12.5616 6.41415V10.8942C12.5616 12.2407 13.1196 12.831 13.6453 13.5588C13.8313 13.8176 13.8717 14.1289 13.6372 14.323C13.0509 14.8123 12.0077 15.722 11.4335 16.2315L11.4254 16.2234Z" fill="#221F1F"/>
</svg>
