<svg width="101" height="17" viewBox="0 0 101 17" fill="none" xmlns="http://www.w3.org/2000/svg">
<path d="M4.54462 -0.00012207H0V4.57471H4.54462V-0.00012207Z" fill="#4F78BA"/>
<path d="M10.3902 -0.000244141H5.84363V4.57459H10.3902V-0.000244141Z" fill="#4F78BA"/>
<path d="M16.2339 -0.000244141H11.6874V4.57459H16.2339V-0.000244141Z" fill="#4F78BA"/>
<path d="M4.54462 5.91772H0V10.4927H4.54462V5.91772Z" fill="#4F78BA"/>
<path d="M10.3902 5.91772H5.84363V10.4927H10.3902V5.91772Z" fill="#4F78BA"/>
<path d="M16.2339 5.91772H11.6874V10.4927H16.2339V5.91772Z" fill="#4F78BA"/>
<path d="M4.54462 11.8357H0V16.4109H4.54462V11.8357Z" fill="#4F78BA"/>
<path d="M10.3902 11.8357H5.84363V16.4109H10.3902V11.8357Z" fill="#4F78BA"/>
<path d="M16.2339 11.8357H11.6874V16.4109H16.2339V11.8357Z" fill="#4F78BA" fill-opacity="0.5"/>
<path d="M25.5281 14.9004C26.4934 15.392 27.4354 15.591 28.2729 15.591C30.4128 15.591 32.4016 14.327 32.4016 11.1782C32.39 8.40404 30.8547 6.81211 28.8891 6.81211C27.5518 6.81211 26.3423 7.54969 25.5281 8.45083V14.9004ZM25.5281 7.06961C26.4004 6.29712 27.6099 5.73535 28.9939 5.73535C31.3199 5.73535 33.5646 7.32728 33.5646 11.1665C33.5646 15.1345 31.0408 16.6327 28.3426 16.6327C26.8191 16.6327 25.4119 16.1528 24.3651 15.5443V-0.000244141H25.5281V7.06961Z" fill="#4F78BA"/>
<path d="M36.7728 -0.000244141H35.6562V16.4571H36.7728V-0.000244141Z" fill="#4F78BA"/>
<path d="M40.6816 12.3438C40.6816 14.8488 41.9027 15.5277 43.124 15.5277C44.4962 15.5277 45.7523 14.6614 46.7292 13.2217V5.9176H47.8922V16.4524H46.7292V14.4156C45.8104 15.7265 44.3451 16.6161 42.7517 16.6161C41.1003 16.6161 39.5186 15.668 39.5186 12.4608V5.9176H40.6816V12.3438Z" fill="#4F78BA"/>
<path d="M58.478 10.4781C58.5245 8.64036 57.2569 6.89637 55.0936 6.82602C53.0002 6.75584 51.3487 8.32438 51.2093 10.4781H58.478ZM58.9548 15.7455C58.0477 16.2371 56.7452 16.7053 55.2216 16.6466C51.7093 16.5297 49.9066 13.7555 50.023 10.7941C50.1508 7.48154 52.5932 5.6789 55.1983 5.77265C58.0128 5.84282 59.9317 8.11367 59.5597 11.4379H51.1626C51.151 13.3928 52.5233 15.4761 55.2797 15.5699C56.5008 15.6166 57.629 15.2537 58.5477 14.7621L58.9548 15.7455Z" fill="#4F78BA"/>
<path d="M63.3633 7.97093C64.224 6.65988 65.608 5.74687 67.2013 5.74687C69.2948 5.74687 70.5275 7.3388 70.5275 9.69152V16.4454H69.3761V9.93731C69.3761 7.65495 68.2131 6.8472 66.9569 6.83551C65.4335 6.82381 64.0728 8.01771 63.3633 9.21162V16.4454H62.2003V-0.000244141H63.3633V7.97093Z" fill="#4F78BA"/>
<path d="M73.577 11.1886C73.577 13.5179 74.9261 15.543 77.4382 15.543C79.8688 15.543 81.3109 13.5062 81.3109 11.1886C81.3109 8.84759 79.8805 6.85763 77.4382 6.85763C74.9377 6.85763 73.577 8.84759 73.577 11.1886ZM82.4739 11.1886C82.4739 14.6768 80.1247 16.6314 77.4382 16.6314C74.426 16.6314 72.4023 14.1968 72.4023 11.1886C72.4023 7.99305 74.6354 5.76917 77.4382 5.76917C80.1363 5.76917 82.4739 7.78234 82.4739 11.1886Z" fill="#4F78BA"/>
<path d="M85.1949 14.6547C86.0672 15.2401 87.0441 15.5444 87.9861 15.5444C89.0794 15.5444 90.4401 15.0879 90.4285 13.9758C90.4285 13.0277 89.4282 12.2903 87.8232 11.6582C86.044 10.9442 84.4855 10.2887 84.4855 8.60317C84.4855 6.91767 86.0556 5.79395 88.1141 5.79395C89.1956 5.79395 90.1841 6.10992 91.0216 6.55473L90.5796 7.47944C89.9167 7.12838 89.091 6.85919 88.149 6.85919C86.416 6.85919 85.6369 7.71355 85.6369 8.60317C85.6369 9.73859 86.9161 10.16 88.5327 10.8272C91.0564 11.8221 91.5915 12.9575 91.5915 13.929C91.5915 15.5795 90.0563 16.6211 88.021 16.6211C86.8696 16.6211 85.7415 16.2818 84.6948 15.6613L85.1949 14.6547Z" fill="#4F78BA"/>
<path d="M99.2074 5.91176V6.90665H95.7416V12.6656C95.7416 14.3628 96.4627 15.4632 97.9863 15.5216C98.6376 15.5567 99.3354 15.393 99.9517 15.1119L100.289 16.1421C99.5913 16.4113 98.7887 16.622 97.963 16.6103C96.0788 16.6103 94.5786 15.4515 94.5786 12.7475V6.90665H92.7062V5.91176H94.5786V2.37683H95.7416V5.91176H99.2074Z" fill="#4F78BA"/>
</svg>
