<svg width="104" height="23" viewBox="0 0 104 23" fill="none" xmlns="http://www.w3.org/2000/svg">
<g clip-path="url(#clip0_935_416)">
<mask id="mask0_935_416" style="mask-type:luminance" maskUnits="userSpaceOnUse" x="0" y="0" width="16" height="3">
<path d="M0 2.89165V0.490234H15.2968V2.89165H0H0Z" fill="#6DBE45"/>
</mask>
<g mask="url(#mask0_935_416)">
<path fill-rule="evenodd" clip-rule="evenodd" d="M-0.000976562 2.89165H12.1492C12.6033 2.89165 13.029 2.71659 13.3482 2.39753L15.2964 0.490234H3.02558C1.69037 0.490234 0.296996 1.65776 -0.000976562 2.89165Z" fill="#6DBE45"/>
</g>
<path fill-rule="evenodd" clip-rule="evenodd" d="M1.75195 7.20134H7.8079C8.26053 7.20134 8.68763 7.02628 9.00689 6.70863L10.9536 4.79993H4.77709C3.44189 4.79993 2.04851 5.96746 1.75195 7.20134Z" fill="#6DBE45"/>
<path fill-rule="evenodd" clip-rule="evenodd" d="M11.1457 16.0553L5.60769 21.5485C5.01458 22.1541 4.18451 22.5339 3.26364 22.5339C1.46161 22.5339 0.00012207 21.084 0.00012207 19.2939C0.00012207 17.5052 1.46161 16.0553 3.26364 16.0553H11.1457Z" fill="#309046"/>
<mask id="mask1_935_416" style="mask-type:luminance" maskUnits="userSpaceOnUse" x="2" y="0" width="21" height="16">
<path d="M2.26855 0.411499H22.2143V15.6231H2.26855V0.411499Z" fill="#6CB845"/>
</mask>
<g mask="url(#mask1_935_416)">
<path fill-rule="evenodd" clip-rule="evenodd" d="M18.9494 0.411377C18.0342 0.411377 17.1559 0.796789 16.5386 1.46738L2.26855 15.6231C2.58639 15.537 2.91984 15.4904 3.26322 15.4904H11.6363L21.2579 5.94126C21.8752 5.32997 22.2143 4.51679 22.2143 3.65138C22.2143 1.86408 20.75 0.411377 18.9494 0.411377Z" fill="#6CB845"/>
</g>
<mask id="mask2_935_416" style="mask-type:luminance" maskUnits="userSpaceOnUse" x="5" y="16" width="18" height="7">
<path d="M5.12012 22.5337H22.2337V16.0553H5.12012V22.5337Z" fill="#6DBE45"/>
</mask>
<g mask="url(#mask2_935_416)">
<path fill-rule="evenodd" clip-rule="evenodd" d="M11.4939 16.3998L5.95586 21.8929C5.95586 21.8929 5.39681 22.4548 5.12012 22.5339H22.2337C21.9017 18.8831 18.7985 16.0553 15.0355 16.0553H12.7326H11.8401L11.4939 16.3998Z" fill="#6DBE45"/>
</g>
<path fill-rule="evenodd" clip-rule="evenodd" d="M44.8302 8.5816C44.8302 9.95242 45.7951 10.911 47.0849 10.911C48.3733 10.911 49.3481 9.95242 49.3481 8.5816C49.3481 7.21077 48.3733 6.25218 47.0849 6.25218C45.7951 6.25218 44.8302 7.21077 44.8302 8.5816ZM51.6893 8.5816C51.6893 11.1298 49.7326 13.0315 47.0849 13.0315C44.4443 13.0315 42.4961 11.1298 42.4961 8.5816C42.4961 6.03336 44.4443 4.13171 47.0849 4.13171C49.7326 4.13171 51.6893 6.03336 51.6893 8.5816Z" fill="#424143"/>
<path fill-rule="evenodd" clip-rule="evenodd" d="M54.9424 8.58147C54.9424 9.9523 55.9073 10.9109 57.1956 10.9109C58.4854 10.9109 59.4588 9.9523 59.4588 8.58147C59.4588 7.21065 58.4854 6.25206 57.1956 6.25206C55.9073 6.25206 54.9424 7.21065 54.9424 8.58147ZM61.8 8.58147C61.8 11.1297 59.8448 13.0314 57.1956 13.0314C54.5565 13.0314 52.6083 11.1297 52.6083 8.58147C52.6083 6.03324 54.5565 4.13159 57.1956 4.13159C59.8448 4.13159 61.8 6.03324 61.8 8.58147Z" fill="#424143"/>
<path fill-rule="evenodd" clip-rule="evenodd" d="M77.0177 7.43028V12.8133H75.6257C75.1348 12.8133 74.7375 12.418 74.7375 11.931V8.16298C74.7375 6.94039 74.1146 6.2698 73.0802 6.2698C72.0969 6.2698 71.281 6.90651 71.281 8.17992V12.8133H69.8805C69.3896 12.8133 68.9923 12.418 68.9923 11.931V8.16298C68.9923 6.94039 68.3779 6.2698 67.335 6.2698C66.3517 6.2698 65.5358 6.90651 65.5358 8.17992V12.8133H64.1353C63.6444 12.8133 63.2471 12.418 63.2471 11.931V4.35828H64.5865C65.0775 4.35828 65.4748 4.75357 65.4748 5.24063V5.35216C66.0806 4.45428 67.01 4.13098 67.9749 4.13098C69.2023 4.13098 70.2111 4.68157 70.7801 5.57945C71.4385 4.50651 72.5538 4.13098 73.6676 4.13098C75.6669 4.13098 77.0177 5.4651 77.0177 7.43028Z" fill="#424143"/>
<path fill-rule="evenodd" clip-rule="evenodd" d="M86.3304 5.72769L84.6816 7.09851C84.1651 6.54792 83.6118 6.25145 82.8668 6.25145C81.682 6.25145 80.7356 7.17616 80.7356 8.58086C80.7356 9.99404 81.6735 10.9117 82.8569 10.9117C83.5933 10.9117 84.2262 10.5799 84.7072 10.0562L86.3389 11.4439C85.5401 12.4646 84.3496 13.0322 82.9278 13.0322C80.2163 13.0322 78.4015 11.1475 78.4015 8.58086C78.4015 6.02416 80.2163 4.13098 82.9278 4.13098C84.3496 4.13098 85.55 4.70698 86.3304 5.72769Z" fill="#424143"/>
<path fill-rule="evenodd" clip-rule="evenodd" d="M89.2074 8.5816C89.2074 9.87336 90.0588 10.911 91.3997 10.911C92.7065 10.911 93.5933 9.91571 93.5933 8.5816C93.5933 7.24748 92.7065 6.25218 91.3997 6.25218C90.0588 6.25218 89.2074 7.28983 89.2074 8.5816ZM95.7586 12.8141H94.4106C93.9197 12.8141 93.5224 12.4188 93.5224 11.9303V11.8809C92.969 12.5599 92.1446 13.0315 90.9782 13.0315C88.637 13.0315 86.8662 11.1214 86.8662 8.5816C86.8662 6.04183 88.637 4.13171 90.9782 4.13171C92.1446 4.13171 92.9619 4.60324 93.5224 5.29218V4.35901H95.7586V12.8141Z" fill="#424143"/>
<mask id="mask3_935_416" style="mask-type:luminance" maskUnits="userSpaceOnUse" x="97" y="4" width="7" height="9">
<path d="M103.65 4.1156V12.8064H97.8369V4.1156H103.65Z" fill="#424143"/>
</mask>
<g mask="url(#mask3_935_416)">
<path fill-rule="evenodd" clip-rule="evenodd" d="M103.65 4.29913L103.308 6.56219C102.929 6.39419 102.385 6.28972 101.921 6.28972C100.858 6.28972 100.13 6.93631 100.13 8.19419V12.8064H98.7266C98.237 12.8064 97.8369 12.4111 97.8369 11.9212V4.34148H99.1707C99.6602 4.34148 100.059 4.73819 100.059 5.22666V5.26901C100.595 4.47278 101.411 4.1156 102.455 4.1156C102.948 4.1156 103.334 4.18478 103.65 4.29913Z" fill="#424143"/>
</g>
<path fill-rule="evenodd" clip-rule="evenodd" d="M41.7411 0.593384L34.3883 0.596207C33.1439 0.596207 32.1351 1.59997 32.1351 2.8395H38.4946L31.5547 11.6249C31.1759 12.1077 31.5207 12.8136 32.1351 12.8136H41.7482C41.7482 11.5741 40.7394 10.5703 39.4936 10.5703H35.3716L42.3186 1.77644C42.6989 1.29644 42.3555 0.593384 41.7411 0.593384Z" fill="#424143"/>
<path fill-rule="evenodd" clip-rule="evenodd" d="M37.9239 20.8297C37.8161 20.5036 37.694 20.152 37.555 19.7737C37.4173 19.3967 37.2698 19.0198 37.1151 18.6428C36.959 18.2659 36.7987 17.8988 36.6327 17.5417C36.4667 17.1831 36.2978 16.857 36.1275 16.5577L35.1002 20.8297H34.0488L35.4564 14.9779H36.3148C36.4738 15.232 36.6384 15.5214 36.8115 15.849C36.9832 16.1751 37.1506 16.5167 37.3138 16.8739C37.4784 17.2311 37.6359 17.5897 37.7877 17.9511C37.9409 18.3111 38.0729 18.6513 38.1878 18.9732L39.1314 14.9779H40.1913L38.7823 20.8297H37.9239Z" fill="#424143"/>
<path fill-rule="evenodd" clip-rule="evenodd" d="M42.7795 17.1403C42.6106 17.1403 42.4489 17.1728 42.2956 17.2406C42.1438 17.3083 42.0076 17.4029 41.8884 17.5201C41.7692 17.6387 41.667 17.777 41.5791 17.9366C41.4911 18.0989 41.4272 18.2712 41.3889 18.4575C42.0672 18.4349 42.561 18.353 42.8689 18.2119C43.1768 18.0707 43.3314 17.8603 43.3314 17.5794C43.3314 17.4664 43.2903 17.3648 43.208 17.2759C43.1257 17.1841 42.9838 17.1403 42.7795 17.1403ZM40.3105 19.2326C40.3105 18.857 40.3716 18.4928 40.4936 18.1399C40.6156 17.7883 40.7901 17.4763 41.0186 17.2039C41.2485 16.9314 41.5237 16.7126 41.8472 16.5488C42.1679 16.3864 42.5312 16.3046 42.9313 16.3046C43.3626 16.3046 43.6961 16.4133 43.933 16.6335C44.1714 16.8537 44.2892 17.1347 44.2892 17.4777C44.2892 17.8321 44.2026 18.1187 44.0267 18.3389C43.8522 18.5592 43.6251 18.73 43.3428 18.8542C43.0633 18.9784 42.7483 19.0617 42.3949 19.1083C42.0402 19.1521 41.6826 19.1803 41.3208 19.1916C41.3151 19.2029 41.3123 19.2142 41.3123 19.2255V19.3102C41.3123 19.8213 41.6358 20.0782 42.2871 20.0782C42.673 20.0782 43.0562 19.9992 43.4421 19.841L43.5258 20.6697C43.391 20.7304 43.198 20.7926 42.9497 20.8547C42.7 20.9168 42.4176 20.9479 42.0998 20.9479C41.7848 20.9479 41.5124 20.9027 41.2853 20.8137C41.0597 20.722 40.8739 20.5992 40.7305 20.441C40.5858 20.2843 40.4808 20.1022 40.4127 19.8961C40.3446 19.6914 40.3105 19.4697 40.3105 19.2326Z" fill="#424143"/>
<path fill-rule="evenodd" clip-rule="evenodd" d="M45.591 20.8295C45.4462 20.2549 45.3185 19.5899 45.2022 18.8332C45.0872 18.0765 45.012 17.2704 44.9766 16.4135H46.0308C46.0351 16.6619 46.045 16.9287 46.0592 17.2153C46.0748 17.5033 46.0933 17.7913 46.116 18.0822C46.1387 18.3716 46.1656 18.6511 46.1983 18.9207C46.2295 19.1918 46.2664 19.436 46.3061 19.6563C46.4522 19.4643 46.6126 19.2342 46.7814 18.9687C46.9517 18.7005 47.1163 18.4196 47.2752 18.1231C47.4341 17.828 47.5774 17.5316 47.7094 17.2323C47.8399 16.9344 47.9435 16.6619 48.0244 16.4135H49.0943C48.958 16.8017 48.7878 17.2026 48.582 17.6135C48.3791 18.0243 48.1592 18.4238 47.9208 18.8106C47.6824 19.2003 47.437 19.5673 47.1844 19.9175C46.9318 20.2676 46.692 20.5697 46.465 20.8295H45.591Z" fill="#424143"/>
<path fill-rule="evenodd" clip-rule="evenodd" d="M51.553 17.1403C51.3842 17.1403 51.2224 17.1728 51.0692 17.2406C50.9173 17.3083 50.7811 17.4029 50.6619 17.5201C50.5428 17.6387 50.4406 17.777 50.3526 17.9366C50.2646 18.0989 50.2008 18.2712 50.1625 18.4575C50.8407 18.4349 51.3345 18.353 51.6424 18.2119C51.9503 18.0707 52.105 17.8603 52.105 17.5794C52.105 17.4664 52.0638 17.3648 51.9815 17.2759C51.8992 17.1841 51.7573 17.1403 51.553 17.1403ZM49.0841 19.2326C49.0841 18.857 49.1451 18.4928 49.2671 18.1399C49.3878 17.7883 49.5637 17.4763 49.7921 17.2039C50.022 16.9314 50.2973 16.7126 50.6208 16.5488C50.9415 16.3864 51.3047 16.3046 51.7048 16.3046C52.1362 16.3046 52.4696 16.4133 52.7066 16.6335C52.9436 16.8537 53.0628 17.1347 53.0628 17.4777C53.0628 17.8321 52.9762 18.1187 52.8003 18.3389C52.6257 18.5592 52.3987 18.73 52.1163 18.8542C51.8368 18.9784 51.5218 19.0617 51.1685 19.1083C50.8138 19.1521 50.4562 19.1803 50.0944 19.1916C50.0887 19.2029 50.0859 19.2142 50.0859 19.2255V19.3102C50.0859 19.8213 50.4094 20.0782 51.0607 20.0782C51.4466 20.0782 51.8297 19.9992 52.2157 19.841L52.2994 20.6697C52.1646 20.7304 51.9716 20.7926 51.7219 20.8547C51.4736 20.9168 51.1912 20.9479 50.8734 20.9479C50.5569 20.9479 50.2845 20.9027 50.0589 20.8137C49.8333 20.722 49.6474 20.5992 49.5041 20.441C49.3594 20.2843 49.2544 20.1022 49.1863 19.8961C49.1182 19.6914 49.0841 19.4697 49.0841 19.2326Z" fill="#424143"/>
<path fill-rule="evenodd" clip-rule="evenodd" d="M56.6027 17.3167C56.4892 17.2786 56.3672 17.2461 56.2366 17.2249C56.1047 17.2024 55.9529 17.1896 55.7769 17.1896C55.6804 17.1896 55.5783 17.1981 55.4704 17.2122C55.3626 17.2264 55.2718 17.2433 55.198 17.2673L54.3452 20.8292H53.3193L54.3367 16.6165C54.5737 16.5374 54.8319 16.4682 55.1086 16.4089C55.3867 16.3496 55.6861 16.3214 56.0082 16.3214C56.0763 16.3214 56.1529 16.3256 56.2366 16.3341C56.3232 16.3426 56.4055 16.3511 56.4878 16.3624C56.5701 16.3751 56.6453 16.3892 56.7176 16.4047C56.7872 16.4216 56.8482 16.4428 56.8993 16.464L56.6027 17.3167Z" fill="#424143"/>
<path fill-rule="evenodd" clip-rule="evenodd" d="M60.2592 20.0521C60.411 20.0521 60.5628 20.038 60.7132 20.0112C60.8636 19.9815 60.9984 19.9349 61.1205 19.8672C61.2411 19.7994 61.3404 19.7076 61.4128 19.5933C61.4865 19.4775 61.5248 19.3321 61.5248 19.1571C61.5248 19.0272 61.4951 18.9171 61.4383 18.8239C61.3815 18.7307 61.3049 18.6488 61.2099 18.5754C61.1148 18.502 61.0041 18.4342 60.8821 18.3693C60.7615 18.3044 60.6323 18.2352 60.4961 18.1618C60.3486 18.0884 60.2095 18.0051 60.0761 17.9119C59.9428 17.8201 59.8264 17.7142 59.7242 17.5956C59.6235 17.4785 59.5426 17.3401 59.483 17.182C59.4234 17.0239 59.3936 16.8389 59.3936 16.6244C59.3936 16.366 59.4433 16.1288 59.5426 15.9114C59.6405 15.6954 59.7881 15.5076 59.9839 15.3495C60.1783 15.1928 60.4181 15.0686 60.7033 14.9782C60.9913 14.8893 61.3219 14.8441 61.7022 14.8441C61.8782 14.8441 62.0456 14.8568 62.2074 14.8865C62.3677 14.9133 62.5195 14.95 62.66 14.9909C62.8019 15.0333 62.9267 15.0813 63.0332 15.1307C63.141 15.1815 63.2261 15.2295 63.2886 15.2733L62.8217 16.0836C62.704 15.9891 62.5365 15.9072 62.3251 15.8408C62.1137 15.7731 61.881 15.7378 61.6256 15.7378C61.4723 15.7378 61.3276 15.7533 61.1886 15.7858C61.0495 15.8154 60.9289 15.8634 60.8225 15.9284C60.7189 15.9933 60.638 16.078 60.5784 16.1825C60.5188 16.2855 60.4876 16.4084 60.4876 16.5495C60.4876 16.678 60.5103 16.7867 60.5515 16.87C60.594 16.9547 60.6536 17.0281 60.7303 17.0931C60.8069 17.158 60.8949 17.2173 60.9984 17.2709C61.0992 17.3246 61.2099 17.3839 61.329 17.4516C61.5036 17.5491 61.6696 17.6436 61.8257 17.7396C61.9803 17.8356 62.118 17.9458 62.2371 18.0686C62.3563 18.1928 62.45 18.334 62.5209 18.4949C62.5919 18.6559 62.6273 18.8479 62.6273 19.0738C62.6273 19.3886 62.5678 19.6653 62.4486 19.9011C62.3294 20.1382 62.1634 20.3331 61.9477 20.4884C61.732 20.6422 61.478 20.7594 61.1843 20.8385C60.8892 20.9161 60.5685 20.9571 60.2166 20.9571C59.9853 20.9571 59.7711 20.9387 59.5767 20.9048C59.3809 20.8709 59.2078 20.83 59.0545 20.7792C58.9013 20.7284 58.7693 20.6747 58.6601 20.6182C58.5494 20.5618 58.4628 20.5109 58.4004 20.4672L58.8757 19.63C58.9325 19.6695 59.0077 19.7161 59.1013 19.7655C59.195 19.8164 59.3 19.8629 59.4192 19.9053C59.5384 19.9476 59.6675 19.9815 59.8094 20.0112C59.9498 20.038 60.1017 20.0521 60.2592 20.0521Z" fill="#424143"/>
<path fill-rule="evenodd" clip-rule="evenodd" d="M64.4175 15.2487L65.4859 15.0807L65.161 16.4134H66.6154L66.411 17.2576H64.9567L64.5324 19.0054C64.5054 19.1296 64.487 19.2327 64.4756 19.3146C64.4643 19.3965 64.4586 19.4699 64.4586 19.5376C64.4586 19.6054 64.4671 19.6717 64.4813 19.7367C64.4955 19.8016 64.5225 19.8581 64.565 19.9047C64.6076 19.9527 64.67 19.9922 64.7523 20.0233C64.8346 20.0529 64.9453 20.0699 65.0886 20.0699C65.2404 20.0699 65.388 20.0487 65.5285 20.0106C65.6704 19.971 65.7952 19.9287 65.9017 19.8835L65.9797 20.7023C65.8492 20.7588 65.6846 20.8125 65.4859 20.8633C65.2873 20.9141 65.056 20.9381 64.7906 20.9381C64.304 20.9381 63.9563 20.8336 63.7463 20.6233C63.5377 20.4115 63.4327 20.1235 63.4327 19.7565C63.4327 19.6223 63.4427 19.4826 63.4625 19.3386C63.4824 19.196 63.5108 19.0435 63.5519 18.8783L64.4175 15.2487Z" fill="#424143"/>
<path fill-rule="evenodd" clip-rule="evenodd" d="M69.1939 17.1651C68.974 17.1651 68.7767 17.2286 68.605 17.3556C68.4319 17.4827 68.2872 17.6437 68.1709 17.8413C68.0559 18.0375 67.9665 18.2535 67.9055 18.4865C67.8431 18.7208 67.8105 18.9467 67.8105 19.1655C67.8105 19.4479 67.8644 19.6695 67.9736 19.8333C68.0801 19.9971 68.2702 20.0775 68.5412 20.0775C68.7611 20.0775 68.9584 20.0154 69.1301 19.8884C69.3032 19.7613 69.4479 19.6018 69.5642 19.4069C69.6792 19.2121 69.7686 18.9975 69.831 18.7618C69.8934 18.5246 69.9246 18.3001 69.9246 18.0855C69.9246 17.8046 69.8707 17.5801 69.7629 17.4149C69.655 17.2484 69.4649 17.1651 69.1939 17.1651ZM68.4135 20.9486C67.8871 20.9486 67.4855 20.7919 67.2088 20.4841C66.9307 20.1735 66.7931 19.7655 66.7931 19.2587C66.7931 18.9326 66.8442 18.5952 66.9463 18.2465C67.0471 17.8978 67.2032 17.5787 67.4117 17.2921C67.6217 17.0055 67.8842 16.7684 68.2021 16.5834C68.5185 16.3971 68.8917 16.3053 69.3216 16.3053C69.848 16.3053 70.2496 16.4578 70.5263 16.7641C70.8044 17.0719 70.942 17.4785 70.942 17.9839C70.942 18.3156 70.8923 18.6573 70.7944 19.006C70.6951 19.3547 70.5419 19.6724 70.3361 19.9589C70.129 20.2469 69.8665 20.4841 69.5472 20.6691C69.2265 20.854 68.8491 20.9486 68.4135 20.9486Z" fill="#424143"/>
<path fill-rule="evenodd" clip-rule="evenodd" d="M72.586 20.0354C72.6428 20.0467 72.7024 20.0538 72.7648 20.058C72.8273 20.0609 72.8897 20.0623 72.9521 20.0623C73.2231 20.0623 73.4686 20.0086 73.6857 19.9042C73.9042 19.8011 74.0901 19.6599 74.2433 19.482C74.3952 19.3056 74.5129 19.0966 74.5952 18.858C74.6775 18.618 74.7187 18.3639 74.7187 18.0943C74.7187 17.97 74.7045 17.8529 74.6761 17.7442C74.6477 17.634 74.6009 17.5366 74.5356 17.4519C74.4704 17.3672 74.3838 17.3009 74.2731 17.2486C74.1625 17.1992 74.0234 17.1738 73.8531 17.1738C73.7396 17.1738 73.6318 17.1809 73.531 17.195C73.4289 17.2091 73.3381 17.2274 73.26 17.2486L72.586 20.0354ZM75.746 18.0011C75.746 18.4006 75.6821 18.7762 75.5544 19.1277C75.4267 19.4792 75.2408 19.7884 74.9939 20.0524C74.7471 20.3164 74.4477 20.5267 74.0944 20.682C73.741 20.8359 73.3352 20.9136 72.8769 20.9136C72.7975 20.9136 72.718 20.9093 72.6357 20.9009C72.5534 20.8924 72.4725 20.8839 72.3931 20.8712L72.0185 22.3917H70.994L72.3931 16.5922C72.6244 16.506 72.884 16.4383 73.1692 16.3889C73.4544 16.338 73.7425 16.3126 74.0319 16.3126C74.3256 16.3126 74.581 16.3564 74.7996 16.4439C75.0167 16.5314 75.1954 16.6514 75.3345 16.8025C75.4721 16.9536 75.5743 17.1329 75.6424 17.339C75.7105 17.5437 75.746 17.7653 75.746 18.0011Z" fill="#424143"/>
<path fill-rule="evenodd" clip-rule="evenodd" d="M82.0935 19.9349L81.8806 20.8299H78.207L79.6146 14.9781H80.6845L79.4912 19.9349H82.0935Z" fill="#424143"/>
<path fill-rule="evenodd" clip-rule="evenodd" d="M84.4928 15.7463C84.341 15.7463 84.2076 15.7025 84.0955 15.6108C83.982 15.5218 83.9253 15.3863 83.9253 15.2056C83.9253 14.998 83.9962 14.8272 84.1409 14.6917C84.2857 14.5562 84.4517 14.4884 84.639 14.4884C84.7908 14.4884 84.9256 14.5364 85.0419 14.6282C85.1569 14.7199 85.215 14.8569 85.215 15.0376C85.215 15.2465 85.1413 15.4173 84.9951 15.5472C84.8475 15.6799 84.6801 15.7463 84.4928 15.7463ZM83.7294 20.8301H82.7021L83.772 16.4141H84.7993L83.7294 20.8301Z" fill="#424143"/>
<path fill-rule="evenodd" clip-rule="evenodd" d="M86.0578 20.8295C85.913 20.2549 85.7853 19.5899 85.6704 18.8332C85.554 18.0765 85.4788 17.2704 85.4434 16.4135H86.4976C86.5019 16.6619 86.5118 16.9287 86.526 17.2153C86.5416 17.5033 86.5601 17.7913 86.5828 18.0822C86.6069 18.3716 86.6324 18.6511 86.665 18.9207C86.6963 19.1918 86.7332 19.436 86.7729 19.6563C86.919 19.4643 87.0794 19.2342 87.2496 18.9687C87.4185 18.7005 87.5831 18.4196 87.742 18.1231C87.9009 17.828 88.0442 17.5316 88.1762 17.2323C88.3067 16.9344 88.4103 16.6619 88.4912 16.4135H89.5611C89.4248 16.8017 89.2546 17.2026 89.0503 17.6135C88.8459 18.0243 88.626 18.4238 88.3876 18.8106C88.1492 19.2003 87.9038 19.5673 87.6512 19.9175C87.3986 20.2676 87.1588 20.5697 86.9318 20.8295H86.0578Z" fill="#424143"/>
<path fill-rule="evenodd" clip-rule="evenodd" d="M91.1286 15.7463C90.9767 15.7463 90.8434 15.7025 90.7313 15.6108C90.6178 15.5218 90.561 15.3863 90.561 15.2056C90.561 14.998 90.6319 14.8272 90.7767 14.6917C90.9214 14.5562 91.0874 14.4884 91.2733 14.4884C91.4265 14.4884 91.5613 14.5364 91.6763 14.6282C91.7926 14.7199 91.8508 14.8569 91.8508 15.0376C91.8508 15.2465 91.777 15.4173 91.6309 15.5472C91.4819 15.6799 91.3159 15.7463 91.1286 15.7463ZM90.3652 20.8301H89.3379L90.4078 16.4141H91.4351L90.3652 20.8301Z" fill="#424143"/>
<path fill-rule="evenodd" clip-rule="evenodd" d="M92.6653 16.5998C92.8909 16.532 93.1505 16.4685 93.4414 16.4092C93.7323 16.3499 94.0516 16.3217 94.3964 16.3217C94.9157 16.3217 95.2974 16.4487 95.5414 16.7C95.7841 16.9541 95.9061 17.2944 95.9061 17.7221C95.9061 17.8407 95.8961 17.9664 95.8777 18.0991C95.8564 18.2304 95.8323 18.3673 95.8039 18.5085L95.2434 20.8294H94.219L94.744 18.6172C94.7709 18.4944 94.8007 18.3673 94.8277 18.2374C94.8575 18.1075 94.8745 17.9833 94.8802 17.8647C94.8845 17.6699 94.8376 17.5061 94.7397 17.3762C94.6418 17.2464 94.4474 17.1814 94.158 17.1814C93.9153 17.1814 93.7053 17.2082 93.5294 17.2577L92.6795 20.8294H91.6465L92.6653 16.5998Z" fill="#424143"/>
<path fill-rule="evenodd" clip-rule="evenodd" d="M98.4171 19.7654C98.5675 19.7654 98.7264 19.7371 98.8868 19.6807C99.0471 19.6242 99.1805 19.555 99.2883 19.4703L99.836 17.2157C99.7055 17.1875 99.5778 17.1734 99.4529 17.1734C99.1933 17.1734 98.9577 17.2214 98.7449 17.3174C98.5321 17.4134 98.3504 17.5432 98.1986 17.7056C98.044 17.868 97.9248 18.0585 97.841 18.2745C97.7559 18.4934 97.7133 18.7249 97.7133 18.972C97.7133 19.219 97.7673 19.4138 97.8737 19.555C97.9815 19.6948 98.1617 19.7654 98.4171 19.7654ZM97.6722 21.5569C98.0908 21.5569 98.4044 21.4595 98.6186 21.2675C98.83 21.0769 98.9733 20.8157 99.0457 20.484L99.0713 20.3654C98.9577 20.4218 98.8229 20.4741 98.664 20.5207C98.5051 20.5687 98.3377 20.5927 98.1631 20.5927C97.6665 20.5927 97.2962 20.4585 97.0564 20.1917C96.8152 19.9249 96.6946 19.5677 96.6946 19.1244C96.6946 18.7192 96.7669 18.3437 96.9074 18.0007C97.0493 17.6576 97.2494 17.3611 97.5048 17.1098C97.763 16.86 98.0737 16.6651 98.4356 16.524C98.7974 16.3828 99.199 16.3136 99.6388 16.3136C99.8545 16.3136 100.086 16.3362 100.333 16.3842C100.577 16.4322 100.799 16.5098 100.997 16.6171L100.099 20.3654C100.019 20.6971 99.9198 20.9908 99.7977 21.2477C99.6757 21.5032 99.5154 21.7178 99.3181 21.8887C99.1195 22.0609 98.874 22.1922 98.5831 22.2811C98.2923 22.3715 97.9404 22.4167 97.5275 22.4167C97.2267 22.4167 96.9571 22.3842 96.7173 22.3207C96.476 22.2557 96.2646 22.1752 96.083 22.0792L96.4491 21.252C96.6023 21.3409 96.7797 21.4143 96.9798 21.4708C97.1798 21.5272 97.4111 21.5569 97.6722 21.5569Z" fill="#424143"/>
</g>
<defs>
<clipPath id="clip0_935_416">
<rect width="104" height="23" fill="white"/>
</clipPath>
</defs>
</svg>
