<svg width="100" height="27" viewBox="0 0 100 27" fill="none" xmlns="http://www.w3.org/2000/svg">
<g clip-path="url(#clip0_931_1577)">
<path d="M92.8116 10.3355C94.5784 9.73925 96.544 9.35277 98.377 9.93802C99.426 10.2914 99.9892 11.4067 99.9782 12.4667C100 14.6421 100.022 16.8174 99.945 18.9928C99.3156 18.9928 98.6862 18.9928 98.0678 18.9817C97.9905 18.6394 97.9243 18.2971 97.847 17.9548C96.6765 18.8824 95.1195 19.5449 93.6177 18.9928C91.9172 18.3192 91.7074 15.7684 92.9883 14.5869C94.2803 13.3943 96.1354 13.3832 97.7586 13.0188C97.6593 12.4667 97.5709 11.76 96.9194 11.6054C95.6164 11.2189 94.3024 11.8042 93.0546 12.1575C92.9552 11.5613 92.8779 10.9539 92.8116 10.3355ZM94.8876 15.3819C94.2803 15.8678 94.2472 17.0493 95.0422 17.3585C96.0029 17.7229 96.9305 17.0714 97.6813 16.5524C97.6813 15.8457 97.6813 15.139 97.6703 14.4323C96.7207 14.5979 95.6495 14.7083 94.8876 15.3819Z" fill="#231F20"/>
<path d="M43.8276 5.98475C44.8767 5.91849 45.9367 5.91849 46.9968 5.94058C48.2446 9.10975 49.0507 12.4556 50.3979 15.5916C51.5131 12.3893 52.5401 9.16496 53.6333 5.96266C54.6823 5.92953 55.7313 5.92953 56.7804 5.96266C57.0896 10.3134 57.5313 14.6641 57.719 19.0148C56.9018 19.0148 56.0957 19.0148 55.2896 19.0148C55.0025 15.9119 54.87 12.7869 54.5608 9.68395C53.3131 12.7317 52.4297 15.934 51.2923 19.0258C50.5304 19.059 49.7684 19.0479 49.0065 19.0148C47.9133 15.9229 47.0299 12.7427 45.7269 9.72812C45.4619 12.82 45.3404 15.934 45.0533 19.0258C44.3245 19.0258 43.5957 19.0258 42.8669 19.0148C43.0767 14.653 43.5295 10.3244 43.8276 5.98475Z" fill="#231F20"/>
<path d="M79.9031 6.96757C80.6319 6.81297 81.3828 6.71359 82.1226 6.64734C82.1447 7.69637 82.1447 8.7454 82.1447 9.80547C82.752 9.81651 83.3704 9.84964 83.9888 9.86068C84.1103 10.457 84.2096 11.0643 84.298 11.6716C83.5802 11.7048 82.8735 11.7379 82.1668 11.7489C82.1778 13.339 82.0564 14.9402 82.222 16.5303C82.4539 17.3033 83.4588 17.0824 84.0661 17.226C84.1876 17.8333 84.2759 18.4517 84.3421 19.07C83.1827 19.1915 81.8797 19.3461 80.8417 18.6836C80.1571 18.2308 79.9473 17.3806 79.9141 16.6186C79.8258 15.0064 79.9362 13.3942 79.87 11.7821C79.4504 11.7379 79.0197 11.6937 78.6001 11.6495C78.6111 11.0643 78.6332 10.4901 78.6553 9.90485C79.0639 9.87172 79.4724 9.82755 79.8921 9.79442C79.87 8.84478 79.881 7.90617 79.9031 6.96757Z" fill="#231F20"/>
<path d="M59.0991 10.0486C59.8831 9.89398 60.6782 9.80564 61.4732 9.76147C62.191 11.8595 62.8204 13.9907 63.5602 16.0777C64.3111 14.0459 64.8964 11.9479 65.5589 9.88294C66.3209 9.83877 67.0717 9.81669 67.8337 9.82773C66.9834 12.6104 65.8792 15.3048 64.9405 18.0654C64.4436 19.3352 64.1345 20.7708 63.0965 21.7314C62.2462 22.5044 61.0205 22.5375 59.9494 22.3498C59.85 21.7425 59.7506 21.1351 59.6512 20.5389C60.1813 20.5278 60.7113 20.5609 61.2303 20.4726C61.937 20.2297 62.5554 19.3794 62.2352 18.6285C61.2082 15.7575 60.0819 12.9306 59.0991 10.0486Z" fill="#231F20"/>
<path d="M69.3135 9.83854C69.954 9.83854 70.5945 9.84958 71.2239 9.86062C71.3122 10.2581 71.3895 10.6557 71.4778 11.0532C72.4606 10.2471 73.6311 9.4631 74.9783 9.68394C76.1488 9.72811 77.0763 10.7882 77.0984 11.9256C77.1536 14.2776 77.1205 16.6407 77.1095 18.9927C76.3807 19.0037 75.6519 19.0148 74.9341 19.0258C74.7243 16.8836 74.9783 14.7303 74.8237 12.5991C74.7243 11.7157 73.6311 11.4949 72.9465 11.8483C72.3612 12.1354 71.5772 12.5439 71.6214 13.3059C71.5772 15.2051 71.6435 17.1044 71.6104 19.0037C70.8374 19.0148 70.0755 19.0148 69.3025 18.9927C69.3135 15.9339 69.3025 12.8862 69.3135 9.83854Z" fill="#231F20"/>
<path d="M86.0537 9.83853C86.7052 9.83853 87.3567 9.83853 88.0082 9.84958C88.0855 10.3796 88.1739 10.9096 88.2622 11.4507C89.0683 10.6115 89.9517 9.73915 91.1884 9.63977C91.3872 10.3686 91.4976 11.1195 91.5197 11.8703C90.305 12.1464 88.9247 12.6543 88.3837 13.858C88.2732 15.5695 88.4057 17.2922 88.3395 19.0037C87.5776 19.0148 86.8156 19.0148 86.0537 18.9927C86.0537 15.9339 86.0537 12.8862 86.0537 9.83853Z" fill="#231F20"/>
<path d="M8.23749 2.40699C9.01046 1.47943 9.84968 0.485612 11.0423 0.11017C12.3784 -0.243186 13.5158 0.805842 14.355 1.70028C16.5524 4.21794 18.1536 7.18835 19.6443 10.1698C20.4504 8.35885 21.4552 6.63623 22.4932 4.95779C23.487 3.43393 24.514 1.888 25.9495 0.728545C26.612 0.220594 27.5286 -0.265271 28.3567 0.165383C29.5272 0.783757 30.4106 1.8107 31.2388 2.81556C32.9946 5.07925 34.3749 7.60796 35.6227 10.1808C37.1796 13.4936 38.5268 16.9498 39.09 20.5828C39.2556 22.2612 39.4102 24.1495 38.3943 25.6181C37.6103 26.7665 36.1196 27.1641 34.7945 26.9322C33.6461 26.5236 32.6412 25.7727 31.8903 24.8231C30.1014 22.6146 29.0414 19.9423 28.0586 17.3032C27.9151 16.8394 27.7384 16.3867 27.5838 15.9339C27.4844 16.3977 27.3519 16.8615 27.1973 17.3142C26.1924 19.9865 25.1213 22.714 23.2772 24.9335C22.5374 25.839 21.5657 26.5346 20.4614 26.9322C18.8713 27.2634 17.3364 26.4353 16.3095 25.2648C14.2998 23.0784 13.1845 20.2515 12.1575 17.502C11.9588 16.9388 11.76 16.3756 11.6165 15.7904C11.4508 16.3756 11.2521 16.9609 11.0423 17.524C10.1147 20.0528 9.05463 22.6035 7.37618 24.7347C6.45966 25.8279 5.26708 26.899 3.77636 26.9763C2.39606 27.0978 1.05993 26.2034 0.52989 24.9445C-0.220993 23.1998 -0.000145072 21.2343 0.331127 19.4123C1.04888 15.9339 2.37397 12.6102 3.94199 9.441C5.14562 6.97855 6.51487 4.5713 8.23749 2.40699ZM9.0215 3.17996C7.32097 5.34427 5.96275 7.7736 4.74809 10.2361C3.23528 13.4273 1.86602 16.7511 1.28077 20.2515C1.07097 21.2232 1.07097 22.2281 1.17035 23.2109C1.29182 24.1384 1.65622 25.1323 2.50648 25.6071C3.32362 26.0819 4.37265 25.8942 5.11249 25.3641C6.43758 24.4366 7.32097 23.0232 8.08289 21.6208C9.71717 18.4958 10.7883 15.1058 11.5944 11.6937C12.4557 15.1941 13.5378 18.6835 15.2605 21.8747C15.9451 23.0563 16.6628 24.282 17.7781 25.0991C18.3413 25.6071 19.0811 25.9604 19.8541 25.8721C20.7154 25.7838 21.4332 25.2316 22.0405 24.6464C23.0674 23.5863 23.8183 22.2833 24.4809 20.9803C25.8943 18.0872 26.866 14.9953 27.6279 11.8814C28.5776 15.6579 29.7591 19.4454 31.7909 22.8023C32.5529 23.9728 33.4473 25.1875 34.7834 25.7396C35.722 26.1261 36.9146 25.7838 37.4557 24.9114C38.1072 23.8624 38.1624 22.5594 38.063 21.3668C37.9305 19.4344 37.3674 17.5572 36.749 15.7241C35.5122 12.1906 33.889 8.7895 31.9124 5.62033C30.9959 4.2069 30.0462 2.78243 28.7653 1.65611C28.3126 1.25858 27.639 0.872096 27.0648 1.26962C25.9605 1.94321 25.1986 3.01432 24.4257 4.03022C22.5484 6.70249 21.0025 9.61768 19.7326 12.6212C19.6995 12.6654 19.6112 12.7537 19.578 12.7979C19.4676 12.4556 19.3572 12.1243 19.2136 11.793C17.9106 8.97722 16.4641 6.20558 14.62 3.70999C13.9906 2.88181 13.3391 2.04259 12.4888 1.43526C12.1244 1.18128 11.6385 0.949393 11.2079 1.17024C10.2914 1.58985 9.65092 2.41803 9.0215 3.17996Z" fill="#FEFEFE"/>
<path d="M9.02192 3.1799C9.65134 2.41797 10.3028 1.60083 11.2194 1.18122C11.65 0.960374 12.1359 1.18122 12.5003 1.44624C13.3505 2.05357 14.002 2.90384 14.6315 3.72097C16.4645 6.2276 17.9221 8.9882 19.2251 11.804C19.3797 12.1242 19.4901 12.4666 19.5895 12.8089C17.889 9.92681 16.343 6.93431 14.2229 4.32831C13.6045 3.59951 12.953 2.82654 12.0586 2.44006C11.5506 2.21921 11.0316 2.50631 10.612 2.78237C9.08817 4.06329 7.96185 5.73069 6.90178 7.38705C4.40619 11.3623 2.52899 15.7241 1.29224 20.2515C1.87748 16.751 3.2357 13.4272 4.75955 10.236C5.96317 7.77354 7.32139 5.34421 9.02192 3.1799Z" fill="#9E242E"/>
<path d="M27.0651 1.25877C27.6393 0.861246 28.3129 1.24773 28.7656 1.64526C30.0465 2.76054 30.9962 4.18501 31.9127 5.60948C33.8893 8.78969 35.5235 12.1797 36.7493 15.7133C37.3676 17.5463 37.9308 19.4125 38.0633 21.3559C37.8535 20.0088 37.5001 18.6837 37.0474 17.4028C35.8769 13.8802 34.2537 10.5013 32.2881 7.35418C31.4268 6.00701 30.5103 4.67088 29.4061 3.52247C28.9644 3.08077 28.4895 2.61699 27.8822 2.41823C27.4074 2.27467 26.9767 2.60595 26.5902 2.83784C25.5633 3.64393 24.7682 4.68192 24.0063 5.73095C22.6591 7.64128 21.4555 9.651 20.3734 11.7159C20.1967 12.0472 19.9758 12.3564 19.7329 12.6324C21.0028 9.61787 22.5487 6.71372 24.4259 4.04146C25.1989 3.01451 25.9719 1.93236 27.0651 1.25877Z" fill="#9E242E"/>
<path d="M10.6118 2.78251C11.0314 2.50645 11.5504 2.21935 12.0584 2.4402C12.9528 2.82668 13.6043 3.59965 14.2227 4.32845C16.3428 6.93446 17.8888 9.92695 19.5783 12.809C18.5182 15.8236 17.2593 18.8492 17.182 22.0846C17.1268 23.1226 17.4029 24.1385 17.7894 25.0992C16.6741 24.2821 15.9453 23.0564 15.2717 21.8748C13.5601 18.6836 12.4669 15.2052 11.6056 11.6937C10.9873 8.77854 10.4131 5.79709 10.6118 2.78251Z" fill="#FF912E"/>
<path d="M26.6014 2.82692C26.9879 2.59503 27.4185 2.26375 27.8933 2.4073C28.5007 2.60607 28.9755 3.06985 29.4172 3.51155C30.5214 4.671 31.438 5.99609 32.2993 7.34326C34.2648 10.4903 35.888 13.8693 37.0585 17.3918C37.5223 18.6728 37.8646 19.9979 38.0744 21.345C38.1738 22.5376 38.1186 23.8406 37.4671 24.8896C36.926 25.773 35.7445 26.1043 34.7948 25.7178C33.4587 25.1767 32.5643 23.951 31.8024 22.7805C29.7706 19.4347 28.589 15.6471 27.6394 11.8596C26.9989 8.91128 26.4026 5.88566 26.6014 2.82692Z" fill="#F41CB2"/>
<path d="M6.90172 7.3874C7.96179 5.73104 9.08811 4.06363 10.612 2.78271C10.4132 5.78625 10.9874 8.77874 11.6168 11.6939C10.8107 15.1171 9.72857 18.4961 8.10534 21.6211C7.34342 23.0234 6.46002 24.4369 5.13493 25.3644C4.39509 25.8945 3.34607 26.0822 2.52893 25.6074C1.67866 25.1325 1.31426 24.1277 1.1928 23.2112C1.08237 22.2284 1.09342 21.2235 1.30322 20.2518C2.51789 15.7244 4.40614 11.3627 6.90172 7.3874Z" fill="#F41CB2"/>
<path d="M24.0173 5.71989C24.7792 4.67086 25.5743 3.63288 26.6012 2.82678C26.4024 5.87449 26.9987 8.91115 27.6502 11.8705C26.8883 14.9955 25.9055 18.0763 24.5031 20.9694C23.8406 22.2835 23.0897 23.5755 22.0628 24.6355C21.4665 25.2208 20.7377 25.7729 19.8764 25.8612C19.1034 25.9496 18.3636 25.5962 17.8004 25.0883C17.4139 24.1276 17.1379 23.1117 17.1931 22.0737C17.2704 18.8383 18.5292 15.8016 19.5893 12.7981C19.6224 12.7539 19.7107 12.6656 19.7439 12.6214C19.9868 12.3343 20.2076 12.0361 20.3843 11.7049C21.4775 9.63995 22.6701 7.63023 24.0173 5.71989Z" fill="#F25511"/>
</g>
<defs>
<clipPath id="clip0_931_1577">
<rect width="100" height="26.9987" fill="white"/>
</clipPath>
</defs>
</svg>
