<svg width="115" height="24" viewBox="0 0 115 24" fill="none" xmlns="http://www.w3.org/2000/svg">
<g clip-path="url(#clip0_935_70)">
<path d="M22.8511 1.07842C20.098 -0.641724 16.4735 -0.231899 13.241 1.79926C10.0185 -0.231899 6.39185 -0.641724 3.6421 1.07842C-0.707656 3.79673 -1.2365 10.7974 2.46203 16.7157C5.1882 21.079 9.4515 23.6356 13.2466 23.5884C17.0417 23.6356 21.305 21.079 24.0311 16.7157C27.7252 10.7974 27.2008 3.79673 22.8511 1.07842ZM4.46175 15.4661C3.69912 14.2571 3.12373 12.9397 2.75508 11.5587C2.42755 10.3599 2.30232 9.1148 2.38455 7.87477C2.54961 5.68754 3.43999 3.98424 4.89066 3.07814C6.34132 2.17203 8.25908 2.11701 10.3015 2.92768C10.608 3.05007 10.9111 3.19154 11.2121 3.34761C10.0771 4.38247 9.09023 5.56884 8.27929 6.87322C6.03367 10.4662 5.34876 14.4645 6.13248 17.6522C5.50757 16.978 4.94814 16.246 4.46175 15.4661ZM23.7392 11.5576C23.3701 12.9385 22.7947 14.2557 22.0325 15.4649C21.5457 16.246 20.9863 16.9795 20.3618 17.6555C21.0624 14.798 20.5864 11.2971 18.8685 8.01399C18.841 7.95992 18.8026 7.91221 18.7555 7.87394C18.7085 7.83567 18.654 7.80769 18.5954 7.79182C18.5369 7.77595 18.4757 7.77253 18.4158 7.78179C18.3559 7.79105 18.2986 7.81278 18.2476 7.84557L12.8918 11.1915C12.8429 11.222 12.8006 11.2618 12.7671 11.3087C12.7337 11.3556 12.7098 11.4086 12.6969 11.4647C12.6839 11.5208 12.6822 11.5789 12.6918 11.6357C12.7013 11.6925 12.722 11.7468 12.7525 11.7956L13.5385 13.052C13.5689 13.1008 13.6086 13.1432 13.6554 13.1766C13.7021 13.21 13.7551 13.2339 13.8111 13.2468C13.8671 13.2598 13.9251 13.2615 13.9818 13.252C14.0385 13.2424 14.0928 13.2218 14.1415 13.1913L17.6132 11.022C17.7255 11.3588 17.8377 11.6957 17.922 12.0325C18.2494 13.2298 18.375 14.4733 18.2936 15.712C18.1285 17.8981 17.2382 19.6014 15.7875 20.5086C15.0393 20.9661 14.1819 21.2142 13.305 21.2272H13.1938C12.3169 21.2145 11.4594 20.9663 10.7113 20.5086C9.2595 19.6014 8.36911 17.8981 8.20406 15.712C8.12233 14.4719 8.24755 13.2269 8.57459 12.028C9.32707 9.25427 10.8826 6.76479 13.0456 4.87238C13.9784 4.05362 15.0408 3.39566 16.1895 2.92543C18.2262 2.11477 20.1474 2.16866 21.5991 3.07589C23.0509 3.98312 23.9402 5.68529 24.1053 7.87252C24.1885 9.11267 24.0648 10.358 23.7392 11.5576ZM51.385 8.9448C48.569 8.9448 46.293 11.1433 46.293 13.9402C46.293 16.718 48.569 18.8805 51.385 18.8805C54.22 18.8805 56.496 16.7214 56.496 13.9402C56.496 11.1444 54.2234 8.94592 51.385 8.94592V8.9448ZM51.385 16.2689C50.087 16.2689 49.0989 15.219 49.0989 13.9211C49.0989 12.6231 50.087 11.5576 51.385 11.5576C52.702 11.5576 53.6901 12.6265 53.6901 13.9244C53.6901 15.2224 52.702 16.2734 51.385 16.2734V16.2689ZM62.8454 5.10817H57.6637C57.6077 5.1071 57.5521 5.11735 57.5002 5.13832C57.4483 5.15928 57.4011 5.19052 57.3616 5.23016C57.3221 5.2698 57.2909 5.31703 57.2701 5.369C57.2493 5.42097 57.2392 5.47662 57.2404 5.53259V18.1653C57.2364 18.2231 57.2444 18.2812 57.2639 18.3358C57.2834 18.3904 57.314 18.4403 57.3537 18.4825C57.3935 18.5247 57.4416 18.5582 57.4949 18.5809C57.5482 18.6036 57.6057 18.615 57.6637 18.6144H62.8454C66.992 18.6144 69.8731 15.8568 69.8731 11.845C69.8731 7.80852 66.992 5.10817 62.8454 5.10817ZM62.9678 15.9466H60.1328V7.76922H62.9678C65.2629 7.76922 66.8449 9.48599 66.8449 11.8394C66.8449 14.1535 65.2629 15.9466 62.9678 15.9466ZM80.1872 9.21652H78.2391C78.1313 9.22505 78.0304 9.27308 77.9558 9.3514C77.8812 9.42972 77.8382 9.53283 77.8349 9.64094V10.2192C77.3914 9.48599 76.3887 8.94592 75.1402 8.94592C72.7104 8.94592 70.4345 10.8547 70.4345 13.9031C70.4345 16.9347 72.6902 18.8783 75.1211 18.8783C76.3741 18.8783 77.397 18.3393 77.8405 17.6061V18.2035C77.8411 18.3106 77.8839 18.4132 77.9595 18.489C78.0351 18.5649 78.1376 18.6079 78.2447 18.6088H80.1928C80.2464 18.61 80.2996 18.6004 80.3494 18.5804C80.3991 18.5605 80.4443 18.5307 80.4822 18.4928C80.5201 18.4549 80.5499 18.4098 80.5698 18.36C80.5897 18.3103 80.5994 18.257 80.5982 18.2035V9.64094C80.5998 9.58589 80.5904 9.53107 80.5705 9.47971C80.5506 9.42836 80.5206 9.38152 80.4823 9.34195C80.444 9.30238 80.3981 9.2709 80.3475 9.24935C80.2968 9.22781 80.2423 9.21665 80.1872 9.21652ZM75.6556 16.2902C74.3654 16.2902 73.3965 15.2988 73.3965 13.9233C73.3965 12.5479 74.3654 11.5576 75.6556 11.5576C76.9457 11.5576 77.9146 12.5468 77.9146 13.9222C77.9146 15.2976 76.9468 16.2891 75.6556 16.2891V16.2902ZM91.1222 5.10817H89.1741C89.1196 5.10653 89.0653 5.11576 89.0144 5.13532C88.9635 5.15488 88.9169 5.18439 88.8775 5.22212C88.8381 5.25985 88.8066 5.30504 88.7849 5.35507C88.7631 5.4051 88.7516 5.45896 88.7508 5.5135V10.181C88.3017 9.48599 87.2845 8.94592 86.0123 8.94592C83.6005 8.94592 81.3639 10.8547 81.3639 13.9031C81.3639 16.9347 83.6196 18.8783 86.0505 18.8783C87.3036 18.8783 88.249 18.3393 88.7699 17.6061V18.2035C88.7702 18.3107 88.8129 18.4134 88.8886 18.4894C88.9643 18.5653 89.0669 18.6082 89.1741 18.6088H91.1222C91.1758 18.6102 91.2292 18.6007 91.279 18.5808C91.3288 18.5609 91.374 18.5311 91.4119 18.4932C91.4498 18.4553 91.4796 18.41 91.4995 18.3602C91.5194 18.3104 91.5289 18.2571 91.5275 18.2035V5.51575C91.5293 5.46196 91.5199 5.40838 91.5002 5.35831C91.4805 5.30824 91.4507 5.26273 91.4128 5.22457C91.3748 5.18641 91.3295 5.1564 91.2795 5.13638C91.2295 5.11637 91.176 5.10677 91.1222 5.10817ZM86.5906 16.3138C85.3061 16.3138 84.345 15.3122 84.345 13.9222C84.345 12.5322 85.3094 11.5306 86.5906 11.5306C87.8717 11.5306 88.8362 12.5322 88.8362 13.9222C88.8362 15.3122 87.8762 16.3138 86.5906 16.3138ZM102.055 5.10817H100.11C100.056 5.10653 100.001 5.11575 99.9504 5.1353C99.8994 5.15485 99.8528 5.18434 99.8133 5.22205C99.7738 5.25977 99.7422 5.30495 99.7203 5.35499C99.6984 5.40502 99.6867 5.4589 99.6859 5.5135V10.181C99.2424 9.48599 98.2195 8.94592 96.9473 8.94592C94.5355 8.94592 92.2989 10.8547 92.2989 13.9031C92.2989 16.9347 94.5558 18.8783 96.9855 18.8783C98.2397 18.8783 99.184 18.3393 99.7049 17.6061V18.2035C99.7055 18.3108 99.7484 18.4135 99.8243 18.4894C99.9002 18.5653 100.003 18.6082 100.11 18.6088H102.055C102.109 18.6102 102.162 18.6007 102.212 18.5808C102.261 18.5609 102.306 18.5311 102.344 18.4931C102.382 18.4552 102.412 18.4099 102.432 18.3601C102.451 18.3103 102.461 18.257 102.459 18.2035V5.51575C102.461 5.46201 102.452 5.40846 102.432 5.35839C102.413 5.30833 102.383 5.2628 102.345 5.22462C102.307 5.18645 102.262 5.15642 102.212 5.13639C102.162 5.11636 102.109 5.10676 102.055 5.10817ZM97.5233 16.3138C96.2377 16.3138 95.2777 15.3122 95.2777 13.9222C95.2777 12.5322 96.2422 11.5306 97.5233 11.5306C98.8045 11.5306 99.769 12.5322 99.769 13.9222C99.769 15.3122 98.8112 16.3138 97.5267 16.3138H97.5233ZM112.722 9.87336L109.815 19.8428C109.253 21.6168 108.001 22.6779 106.053 22.6779C105.167 22.6779 104.361 22.4971 103.729 22.1355C103.361 21.9256 103.055 21.7336 103.055 21.4259C103.055 21.235 103.117 21.1362 103.229 20.9577L103.807 20.0931C103.969 19.8517 104.09 19.7731 104.265 19.7731C104.403 19.7766 104.538 19.8233 104.649 19.9068C105.011 20.1414 105.348 20.3435 105.861 20.3435C106.461 20.3435 106.919 20.1515 107.166 19.4374L107.415 18.6099H106.239C106.118 18.6138 106 18.5754 105.905 18.5013C105.81 18.4273 105.743 18.3223 105.718 18.2046L103.116 9.87336C103.019 9.5455 103.108 9.21764 103.59 9.21764H105.639C105.889 9.21764 106.065 9.30298 106.175 9.66115L108.096 16.3699L109.892 9.66115C109.949 9.42985 110.104 9.21764 110.413 9.21764H112.357C112.74 9.21652 112.855 9.48599 112.722 9.87336ZM45.5587 12.8387V18.1642C45.5596 18.2222 45.5489 18.2799 45.5271 18.3337C45.5053 18.3875 45.4729 18.4364 45.4318 18.4774C45.3908 18.5185 45.3419 18.5509 45.2881 18.5727C45.2343 18.5945 45.1766 18.6052 45.1186 18.6043H43.5107C43.4526 18.6054 43.3949 18.5947 43.341 18.573C43.2871 18.5512 43.2382 18.5189 43.1971 18.4778C43.156 18.4367 43.1236 18.3877 43.1019 18.3339C43.0802 18.28 43.0695 18.2223 43.0706 18.1642V16.7663C42.0499 18.0553 40.2748 18.867 38.2672 18.867C34.4968 18.867 31.5506 16.0308 31.5506 11.9932C31.5506 7.79729 34.7315 4.90494 38.75 4.90494C41.7165 4.90494 44.0878 6.18045 45.141 8.74606C45.1705 8.81386 45.1869 8.88663 45.1893 8.96052C45.1893 9.08178 45.1096 9.17385 44.8525 9.26256L42.9751 9.98564C42.8619 10.0326 42.735 10.0346 42.6203 9.99126C42.5198 9.9319 42.4411 9.84174 42.3958 9.73413C41.7221 8.45301 40.5229 7.58284 38.677 7.58284C36.2832 7.58284 34.5687 9.45231 34.5687 11.8764C34.5687 14.2265 36.0283 16.1588 38.7455 16.1588C40.1749 16.1588 41.3145 15.4852 41.8456 14.7452H40.1502C40.0921 14.7461 40.0345 14.7354 39.9807 14.7136C39.9268 14.6918 39.878 14.6594 39.8369 14.6183C39.7959 14.5773 39.7635 14.5284 39.7417 14.4746C39.7199 14.4208 39.7091 14.3631 39.71 14.3051V12.8578C39.7091 12.7997 39.7199 12.7421 39.7417 12.6883C39.7635 12.6345 39.7959 12.5856 39.8369 12.5445C39.878 12.5035 39.9268 12.4711 39.9807 12.4493C40.0345 12.4275 40.0921 12.4167 40.1502 12.4176H45.1186C45.1755 12.4147 45.2325 12.4235 45.2859 12.4434C45.3394 12.4633 45.3882 12.4939 45.4294 12.5333C45.4706 12.5727 45.5034 12.6201 45.5256 12.6726C45.5478 12.7252 45.5591 12.7817 45.5587 12.8387ZM112.774 7.24487V7.11575C112.774 7.10669 112.777 7.09791 112.783 7.09105C112.79 7.0853 112.798 7.08211 112.807 7.08206H113.628C113.632 7.08192 113.636 7.08264 113.64 7.08418C113.645 7.08572 113.648 7.08806 113.651 7.09105C113.657 7.09791 113.66 7.10669 113.66 7.11575V7.24487C113.66 7.25356 113.657 7.26193 113.651 7.26845C113.648 7.27144 113.645 7.27378 113.64 7.27532C113.636 7.27686 113.632 7.27758 113.628 7.27743H113.328V8.08698C113.328 8.09582 113.324 8.10423 113.318 8.11048C113.312 8.11674 113.303 8.12038 113.294 8.12066H113.139C113.135 8.12064 113.131 8.11973 113.127 8.11799C113.123 8.11625 113.12 8.11372 113.117 8.11056C113.114 8.10752 113.111 8.10386 113.109 8.0998C113.108 8.09575 113.107 8.09139 113.107 8.08698V7.27743H112.807C112.803 7.27777 112.798 7.27716 112.794 7.27564C112.79 7.27412 112.786 7.27174 112.783 7.26864C112.78 7.26555 112.778 7.26182 112.776 7.25772C112.775 7.25362 112.774 7.24923 112.774 7.24487ZM114.209 7.11126L114.434 7.63112L114.658 7.11126C114.662 7.10205 114.668 7.09418 114.676 7.0888C114.686 7.08396 114.696 7.08164 114.707 7.08206H114.967C114.972 7.08174 114.976 7.08233 114.98 7.08378C114.984 7.08523 114.988 7.08752 114.991 7.09049C114.994 7.09345 114.996 7.09704 114.998 7.10101C114.999 7.10497 115 7.10923 115 7.1135V8.0881C115 8.09236 115 8.09664 114.998 8.10066C114.997 8.10468 114.994 8.10835 114.991 8.11143C114.988 8.1145 114.985 8.11691 114.981 8.1185C114.977 8.1201 114.973 8.12083 114.968 8.12066H114.822C114.818 8.12081 114.814 8.12009 114.81 8.11855C114.806 8.117 114.802 8.11467 114.799 8.11168C114.796 8.10867 114.793 8.10499 114.792 8.10091C114.79 8.09683 114.79 8.09245 114.79 8.0881V7.35266L114.548 7.88712C114.545 7.89721 114.539 7.90614 114.53 7.91294C114.521 7.91806 114.511 7.9204 114.5 7.91968H114.381C114.371 7.92024 114.361 7.9179 114.352 7.91294C114.343 7.90646 114.337 7.89741 114.334 7.88712L114.094 7.35266V8.0881C114.094 8.09235 114.093 8.0966 114.092 8.10059C114.09 8.10457 114.088 8.10821 114.085 8.11127C114.082 8.11433 114.079 8.11675 114.075 8.11836C114.071 8.11998 114.067 8.12076 114.062 8.12066H113.913C113.909 8.12061 113.905 8.11971 113.901 8.11803C113.897 8.11634 113.894 8.11391 113.891 8.11086C113.888 8.10782 113.886 8.10423 113.884 8.10032C113.883 8.09641 113.882 8.09225 113.883 8.0881V7.1135C113.882 7.10923 113.883 7.10497 113.885 7.10101C113.886 7.09704 113.889 7.09345 113.892 7.09049C113.895 7.08752 113.899 7.08523 113.903 7.08378C113.907 7.08233 113.911 7.08174 113.915 7.08206H114.168C114.178 7.08178 114.188 7.0841 114.197 7.0888C114.203 7.09497 114.207 7.10275 114.209 7.11126Z" fill="#1BDBDB"/>
</g>
<defs>
<clipPath id="clip0_935_70">
<rect width="115" height="23.5887" fill="white"/>
</clipPath>
</defs>
</svg>
