<svg width="86" height="22" viewBox="0 0 86 22" fill="none" xmlns="http://www.w3.org/2000/svg">
<path d="M12.381 5.24998V17.168H8.22098V15.688C7.37398 16.858 6.15298 17.527 4.40998 17.527C1.61998 17.527 0.000976562 15.903 0.000976562 12.917V5.24998H4.16098V12.057C4.16098 13.634 4.80798 14.279 6.10398 14.279C7.47398 14.279 8.22098 13.514 8.22098 11.939V5.24998H12.381ZM27.85 11.198C27.85 12.583 27.602 13.706 27.178 14.638C26.306 16.428 24.638 17.503 22.346 17.503C20.726 17.503 19.481 16.977 18.609 15.855V21.993H14.449V5.24998H18.509V6.68298C19.405 5.46498 20.676 4.89198 22.345 4.89198C24.636 4.89198 26.305 5.96698 27.177 7.78198C27.602 8.71398 27.85 9.83598 27.85 11.198ZM23.418 11.198C23.418 10.362 23.318 9.76498 23.118 9.33398C22.746 8.54698 21.998 8.13998 20.976 8.13998C19.406 8.13998 18.56 9.09498 18.56 10.862V11.507C18.56 13.275 19.407 14.231 20.976 14.231C21.998 14.231 22.746 13.825 23.119 13.036C23.317 12.606 23.418 12.033 23.418 11.198ZM48.802 5.24998H52.938V6.32498C53.585 5.32298 54.283 4.91498 55.28 4.91498C56.774 4.91498 57.721 5.84798 57.721 7.23198C57.721 8.56998 56.749 9.54898 55.331 9.54898C54.458 9.54898 53.711 9.11898 53.387 8.47398C53.038 8.61698 52.963 8.80798 52.963 9.64398V17.167H48.803V5.24998H48.802ZM70.89 10.314V17.168H66.73V15.76C65.908 16.859 64.636 17.503 62.618 17.503C60.65 17.503 59.181 16.835 58.558 15.497C58.308 15.019 58.209 14.47 58.209 13.801C58.209 13.156 58.309 12.631 58.508 12.177C59.405 10.314 61.822 9.88398 64.86 9.88398H66.728V9.69298C66.728 8.97698 66.678 8.71398 66.528 8.40298C66.28 7.87798 65.708 7.61498 64.809 7.61498C63.839 7.61498 63.29 7.85498 63.041 8.37898C62.942 8.61798 62.917 8.78498 62.891 9.09598H58.657C58.682 8.45098 58.807 7.90198 59.031 7.42498C59.853 5.68098 61.971 4.89298 64.761 4.89298C67.774 4.89298 69.543 5.65698 70.366 7.37598C70.715 8.16498 70.89 9.14398 70.89 10.314ZM66.504 13.586C66.679 13.252 66.729 12.918 66.729 12.273V12.106H65.134C63.939 12.106 62.967 12.225 62.694 12.846C62.618 12.989 62.569 13.156 62.569 13.372C62.569 13.587 62.594 13.754 62.693 13.945C62.943 14.471 63.59 14.661 64.338 14.661C65.458 14.661 66.181 14.279 66.504 13.586ZM86 0.306982V17.168H81.94V15.736C81.043 16.93 79.798 17.503 78.104 17.503C75.812 17.503 74.144 16.452 73.272 14.637C72.847 13.706 72.599 12.583 72.599 11.197C72.599 9.83698 72.847 8.71398 73.272 7.78198C74.119 5.96698 75.812 4.89198 78.104 4.89198C79.723 4.89198 80.944 5.41798 81.841 6.54098V0.306982H86ZM81.89 10.863C81.89 9.09598 81.042 8.14098 79.474 8.14098C78.452 8.14098 77.706 8.54698 77.332 9.33498C77.132 9.76498 77.032 10.362 77.032 11.199C77.032 12.059 77.132 12.632 77.332 13.085C77.706 13.873 78.452 14.28 79.474 14.28C81.044 14.28 81.89 13.325 81.89 11.557V10.863ZM39.4 8.19998V11.274H42.083L41.983 11.674C41.648 13.01 39.983 13.907 38.638 13.907C36.767 13.907 34.344 13.043 34.344 8.92498C34.344 5.51498 35.904 3.88498 38.289 3.88498C39.594 3.88498 40.599 4.18098 41.204 5.05198C41.455 5.43398 41.689 5.95798 41.713 6.39498H46.475C46.475 6.39498 46.588 4.27798 44.792 2.43298C44.763 2.40298 44.735 2.37698 44.707 2.34998C43.26 0.843982 41.083 0.00598145 38.389 0.00598145C32.89 0.00598145 29.337 3.51598 29.337 8.94798C29.337 15.23 33.837 17.459 37.692 17.459C39.854 17.459 41.802 16.84 42.987 15.621L43.042 17.168H46.769V8.19998H39.4Z" fill="#EE2C3C"/>
</svg>
