<svg width="111" height="25" viewBox="0 0 111 25" fill="none" xmlns="http://www.w3.org/2000/svg">
<mask id="mask0_935_356" style="mask-type:luminance" maskUnits="userSpaceOnUse" x="0" y="0" width="112" height="25">
<path d="M111.002 0H0.00170898V24.1304H111.002V0Z" fill="white"/>
</mask>
<g mask="url(#mask0_935_356)">
<path fill-rule="evenodd" clip-rule="evenodd" d="M85.6118 0C85.558 0 85.5047 0.000635012 85.4514 0.00190504C84.304 0.048896 83.5214 0.357512 83.0588 0.944263C82.3817 1.80407 82.394 3.25698 82.4071 4.79498C82.409 5.01341 82.4109 5.23503 82.4109 5.45792V5.62111H81.2449V8.22276H82.4109V18.9868H85.391V8.22339H86.3075C87.6098 8.22339 88.5666 7.1388 88.6318 5.62111H85.391V3.87484C85.391 3.05313 85.9057 2.52163 86.702 2.52163C87.3345 2.52163 88.0953 2.88105 88.4532 3.57068C88.9742 2.88612 89.1112 2.20412 88.8482 1.58689C88.4421 0.637553 87.1427 0 85.6118 0ZM95.4158 5.27694C94.4076 5.32648 93.5153 6.04277 92.9639 7.24357L92.6644 7.89446V5.59445H90.1406V18.9868H93.1203V13.6102C93.1203 12.9142 93.1203 12.0481 93.1716 11.1991C93.3379 9.23433 94.7814 8.17703 96.0552 8.17703C96.7434 8.17703 97.2922 8.48757 97.5675 9.01906C98.0593 8.52502 98.2219 7.70586 97.9695 6.91146C97.6433 5.88401 96.7702 5.26997 95.6342 5.26997C95.5635 5.26997 95.4903 5.2725 95.4158 5.27694ZM77.0438 5.27694C76.0354 5.32648 75.1419 6.04277 74.5912 7.24357L74.2922 7.89446V5.59445H71.7672V18.9868H74.7481V13.6102C74.7481 12.9142 74.7481 12.0481 74.799 11.1991C74.9657 9.23433 76.4099 8.17703 77.6831 8.17703C78.3703 8.17703 78.9202 8.48757 79.1955 9.01906C79.6866 8.52502 79.8504 7.70586 79.598 6.91146C79.2713 5.88401 78.3988 5.26997 77.2615 5.26997C77.1908 5.26997 77.1177 5.2725 77.0438 5.27694ZM58.4757 15.3101C59.5114 17.8311 61.7077 19.2764 64.5008 19.2764C66.9539 19.2764 68.6971 18.3925 69.9702 16.497L67.5734 15.2854C66.7426 16.1268 65.6188 16.6075 64.4716 16.6075C64.2255 16.6075 63.9799 16.5852 63.7381 16.5401C61.9756 16.2303 60.6882 14.322 60.7447 12.1014C60.7944 9.75188 62.4488 7.89128 64.5933 7.77444C64.6606 7.77097 64.7279 7.76906 64.7952 7.76872C66.4262 7.76872 67.61 8.90285 67.6523 9.92079C67.687 10.7673 66.9689 11.3394 65.7298 11.4512C65.3517 11.4899 64.8975 11.5305 64.4388 11.5305C63.387 11.5305 62.5735 11.3057 61.9626 10.8434C61.7302 11.5712 61.7871 12.2316 62.132 12.7644C62.6343 13.5391 63.7026 13.9836 65.065 13.9836C65.6808 13.9836 66.3393 13.8934 67.0215 13.7156C69.652 13.04 70.3739 10.9984 70.1939 9.45532C69.9596 7.44296 68.165 5.27694 64.7793 5.27694C62.7067 5.27694 60.9208 5.9996 59.7496 7.31024C57.8942 9.33467 57.3713 12.6234 58.4757 15.3101ZM16.5463 7.31024C14.6909 9.33467 14.1675 12.624 15.2726 15.3114C16.3088 17.8311 18.5046 19.2764 21.2964 19.2764C23.7508 19.2764 25.4933 18.3925 26.7657 16.497L24.3695 15.2854C23.5393 16.1268 22.415 16.6075 21.2691 16.6075C21.021 16.6075 20.7748 16.5852 20.5348 16.5401C18.7725 16.2303 17.4851 14.322 17.541 12.1014C17.5918 9.75188 19.2463 7.89128 21.39 7.77444C21.4582 7.77128 21.5264 7.76872 21.5915 7.76872C23.2224 7.76872 24.4069 8.90285 24.4484 9.92079C24.4832 10.7673 23.765 11.3394 22.5266 11.4512C22.1471 11.4899 21.6957 11.5305 21.2362 11.5305C20.1839 11.5305 19.3709 11.3057 18.7595 10.8434C18.5263 11.5712 18.5846 12.2316 18.9288 12.7644C19.431 13.5391 20.4995 13.9836 21.8619 13.9836C22.4777 13.9836 23.1362 13.8934 23.8183 13.7156C26.4476 13.04 27.1706 10.9984 26.9908 9.45532C26.7558 7.44296 24.9612 5.27694 21.5754 5.27694C19.503 5.27694 17.7171 5.9996 16.5463 7.31024ZM46.4542 7.10388L46.1875 7.38073V5.66812L46.1026 5.66684C44.7204 5.66684 43.2328 6.47649 43.2328 8.25451V24.1304H46.1882V13.5042C46.1882 11.8849 46.5367 8.11736 49.7663 8.11736C52.2964 8.11736 53.4491 10.2618 53.4491 12.2538C53.4491 14.3335 52.1835 16.4385 49.7656 16.4385C49.1877 16.4385 47.8335 16.3401 47.0707 15.4803C46.8839 16.062 46.9069 16.9599 47.3267 17.72C47.6913 18.381 48.4869 19.1837 50.2023 19.2504C50.2557 19.2523 50.3102 19.2536 50.364 19.2536C51.8939 19.2536 53.4187 18.5423 54.5492 17.3009C55.7429 15.9902 56.4002 14.2211 56.4002 12.318C56.4002 7.77381 53.3444 5.32204 50.4695 5.32204C48.9924 5.32204 47.5647 5.95513 46.4542 7.10388ZM31.7879 7.10388L31.5196 7.38073V5.66812L31.4351 5.66684C30.0522 5.66684 28.5641 6.47649 28.5641 8.25451V24.1304H31.5196V13.5042C31.5196 11.8849 31.8685 8.11736 35.0977 8.11736C37.6289 8.11736 38.7809 10.2618 38.7809 12.2538C38.7809 14.3335 37.516 16.4385 35.0977 16.4385C34.5195 16.4385 33.1653 16.3401 32.4033 15.4803C32.2165 16.062 32.2401 16.9593 32.6586 17.7187C33.0239 18.381 33.819 19.1837 35.5347 19.251C35.5875 19.2523 35.642 19.2536 35.6959 19.2536C37.2257 19.2536 38.7505 18.5423 39.8818 17.3009C41.0755 15.9909 41.7328 14.2211 41.7328 12.318C41.7328 7.77381 38.6774 5.32204 35.8013 5.32204C34.325 5.32204 32.8994 5.95513 31.7879 7.10388ZM3.22567 7.10388L2.95778 7.38073V5.66812L2.87281 5.66684C1.48998 5.66684 0.00170898 6.47712 0.00170898 8.25514V24.1304H2.95715V13.5042C2.95715 11.8849 3.30567 8.11736 6.53521 8.11736C9.06526 8.11736 10.218 10.2618 10.218 12.2538C10.218 14.3335 8.95303 16.4385 6.53521 16.4385C5.95664 16.4385 4.60232 16.3401 3.83895 15.4803C3.65293 16.062 3.67711 16.9599 4.0957 17.72C4.46094 18.381 5.25528 19.1837 6.97301 19.2504C7.02508 19.2523 7.07967 19.2536 7.13422 19.2536C8.66219 19.2536 10.1877 18.5423 11.3188 17.3009C12.5125 15.9902 13.1698 14.2211 13.1698 12.318C13.1698 7.77381 10.1139 5.32204 7.23902 5.32204C5.7613 5.32204 4.33756 5.95513 3.22567 7.10388ZM108.048 5.62111C108.05 6.96926 108.061 16.2099 108.061 17.3041C108.061 19.8365 106.743 21.1776 104.146 21.2926C104.091 21.2945 104.035 21.2957 103.981 21.2957C102.534 21.2957 100.66 20.6525 99.7373 19.2497C99.462 20.4994 99.6239 21.5504 100.22 22.3784C101.01 23.4757 102.568 24.105 104.495 24.105C108.631 24.105 111.002 21.6933 111.002 17.4882V5.62176L108.048 5.62111ZM99.6338 5.62111V14.4014C99.6338 15.9108 99.9924 17.0304 100.731 17.8241C101.562 18.7119 102.658 19.1818 103.9 19.1818C104.002 19.1818 104.104 19.1786 104.207 19.1723C105.832 19.063 106.789 18.5309 107.13 17.546C107.535 16.3014 107.063 15.3635 106.66 14.9793C106.654 15.3006 106.558 15.5775 106.373 15.8048C106.051 16.2017 105.482 16.4112 104.73 16.4112C103.758 16.4112 103.036 15.7521 102.746 14.6014C102.47 13.5385 102.507 9.2864 102.53 6.74508L102.538 5.62111H99.6338Z" fill="url(#paint0_linear_935_356)"/>
</g>
<defs>
<linearGradient id="paint0_linear_935_356" x1="0.00170898" y1="12.0652" x2="111.002" y2="12.0652" gradientUnits="userSpaceOnUse">
<stop stop-color="#EE2224"/>
<stop offset="1" stop-color="#F16521"/>
</linearGradient>
</defs>
</svg>
