<svg width="21" height="24" viewBox="0 0 21 24" fill="none" xmlns="http://www.w3.org/2000/svg">
<path fill-rule="evenodd" clip-rule="evenodd" d="M19.9842 5.74538L20.5467 4.36688C20.5467 4.36688 19.8309 3.60075 18.9616 2.73263C18.0927 1.8645 16.2522 2.37525 16.2522 2.37525L14.1564 0H6.79473L4.69885 2.37525C4.69885 2.37525 2.85835 1.8645 1.98948 2.73263C1.12023 3.60075 0.404727 4.36688 0.404727 4.36688L0.967227 5.74538L0.250977 7.788C0.250977 7.788 2.35623 15.7515 2.60298 16.7243C3.0886 18.639 3.42085 19.3792 4.80123 20.3498C6.18123 21.3199 8.68623 23.0047 9.09498 23.2605C9.5041 23.5155 10.0156 23.9505 10.4757 23.9505C10.9359 23.9505 11.447 23.5155 11.8557 23.2605C12.2649 23.0051 14.7695 21.3199 16.1502 20.3498C17.5302 19.3796 17.8629 18.639 18.3485 16.7243C18.5949 15.7515 20.6997 7.788 20.6997 7.788L19.9842 5.74538Z" fill="url(#paint0_linear_931_3413)"/>
<path fill-rule="evenodd" clip-rule="evenodd" d="M13.0826 4.3154C13.3893 4.3154 15.6644 3.88152 15.6644 3.88152C15.6644 3.88152 18.3603 7.13652 18.3603 7.83252C18.3603 8.40777 18.1282 8.63277 17.8552 8.89827C17.7982 8.95377 17.7389 9.01077 17.6801 9.07377L15.6588 11.2176C15.6371 11.2404 15.6151 11.2629 15.5928 11.2851C15.3911 11.4876 15.0941 11.7861 15.3033 12.2819L15.3464 12.3828C15.5763 12.9198 15.8602 13.5828 15.4991 14.254C15.1147 14.9688 14.4566 15.4458 14.0347 15.3666C13.6132 15.2879 12.6224 14.7708 12.2583 14.5349C11.8942 14.2986 10.7396 13.3476 10.7396 12.9835C10.7396 12.6801 11.5698 12.1754 11.9733 11.9298C12.0536 11.881 12.1169 11.8428 12.1533 11.818C12.1949 11.7899 12.2647 11.7468 12.3506 11.6935C12.7184 11.4648 13.3833 11.0523 13.4002 10.8696C13.4208 10.6439 13.4129 10.5779 13.1159 10.0206C13.0529 9.90215 12.9791 9.7754 12.9029 9.64415C12.6202 9.15852 12.3037 8.61477 12.3742 8.22515C12.4529 7.78527 13.1429 7.53327 13.7272 7.31952C13.7999 7.29327 13.8716 7.26702 13.9398 7.24115L14.5484 7.01277C15.1319 6.79452 15.7799 6.5519 15.8872 6.50277C16.0349 6.4349 15.9967 6.36965 15.5486 6.32727C15.476 6.32016 15.4035 6.31266 15.3311 6.30477C14.7761 6.2459 13.7527 6.13752 13.2554 6.2759C13.1576 6.30327 13.0481 6.3329 12.9329 6.36402C12.3742 6.51515 11.6891 6.7004 11.6231 6.80727C11.6118 6.82602 11.6006 6.84215 11.5897 6.85715C11.5267 6.9464 11.4858 7.0049 11.5556 7.3844C11.5762 7.49765 11.6189 7.72002 11.6718 7.99527C11.8256 8.80077 12.0667 10.057 12.0971 10.339C12.1012 10.3788 12.1061 10.4166 12.1106 10.4534C12.1492 10.7684 12.1747 10.978 11.8087 11.0616L11.7131 11.0834C11.2998 11.1779 10.6942 11.317 10.4756 11.317C10.2566 11.317 9.65057 11.1783 9.23732 11.0834L9.14207 11.0616C8.77607 10.978 8.80195 10.7684 8.84057 10.4534C8.84507 10.4166 8.84957 10.3784 8.8537 10.339C8.88407 10.0566 9.12557 8.79702 9.28007 7.9919C9.33257 7.71815 9.37495 7.4969 9.39557 7.3844C9.46495 7.0049 9.42407 6.9464 9.36107 6.85715C9.34947 6.84076 9.33821 6.82414 9.32732 6.80727C9.26207 6.7004 8.57732 6.51515 8.0182 6.36402C7.90307 6.3329 7.7932 6.30327 7.6957 6.2759C7.19807 6.13715 6.17507 6.2459 5.62007 6.30477C5.53532 6.31377 5.46182 6.32165 5.40257 6.32727C4.95407 6.36965 4.9162 6.4349 5.06395 6.50277C5.17082 6.5519 5.81882 6.79452 6.40195 7.01277C6.62582 7.0964 6.8407 7.17665 7.01095 7.24115C7.07957 7.26702 7.15082 7.2929 7.22395 7.3199C7.8082 7.53365 8.4982 7.78527 8.57695 8.22515C8.64707 8.61477 8.33057 9.15852 8.04819 9.64415C7.97169 9.7754 7.8982 9.90215 7.83482 10.0206C7.5382 10.5779 7.53032 10.6439 7.55095 10.8696C7.56745 11.0526 8.23195 11.4648 8.60019 11.6935C8.68607 11.7468 8.75582 11.7899 8.79745 11.818C8.8342 11.8428 8.8972 11.881 8.97745 11.9298C9.38095 12.175 10.2112 12.6798 10.2112 12.9835C10.2112 13.3473 9.05695 14.2986 8.69245 14.5349C8.3287 14.7711 7.33795 15.2879 6.91607 15.3666C6.49457 15.4454 5.83607 14.9688 5.45207 14.2544C5.09095 13.5828 5.37445 12.9198 5.60432 12.3831L5.64745 12.2819C5.85707 11.7861 5.56007 11.4876 5.35795 11.2851C5.33577 11.2629 5.31389 11.2404 5.29232 11.2176L3.27107 9.07377C3.21182 9.01115 3.15257 8.95377 3.09557 8.89827C2.82257 8.63315 2.59082 8.40777 2.59082 7.83252C2.59082 7.1369 5.2867 3.88152 5.2867 3.88152C5.2867 3.88152 7.56145 4.3154 7.8682 4.3154C8.11307 4.3154 8.58557 4.15302 9.07832 3.98352C9.2032 3.94077 9.3292 3.89727 9.45332 3.85602C10.0664 3.65165 10.4756 3.65015 10.4756 3.65015C10.4756 3.65015 10.8843 3.65165 11.4978 3.85602C11.6216 3.89727 11.7479 3.94077 11.8728 3.98352C12.3652 4.15302 12.8381 4.3154 13.0826 4.3154ZM12.6922 15.8301C13.1729 16.0776 13.5142 16.2531 13.6432 16.3338C13.8101 16.438 13.7084 16.6349 13.5562 16.7425C13.4043 16.8494 11.3613 18.4296 11.1633 18.6044L11.0827 18.676C10.8918 18.8481 10.6481 19.0675 10.4752 19.0675C10.3027 19.0675 10.0589 18.8478 9.8677 18.676L9.78782 18.6044C9.58907 18.4296 7.54644 16.8494 7.39457 16.7421C7.2427 16.6349 7.1407 16.4384 7.30757 16.3334C7.43657 16.2531 7.7782 16.0773 8.2597 15.8294L8.7172 15.5935C9.4372 15.2215 10.3353 14.9046 10.4756 14.9046C10.6154 14.9046 11.5132 15.2211 12.2339 15.5935C12.3974 15.6783 12.5508 15.7578 12.6922 15.8301Z" fill="white"/>
<path fill-rule="evenodd" clip-rule="evenodd" d="M16.253 2.37525L14.1571 0H6.79548L4.69961 2.37525C4.69961 2.37525 2.85911 1.8645 1.99023 2.73263C1.99023 2.73263 4.44423 2.51137 5.28761 3.88162C5.28761 3.88162 7.56236 4.3155 7.86911 4.3155C8.17586 4.3155 8.84036 4.0605 9.45386 3.85612C10.0674 3.65175 10.4765 3.65025 10.4765 3.65025C10.4765 3.65025 10.8852 3.65175 11.4987 3.85612C12.1122 4.0605 12.7767 4.3155 13.0835 4.3155C13.3902 4.3155 15.6654 3.88162 15.6654 3.88162C16.5087 2.51137 18.9624 2.73263 18.9624 2.73263C18.0935 1.8645 16.253 2.37525 16.253 2.37525Z" fill="url(#paint1_linear_931_3413)"/>
<defs>
<linearGradient id="paint0_linear_931_3413" x1="0.251352" y1="24.1196" x2="20.6997" y2="24.1196" gradientUnits="userSpaceOnUse">
<stop stop-color="#FF5500"/>
<stop offset="0.41" stop-color="#FF5500"/>
<stop offset="0.582" stop-color="#FF2000"/>
<stop offset="1" stop-color="#FF2000"/>
</linearGradient>
<linearGradient id="paint1_linear_931_3413" x1="2.35473" y1="4.29975" x2="18.9624" y2="4.29975" gradientUnits="userSpaceOnUse">
<stop stop-color="#FF452A"/>
<stop offset="1" stop-color="#FF2000"/>
</linearGradient>
</defs>
</svg>
