<svg width="24" height="24" viewBox="0 0 24 24" fill="none" xmlns="http://www.w3.org/2000/svg">
<path d="M12 17.9973C15.3137 17.9973 18 15.311 18 11.9973C18 8.68361 15.3137 5.99731 12 5.99731C8.68629 5.99731 6 8.68361 6 11.9973C6 15.311 8.68629 17.9973 12 17.9973Z" fill="white"/>
<path d="M11.9997 6.00002H22.3903C21.3374 4.17571 19.8228 2.66077 17.9987 1.60752C16.1746 0.554277 14.1053 -0.000146935 11.999 2.92099e-08C9.8926 0.000146994 7.82342 0.55486 5.99946 1.60836C4.17549 2.66186 2.66105 4.17702 1.6084 6.00147L6.8037 15L6.80835 14.9988C6.27985 14.0875 6.00095 13.0529 5.99977 11.9994C5.99858 10.9458 6.27515 9.91062 6.8016 8.99807C7.32805 8.08552 8.08577 7.32788 8.99838 6.80153C9.91099 6.27518 10.9462 5.99872 11.9997 6.00002Z" fill="url(#paint0_linear_931_3330)"/>
<path d="M12 16.75C14.6234 16.75 16.75 14.6234 16.75 12C16.75 9.37665 14.6234 7.25 12 7.25C9.37665 7.25 7.25 9.37665 7.25 12C7.25 14.6234 9.37665 16.75 12 16.75Z" fill="#1A73E8"/>
<path d="M17.1956 15.0014L12.0003 23.9999C14.1067 24.0002 16.176 23.4459 18.0001 22.3928C19.8243 21.3397 21.3391 19.8249 22.3921 18.0007C23.4452 16.1764 23.9993 14.1071 23.999 12.0008C23.9986 9.89443 23.4437 7.82531 22.39 6.00146H11.9994L11.9982 6.00611C13.0517 6.00408 14.0871 6.27983 15.0001 6.80556C15.9131 7.33128 16.6713 8.08841 17.1984 9.00061C17.7254 9.9128 18.0027 10.9478 18.0022 12.0014C18.0017 13.0549 17.7235 14.0897 17.1956 15.0014Z" fill="url(#paint1_linear_931_3330)"/>
<path d="M6.80431 15.0015L1.60901 6.00293C0.555576 7.82693 0.000932998 9.89613 0.000854501 12.0025C0.000776003 14.1088 0.555265 16.1781 1.60857 18.0022C2.66187 19.8262 4.17686 21.3408 6.00119 22.3937C7.82553 23.4465 9.89492 24.0005 12.0013 23.9999L17.1966 15.0014L17.1932 14.998C16.6682 15.9114 15.9117 16.6702 14.9999 17.198C14.0881 17.7258 13.0533 18.0038 11.9998 18.0042C10.9463 18.0046 9.91126 17.7272 8.99912 17.2C8.08699 16.6728 7.32995 15.9145 6.80431 15.0015Z" fill="url(#paint2_linear_931_3330)"/>
<defs>
<linearGradient id="paint0_linear_931_3330" x1="1.6084" y1="7.50002" x2="22.3903" y2="7.50002" gradientUnits="userSpaceOnUse">
<stop stop-color="#D93025"/>
<stop offset="1" stop-color="#EA4335"/>
</linearGradient>
<linearGradient id="paint1_linear_931_3330" x1="10.3609" y1="23.8395" x2="20.7519" y2="5.84176" gradientUnits="userSpaceOnUse">
<stop stop-color="#FCC934"/>
<stop offset="1" stop-color="#FBBC04"/>
</linearGradient>
<linearGradient id="paint2_linear_931_3330" x1="13.2991" y1="23.2507" x2="2.90806" y2="5.25293" gradientUnits="userSpaceOnUse">
<stop stop-color="#1E8E3E"/>
<stop offset="1" stop-color="#34A853"/>
</linearGradient>
</defs>
</svg>
