<svg width="19" height="24" viewBox="0 0 19 24" fill="none" xmlns="http://www.w3.org/2000/svg">
<path d="M7.26448 23.8687C7.3353 23.9515 7.43876 23.9994 7.54758 23.9999H11.172C11.3714 24.0002 11.5361 23.8445 11.547 23.6455C11.8376 18.4688 16.5325 17.6678 16.7314 17.6455C16.9147 17.6159 17.0488 17.4563 17.0465 17.2705V14.9812C17.0465 14.8818 17.0069 14.7863 16.9366 14.716C16.8662 14.6457 16.7709 14.6062 16.6715 14.6062H2.19095C2.12683 14.6005 2.06221 14.6116 2.00345 14.638C1.7279 14.7656 1.71651 14.7693 1.85161 17.1018C1.85797 17.2524 1.9539 17.3847 2.09536 17.4374C7.66419 19.6874 7.20091 23.4207 7.17862 23.5762C7.16456 23.6815 7.19603 23.7879 7.26484 23.8687L7.26448 23.8687ZM2.67665 16.8598H10.5516C10.4657 16.6172 10.4657 16.3526 10.5516 16.1098H2.55665C2.54359 15.8174 2.53221 15.5473 2.52852 15.3598H16.3002V16.1098H12.6627C12.7484 16.3526 12.7484 16.6173 12.6627 16.8598H16.3002V16.963C15.1546 17.2499 11.2735 18.5624 10.8269 23.2501H7.93943C7.93759 22.0951 7.46701 18.9245 2.67659 16.8601L2.67665 16.8598Z" fill="#ED712E"/>
<path d="M1.58713 3.38257C1.58713 3.58965 1.42006 3.75756 1.21398 3.75756C1.00789 3.75756 0.84082 3.58965 0.84082 3.38257C0.84082 3.17548 1.00789 3.00757 1.21398 3.00757C1.42006 3.00757 1.58713 3.17548 1.58713 3.38257Z" fill="#ED712E"/>
<path d="M1.58713 2.63061C1.58713 2.8377 1.42006 3.00561 1.21398 3.00561C1.00789 3.00561 0.84082 2.8377 0.84082 2.63061C0.84082 2.42336 1.00789 2.25562 1.21398 2.25562C1.42006 2.25562 1.58713 2.42336 1.58713 2.63061Z" fill="#ED712E"/>
<path d="M1.58713 1.87866C1.58713 2.08591 1.42006 2.25366 1.21398 2.25366C1.00789 2.25366 0.84082 2.08591 0.84082 1.87866C0.84082 1.67158 1.00789 1.50366 1.21398 1.50366C1.42006 1.50366 1.58713 1.67158 1.58713 1.87866Z" fill="#ED712E"/>
<path d="M1.58713 1.12695C1.58713 1.33404 1.42006 1.50195 1.21398 1.50195C1.00789 1.50195 0.84082 1.33404 0.84082 1.12695C0.84082 0.919867 1.00789 0.751953 1.21398 0.751953C1.42006 0.751953 1.58713 0.919867 1.58713 1.12695Z" fill="#ED712E"/>
<path d="M1.58713 0.374998C1.58713 0.582083 1.42006 0.749997 1.21398 0.749997C1.00789 0.749997 0.84082 0.582083 0.84082 0.374998C0.84082 0.167914 1.00789 0 1.21398 0C1.42006 0 1.58713 0.167914 1.58713 0.374998Z" fill="#ED712E"/>
<path d="M10.0416 8.9999C10.1735 8.99772 10.2946 8.92658 10.3604 8.8124C10.3245 9.06837 10.3296 9.32853 10.3754 9.58297C10.2926 9.41221 10.095 9.33018 9.91557 9.39229C9.7361 9.45423 9.6313 9.64073 9.67165 9.82639C9.712 10.0119 9.8846 10.1381 10.0738 10.12C10.2628 10.1019 10.4084 9.94542 10.4129 9.75558C10.4859 10.033 10.6133 10.293 10.7879 10.5205C11.1798 11.0343 11.9822 11.5949 13.6117 11.5949C13.9061 11.5941 14.2003 11.5778 14.4929 11.5462C18.1848 11.1561 18.1455 8.42617 18.1285 6.95964V6.60339C18.1285 6.44402 18.1285 5.20283 17.6335 4.44349C17.7793 4.35359 17.8456 4.17647 17.7949 4.01291C17.744 3.84951 17.589 3.7412 17.4179 3.74974C17.2811 3.75141 17.156 3.82758 17.0916 3.94845C16.8532 3.84014 16.5855 3.81386 16.3303 3.87345L15.9197 3.95599C14.191 4.31224 11.8041 4.77914 10.4859 8.30211C10.4546 8.38732 10.4283 8.47437 10.407 8.5626C10.3844 8.41846 10.2801 8.30044 10.1398 8.26026C9.99954 8.22008 9.8487 8.26494 9.75311 8.37543C9.65752 8.48576 9.63475 8.64145 9.69468 8.77454C9.75445 8.9078 9.8862 8.99402 10.032 8.99586L10.0416 8.9999ZM17.2921 5.67549H17.2923C17.3494 5.98101 17.3775 6.29104 17.3767 6.60175V6.97675C17.3973 8.45797 17.4272 10.4848 14.4105 10.8036C12.9293 10.9611 11.8868 10.7117 11.39 10.0874C12.7363 6.57934 15.0668 6.1161 16.9416 5.74513L17.2921 5.67549ZM11.191 8.56867C12.3535 5.43746 14.4103 5.0286 16.066 4.7025L16.486 4.61813C16.5286 4.60859 16.5719 4.60356 16.6154 4.60306C16.7097 4.60088 16.8014 4.63437 16.8723 4.69681C16.9503 4.76913 17.0139 4.85568 17.0598 4.95178L16.7991 5.00434C15.016 5.35691 12.6329 5.82934 11.0974 8.89678C11.117 8.78445 11.1485 8.67446 11.1912 8.56866L11.191 8.56867Z" fill="#ED712E"/>
<path d="M17.7907 3.38257C17.7907 3.58965 17.6237 3.75756 17.4176 3.75756C17.2115 3.75756 17.0444 3.58965 17.0444 3.38257C17.0444 3.17548 17.2115 3.00757 17.4176 3.00757C17.6237 3.00757 17.7907 3.17548 17.7907 3.38257Z" fill="#ED712E"/>
<path d="M17.7907 2.63061C17.7907 2.8377 17.6237 3.00561 17.4176 3.00561C17.2115 3.00561 17.0444 2.8377 17.0444 2.63061C17.0444 2.42336 17.2115 2.25562 17.4176 2.25562C17.6237 2.25562 17.7907 2.42336 17.7907 2.63061Z" fill="#ED712E"/>
<path d="M17.7907 1.87866C17.7907 2.08591 17.6237 2.25366 17.4176 2.25366C17.2115 2.25366 17.0444 2.08591 17.0444 1.87866C17.0444 1.67158 17.2115 1.50366 17.4176 1.50366C17.6237 1.50366 17.7907 1.67158 17.7907 1.87866Z" fill="#ED712E"/>
<path d="M17.7907 1.12695C17.7907 1.33404 17.6237 1.50195 17.4176 1.50195C17.2115 1.50195 17.0444 1.33404 17.0444 1.12695C17.0444 0.919867 17.2115 0.751953 17.4176 0.751953C17.6237 0.751953 17.7907 0.919867 17.7907 1.12695Z" fill="#ED712E"/>
<path d="M17.7907 0.374998C17.7907 0.582083 17.6237 0.749997 17.4176 0.749997C17.2115 0.749997 17.0444 0.582083 17.0444 0.374998C17.0444 0.167914 17.2115 0 17.4176 0C17.6237 0 17.7907 0.167914 17.7907 0.374998Z" fill="#ED712E"/>
<path d="M9.66989 8.62109C9.66989 8.82818 9.50282 8.99609 9.29674 8.99609C9.09066 8.99609 8.92358 8.82818 8.92358 8.62109C8.92358 8.41384 9.09066 8.24609 9.29674 8.24609C9.50282 8.24609 9.66989 8.41384 9.66989 8.62109Z" fill="#ED712E"/>
<path d="M4.14056 11.5461C4.4332 11.5777 4.72732 11.594 5.02179 11.5948C6.65121 11.5948 7.45928 11.0323 7.8455 10.5204C7.99952 10.3176 8.11637 10.089 8.19054 9.84538C8.23473 10.012 8.38674 10.1271 8.55901 10.1243C8.73144 10.1216 8.8796 10.0016 8.91844 9.83367C8.95711 9.66575 8.87642 9.49299 8.72273 9.41497C8.56905 9.33696 8.38206 9.37379 8.26922 9.5042C8.29634 9.29561 8.29634 9.0845 8.26922 8.87609C8.3392 8.95243 8.43764 8.99663 8.5411 8.99797C8.68088 8.99931 8.80979 8.92297 8.87558 8.79975C8.94138 8.67654 8.93334 8.52688 8.85449 8.41153C8.77581 8.29619 8.63937 8.23408 8.50075 8.25048C8.36197 8.26706 8.24395 8.35913 8.19423 8.48988C8.17548 8.42609 8.15673 8.36231 8.1343 8.30238C6.8218 4.77739 4.43874 4.30682 2.69661 3.96354L2.30286 3.88101C2.04773 3.82124 1.78022 3.84769 1.54163 3.95601C1.47902 3.83162 1.35263 3.75227 1.21351 3.74976C1.04828 3.74942 0.902297 3.85707 0.854083 4.0151C0.805702 4.17297 0.866472 4.3439 1.00341 4.43597C0.502845 5.20289 0.502845 6.44403 0.502845 6.60157V6.95967C0.485936 8.42602 0.446595 11.156 4.14033 11.5462L4.14056 11.5461ZM1.76299 4.68726C1.8338 4.62482 1.92555 4.59133 2.01996 4.59351C2.06349 4.59401 2.10685 4.59904 2.14937 4.60858L2.5694 4.69296C4.22124 5.02844 6.27803 5.43725 7.44052 8.56851C7.51519 8.77827 7.54833 9.00042 7.53795 9.22294C6.00985 5.86102 3.52547 5.36984 1.68027 5.00418L1.54717 4.9779C1.59807 4.86708 1.67156 4.76814 1.7628 4.68728L1.76299 4.68726ZM1.25308 6.97107V6.59607C1.25207 6.2954 1.27836 5.99556 1.33176 5.69976L1.5437 5.74295C3.43562 6.11795 5.78872 6.58303 7.13139 10.1718C7.13139 10.1718 7.13139 10.1848 7.1426 10.1924C6.61392 10.7379 5.6088 10.9424 4.21762 10.7999C1.2007 10.4793 1.23087 8.45251 1.25329 6.97125L1.25308 6.97107Z" fill="#ED712E"/>
<path d="M9.66989 9.74829C9.66989 9.95537 9.50282 10.1233 9.29674 10.1233C9.09066 10.1233 8.92358 9.95537 8.92358 9.74829C8.92358 9.5412 9.09066 9.37329 9.29674 9.37329C9.50282 9.37329 9.66989 9.5412 9.66989 9.74829Z" fill="#ED712E"/>
<path d="M11.9839 16.4849C11.9839 16.6921 11.8168 16.8599 11.6107 16.8599C11.4046 16.8599 11.2375 16.6921 11.2375 16.4849C11.2375 16.2778 11.4046 16.1099 11.6107 16.1099C11.8168 16.1099 11.9839 16.2778 11.9839 16.4849Z" fill="#ED712E"/>
</svg>
