<svg width="68" height="55" viewBox="0 0 68 55" fill="none" xmlns="http://www.w3.org/2000/svg">
<path d="M12.3393 53.9838V50.3889C12.3393 49.0103 11.5223 48.112 10.1813 48.112C9.47693 48.112 8.72329 48.3521 8.19786 49.1246C7.78934 48.4649 7.21179 48.112 6.33137 48.112C6.00403 48.0974 5.67829 48.1665 5.38329 48.3129C5.08829 48.4593 4.83325 48.6786 4.64097 48.951V48.2277H3.53235V53.9794H4.64097V50.6884C4.64097 49.6758 5.22416 49.1911 6.04119 49.1911C6.85821 49.1911 7.32448 49.7307 7.32448 50.6884V53.9838H8.4331V50.6884C8.4331 49.6758 9.01629 49.1911 9.83332 49.1911C10.6503 49.1911 11.1166 49.7307 11.1166 50.6884V53.9838H12.3393ZM30.5422 48.2914H28.4996V46.5554H27.3938V48.2914H26.2274V49.304H27.3938V52.0063C27.3938 53.3241 27.86 54.1038 29.2603 54.1038C29.7907 54.0925 30.3105 53.9485 30.7746 53.6843L30.4238 52.6717C30.1091 52.8737 29.7441 52.9777 29.373 52.9711C28.7898 52.9711 28.4982 52.6109 28.4982 52.012V49.2577H30.5407V48.2986L30.5422 48.2914ZM40.9269 48.112C40.6249 48.1051 40.3264 48.1787 40.0604 48.3258C39.7945 48.4729 39.5703 48.6883 39.4097 48.951V48.2277H38.3011V53.9794H39.4097V50.7491C39.4097 49.79 39.876 49.1911 40.6353 49.1911C40.8915 49.2018 41.1457 49.2421 41.3931 49.3112L41.7439 48.232C41.4764 48.1628 41.2025 48.1225 40.9269 48.112ZM25.2329 48.7109C24.6497 48.2914 23.8327 48.112 22.9579 48.112C21.5577 48.112 20.6829 48.7716 20.6829 49.9101C20.6829 50.8692 21.3252 51.4074 22.5494 51.5882L23.1326 51.6475C23.7749 51.7676 24.1834 52.0077 24.1834 52.3071C24.1834 52.7267 23.7172 53.0305 22.841 53.0305C22.1719 53.0446 21.5167 52.8343 20.9745 52.4316L20.3913 53.3299C21.2083 53.9288 22.2 54.0532 22.786 54.0532C24.4201 54.0532 25.2949 53.2749 25.2949 52.1958C25.2949 51.1831 24.5905 50.6985 23.3692 50.5177L22.786 50.4584C22.2606 50.3991 21.8 50.2182 21.8 49.8595C21.8 49.44 22.2662 49.1362 22.9086 49.1362C23.6129 49.1362 24.3088 49.4356 24.6596 49.615L25.2329 48.7109ZM42.1524 51.1079C42.1524 52.8438 43.261 54.1038 45.0697 54.1038C45.8868 54.1038 46.47 53.9245 47.0532 53.4442L46.47 52.5458C46.057 52.8893 45.5433 53.0794 45.012 53.0854C44.0259 53.0854 43.261 52.3071 43.261 51.1687C43.261 50.0302 44.0161 49.2577 45.012 49.2577C45.5433 49.2637 46.057 49.4539 46.47 49.7973L47.0532 48.8989C46.47 48.4201 45.8868 48.2393 45.0697 48.2393C43.3188 48.1192 42.1524 49.3778 42.1524 51.1151V51.1079ZM34.3343 48.112C32.7002 48.112 31.5916 49.3098 31.5916 51.1079C31.5916 52.906 32.758 54.1038 34.4498 54.1038C35.2728 54.1217 36.0766 53.8467 36.7248 53.3256L36.1416 52.4865C35.6728 52.8596 35.1004 53.0694 34.5075 53.0854C33.7497 53.0854 32.9327 52.6066 32.8171 51.5882H36.96V51.1094C36.96 49.3112 35.9092 48.1134 34.3343 48.1134V48.112ZM34.2765 49.1911C35.0936 49.1911 35.6767 49.7307 35.7345 50.6291H32.7016C32.8763 49.79 33.406 49.1911 34.2765 49.1911ZM19.1657 51.1079V48.232H18.0571V48.9554C17.6486 48.4158 17.0711 48.1163 16.2484 48.1163C14.6735 48.1163 13.5057 49.3749 13.5057 51.1122C13.5057 52.8496 14.6721 54.1082 16.2484 54.1082C17.0654 54.1082 17.6486 53.8087 18.0571 53.2691V53.9925H19.1657V51.1079ZM14.6735 51.1079C14.6735 50.0287 15.3159 49.1911 16.4245 49.1911C17.4753 49.1911 18.1149 50.0302 18.1149 51.1079C18.1149 52.2464 17.4105 53.0247 16.4245 53.0247C15.3159 53.084 14.6735 52.1856 14.6735 51.1079ZM57.79 48.112C57.4881 48.1051 57.1895 48.1787 56.9236 48.3258C56.6577 48.4729 56.4335 48.6883 56.2729 48.951V48.2277H55.1643V53.9794H56.2715V50.7491C56.2715 49.79 56.7377 49.1911 57.497 49.1911C57.7532 49.2018 58.0075 49.2421 58.2549 49.3112L58.6056 48.232C58.3381 48.1628 58.0643 48.1225 57.7886 48.112H57.79ZM53.4725 51.1079V48.232H52.3638V48.9554C51.9553 48.4158 51.3778 48.1163 50.5551 48.1163C48.9802 48.1163 47.8124 49.3749 47.8124 51.1122C47.8124 52.8496 48.9788 54.1082 50.5551 54.1082C51.3721 54.1082 51.9553 53.8087 52.3638 53.2691V53.9925H53.4725V51.1079ZM48.9802 51.1079C48.9802 50.0287 49.6226 49.1911 50.7312 49.1911C51.782 49.1911 52.4216 50.0302 52.4216 51.1079C52.4216 52.2464 51.7172 53.0247 50.7312 53.0247C49.6226 53.084 48.9802 52.1856 48.9802 51.1079ZM64.7333 51.1079V45.9551H63.6247V48.951C63.2162 48.4114 62.6386 48.112 61.816 48.112C60.2411 48.112 59.0733 49.3705 59.0733 51.1079C59.0733 52.8453 60.2397 54.1038 61.816 54.1038C62.633 54.1038 63.2162 53.8044 63.6247 53.2648V53.9881H64.7333V51.1079ZM60.2411 51.1079C60.2411 50.0287 60.8834 49.1911 61.9921 49.1911C63.0429 49.1911 63.6825 50.0302 63.6825 51.1079C63.6825 52.2464 62.9781 53.0247 61.9921 53.0247C60.882 53.0854 60.2397 52.1871 60.2397 51.1079H60.2411Z" fill="black"/>
<path d="M44.1946 4.61353H23.9492V38.525H44.1946V4.61353Z" fill="#FF5F00"/>
<path d="M25.9921 21.5692C25.9928 18.3069 26.7122 15.0871 28.0963 12.1507C29.4805 9.21438 31.4936 6.63766 33.9849 4.6135C30.8866 2.1119 27.1655 0.555998 23.2468 0.123662C19.3281 -0.308674 15.37 0.4 11.825 2.16867C8.28001 3.93735 5.29113 6.69465 3.20003 10.1254C1.10893 13.5561 0 17.5218 0 21.5692C0 25.6166 1.10893 29.5824 3.20003 33.0131C5.29113 36.4438 8.28001 39.2011 11.825 40.9698C15.37 42.7385 19.3281 43.4472 23.2468 43.0148C27.1655 42.5825 30.8866 41.0266 33.9849 38.525C31.4936 36.5008 29.4805 33.9241 28.0963 30.9878C26.7122 28.0514 25.9928 24.8315 25.9921 21.5692Z" fill="#EB001B"/>
<path d="M67.9997 21.57C68.0025 25.6144 66.8969 29.5781 64.8092 33.0075C62.7216 36.437 59.7361 39.1938 56.1944 40.9627C52.6527 42.7316 48.6977 43.4412 44.7818 43.0102C40.8658 42.5792 37.1471 41.0252 34.0508 38.5257C36.5427 36.5021 38.5562 33.9255 39.9404 30.989C41.3247 28.0526 42.0438 24.8324 42.0438 21.57C42.0438 18.3075 41.3247 15.0874 39.9404 12.1509C38.5562 9.21449 36.5427 6.63788 34.0508 4.61425C37.1471 2.11481 40.8658 0.560736 44.7818 0.12977C48.6977 -0.301196 52.6527 0.408349 56.1944 2.17725C59.7361 3.94615 62.7216 6.70299 64.8092 10.1325C66.8969 13.5619 68.0025 17.5255 67.9997 21.57Z" fill="#F79E1B"/>
</svg>
