<svg width="66" height="66" viewBox="0 0 66 66" fill="none" xmlns="http://www.w3.org/2000/svg">
<path d="M20.4097 51.288H26.5077L27.5677 54.6886H31.3169L25.4931 38.1659H21.513L15.6274 54.6907H19.261L20.4097 51.288ZM23.4474 41.8965H23.4948L25.5406 48.4297H21.3295L23.4474 41.8965ZM14.6251 49.7949C14.6251 48.1595 14.0972 46.5489 12.072 45.7921C12.7608 45.4477 14.0972 44.7816 14.0972 42.4079C14.0972 40.7045 13.0619 38.17 9.00962 38.17H0.979248V54.6969H7.97644C11.3606 54.6969 12.2577 54.1215 13.2001 53.1955C14.0724 52.348 14.6251 51.1003 14.6251 49.7949ZM4.29533 41.0283H8.25484C9.81802 41.0283 10.7852 41.4408 10.7852 42.7977C10.7852 44.1134 9.70666 44.6414 8.34352 44.6414H4.29533V41.0283ZM8.52706 51.8406H4.29533V47.4213H8.68997C9.93557 47.4213 11.175 47.9801 11.175 49.4237C11.1729 51.1003 10.2057 51.8406 8.52706 51.8406ZM57.8868 44.9363L65.0201 54.6886H60.578L55.4699 47.4398L53.8593 49.0979V54.6886H50.4071V38.1659H53.8593V44.8847L60.1677 38.1659H64.6304L57.8868 44.9363ZM15.6294 63.8656C15.6294 62.2859 15.25 62.0261 14.555 61.7209C15.3923 61.4383 15.8645 60.6402 15.8645 59.7019C15.8645 58.9719 15.4541 57.3118 13.2022 57.3118H8.92094V65.7752H10.6574V62.4653H12.4824C13.792 62.4653 13.8641 62.9149 13.8641 64.0656C13.8641 64.9359 13.9322 65.3772 14.0497 65.7732H16.0068V65.5525C15.6294 65.4102 15.6294 65.1009 15.6294 63.8656ZM12.7237 61.0424H10.6553V58.7739H12.8578C13.893 58.7739 14.0951 59.4297 14.0951 59.8813C14.093 60.7145 13.6476 61.0424 12.7237 61.0424ZM18.4609 23.7034C18.4485 23.324 18.4361 22.8661 18.4196 22.3382C18.3866 21.802 18.5248 21.2205 18.5805 20.5626C18.6485 19.9027 18.7372 19.1871 18.9867 18.4571C19.1971 17.7208 19.3806 16.9124 19.7848 16.1597C19.9622 15.772 20.1437 15.374 20.3334 14.9739C20.5314 14.5801 20.8056 14.2233 21.0428 13.8376C21.5109 13.0457 22.1172 12.3487 22.738 11.6517C23.3381 10.9237 24.0784 10.369 24.7528 9.7276C25.4931 9.20379 26.1984 8.59749 26.9553 8.1706C27.6997 7.70041 28.4339 7.27972 29.1577 6.93326C29.8713 6.54762 30.5786 6.28778 31.2241 5.99906C32.2222 5.61136 33.109 5.31027 33.839 5.0958C33.5338 4.34514 33.2719 3.56355 33.078 2.73041C32.8739 1.87252 32.7007 0.996063 32.6842 0C33.6431 0.268091 34.4453 0.657855 35.2269 1.06618C36.0044 1.47863 36.7138 1.93851 37.3778 2.43757C38.7183 3.42538 39.8587 4.5658 40.8939 5.78871C41.6797 6.71466 41.7477 8.00769 41.1641 8.9955L41.0424 9.1976C40.0917 10.7876 38.9596 12.2662 37.5902 13.5902C36.9138 14.2542 36.1652 14.875 35.3341 15.4462C34.9155 15.7267 34.4762 15.9989 34.0287 16.2608C33.5647 16.5144 33.076 16.7475 32.5377 16.9537C32.5006 16.3804 32.5089 15.836 32.5501 15.3101C32.6017 14.7925 32.6677 14.2852 32.7481 13.784C32.9254 12.7962 33.1791 11.8579 33.5049 10.9649C33.5379 10.868 33.5771 10.7773 33.6142 10.6824C33.2966 10.7216 32.9667 10.7649 32.6079 10.8165C32.049 10.9361 31.4076 11.0186 30.7704 11.2042C30.1146 11.3526 29.4444 11.5609 28.7638 11.8084C28.0503 12.0187 27.411 12.3817 26.6851 12.6725C26.0479 13.0664 25.3116 13.3901 24.7074 13.8706C24.0743 14.3285 23.435 14.7904 22.9112 15.3616C22.6452 15.638 22.3358 15.8916 22.0945 16.1865C21.8656 16.4897 21.6347 16.7949 21.4099 17.0898C20.9108 17.6652 20.6035 18.3313 20.2653 18.9479C19.8941 19.5542 19.6693 20.1852 19.4755 20.7771C19.294 21.369 19.0321 21.9051 18.9558 22.4104C18.8589 22.9177 18.7743 23.357 18.7063 23.722C18.5702 24.4582 18.4897 24.881 18.4897 24.881C18.4897 24.881 18.4836 24.452 18.4609 23.7034ZM0.98131 57.3118H7.86508V58.8152H5.30171V65.7793H3.53849V58.8152H0.98131V57.3118ZM19.558 57.3118L16.5409 65.7752H18.4052L18.9929 64.0285H22.1152L22.6596 65.7752H24.5816L21.6017 57.3118H19.558ZM19.4672 62.5684L20.5541 59.2235H20.5705L21.6264 62.5684H19.4672ZM35.097 28.7538C34.3938 29.1601 33.6947 29.4447 33.0595 29.7499C32.0717 30.1665 31.1993 30.4923 30.4734 30.7295C30.8034 31.4698 31.0859 32.2452 31.3066 33.0722C31.5272 33.9239 31.7293 34.7942 31.7809 35.7861C30.8096 35.5489 29.9971 35.1819 29.2072 34.7983C28.4133 34.4106 27.6894 33.9734 27.013 33.4929C25.6478 32.5463 24.4723 31.4389 23.3999 30.249C22.5854 29.3457 22.4781 28.0568 23.0329 27.0504L23.1504 26.8483C24.0537 25.2295 25.1405 23.7178 26.4686 22.3547C27.1244 21.668 27.8544 21.0266 28.6628 20.4306C29.0773 20.1378 29.5001 19.8532 29.9434 19.5789C30.3992 19.3108 30.8818 19.0613 31.4138 18.8427C31.4654 19.4119 31.4736 19.9584 31.4468 20.4843C31.4097 21.0039 31.3623 21.5133 31.2983 22.0165C31.1499 23.0084 30.923 23.9529 30.626 24.8583C30.593 24.9552 30.5539 25.0459 30.525 25.1429C30.8385 25.0954 31.1705 25.0418 31.5272 24.9779C32.084 24.8438 32.7192 24.7428 33.3482 24.5366C33.9999 24.3695 34.666 24.1427 35.3362 23.8725C36.0436 23.6436 36.6725 23.26 37.3861 22.9486C38.013 22.5341 38.743 22.1918 39.3266 21.6927C39.9474 21.2184 40.5722 20.7338 41.0754 20.1502C41.3414 19.8656 41.6384 19.6016 41.8756 19.3026C42.0942 18.9891 42.3148 18.6798 42.5293 18.3766C43.0119 17.7848 43.2985 17.1125 43.6161 16.4856C43.9708 15.8669 44.175 15.2317 44.3461 14.6337C44.5111 14.0356 44.7565 13.4933 44.8184 12.9859C44.8988 12.4766 44.9669 12.0332 45.0267 11.6682C45.1525 10.9278 45.2123 10.5051 45.2123 10.5051C45.2123 10.5051 45.2453 10.9299 45.2845 11.6764C45.3051 12.0559 45.3298 12.5157 45.3649 13.0416C45.4103 13.5757 45.2968 14.1635 45.2535 14.8213C45.2082 15.4813 45.1339 16.201 44.9112 16.9351C44.7215 17.6755 44.5606 18.4901 44.1812 19.2531C44.0162 19.647 43.843 20.0491 43.6697 20.4554C43.48 20.8555 43.2222 21.2205 42.9954 21.6144C42.5499 22.4207 41.9684 23.1322 41.3683 23.8478C40.7888 24.5902 40.0649 25.1717 39.4112 25.8296C38.6832 26.3761 37.9944 27.003 37.252 27.4526C36.5323 27.9454 35.8064 28.3888 35.097 28.7538ZM42.1148 57.3118H48.1365V58.8152H43.8842V60.7248H47.6086V62.222H43.8842V65.7814H42.1148V57.3118ZM30.8879 57.3118H32.5398V65.7752H30.7683L27.3161 59.739H27.2893V65.7752H25.6416V57.3118H27.5017L30.8653 63.2036H30.8859L30.8879 57.3118ZM63.9003 63.8656C63.9003 62.2859 63.5167 62.0261 62.8259 61.7209C63.659 61.4383 64.1395 60.6402 64.1395 59.7019C64.1395 58.9719 63.725 57.3118 61.4731 57.3118H57.196V65.7752H58.9324V62.4653H60.7575C62.0629 62.4653 62.1392 62.9149 62.1392 64.0656C62.1392 64.9359 62.2072 65.3772 62.3268 65.7732H64.2777V65.5525C63.9003 65.4102 63.9003 65.1009 63.9003 63.8656ZM61.0008 61.0424H58.9303V58.7739H61.1287C62.168 58.7739 62.3701 59.4297 62.3701 59.8813C62.3701 60.7145 61.9226 61.0424 61.0008 61.0424ZM40.764 63.2304C40.764 65.769 38.1677 66 37.4294 66C34.3401 66 33.8143 64.2244 33.8143 63.1706H35.5053C35.5177 63.6429 35.7548 64.5379 37.3015 64.5379C38.1326 64.5379 39.0668 64.3316 39.0668 63.4469C39.0668 62.7829 38.4275 62.6097 37.5346 62.3931L36.6292 62.1787C35.2599 61.8652 33.9421 61.5538 33.9421 59.6895C33.9421 58.7471 34.4474 57.087 37.1943 57.087C39.7886 57.087 40.4815 58.7822 40.4939 59.8195H38.8028C38.7554 59.4421 38.6131 58.5491 37.0664 58.5491C36.3983 58.5491 35.5919 58.7945 35.5919 59.5596C35.5919 60.2195 36.1364 60.3618 36.4911 60.4464L38.5492 60.9537C39.702 61.2342 40.764 61.7105 40.764 63.2304ZM51.0567 64.278H55.7483V65.7793H49.3244V57.3159H55.5503V58.8172H51.0567V60.5949H55.1812V62.0921H51.0567V64.278ZM36.5921 54.6969H33.3709V38.1721H37.0066L43.5687 49.6774H43.612V38.1721H46.8332V54.6989H43.3851L36.6395 42.9173H36.5962L36.5921 54.6969Z" fill="black"/>
</svg>
