<svg width="96" height="50" viewBox="0 0 96 50" fill="none" xmlns="http://www.w3.org/2000/svg">
<path fill-rule="evenodd" clip-rule="evenodd" d="M76.543 35.2441L88.0006 24.5105L82.5734 13.4065L76.543 35.2441Z" fill="#097939"/>
<path fill-rule="evenodd" clip-rule="evenodd" d="M72.6836 35.2441L84.1412 24.5105L78.714 13.4065L72.6836 35.2441Z" fill="#ED752E"/>
<path fill-rule="evenodd" clip-rule="evenodd" d="M17.9281 13.5304L13.1041 31.1731L30.2297 31.2964L34.9337 13.5304H39.2753L33.6353 34.1841C33.4193 34.9728 32.5969 35.6136 31.7993 35.6136H9.84808C8.51688 35.6136 7.72808 34.5456 8.08808 33.2311L13.4673 13.5304H17.9281ZM70.8737 13.4071H75.2153L69.1849 35.6136H64.7209L70.8737 13.4071ZM39.7585 22.6594L61.4673 22.5362L62.9153 17.8476H40.8433L42.1697 13.5296L65.6897 13.3077C67.1537 13.2938 68.0257 14.4579 67.6401 15.9096L65.4241 24.2269C65.0377 25.6778 63.5361 26.8534 62.0721 26.8534H42.6529L40.3633 35.9833H36.1393L39.7585 22.6594Z" fill="#747474"/>
</svg>
