<svg width="115" height="24" viewBox="0 0 115 24" fill="none" xmlns="http://www.w3.org/2000/svg">
<path fill-rule="evenodd" clip-rule="evenodd" d="M22.9636 11.7911C22.9636 18.3067 17.8265 23.5822 11.4818 23.5822C5.1371 23.5822 0 18.3067 0 11.7911C0 5.27548 5.1371 0 11.4818 0C17.8265 0 22.9636 5.27548 22.9636 11.7911ZM6.90058 16.4563H12.5936C12.6894 16.4563 12.7277 16.3382 12.6894 16.2595L8.08902 10.4132C8.01235 10.3344 7.9165 10.3738 7.89734 10.4525L6.78557 16.2989C6.76641 16.3973 6.82391 16.4563 6.90058 16.4563ZM6.78557 7.63763H12.4786C12.5552 7.63763 12.6127 7.71637 12.5936 7.77542L11.4818 13.6217C11.4626 13.7202 11.3476 13.7399 11.2901 13.6611L6.68973 7.79511C6.6514 7.73605 6.68973 7.63763 6.78557 7.63763ZM13.0536 7.71637C13.0728 7.677 13.1111 7.61795 13.1686 7.61795H17.2706C17.3473 7.61795 17.4048 7.69669 17.3856 7.75574L16.6189 11.5549C16.5997 11.6139 16.5614 11.6533 16.5039 11.6533H16.3889C14.3762 11.6533 12.7661 9.74388 13.0536 7.71637ZM31.436 6.81087H35.538C35.7297 6.81087 35.8639 6.92899 35.8064 7.14552L35.5763 8.50375C36.3814 7.30299 37.5507 6.57466 38.7583 6.57466C39.3525 6.57466 39.9851 6.81088 40.3301 7.14552C40.5218 7.34236 40.5218 7.46047 40.3876 7.65732L39.1992 9.38956C39.0458 9.60609 38.95 9.5864 38.7008 9.4683C38.4708 9.36987 38.1641 9.27145 37.8574 9.27145C36.4389 9.27145 35.2313 10.236 34.6754 13.1493L33.8512 17.539C33.7937 17.8343 33.5828 17.8933 33.4678 17.8933H31.3018C31.1293 17.8933 30.976 17.7358 31.0335 17.539L32.6436 9.09429L31.2826 7.12583C31.1676 6.96835 31.2443 6.81087 31.436 6.81087ZM39.2758 12.2635C39.8317 8.83839 42.2852 6.57466 45.4672 6.57466C48.7066 6.57466 50.2401 9.23208 49.78 12.106C49.665 12.854 49.4159 13.4446 48.8216 13.4446H41.9211C41.9786 15.0587 43.0711 15.8264 44.5279 15.8264C45.4864 15.8264 46.3873 15.4524 47.0582 14.9997C47.2307 14.8619 47.4224 14.8028 47.5374 14.9997L48.3233 16.2595C48.4574 16.4563 48.3808 16.5941 48.1891 16.7713C47.1732 17.7358 45.5055 18.1689 43.9912 18.1689C40.5984 18.1689 38.7583 15.5902 39.2758 12.2635ZM47.3073 11.5155C47.4032 9.78325 46.2531 9.05492 45.1605 9.05492C43.7037 9.05492 42.5919 10.0588 42.1511 11.5155H47.3073ZM60.0926 17.6177L62.5653 4.66525L61.3577 3.01175C61.3002 2.89364 61.3769 2.75585 61.5302 2.75585H65.3255C65.5364 2.75585 65.6514 2.89364 65.5939 3.09049L64.4821 8.79902C65.3255 7.48015 66.6098 6.59434 68.1049 6.59434C70.501 6.59434 71.8619 8.7006 71.3444 11.2793L70.1176 17.5587C70.0793 17.7949 69.8876 17.913 69.7342 17.913H67.4915C67.2807 17.913 67.1657 17.7752 67.204 17.5587L68.3158 11.8895C68.6033 10.3541 68.2008 9.40925 67.2999 9.40925C65.5939 9.40925 64.2521 11.3777 63.6771 14.1532L62.9487 17.6374C62.9295 17.7752 62.8145 17.8933 62.6611 17.8933H60.3034C60.1693 17.8736 60.0734 17.7555 60.0926 17.6177ZM72.1111 12.3816C72.667 8.72029 75.178 6.55498 78.1108 6.55498C79.6634 6.55498 80.871 7.28331 81.3502 8.48407L81.5994 7.14552C81.6377 6.9093 81.8103 6.79119 82.0019 6.79119H84.0721C84.3021 6.79119 84.398 6.94867 84.3405 7.14552L82.3661 17.539C82.3278 17.7358 82.1936 17.8736 81.9636 17.8736H79.8743C79.6826 17.8736 79.5867 17.7555 79.6251 17.539L79.8168 16.4563C78.8392 17.598 77.6316 18.1689 76.309 18.1689C73.2995 18.1886 71.6127 15.6296 72.1111 12.3816ZM77.1524 15.5312C78.8775 15.5312 80.1618 14.0351 80.411 12.3029C80.6602 10.5509 79.7401 9.23209 78.1491 9.23209C76.4431 9.23209 75.2164 10.6494 74.9288 12.3226C74.6605 14.0154 75.4847 15.5312 77.1524 15.5312ZM83.7079 17.5193L85.7206 7.08646C85.7589 6.9093 85.8548 6.81087 85.9698 6.81087H88.2316C88.4233 6.81087 88.5575 6.92899 88.5 7.14552L88.27 8.50375C89.075 7.30299 90.2443 6.57466 91.4327 6.57466C92.027 6.57466 92.6787 6.81088 93.0045 7.14552C93.1962 7.34236 93.1962 7.46047 93.062 7.65732L91.8736 9.38956C91.7203 9.60609 91.6053 9.5864 91.3752 9.4683C91.1452 9.36987 90.8385 9.27145 90.5127 9.27145C89.0942 9.27145 87.8866 10.236 87.3499 13.1493L86.5257 17.539C86.4682 17.8343 86.2381 17.8933 86.1423 17.8933H83.9763C83.8229 17.8736 83.6696 17.7161 83.7079 17.5193ZM91.1452 21.0428C91.011 20.9444 91.011 20.7673 91.1069 20.6098L92.1036 18.9956C92.2186 18.8185 92.372 18.7791 92.5062 18.8775C93.4837 19.5075 94.4422 19.9011 95.6114 19.9011C97.6624 19.9011 99.3684 19.0547 99.9626 16.2201C98.8317 17.3028 97.7966 17.8343 96.2056 17.8343C93.1195 17.8343 91.5094 15.1768 92.0078 12.1848C92.5828 8.81871 95.0364 6.53529 98.1225 6.53529C99.8285 6.53529 100.998 7.51952 101.362 8.32659L101.611 7.12583C101.649 6.88961 101.803 6.77151 101.975 6.77151H104.065C104.275 6.77151 104.391 6.9093 104.352 7.12583L102.608 16.2792C101.841 20.2555 99.1576 22.342 95.5156 22.342C93.9821 22.3617 92.257 21.968 91.1452 21.0428ZM97.0299 15.2949C98.755 15.2949 100.039 13.8777 100.288 12.1848C100.538 10.4919 99.6368 9.23209 98.0266 9.23209C96.3207 9.23209 95.0939 10.61 94.8064 12.2045C94.538 13.8383 95.3623 15.2949 97.0299 15.2949ZM104.429 12.2635C104.985 8.83839 107.438 6.57466 110.62 6.57466C113.86 6.57466 115.393 9.23208 114.914 12.106C114.818 12.854 114.55 13.4446 113.955 13.4446H107.055C107.112 15.0587 108.205 15.8264 109.662 15.8264C110.62 15.8264 111.521 15.4524 112.192 14.9997C112.365 14.8619 112.556 14.8028 112.671 14.9997L113.457 16.2595C113.591 16.4563 113.515 16.5941 113.323 16.7713C112.307 17.7358 110.639 18.1689 109.125 18.1689C105.751 18.1689 103.911 15.5902 104.429 12.2635ZM112.46 11.5155C112.556 9.78325 111.406 9.05492 110.314 9.05492C108.857 9.05492 107.745 10.0588 107.304 11.5155H112.46ZM55.3197 18.1886C56.7573 18.1886 58.1566 17.7752 59.4409 16.5351C59.6325 16.3579 59.6517 16.1217 59.5175 15.9839L58.3483 14.6454C58.2333 14.5076 58.0607 14.5076 57.9266 14.6257C57.4282 14.9997 56.6423 15.4327 55.703 15.4327C54.0162 15.4327 53.077 14.0745 53.2878 12.3816C53.4987 10.6887 54.8021 9.33051 56.4506 9.33051C57.3515 9.33051 57.9266 9.66515 58.5591 10.3147C58.7316 10.4919 58.8275 10.4919 59.0192 10.3344L60.5335 8.99587C60.6868 8.85808 60.7251 8.72029 60.6101 8.54312C59.6901 7.20457 58.2716 6.57466 56.6998 6.57466C53.5179 6.57466 50.9493 8.99587 50.5276 12.2241C50.0676 15.7083 52.3294 18.1886 55.3197 18.1886Z" fill="#3901F1"/>
</svg>
