<svg width="90" height="30" viewBox="0 0 90 30" fill="none" xmlns="http://www.w3.org/2000/svg">
<path d="M46.5459 9.54134C46.4945 13.6988 50.1537 16.019 52.9103 17.3983C55.7426 18.8137 56.6939 19.7213 56.6831 20.9868C56.6615 22.924 54.4238 23.7788 52.3293 23.8121C48.6755 23.8704 46.5513 22.7991 44.8622 21.9887L43.546 28.3137C45.2405 29.1158 48.3782 29.8152 51.632 29.8457C59.2694 29.8457 64.2664 25.9741 64.2934 19.9711C64.3232 12.3528 54.0319 11.9309 54.1022 8.52557C54.1265 7.49315 55.0859 6.39134 57.1885 6.11103C58.2289 5.96949 61.1017 5.86125 64.3583 7.40156L65.6366 1.28195C63.8854 0.626966 61.6341 -0.000259399 58.8316 -0.000259399C51.6428 -0.000259399 46.5864 3.92406 46.5459 9.54134ZM77.9196 0.527054C76.5251 0.527054 75.3495 1.36243 74.8252 2.64464L63.9151 29.3961H71.5471L73.0659 25.086H82.3923L83.2734 29.3961H90L84.1301 0.527054H77.9196ZM78.9872 8.32575L81.1897 19.1662H75.1576L78.9872 8.32575ZM37.2924 0.527054L31.2765 29.3961H38.549L44.5622 0.527054H37.2924ZM26.5335 0.527054L18.9637 20.1764L15.9017 3.46891C15.5423 1.60388 14.1235 0.527054 12.5479 0.527054H0.172963L0 1.3652C2.54039 1.93137 5.4267 2.84446 7.17525 3.82138C8.24545 4.41808 8.55084 4.93984 8.90217 6.35804L14.7018 29.3961H22.3878L34.1709 0.527054H26.5335Z" fill="url(#paint0_linear_924_1583)"/>
<defs>
<linearGradient id="paint0_linear_924_1583" x1="41.3768" y1="30.4445" x2="42.2639" y2="-0.206484" gradientUnits="userSpaceOnUse">
<stop stop-color="#222357"/>
<stop offset="1" stop-color="#254AA5"/>
</linearGradient>
</defs>
</svg>
