<svg width="52" height="52" viewBox="0 0 52 52" fill="none" xmlns="http://www.w3.org/2000/svg">
<path d="M11.7776 28.8118C11.2407 28.8625 10.7245 29.0449 10.275 29.3429C9.08265 28.5616 7.53995 28.6271 6.58238 29.5846C6.01997 30.1471 5.70401 30.9099 5.70401 31.7052C5.70401 32.5006 6.01997 33.2634 6.58238 33.8258L9.72653 36.9705C9.87196 37.1159 10.0692 37.1976 10.2749 37.1976C10.4805 37.1976 10.6778 37.1159 10.8232 36.9705L13.9645 33.829C14.2432 33.5561 14.4645 33.2304 14.6157 32.8708C14.7668 32.5113 14.8446 32.1252 14.8446 31.7351C14.847 31.3367 14.7708 30.9417 14.6203 30.5727C14.4699 30.2037 14.2481 29.8681 13.9677 29.5849C13.6833 29.3011 13.339 29.0844 12.9601 28.9506C12.5812 28.8169 12.1772 28.7694 11.7776 28.8118ZM12.8778 32.7224L12.8709 32.7293L10.2748 35.3252L7.67916 32.7292C7.4076 32.4576 7.25505 32.0893 7.25505 31.7052C7.25505 31.3212 7.4076 30.9529 7.67916 30.6813C7.7872 30.574 7.91574 30.4895 8.05711 30.4329C8.19849 30.3762 8.34982 30.3486 8.50208 30.3517C8.96367 30.3664 9.402 30.5578 9.72653 30.8863C9.87196 31.0318 10.0692 31.1134 10.2749 31.1134C10.4805 31.1134 10.6778 31.0318 10.8232 30.8863C11.1159 30.5892 11.5021 30.4021 11.9167 30.3566C12.0899 30.3359 12.2656 30.3543 12.4308 30.4105C12.5959 30.4667 12.7464 30.5592 12.8711 30.6813C13.0066 30.819 13.1137 30.982 13.1862 31.1611C13.2587 31.3402 13.2952 31.5319 13.2935 31.7251C13.2943 31.9106 13.2579 32.0945 13.1865 32.2657C13.1151 32.437 13.0102 32.5923 12.8778 32.7224ZM48.5246 18.9981H44.3236V7.59644C44.3228 6.90807 44.049 6.24812 43.5623 5.76136C43.0756 5.27461 42.4156 5.0008 41.7272 5H9.24309C8.55472 5.0008 7.89478 5.27461 7.40804 5.76136C6.9213 6.24812 6.64752 6.90807 6.64675 7.59644V19.0031C6.42459 19.0221 6.21367 19.109 6.0426 19.252C5.87152 19.395 5.74858 19.5872 5.69043 19.8024L3.92506 26.1502C3.62447 26.3723 3.38017 26.6618 3.21181 26.9955C3.04345 27.3292 2.95571 27.6977 2.95566 28.0714V30.5234H2.8753C2.37811 30.524 1.90144 30.7218 1.54988 31.0733C1.19832 31.4249 1.00056 31.9016 1 32.3988L1 33.5985C1.00056 34.0957 1.19833 34.5724 1.54991 34.924C1.9015 35.2756 2.37819 35.4734 2.8754 35.4739H2.95576V37.9265C2.95583 38.3002 3.04358 38.6687 3.21194 39.0023C3.3803 39.336 3.62458 39.6255 3.92516 39.8476L5.69053 46.1954C5.75321 46.4276 5.89107 46.6325 6.08256 46.7781C6.27405 46.9237 6.50838 47.0017 6.74892 47H13.7994C14.0399 47.0017 14.2743 46.9237 14.4658 46.7781C14.6573 46.6325 14.7952 46.4276 14.8578 46.1954L16.6232 39.8475C16.9238 39.6254 17.1681 39.3359 17.3364 39.0023C17.5048 38.6687 17.5926 38.3002 17.5926 37.9265V35.5302H34.5774V44.8905C34.5781 45.4495 34.8004 45.9855 35.1958 46.3808C35.5911 46.7761 36.127 46.9985 36.6861 46.9992H48.5246C49.0836 46.9985 49.6196 46.7761 50.0149 46.3808C50.4102 45.9855 50.6326 45.4495 50.6332 44.8905V21.1068C50.6326 20.5478 50.4102 20.0118 50.0149 19.6165C49.6196 19.2212 49.0836 18.9988 48.5246 18.9981ZM9.24309 6.55104H41.7276C42.0047 6.55147 42.2704 6.66176 42.4663 6.85772C42.6623 7.05367 42.7725 7.31932 42.7729 7.59644V18.9981H36.6861C36.127 18.9988 35.5911 19.2212 35.1958 19.6165C34.8004 20.0118 34.5781 20.5478 34.5774 21.1068V29.037H17.5924V28.0714C17.5924 27.6977 17.5046 27.3292 17.3363 26.9955C17.1679 26.6618 16.9236 26.3723 16.623 26.1502L14.8577 19.8024C14.7949 19.5702 14.6571 19.3653 14.4656 19.2197C14.274 19.0741 14.0397 18.9961 13.7992 18.9978H8.19778V7.59644C8.19819 7.31932 8.30845 7.05367 8.50439 6.85772C8.70033 6.66176 8.96597 6.55147 9.24309 6.55104ZM21.5965 30.5881H29.3743V31.341H21.5965V30.5881ZM5.34678 38.766C5.12408 38.7657 4.91058 38.6772 4.75311 38.5197C4.59564 38.3622 4.50706 38.1487 4.5068 37.926V28.0714C4.50703 27.8487 4.5956 27.6352 4.75307 27.4777C4.91055 27.3202 5.12407 27.2316 5.34678 27.2313H15.2017C15.4244 27.2316 15.6379 27.3202 15.7954 27.4777C15.9529 27.6352 16.0414 27.8487 16.0417 28.0714V37.926C16.0414 38.1487 15.9528 38.3622 15.7954 38.5197C15.6379 38.6772 15.4244 38.7657 15.2017 38.766H5.34678ZM7.09267 20.5493H13.4555L14.8825 25.6804H5.66562L7.09267 20.5493ZM2.87579 33.9229C2.79004 33.9219 2.70808 33.8874 2.6474 33.8268C2.58673 33.7662 2.55215 33.6843 2.55104 33.5985V32.3988C2.55214 32.3131 2.58667 32.2312 2.64726 32.1707C2.70785 32.1101 2.78972 32.0755 2.8754 32.0744H2.95576V33.9229H2.87579ZM13.4555 45.4482H7.09267L5.66562 40.3171H14.8825L13.4555 45.4482ZM17.5924 33.9792V30.5881H20.0455V31.6458C20.0457 31.9761 20.177 32.2929 20.4105 32.5265C20.644 32.7602 20.9607 32.8916 21.2911 32.892H29.6792C30.0094 32.8916 30.3261 32.7603 30.5596 32.5267C30.7931 32.2932 30.9245 31.9765 30.9249 31.6462V30.5881H34.5774V33.9792H17.5924ZM49.0822 44.8905C49.082 45.0383 49.0232 45.18 48.9187 45.2846C48.8141 45.3891 48.6724 45.448 48.5246 45.4482H36.6861C36.5382 45.448 36.3965 45.3892 36.292 45.2846C36.1874 45.1801 36.1286 45.0383 36.1285 44.8905V21.1068C36.1286 20.959 36.1874 20.8173 36.292 20.7127C36.3965 20.6082 36.5382 20.5493 36.6861 20.5492H48.5246C48.6724 20.5494 48.8141 20.6082 48.9187 20.7127C49.0232 20.8173 49.082 20.959 49.0822 21.1068V44.8905ZM42.6053 41.0866C42.226 41.0866 41.8553 41.1991 41.5399 41.4098C41.2245 41.6205 40.9787 41.92 40.8336 42.2704C40.6884 42.6208 40.6504 43.0064 40.7244 43.3784C40.7984 43.7504 40.981 44.0921 41.2492 44.3603C41.5174 44.6285 41.8591 44.8111 42.2311 44.8851C42.6031 44.9591 42.9887 44.9211 43.3391 44.776C43.6895 44.6309 43.989 44.3851 44.1997 44.0697C44.4104 43.7543 44.5229 43.3836 44.5229 43.0043C44.5224 42.4959 44.3203 42.0084 43.9607 41.6489C43.6012 41.2893 43.1138 41.0871 42.6053 41.0866ZM42.6053 43.3708C42.5328 43.3709 42.4619 43.3494 42.4016 43.3091C42.3413 43.2688 42.2943 43.2116 42.2665 43.1446C42.2388 43.0776 42.2315 43.0038 42.2456 42.9327C42.2598 42.8616 42.2947 42.7962 42.346 42.745C42.3973 42.6937 42.4626 42.6588 42.5337 42.6446C42.6049 42.6305 42.6786 42.6377 42.7456 42.6655C42.8126 42.6933 42.8698 42.7403 42.9101 42.8006C42.9504 42.8609 42.9719 42.9318 42.9719 43.0043C42.9718 43.1015 42.9332 43.1948 42.8645 43.2636C42.7958 43.3324 42.7026 43.3711 42.6053 43.3712V43.3708ZM41.8298 22.2403C41.8296 22.1385 41.8495 22.0377 41.8884 21.9436C41.9272 21.8495 41.9842 21.764 42.0561 21.692C42.128 21.62 42.2134 21.5628 42.3074 21.5238C42.4014 21.4848 42.5022 21.4648 42.604 21.4648H42.6067C42.76 21.465 42.9098 21.5107 43.0372 21.5961C43.1645 21.6815 43.2637 21.8027 43.3222 21.9444C43.3807 22.0862 43.3959 22.2421 43.3658 22.3924C43.3357 22.5427 43.2617 22.6808 43.1532 22.7891C43.0447 22.8974 42.9065 22.9712 42.7561 23.001C42.6057 23.0308 42.4499 23.0154 42.3082 22.9566C42.1666 22.8979 42.0456 22.7985 41.9604 22.671C41.8753 22.5435 41.8298 22.3936 41.8298 22.2403Z" fill="#ED712E"/>
</svg>
