<svg width="52" height="52" viewBox="0 0 52 52" fill="none" xmlns="http://www.w3.org/2000/svg">
<path d="M41.7682 22.5992V10.0209C41.7668 9.44562 41.652 8.87623 41.4304 8.34531C41.2089 7.81439 40.8848 7.33235 40.4768 6.92675C40.0688 6.52116 39.5848 6.19996 39.0526 5.98153C38.5204 5.7631 37.9503 5.65171 37.375 5.65374C37.2816 5.65369 37.1891 5.67204 37.1029 5.70775C37.0166 5.74346 36.9382 5.79582 36.8722 5.86185C36.8061 5.92788 36.7538 6.00627 36.7181 6.09255C36.6824 6.17883 36.664 6.2713 36.6641 6.36468V11.5679H34.8766V7.98968C34.8759 7.3595 34.6253 6.7553 34.1798 6.30962C33.7343 5.86394 33.1302 5.61316 32.5 5.6123H10.5962C9.9659 5.61295 9.36158 5.86363 8.91587 6.30933C8.47017 6.75504 8.21949 7.35936 8.21884 7.98968V43.9692C8.21959 44.5995 8.47032 45.2037 8.91601 45.6493C9.36171 46.0949 9.96597 46.3455 10.5962 46.3462H32.5C33.1302 46.3454 33.7343 46.0948 34.1799 45.6491C34.6255 45.2035 34.8762 44.5994 34.877 43.9692V41.2644H36.6645V45.0214C36.6644 45.1148 36.6828 45.2072 36.7185 45.2935C36.7542 45.3798 36.8065 45.4582 36.8726 45.5242C36.9386 45.5903 37.017 45.6426 37.1033 45.6783C37.1896 45.714 37.282 45.7324 37.3754 45.7323H37.4022C38.5601 45.731 39.6701 45.2705 40.4889 44.4518C41.3076 43.6331 41.7681 42.523 41.7694 41.3651V28.7864C42.3067 28.7742 42.8179 28.5525 43.194 28.1686C43.5701 27.7847 43.7812 27.269 43.7824 26.7316V24.6549C43.7812 24.1172 43.57 23.6012 43.1936 23.2171C42.8173 22.8331 42.3058 22.6113 41.7682 22.5992ZM36.6632 12.9898V14.0237H34.8757V12.9898H36.6632ZM36.6632 15.4456V37.3867H34.8757V15.4456H36.6632ZM33.4539 43.9692C33.4537 44.2222 33.3531 44.4649 33.1743 44.6439C32.9955 44.8229 32.753 44.9238 32.5 44.9243H10.5962C10.3429 44.9241 10.1001 44.8234 9.92096 44.6443C9.74182 44.4653 9.64104 44.2225 9.64072 43.9692V7.98968C9.64104 7.73636 9.74181 7.49352 9.92093 7.3144C10.1001 7.13527 10.3429 7.0345 10.5962 7.03418H32.5C32.7533 7.0345 32.9961 7.13529 33.1751 7.31442C33.3542 7.49355 33.4549 7.7364 33.4551 7.98968L33.4539 43.9692ZM34.8757 39.8425V38.8086H36.6632V39.8425H34.8757ZM40.3447 41.3651C40.3438 42.0272 40.1203 42.6696 39.7102 43.1893C39.3001 43.709 38.7272 44.0757 38.0835 44.2304V7.15565C38.7272 7.3104 39.3001 7.67708 39.7102 8.19676C40.1203 8.71644 40.3438 9.35892 40.3447 10.0209V41.3651ZM42.3593 26.7312C42.3587 26.8918 42.2974 27.0462 42.1878 27.1636C42.0782 27.2809 41.9283 27.3526 41.7682 27.3641V24.0207C41.9285 24.0324 42.0784 24.1042 42.188 24.2217C42.2976 24.3392 42.3588 24.4938 42.3593 24.6545V26.7312Z" fill="#ED712E"/>
<path d="M30.5735 7.75928H12.5238C12.051 7.75971 11.5977 7.94769 11.2633 8.28197C10.9289 8.61624 10.7409 9.06951 10.7403 9.54231V42.4364C10.7409 42.9092 10.9289 43.3625 11.2633 43.6969C11.5976 44.0312 12.0509 44.2193 12.5238 44.2198H30.5735C31.0462 44.2193 31.4995 44.0312 31.8338 43.6968C32.1681 43.3625 32.3561 42.9092 32.3565 42.4364V9.54068C32.3556 9.06821 32.1674 8.61535 31.8332 8.28141C31.499 7.94748 31.0459 7.75971 30.5735 7.75928ZM12.5238 9.18115H30.5735C30.6692 9.18126 30.761 9.21934 30.8287 9.28705C30.8964 9.35476 30.9345 9.44656 30.9346 9.54231V18.2921H24.6637C25.5047 17.4239 25.9751 16.2626 25.9755 15.0539V13.5065C25.9756 13.4131 25.9572 13.3206 25.9215 13.2344C25.8858 13.1481 25.8334 13.0697 25.7674 13.0037C25.7014 12.9376 25.623 12.8853 25.5367 12.8496C25.4504 12.8139 25.358 12.7955 25.2646 12.7956H17.3537C17.2603 12.7955 17.1678 12.8139 17.0815 12.8496C16.9953 12.8853 16.9169 12.9376 16.8508 13.0037C16.7848 13.0697 16.7324 13.1481 16.6967 13.2344C16.661 13.3206 16.6427 13.4131 16.6427 13.5065V15.0539C16.6451 16.2636 17.118 17.4249 17.9614 18.2921H12.1622V9.54068C12.1628 9.44518 12.2012 9.3538 12.2689 9.28645C12.3367 9.21911 12.4283 9.18126 12.5238 9.18115ZM26.9627 22.4724H25.2085V22.0406H26.9627V22.4724ZM25.172 26.7888C25.2988 26.7339 25.4068 26.6431 25.4828 26.5276C25.5588 26.4122 25.5994 26.2771 25.5997 26.1388V23.8943H26.5715V26.1372C26.5715 26.2771 26.6128 26.4138 26.6902 26.5303C26.7676 26.6468 26.8776 26.7379 27.0066 26.7921C27.137 26.8476 27.2598 26.9194 27.3722 27.0058C27.4969 27.0897 27.601 27.2009 27.6763 27.331C27.7517 27.461 27.7965 27.6066 27.8073 27.7565V31.3482H24.3627V27.7565C24.3909 27.5347 24.4821 27.3256 24.6255 27.1541C24.769 26.9826 24.9586 26.8558 25.172 26.7888ZM28.2347 25.874C28.1579 25.8147 28.077 25.759 27.9942 25.707V23.7249C28.1148 23.6401 28.2133 23.5276 28.2814 23.3968C28.3495 23.266 28.3851 23.1208 28.3854 22.9733V21.5409C28.3852 21.2964 28.2879 21.062 28.115 20.8891C27.9422 20.7162 27.7077 20.6189 27.4632 20.6187H24.7088C24.4643 20.6189 24.2299 20.7162 24.057 20.8891C23.8841 21.062 23.7869 21.2964 23.7866 21.5409V22.9721C23.7869 23.1196 23.8226 23.2648 23.8906 23.3956C23.9587 23.5264 24.0572 23.6389 24.1779 23.7237V25.7086C23.8132 25.9151 23.5079 26.2119 23.2912 26.5706C23.0745 26.9293 22.9539 27.3377 22.9408 27.7565V31.3482H20.0593C20.5788 30.7014 20.8617 29.8966 20.8612 29.0671C20.8201 28.0603 20.3913 27.1084 19.6644 26.4106C18.9375 25.7128 17.9689 25.3231 16.9612 25.3231C15.9536 25.3231 14.985 25.7128 14.2581 26.4106C13.5312 27.1084 13.1023 28.0603 13.0612 29.0671C13.0619 29.8971 13.3461 30.7019 13.8668 31.3482H12.1606V19.714H30.9346V31.3482H29.2284V27.7565C29.2205 27.3871 29.1267 27.0245 28.9542 26.6977C28.7817 26.3709 28.5353 26.0889 28.2347 25.874ZM16.5152 31.3482C15.9609 31.2711 15.4521 30.9993 15.0799 30.5813C14.7077 30.1634 14.4964 29.6266 14.4839 29.0671C14.525 28.4378 14.804 27.8477 15.2642 27.4166C15.7244 26.9855 16.3314 26.7456 16.962 26.7456C17.5927 26.7456 18.1997 26.9855 18.6599 27.4166C19.1201 27.8477 19.3991 28.4378 19.4402 29.0671C19.4287 29.6313 19.2143 30.1725 18.8362 30.5914C18.4581 31.0104 17.9418 31.279 17.3817 31.3482H16.5152ZM18.0646 15.0539V14.2187H24.5536V15.0551C24.5527 15.8766 24.2408 16.6672 23.6806 17.268C23.1203 17.8688 22.3534 18.2351 21.534 18.2933H21.0648V18.2913C20.2495 18.2271 19.4882 17.8585 18.9323 17.2586C18.3764 16.6588 18.0667 15.8717 18.0646 15.0539ZM30.5735 42.7963H12.5238C12.4279 42.7961 12.3361 42.7579 12.2683 42.6902C12.2006 42.6224 12.1624 42.5306 12.1622 42.4347V32.7701H30.9346V42.4347C30.9345 42.5305 30.8964 42.6224 30.8287 42.6902C30.761 42.7579 30.6692 42.7961 30.5735 42.7963Z" fill="#ED712E"/>
</svg>
