<svg width="52" height="52" viewBox="0 0 52 52" fill="none" xmlns="http://www.w3.org/2000/svg">
<path d="M5.52515 47H46.4986C46.7888 47 47.0241 46.7648 47.0241 46.4745L47.0237 20.898C47.0237 20.6078 46.7885 20.3726 46.4983 20.3726H45.565V18.945C45.565 18.1271 45.2187 17.3899 44.6676 16.8674C45.2249 16.446 45.565 15.5999 45.565 14.9811V14.8781C45.565 13.2977 44.2792 12.0116 42.6984 12.0116L29.8117 12.012C28.2313 12.012 26.9451 13.2977 26.9451 14.8785V14.9815C26.9451 15.6004 27.2855 16.4464 27.8425 16.8678C27.291 17.3907 26.9451 18.1276 26.9451 18.9453V20.3729H23.5092C23.5916 20.1941 23.6503 20.0014 23.67 19.7955L24.4502 13.5956H24.9309C25.2211 13.5956 25.4563 13.3604 25.4563 13.0702V9.32053C25.4563 9.03032 25.2211 8.79508 24.9309 8.79508H24.146C24.3094 8.43672 24.3952 8.05784 24.3952 7.78153V7.68663C24.3952 6.20557 23.19 5 21.7085 5H9.81142C8.33036 5 7.12479 6.20519 7.12479 7.68663V7.7819C7.12479 8.05818 7.21053 8.43706 7.37395 8.79545H6.61363C6.32342 8.79545 6.08817 9.03069 6.08817 9.3209V13.0705C6.08817 13.3607 6.32342 13.596 6.61363 13.596H7.09437L7.87265 19.7793C7.8928 19.9915 7.95253 20.1897 8.03717 20.3729H5.52539C5.23518 20.3729 4.99994 20.6082 4.99994 20.8984V46.4749C4.99994 46.7647 5.23518 47 5.52539 47L5.52515 47ZM6.05023 25.9017H25.4864V45.9494H6.05023V25.9017ZM26.537 45.9494V25.9017H45.9731V45.9494H26.537ZM45.9731 24.8511H26.537V21.4232H45.9731V24.8511ZM28.5678 16.0789C28.393 16.0789 27.9955 15.441 27.9955 14.9811V14.8782C27.9955 13.8771 28.81 13.0626 29.811 13.0626H42.6987C43.6998 13.0626 44.5143 13.8771 44.5143 14.8782V14.9811C44.5143 15.441 44.1167 16.0789 43.9419 16.0789H28.5678ZM27.9955 18.9451C27.9955 17.944 28.81 17.1295 29.811 17.1295H42.6987C43.6998 17.1295 44.5143 17.9441 44.5143 18.9451V20.3727H27.9955V18.9451ZM8.17474 7.78151V7.6866C8.17474 6.78448 8.90867 6.05057 9.81077 6.05057H21.7088C22.611 6.05057 23.3449 6.78451 23.3449 7.6866V7.78187C23.3449 8.18603 23.0136 8.75762 22.8568 8.79542L8.66898 8.79505C8.50519 8.75511 8.17505 8.18533 8.17505 7.7815L8.17474 7.78151ZM7.13811 9.84556H24.4055V12.5443L7.13811 12.5447V9.84556ZM8.91635 19.664L8.15273 13.5954H23.3911L22.6257 19.6798C22.5883 20.0748 22.2604 20.3727 21.8635 20.3727L9.68031 20.373C9.28347 20.373 8.95589 20.0748 8.91669 19.664H8.91635ZM9.67997 21.4236H25.4859V24.8514H6.04976V21.4236H9.67997Z" fill="#ED712E"/>
<path d="M15.768 30.5376C12.8729 30.5376 10.5175 32.8929 10.5175 35.7881C10.5175 38.6831 12.8728 41.0386 15.768 41.0386C18.6632 41.0386 21.0185 38.6832 21.0185 35.7881C21.0185 32.893 18.6632 30.5376 15.768 30.5376ZM15.768 31.5881C18.0497 31.5881 19.9078 33.4177 19.9628 35.6862C19.5363 35.8313 18.3806 36.06 16.3631 35.3154C14.2591 34.5389 12.5333 35.0736 11.5806 35.5422C11.7088 33.3411 13.5351 31.5882 15.7681 31.5882L15.768 31.5881ZM15.768 39.9879C13.7614 39.9879 12.0814 38.5728 11.6677 36.6887C12.2588 36.3234 13.8985 35.5257 15.9992 36.301C17.8215 36.9741 19.0794 36.9525 19.8386 36.803C19.3831 38.6293 17.7336 39.9879 15.768 39.9879Z" fill="#ED712E"/>
<path d="M15.7686 27.4448C11.1685 27.4448 7.42584 31.1874 7.42584 35.7875C7.42584 40.3876 11.1684 44.1303 15.7686 44.1303C20.3686 44.1303 24.1113 40.3877 24.1113 35.7875C24.1109 31.1875 20.3687 27.4448 15.7686 27.4448ZM15.7686 43.08C11.7478 43.08 8.47644 39.809 8.47644 35.7883C8.47644 31.7672 11.7478 28.4958 15.7686 28.4958C19.7893 28.4958 23.0603 31.7672 23.0603 35.7879C23.0603 39.8086 19.7893 43.08 15.7686 43.08Z" fill="#ED712E"/>
<path d="M36.2553 30.5376C33.3602 30.5376 31.0048 32.8929 31.0048 35.7881C31.0048 38.6831 33.3601 41.0386 36.2553 41.0386C39.1505 41.0386 41.5058 38.6832 41.5058 35.7881C41.5058 32.893 39.1505 30.5376 36.2553 30.5376ZM36.2553 39.9883C33.9395 39.9883 32.0554 38.1042 32.0554 35.7884C32.0554 33.4727 33.9396 31.5886 36.2553 31.5886C38.571 31.5886 40.4552 33.4727 40.4552 35.7884C40.4552 38.1046 38.571 39.9883 36.2553 39.9883Z" fill="#ED712E"/>
<path d="M36.2548 27.4448C31.6547 27.4448 27.912 31.1874 27.912 35.7875C27.912 40.3876 31.6546 44.1303 36.2548 44.1303C40.8548 44.1303 44.5975 40.3877 44.5975 35.7875C44.5975 31.1875 40.8549 27.4448 36.2548 27.4448ZM36.2548 43.08C32.2341 43.08 28.9627 39.809 28.9627 35.7883C28.9627 31.7672 32.2341 28.4958 36.2548 28.4958C40.2755 28.4958 43.5465 31.7672 43.5465 35.7879C43.5469 39.8086 40.2755 43.08 36.2548 43.08Z" fill="#ED712E"/>
<path d="M17.0443 15.3402H14.5002C14.21 15.3402 13.9748 15.5755 13.9748 15.8657C13.9748 16.1559 14.21 16.3911 14.5002 16.3911H17.0443C17.3345 16.3911 17.5697 16.1559 17.5697 15.8657C17.5694 15.5755 17.3341 15.3402 17.0443 15.3402Z" fill="#ED712E"/>
<path d="M37.5027 34.4069C37.2125 34.4069 36.9773 34.6421 36.9773 34.9323V36.6427C36.9773 36.9329 37.2125 37.1682 37.5027 37.1682C37.793 37.1682 38.0282 36.9329 38.0282 36.6427V34.9323C38.0282 34.6421 37.793 34.4069 37.5027 34.4069Z" fill="#ED712E"/>
</svg>
