<svg width="52" height="52" viewBox="0 0 52 52" fill="none" xmlns="http://www.w3.org/2000/svg">
<path d="M37.5207 45.5242L33.1151 41.118C32.9612 40.9642 32.7526 40.8777 32.5351 40.8777C32.5346 40.8777 32.5342 40.8777 32.5339 40.8777L30.1701 40.8811C30.165 40.8811 30.1598 40.8811 30.1546 40.8811C28.8498 40.8811 27.5427 40.6411 26.3194 40.1833L27.7378 39.2322C28.3184 38.8428 28.7088 38.25 28.8372 37.5628C28.9655 36.8755 28.8154 36.1817 28.4144 35.609C27.9158 34.8969 27.1129 34.5104 26.2954 34.5104C26.2821 34.5104 26.2688 34.5105 26.2554 34.5107L29.5227 31.2435C30.5139 30.2522 30.5139 28.6393 29.5227 27.648C29.2815 27.4068 29.0004 27.2202 28.6942 27.094C28.9211 26.7083 29.0425 26.2677 29.0425 25.8084C29.0425 25.1294 28.778 24.4908 28.2978 24.0106C27.8176 23.5304 27.1792 23.2659 26.5 23.2659C26.0407 23.2659 25.6002 23.3873 25.2144 23.6142C25.0883 23.3081 24.9016 23.027 24.6605 22.7857C24.1802 22.3055 23.5418 22.041 22.8626 22.041C22.1835 22.041 21.545 22.3055 21.0648 22.7857L19.8917 23.9588C19.7669 23.684 19.5929 23.4306 19.3731 23.2107C18.8929 22.7305 18.2544 22.4661 17.5753 22.4661C16.8961 22.4661 16.2577 22.7306 15.7774 23.2107L15.2574 23.7307L13.1434 21.6286C12.5293 21.0145 12.5293 20.0152 13.1434 19.4011C13.7187 18.8258 14.6319 18.7896 15.2498 19.292L17.2972 21.3395C17.4574 21.4997 17.6673 21.5798 17.8772 21.5798C18.0871 21.5798 18.2971 21.4996 18.4573 21.3395C18.7776 21.0191 18.7776 20.4997 18.4573 20.1794L14.9253 16.6474C14.3112 16.0332 14.3112 15.034 14.9253 14.4199C15.5394 13.8057 16.5387 13.8058 17.1528 14.4199L23.3411 20.6201C23.5013 20.7803 23.7112 20.8603 23.9211 20.8603C24.131 20.8603 24.341 20.7802 24.5012 20.6201C24.8215 20.2997 24.8215 19.7803 24.5012 19.46L19.7975 14.7443C19.2951 14.1263 19.3314 13.2132 19.9066 12.638C20.5208 12.0239 21.5201 12.0239 22.1341 12.638L23.8574 14.3614C24.1779 14.6818 24.6973 14.6818 25.0175 14.3614C25.3379 14.0411 25.338 13.5216 25.0175 13.2013L23.2942 11.4779C22.0404 10.2241 20.0003 10.2242 18.7465 11.4779C18.3322 11.8922 18.0557 12.3926 17.9152 12.922C17.3721 12.53 16.722 12.318 16.039 12.318C15.1801 12.318 14.3726 12.6525 13.7652 13.2598C12.6366 14.3884 12.5245 16.1538 13.4277 17.4097C12.8983 17.5502 12.3977 17.8267 11.9833 18.2411C10.8001 19.4244 10.7341 21.3076 11.7842 22.5697C11.2665 22.7127 10.7777 22.9864 10.3715 23.3926C9.11783 24.6464 9.11783 26.6864 10.3715 27.9403L10.7376 28.3064C9.35334 29.9685 8.60103 32.0424 8.60414 34.2324L8.60611 35.5912L5.24025 38.9573C4.91992 39.2776 4.91992 39.797 5.24025 40.1175C5.40046 40.2776 5.61038 40.3577 5.8203 40.3577C6.03022 40.3577 6.24022 40.2776 6.40035 40.1175L10.007 36.5107C10.1611 36.3566 10.2476 36.1474 10.2472 35.9295L10.2448 34.2302C10.2418 32.1913 11.0343 30.2743 12.4761 28.8326L16.547 24.7616L16.5471 24.7615L16.9375 24.3711C17.1078 24.2007 17.3343 24.1069 17.5752 24.1069C17.8161 24.1069 18.0425 24.2007 18.2128 24.3711C18.3832 24.5414 18.477 24.7678 18.477 25.0087C18.477 25.2155 18.4074 25.4115 18.2799 25.5706L17.1955 26.655C16.8752 26.9753 16.8752 27.4948 17.1955 27.8152C17.1963 27.8159 17.1971 27.8165 17.1978 27.8172C17.1985 27.818 17.1991 27.8187 17.1998 27.8194C17.36 27.9796 17.5699 28.0597 17.7799 28.0597C17.9898 28.0597 18.1998 27.9796 18.3599 27.8194L22.2248 23.946C22.3951 23.7756 22.6215 23.6818 22.8624 23.6818C23.1033 23.6818 23.3297 23.7757 23.5 23.946C23.8273 24.2733 23.8496 24.7916 23.5674 25.1453L19.6308 29.0905C19.3105 29.4108 19.3105 29.9302 19.6308 30.2506C19.791 30.4108 20.001 30.4909 20.2109 30.4909C20.4208 30.4909 20.6308 30.4108 20.7909 30.2506L25.8621 25.1709C26.0324 25.0005 26.2588 24.9067 26.4997 24.9067C26.7406 24.9067 26.967 25.0006 27.1373 25.1709C27.4889 25.5225 27.4889 26.0946 27.1373 26.4461L22.0577 31.5172C21.7373 31.8375 21.7372 32.357 22.0577 32.6774C22.3781 32.9976 22.8975 32.9977 23.2178 32.6774L27.163 28.7408C27.5167 28.4586 28.0349 28.4808 28.3622 28.8083C28.7138 29.1598 28.7138 29.7319 28.3622 30.0835L22.8238 35.622C22.4337 36.0121 22.3976 36.6103 22.7381 37.0444C23.0786 37.4785 23.6682 37.586 24.14 37.3L25.8133 36.2857C26.2351 36.0298 26.7871 36.146 27.0701 36.5502C27.2162 36.7588 27.2708 37.0115 27.224 37.2618C27.1773 37.512 27.0351 37.7279 26.8237 37.8697L22.9527 40.4655C21.6931 41.3102 20.2263 41.7564 18.7098 41.7564C18.7063 41.7564 18.7026 41.7564 18.6991 41.7564L16.0699 41.7526C16.0695 41.7526 16.0692 41.7526 16.0687 41.7526C15.8512 41.7526 15.6425 41.8391 15.4887 41.9929L11.882 45.5996C11.5616 45.9199 11.5616 46.4393 11.882 46.7598C12.0422 46.9199 12.2521 47 12.462 47C12.672 47 12.882 46.9199 13.0421 46.7598L16.408 43.3938L18.6968 43.3971C18.7012 43.3971 18.7053 43.3971 18.7098 43.3971C20.5526 43.3971 22.3357 42.8547 23.8664 41.8282L24.6953 41.2724C26.3892 42.0898 28.2738 42.522 30.1542 42.522C30.1601 42.522 30.1662 42.522 30.1721 42.522L32.1954 42.5191L36.3606 46.6844C36.5208 46.8445 36.7308 46.9246 36.9407 46.9246C37.1506 46.9246 37.3606 46.8445 37.5207 46.6844C37.8411 46.364 37.8411 45.8446 37.5207 45.5242ZM13.5604 25.428L13.5603 25.4282L11.8699 27.1186L11.5317 26.7803C10.9176 26.1662 10.9176 25.1669 11.5317 24.5528C12.107 23.9775 13.0202 23.9413 13.6381 24.4437L14.0914 24.897L13.5604 25.428Z" fill="#ED712E"/>
<path d="M46.7597 36.2854C46.6071 36.132 46.3954 36.045 46.1797 36.045C45.964 36.045 45.7523 36.132 45.5997 36.2854C45.4471 36.438 45.3594 36.6488 45.3594 36.8654C45.3594 37.0811 45.4471 37.2928 45.5997 37.4453C45.7523 37.5978 45.964 37.6857 46.1797 37.6857C46.3954 37.6857 46.6071 37.5979 46.7597 37.4453C46.9122 37.2919 47 37.0811 47 36.8654C47 36.6487 46.9122 36.438 46.7597 36.2854Z" fill="#ED712E"/>
<path d="M44.554 34.0791L42.5946 32.1197L42.5993 28.803C42.6029 26.2971 41.8671 23.8724 40.4714 21.7911L36.8608 16.4067C36.3676 15.6712 35.6166 15.1766 34.7462 15.014C33.8756 14.8514 32.9968 15.0417 32.2715 15.5496C31.083 16.3818 30.6104 17.8833 31.0307 19.2144L28.8868 17.0704C28.5664 16.7502 28.047 16.7502 27.7266 17.0704C27.4062 17.3907 27.4062 17.9102 27.7266 18.2306L32.3322 22.8362C32.7583 23.2623 33.4118 23.3017 33.886 22.9297C34.3601 22.5578 34.4776 21.9138 34.1651 21.3983L32.7542 19.0709C32.3112 18.3402 32.5125 17.3838 33.2125 16.8936C33.5737 16.6407 34.0117 16.546 34.4449 16.6269C34.8785 16.7079 35.2525 16.9543 35.4981 17.3205L39.1087 22.705C40.322 24.5144 40.9617 26.6222 40.9586 28.8007L40.9534 32.4578C40.9531 32.6758 41.0396 32.885 41.1937 33.0391L43.3939 35.2393C43.5541 35.3994 43.764 35.4796 43.9739 35.4796C44.1839 35.4796 44.3939 35.3994 44.554 35.2393C44.8743 34.919 44.8743 34.3995 44.554 34.0791Z" fill="#ED712E"/>
<path d="M26.9589 15.1423C26.8071 14.9898 26.5955 14.902 26.3797 14.902C26.1632 14.902 25.9523 14.9898 25.7989 15.1423C25.6464 15.2949 25.5586 15.5066 25.5586 15.7223C25.5586 15.9389 25.6464 16.1497 25.7989 16.3023C25.9523 16.4548 26.1632 16.5426 26.3797 16.5426C26.5955 16.5426 26.8063 16.4548 26.9589 16.3023C27.1123 16.1497 27.2001 15.938 27.2001 15.7223C27.2001 15.5066 27.1123 15.2949 26.9589 15.1423Z" fill="#ED712E"/>
<path d="M34.5712 27.8723C34.8915 27.552 34.8915 27.0325 34.5712 26.7121C34.2509 26.3919 33.7314 26.3919 33.411 26.7121L33.0532 27.0699C31.5213 28.6019 31.5213 31.0945 33.0532 32.6264C33.2134 32.7865 33.4233 32.8667 33.6332 32.8667C33.8432 32.8667 34.0532 32.7865 34.2133 32.6264C34.5336 32.3061 34.5337 31.7866 34.2133 31.4662C33.3211 30.574 33.3211 29.1222 34.2133 28.23L34.5712 27.8723Z" fill="#ED712E"/>
<path d="M44.154 9.42969C43.6325 9.42969 43.1228 9.57767 42.682 9.8483C42.2412 9.57767 41.7315 9.42969 41.21 9.42969C39.6404 9.42969 38.3634 10.7301 38.3634 12.3283C38.3634 13.2341 39.0147 14.3219 40.3544 15.6541C41.2564 16.5511 42.1463 17.2337 42.1837 17.2624C42.3307 17.3748 42.5064 17.431 42.682 17.431C42.8576 17.431 43.0332 17.3748 43.1803 17.2624C43.2178 17.2337 44.1076 16.551 45.0096 15.6541C46.3493 14.322 47.0006 13.2341 47.0006 12.3283C47.0006 10.73 45.7236 9.42969 44.154 9.42969ZM42.6818 15.5613C41.3108 14.4227 40.0041 12.9699 40.0041 12.3283C40.0041 11.6346 40.5451 11.0703 41.21 11.0703C41.5408 11.0703 41.8494 11.2074 42.0791 11.4565C42.2344 11.6248 42.453 11.7205 42.682 11.7205C42.911 11.7205 43.1296 11.6248 43.2849 11.4565C43.5146 11.2075 43.8232 11.0703 44.154 11.0703C44.8189 11.0703 45.3599 11.6346 45.3599 12.3283C45.3599 12.9682 44.0528 14.4214 42.6818 15.5613Z" fill="#ED712E"/>
<path d="M10.7906 5C10.2691 5 9.75934 5.14799 9.31858 5.41861C8.87782 5.14799 8.36808 5 7.8466 5C6.27699 4.99992 5 6.30021 5 7.89852C5 8.80432 5.65125 9.89215 6.991 11.2244C7.89303 12.1213 8.78291 12.804 8.82032 12.8327C8.96732 12.9451 9.14295 13.0013 9.31858 13.0013C9.49421 13.0013 9.66976 12.9451 9.81684 12.8327C9.85433 12.804 10.7441 12.1213 11.6462 11.2244C12.9859 9.89223 13.6372 8.8044 13.6372 7.89861C13.6372 6.30029 12.3602 5 10.7906 5ZM9.31834 11.1315C7.94733 9.99289 6.64064 8.54018 6.64064 7.89852C6.64064 7.20486 7.18164 6.64056 7.8466 6.64056C8.17735 6.64056 8.48596 6.77764 8.71565 7.02669C8.87101 7.19502 9.08955 7.29075 9.31858 7.29075C9.54762 7.29075 9.76623 7.19502 9.92152 7.02669C10.1512 6.77772 10.4598 6.64056 10.7906 6.64056C11.4555 6.64056 11.9965 7.20486 11.9965 7.89852C11.9965 8.53837 10.6893 9.99166 9.31834 11.1315Z" fill="#ED712E"/>
</svg>
