<svg width="107" height="26" viewBox="0 0 107 26" fill="none" xmlns="http://www.w3.org/2000/svg">
<g clip-path="url(#clip0_935_338)">
<path d="M6.45165 7.46667V11.8159H1.81458V7.46667H0V17.9053H1.81196V13.2683H6.44903V17.9053H8.26449V7.46667H6.45165Z" fill="#36B6B0"/>
<path d="M18.6316 13.2665H13.6289V16.4565H18.6308V17.9062H11.8169V7.46667H18.6316V8.91642H13.6289V11.8159H18.6308L18.6316 13.2665Z" fill="#36B6B0"/>
<path d="M27.7658 15.4433H23.7062L22.8365 17.8353H20.951L24.8654 7.39404H26.463L30.3774 17.8327H28.4902L27.7658 15.4433ZM24.2136 13.9936H27.2583L25.736 9.64434L24.2136 13.9936Z" fill="#36B6B0"/>
<path d="M34.1441 16.4556H38.8564V17.9053H32.3322V7.46667H34.1441V16.4556Z" fill="#36B6B0"/>
<path d="M48.1352 8.91642H44.8726V17.9053H43.0607V8.91642H39.8707V7.46667H48.1352V8.91642Z" fill="#36B6B0"/>
<path d="M59.5898 11.8167V7.46656H61.4018V17.9061H59.5898V13.269H54.9527V17.9061H53.1373V7.46656H54.9492V11.8158L59.5898 11.8167ZM67.2016 11.0914L70.2463 7.46656H72.4214L68.5796 12.1036L72.7118 17.9035H70.5359L67.4186 13.409L66.2584 14.6418V17.9043H64.4465V7.46656H66.2584V12.3232L67.2016 11.0914ZM50.2378 25.3727H75.6105V0H50.2378V25.3727Z" fill="#36B6B0"/>
<path d="M84.0929 15.4433H80.0333L79.1636 17.8353H77.2782L81.1926 7.39404H82.7902L86.7046 17.8327H84.82L84.0929 15.4433ZM80.5408 13.9936H83.5855L82.0631 9.64434L80.5408 13.9936Z" fill="#36B6B0"/>
<path d="M93.0808 13.8456H91.051V17.8326H89.239V7.46655H92.9364C93.4761 7.45758 94.0139 7.53104 94.5314 7.68441C94.945 7.81847 95.3361 8.01401 95.6916 8.26448C96.0121 8.53892 96.261 8.88724 96.4169 9.27939C96.5711 9.72174 96.6449 10.1881 96.6347 10.6565C96.6781 11.2785 96.4982 11.8956 96.1273 12.3967C95.7505 12.8528 95.2811 13.2235 94.7501 13.4842L97.0695 17.8335V17.9061H95.1124L93.0808 13.8456ZM91.051 12.3958H92.9355C93.2303 12.3829 93.5223 12.3341 93.8052 12.2506C94.0235 12.1754 94.2218 12.0515 94.3851 11.8882C94.5484 11.7249 94.6723 11.5266 94.7475 11.3083C94.8432 11.0786 94.8925 10.8323 94.8925 10.5835C94.8925 10.3346 94.8432 10.0883 94.7475 9.85858C94.6723 9.64029 94.5484 9.44199 94.3851 9.27872C94.2218 9.11545 94.0235 8.99151 93.8052 8.91629C93.5252 8.82062 93.2314 8.77155 92.9355 8.77106H91.051V12.3958Z" fill="#36B6B0"/>
<path d="M107 8.91617H103.737V17.9051H101.925V8.91617H98.7355V7.46643H107V8.91617Z" fill="#36B6B0"/>
</g>
<defs>
<clipPath id="clip0_935_338">
<rect width="107" height="25.3727" fill="white"/>
</clipPath>
</defs>
</svg>
