<svg width="131" height="39" viewBox="0 0 131 39" fill="none" xmlns="http://www.w3.org/2000/svg">
<path d="M82.5139 11.2011L80.3571 7.45295L76.5226 9.33784L74.3658 5.58973L70.5314 7.47461L68.3745 3.72651L64.5401 5.61139L62.3833 1.86328L58.5489 3.74817L56.392 6.10352e-05L52.5576 1.88495L44.3877 29.01L54.2787 32.1081C54.9323 29.9199 56.9367 28.3167 59.2896 28.3167C62.1872 28.3167 64.5401 30.7216 64.5401 33.6897V33.798C64.5619 34.2747 64.5183 34.773 64.3658 35.2496L74.4312 38.4128" fill="#D70B17"/>
<path d="M52.8625 26.7574C52.3397 26.6707 51.9911 26.2158 51.9911 25.6741V12.3499C51.9911 11.7216 52.4704 11.245 53.0804 11.245H62.4486C62.6882 11.245 62.9279 11.2667 63.1675 11.31C65.1719 11.6783 66.6533 13.4549 66.6533 15.5564V25.6741C66.6533 25.9774 66.5444 26.2591 66.3265 26.4758C66.1305 26.6707 65.8472 26.8007 65.564 26.8007L65.3679 26.7791C64.8451 26.6924 64.4965 26.2374 64.4965 25.6958V15.5997C64.4965 14.5815 63.7775 13.7148 62.7971 13.5415L62.4486 13.4982H60.4006V25.6958C60.4006 25.9991 60.2917 26.2808 60.0738 26.4974C59.8778 26.6924 59.5945 26.8224 59.3113 26.8224L59.1152 26.8007C58.5924 26.7141 58.2438 26.2591 58.2438 25.7175V13.4982H54.1479V25.6958C54.1479 25.9991 54.039 26.2808 53.8211 26.4758C53.6251 26.6707 53.3418 26.8007 53.0586 26.8007L52.8625 26.7574Z" fill="white"/>
<path d="M68.4398 32.563C67.9169 32.4763 67.5684 32.0214 67.5684 31.4797C67.5684 31.1764 67.6773 30.8948 67.8734 30.6998C68.0694 30.5048 68.3527 30.3748 68.6359 30.3748C69.5509 30.3748 70.3352 29.7682 70.5967 28.8799L71.7078 25.0668L68.0694 12.5658C67.8952 11.9809 68.2219 11.3526 68.7884 11.1576L69.2677 11.1359C69.6599 11.2009 69.9866 11.5042 70.1174 11.8942L72.8189 21.2103L75.564 11.8942C75.6947 11.3743 76.2393 11.0276 76.8058 11.1359L76.8712 11.1576C77.4594 11.3526 77.7862 11.9809 77.5901 12.5658L73.8428 25.3918L72.6664 29.5082C72.3614 30.4614 71.8385 31.2197 71.1413 31.7397C70.4006 32.303 69.5291 32.6063 68.6141 32.6063L68.4398 32.563Z" fill="white"/>
<path d="M1.05468 26.6272C0.510017 26.5188 0.139648 26.0639 0.139648 25.5006V5.61177C0.139648 5.28679 0.24858 5.00514 0.466445 4.78848C0.662522 4.57183 0.967531 4.4635 1.27254 4.4635L1.46862 4.48517C2.01328 4.59349 2.40543 5.04847 2.40543 5.61177V11.2664H4.5405C4.80194 11.2664 5.04159 11.2881 5.30303 11.3314C7.39452 11.6997 8.91957 13.563 8.91957 15.7512V22.1641C8.91957 24.634 6.95879 26.6488 4.5405 26.6488H1.29433L1.05468 26.6272ZM2.38365 24.3307H4.51871C5.69518 24.3307 6.65378 23.3557 6.65378 22.1424V15.7295C6.65378 14.6679 5.91305 13.7579 4.88908 13.5846L4.51871 13.5413H2.38365V24.3307Z" fill="#5B5B5B"/>
<path d="M15.3682 26.7136C13.2767 26.3453 11.7734 24.482 11.7734 22.2938V15.6209C11.7734 14.4076 12.231 13.3027 13.0588 12.4361C13.8867 11.5911 14.976 11.1145 16.1525 11.1145C16.4139 11.1145 16.6536 11.1362 16.915 11.1795C19.0065 11.5478 20.5316 13.411 20.5316 15.5992V22.2722C20.5316 23.4638 20.0741 24.5904 19.2462 25.457C18.4183 26.3019 17.329 26.7569 16.1743 26.7569C15.8911 26.7786 15.6296 26.7569 15.3682 26.7136ZM16.5011 13.4544L16.1307 13.411C14.9325 13.411 13.9957 14.3643 13.9957 15.5992V22.2722C13.9957 23.3338 14.7364 24.2437 15.7386 24.417L16.1089 24.4604C17.2854 24.4604 18.244 23.4854 18.244 22.2722V15.5992C18.2658 14.5376 17.525 13.6494 16.5011 13.4544Z" fill="#5B5B5B"/>
<path d="M27.0017 26.7138C24.9102 26.3238 23.407 24.4822 23.407 22.294V15.6211C23.407 13.1512 25.3678 11.1364 27.786 11.1364C28.0475 11.1364 28.2871 11.158 28.5486 11.2013C30.6183 11.5697 32.1433 13.4329 32.1433 15.5994V22.2724C32.1433 23.4639 31.6858 24.5905 30.8579 25.4572C30.03 26.3021 28.9407 26.7571 27.7643 26.7571C27.5028 26.7787 27.2414 26.7571 27.0017 26.7138ZM28.1346 13.4545L27.7643 13.4112C26.566 13.4112 25.6292 14.3645 25.6292 15.5994V22.2724C25.6292 23.334 26.3699 24.2439 27.3721 24.4172L27.7425 24.4606C28.3089 24.4606 28.8318 24.2439 29.2457 23.8323C29.6597 23.4206 29.8775 22.879 29.8775 22.2724V15.5994C29.8993 14.5378 29.1586 13.6495 28.1346 13.4545Z" fill="#5B5B5B"/>
<path d="M35.9346 26.757C35.3899 26.6704 35.0195 26.1937 35.0195 25.6304V5.61164C35.0195 5.28666 35.1285 5.00501 35.3463 4.78836C35.5642 4.57171 35.8474 4.46338 36.1524 4.46338L36.3485 4.48505C36.8932 4.59337 37.2853 5.04834 37.2853 5.61164V17.4626L42.4487 11.5263C42.7101 11.2446 43.1023 11.093 43.4944 11.1796L44.0609 11.4396C44.5184 11.8729 44.562 12.5879 44.148 13.0645L40.2047 17.5059L44.257 25.0888C44.4095 25.3488 44.4313 25.6521 44.3659 25.9338C44.2788 26.2154 44.0827 26.4754 43.8212 26.627C43.6034 26.757 43.3419 26.8004 43.0805 26.757C42.7319 26.692 42.4705 26.4971 42.2962 26.2154L38.6579 19.3692L37.2635 20.9291V25.6304C37.2635 25.9338 37.1546 26.2371 36.9367 26.4537C36.7189 26.6704 36.4356 26.7787 36.1524 26.7787L35.9346 26.757Z" fill="#5B5B5B"/>
<path d="M85.4556 26.7355C84.2138 26.5189 83.1681 25.7606 82.5363 24.634C82.3837 24.374 82.362 24.049 82.4273 23.7457C82.5145 23.4424 82.6888 23.2041 82.9502 23.0524C83.1681 22.9224 83.4295 22.8791 83.6909 22.9224C84.0177 22.9874 84.3009 23.1824 84.4752 23.4857C84.7802 24.0057 85.2378 24.3307 85.8042 24.439C86.436 24.5473 87.0025 24.374 87.46 23.9407C87.8957 23.529 88.1136 22.9441 88.07 22.3591C88.0482 21.7525 87.7432 21.2108 87.2639 20.8642L84.2356 18.6543C83.2334 17.9394 82.6234 16.8128 82.5145 15.5345C82.4491 14.2346 82.9284 13.0213 83.8216 12.1981C84.7149 11.3314 85.9349 10.9415 87.155 11.1148C88.4186 11.3531 89.4643 12.0897 90.0526 13.1513C90.1833 13.4113 90.2268 13.7146 90.1615 14.0179C90.0743 14.3213 89.9001 14.5812 89.6386 14.7112C89.4208 14.8412 89.1593 14.8846 88.8979 14.8412C88.5711 14.7762 88.2879 14.5812 88.1136 14.2996C87.8521 13.8446 87.3946 13.5196 86.8282 13.4113C86.2617 13.3247 85.7171 13.4763 85.3031 13.8663C84.911 14.2346 84.6931 14.7762 84.7367 15.3612C84.7585 15.9028 85.0635 16.4445 85.521 16.7478L88.5493 18.9143C89.595 19.6726 90.2269 20.8642 90.2922 22.1641C90.4011 23.464 89.9001 24.7206 88.9415 25.5872C88.0264 26.4539 86.7628 26.8655 85.4992 26.6922" fill="#5B5B5B"/>
<path d="M94.1478 26.7784C93.6031 26.6701 93.2109 26.1934 93.2109 25.6518V5.633C93.2109 5.32969 93.3417 5.02638 93.5595 4.80972C93.7774 4.59307 94.0606 4.48474 94.3438 4.48474L94.5399 4.5064C95.0846 4.61473 95.4549 5.0697 95.4549 5.633V11.2877H97.59C97.8514 11.2877 98.1129 11.3093 98.3525 11.3527C100.444 11.721 101.947 13.5842 101.947 15.7724V25.6518C101.947 26.3018 101.446 26.8001 100.836 26.8001L100.64 26.7784C100.095 26.6917 99.7033 26.2151 99.7033 25.6518V15.7724C99.7033 14.7108 98.9626 13.8008 97.9604 13.6275L97.5682 13.5842H95.4332V25.6518C95.4332 26.3018 94.9321 26.8001 94.3003 26.8001L94.1478 26.7784Z" fill="#5B5B5B"/>
<path d="M108.419 26.7136C106.327 26.3453 104.824 24.4821 104.824 22.2939V15.621C104.824 13.1511 106.785 11.1362 109.203 11.1362C109.465 11.1362 109.704 11.1579 109.966 11.2012C112.057 11.5695 113.582 13.4328 113.582 15.621V22.2939C113.582 23.4855 113.125 24.6121 112.297 25.4787C111.469 26.3237 110.38 26.7786 109.225 26.7786C108.942 26.7786 108.68 26.757 108.419 26.7136ZM109.574 13.4761L109.203 13.4328C108.637 13.4328 108.092 13.6494 107.7 14.0611C107.308 14.4727 107.09 15.0143 107.09 15.5993V22.2722C107.09 23.3338 107.831 24.2438 108.833 24.4171L109.203 24.4604C109.77 24.4604 110.293 24.2438 110.707 23.8321C111.12 23.4205 111.338 22.8789 111.338 22.2722V15.5993C111.317 14.5594 110.576 13.6494 109.574 13.4761Z" fill="#5B5B5B"/>
<path d="M130.835 12.5448C130.901 12.2415 130.857 11.9598 130.727 11.6998C130.574 11.4399 130.313 11.2449 130.008 11.1799L129.812 11.1582C129.31 11.1582 128.853 11.5048 128.722 12.0248C128.722 12.0681 127.502 17.0728 126.565 20.886L126.544 20.9726L126.522 20.886C125.607 17.0945 124.365 12.0898 124.343 12.0248C124.256 11.5698 123.929 11.2449 123.472 11.1799L123.276 11.1582C122.775 11.1582 122.361 11.5048 122.208 12.0248C122.186 12.0681 120.988 17.0728 120.051 20.886L120.029 20.9726L120.008 20.886C119.093 17.0728 117.851 12.0898 117.851 12.0248C117.742 11.5915 117.393 11.2449 116.979 11.1799L116.544 11.2015C115.955 11.3532 115.585 11.9598 115.737 12.5665L118.984 25.9123C119.114 26.3456 119.441 26.6923 119.855 26.7573L120.029 26.7789C120.552 26.7789 120.988 26.4323 121.097 25.9123C121.119 25.869 122.339 20.8643 123.276 17.0512L123.297 16.9645L123.319 17.0512C124.278 20.886 125.476 25.9123 125.476 25.9123C125.607 26.3456 125.934 26.6706 126.347 26.7573L126.522 26.7789C127.045 26.7789 127.48 26.4323 127.589 25.9123" fill="#5B5B5B"/>
</svg>
