<svg width="105" height="23" viewBox="0 0 105 23" fill="none" xmlns="http://www.w3.org/2000/svg">
<path d="M16.0226 5.67137L15.9282 8.70716L8.01042 17.3138C11.3178 17.3138 13.415 17.2814 14.6243 17.2143C14.2738 18.8476 13.9888 20.1829 13.7017 22.1848C12.1112 22.0505 9.63158 22.0169 7.15072 22.0169C4.38526 22.0169 1.96821 22.0501 0.0284424 22.1848L0.0930873 19.1146L8.01042 10.5424C4.54435 10.5424 3.27202 10.5752 1.84186 10.6087C2.15879 9.07405 2.38169 7.37355 2.60417 5.67137C5.11608 5.77128 6.10171 5.80402 9.3772 5.80402C12.3983 5.80444 14.1143 5.77128 16.0226 5.67137ZM25.0221 4.7697C19.8694 4.7697 15.9282 9.37334 15.9282 14.8795C15.9282 19.0155 18.3125 22.1848 22.9547 22.1848C28.1381 22.1848 32.0491 17.5803 32.0491 12.0418C32.0495 7.94066 29.7273 4.7697 25.0221 4.7697ZM23.4635 17.76C22.3184 17.76 21.6513 16.7244 21.6513 14.6898C21.6513 11.654 22.8913 9.21929 24.4185 9.21929C25.5305 9.21929 26.1983 10.2209 26.1983 12.2878C26.1979 15.29 24.9906 17.76 23.4635 17.76ZM97.8514 4.54134C92.6328 4.54134 88.6386 9.20585 88.6386 14.7813C88.6386 18.9735 91.0544 22.1848 95.7576 22.1848C101.008 22.1848 104.971 17.5199 104.971 11.9096C104.972 7.75302 102.621 4.54134 97.8514 4.54134ZM96.1744 17.7423C95.0288 17.7423 94.3622 16.7068 94.3622 14.6721C94.3622 11.6363 95.6027 9.20208 97.1294 9.20208C98.2409 9.20208 98.91 10.2028 98.91 12.2702C98.9092 15.2737 97.7007 17.7423 96.1744 17.7423ZM58.7903 10.7754C59.2042 7.94066 58.9817 5.37123 55.8343 5.37123C53.5444 5.37123 51.0644 7.30638 49.3156 10.5424C49.6976 7.87266 49.4743 5.37123 46.3583 5.37123C44.0055 5.37123 41.4617 7.40587 39.7121 10.7754C40.1574 8.57368 40.0626 6.07099 39.9349 5.53746C38.1228 5.83802 36.5335 6.00425 34.3071 6.07099C34.3709 7.6061 34.2752 9.60632 33.9889 11.5096L33.2576 16.5128C32.9713 18.482 32.6532 20.7504 32.335 22.1852H38.2496C38.2819 21.3167 38.5048 19.9495 38.6635 18.7485L39.1722 15.3131C39.5853 13.0766 41.3655 10.4425 42.7327 10.4425C43.5278 10.4425 43.4967 11.2094 43.2738 12.6438L42.7013 16.5124C42.4141 18.4816 42.0972 20.75 41.7786 22.1848H47.7566C47.7889 21.3163 47.9795 19.9491 48.1381 18.7481L48.6465 15.3127C49.0604 13.0762 50.8419 10.4421 52.2083 10.4421C53.0041 10.4421 52.9727 11.175 52.8442 12.1766L51.4161 22.1844H56.8719L58.7903 10.7754ZM87.3562 16.9473L86.7203 20.8843C85.7342 21.4179 83.8897 22.1856 81.7594 22.1856C78.1342 22.1856 77.4038 20.2505 77.9752 16.1472L78.8978 9.54167H77.1138L77.6175 5.26587L79.5652 5.17184L80.2969 2.0693L85.7972 0.000244141L85.0983 5.17142H88.8825C88.7557 5.70495 88.3091 8.64168 88.184 9.54125H84.4934L83.6664 15.6464C83.4439 17.2143 83.572 17.7818 84.6516 17.7818C85.4484 17.781 86.6237 17.3138 87.3562 16.9473ZM66.4919 19.0739C68.4937 18.8258 69.8714 16.8961 70.2026 14.9706L70.2585 14.4547C69.3984 14.2624 68.155 14.1159 66.9494 14.2633C65.8013 14.4031 64.8459 14.8803 64.3321 15.5713C63.9447 16.0675 63.7499 16.661 63.8364 17.3688C63.9669 18.4287 65.1393 19.2388 66.4919 19.0739ZM64.788 22.1231C61.9625 22.4702 60.1017 21.3486 59.5429 18.7977C59.1924 17.1924 59.6789 15.3639 60.5298 14.2729C61.6695 12.8461 63.5266 11.9302 65.7929 11.6535C67.6168 11.4273 69.1536 11.5389 70.5909 11.811L70.6505 11.5646C70.6917 11.1704 70.7332 10.7771 70.6757 10.3061C70.5267 9.09671 69.573 8.37638 67.2181 8.66603C65.6292 8.86122 64.1176 9.43505 62.9439 10.0882L61.8022 6.63811C63.3931 5.72468 65.3983 5.02954 67.6932 4.74787C72.0769 4.21014 75.1572 5.60798 75.5518 8.82176C75.6563 9.67642 75.6689 10.5823 75.561 11.4042C74.9981 15.3778 74.6375 18.3678 74.4793 20.3718C74.4537 20.682 74.4558 21.2151 74.4835 21.9707L69.0436 21.9657C69.1595 21.6525 69.2632 21.2277 69.3555 20.695C69.4168 20.3445 69.4605 19.9025 69.4878 19.3669C68.338 20.9444 66.7576 21.8813 64.788 22.1231Z" fill="#E23744"/>
</svg>
