<svg width="137" height="30" viewBox="0 0 137 30" fill="none" xmlns="http://www.w3.org/2000/svg">
<path d="M51.4216 17.2023C51.4236 17.2606 51.4372 17.3179 51.4618 17.3708C51.4864 17.4238 51.5214 17.4712 51.5647 17.5103C51.6445 17.5968 51.7552 17.6482 51.8727 17.6534H52.918V19.7494H50.943C50.7505 19.7437 50.5621 19.6928 50.3929 19.6008C50.1993 19.4945 50.0246 19.357 49.8758 19.1937C49.7168 19.0163 49.5885 18.8137 49.4962 18.5941C49.3963 18.3632 49.3458 18.114 49.3476 17.8624V11.2223C49.3444 11.1152 49.3013 11.0131 49.2266 10.9362C49.1947 10.8947 49.154 10.8608 49.1073 10.837C49.0607 10.8132 49.0094 10.8001 48.957 10.7987H48.2969V9.00525H50.0628C50.254 9.00518 50.4426 9.05043 50.6129 9.13728C50.7764 9.22501 50.9219 9.34256 51.042 9.48387C51.1499 9.61874 51.237 9.76892 51.3006 9.92947C51.3564 10.0734 51.3862 10.2262 51.3886 10.3806L51.4216 17.2023Z" fill="#4D4D4F"/>
<path d="M60.4602 17.4168C60.343 17.8507 60.1431 18.2579 59.8716 18.6161C59.6311 18.9261 59.3389 19.1922 59.0079 19.4028C58.6953 19.5985 58.3536 19.7433 57.9956 19.8319C57.6569 19.9136 57.3098 19.9561 56.9614 19.9584C56.4307 19.9637 55.9022 19.8895 55.3935 19.7384C54.9222 19.6028 54.4915 19.3534 54.1392 19.0122C53.761 18.6339 53.4733 18.175 53.2975 17.6699C53.0241 16.7992 52.9342 15.8814 53.0334 14.9742C53.0622 14.6905 53.1193 14.4104 53.204 14.138C53.2999 13.8218 53.4309 13.5174 53.5946 13.2303C53.7691 12.9187 53.9983 12.641 54.2712 12.4106C54.5835 12.1506 54.9392 11.9476 55.322 11.811C55.7994 11.6463 56.3024 11.5681 56.8073 11.5799C57.2274 11.5831 57.6453 11.6404 58.0506 11.7504C58.5006 11.8718 58.9153 12.098 59.2609 12.4106C59.6639 12.7847 59.9795 13.243 60.1852 13.7529C60.4494 14.4555 60.5727 15.2032 60.5483 15.9535V16.3221H55.0909C55.1028 16.5068 55.1267 16.6906 55.1624 16.8722C55.2065 17.0996 55.2903 17.3175 55.41 17.5158C55.5444 17.7424 55.7336 17.9315 55.9601 18.066C56.2672 18.2243 56.6108 18.2984 56.9559 18.2805C57.2447 18.2805 57.5288 18.2067 57.7811 18.066C57.9074 17.9994 58.0186 17.9073 58.1076 17.7956C58.1966 17.6838 58.2615 17.5549 58.2982 17.4168H60.4602ZM58.3972 14.9742C58.3773 14.6977 58.3064 14.4273 58.1882 14.1765C58.0927 13.9805 57.96 13.8049 57.7976 13.6594C57.6551 13.5307 57.4861 13.4349 57.3025 13.3788C57.1239 13.3257 56.9387 13.2979 56.7523 13.2963C56.5406 13.2821 56.3283 13.3147 56.1306 13.3917C55.9328 13.4687 55.7544 13.5883 55.608 13.7419C55.3195 14.0911 55.1482 14.5222 55.1184 14.9742H58.3972Z" fill="#4D4D4F"/>
<path d="M61.6423 14.0336C61.6358 13.9213 61.5911 13.8146 61.5158 13.731C61.4831 13.6869 61.4409 13.6507 61.3923 13.625C61.3438 13.5993 61.2901 13.5848 61.2352 13.5825H60.7401V11.7891H62.7151C62.8358 11.7894 62.954 11.8237 63.0562 11.8881C63.17 11.9511 63.2723 12.0329 63.3587 12.1301C63.4453 12.2296 63.5175 12.3407 63.5733 12.4602C63.6261 12.5721 63.6542 12.6941 63.6558 12.8178V13.0874C63.737 12.9355 63.827 12.7886 63.9254 12.6473C64.0608 12.4606 64.2198 12.2923 64.3985 12.1466C64.8772 11.7704 65.4734 11.5755 66.0819 11.5965C66.4557 11.5906 66.8277 11.6483 67.1822 11.767C67.5081 11.8743 67.8079 12.0486 68.0624 12.2787C68.3094 12.5125 68.5076 12.793 68.6455 13.1039C68.7955 13.4702 68.8685 13.8634 68.8601 14.2592V17.5215C68.8637 17.6318 68.9066 17.7371 68.9811 17.8185C69.011 17.8634 69.0509 17.9007 69.0977 17.9274C69.1445 17.9542 69.1969 17.9696 69.2507 17.9726H69.7568V19.7495H68.0679C67.8947 19.7473 67.7254 19.6978 67.5783 19.6065C67.4229 19.5117 67.2852 19.3907 67.1712 19.2489C67.049 19.1019 66.9507 18.9367 66.8796 18.7593C66.8016 18.5865 66.7621 18.3987 66.7641 18.2091V14.9083C66.7641 14.7598 66.7641 14.5947 66.7641 14.4132C66.7483 14.2356 66.6959 14.0633 66.61 13.9071C66.5086 13.7405 66.3667 13.6024 66.1974 13.5055C65.9598 13.3834 65.6941 13.3265 65.4273 13.3404C65.21 13.3344 64.9938 13.3722 64.7916 13.4516C64.5893 13.531 64.4051 13.6504 64.25 13.8025C64.0835 13.9885 63.9562 14.2062 63.8758 14.4425C63.7955 14.6788 63.7637 14.929 63.7824 15.1779V18.2476C63.7804 18.4262 63.7411 18.6024 63.6668 18.7648C63.589 18.9365 63.4892 19.0974 63.3698 19.2434C63.2465 19.3845 63.1017 19.5052 62.9407 19.601C62.7968 19.6907 62.6315 19.7401 62.462 19.744H60.8116V17.9561H61.3068C61.3605 17.9537 61.4131 17.9402 61.4614 17.9166C61.5097 17.8929 61.5525 17.8595 61.5873 17.8185C61.6635 17.7422 61.7086 17.6402 61.7138 17.5325L61.6423 14.0336Z" fill="#4D4D4F"/>
<path d="M74.8954 14.5121V13.9894C74.8949 13.874 74.8661 13.7604 74.8114 13.6587C74.7567 13.557 74.6779 13.4703 74.5818 13.4063C74.2652 13.2184 73.8979 13.1338 73.531 13.1642C73.2994 13.1585 73.068 13.1844 72.8434 13.2413C72.7031 13.2753 72.5717 13.3391 72.4583 13.4283C72.374 13.4892 72.3121 13.5762 72.2822 13.6759C72.2606 13.7622 72.2495 13.8509 72.2492 13.9399C72.2524 14.0476 72.289 14.1516 72.3541 14.2374C72.4192 14.3232 72.5095 14.3865 72.6123 14.4185C72.9076 14.5461 73.2155 14.642 73.531 14.7046C73.8978 14.7853 74.2994 14.8678 74.7358 14.9522C75.1526 15.0298 75.5576 15.1611 75.9406 15.3428C76.2975 15.5053 76.6134 15.746 76.8648 16.0469C77.1211 16.3821 77.2498 16.7974 77.2279 17.2187C77.25 17.7139 77.1235 18.2043 76.8648 18.6271C76.6313 18.9711 76.3204 19.2555 75.9571 19.4578C75.5992 19.6498 75.2129 19.7836 74.8128 19.8539C74.4604 19.9167 74.1035 19.9517 73.7456 19.9584C73.3164 19.957 72.888 19.9239 72.4638 19.8594C72.0471 19.8021 71.6401 19.6893 71.2535 19.5238C70.905 19.375 70.5947 19.1493 70.3457 18.8636C70.1028 18.5706 69.9756 18.1988 69.9882 17.8184V17.0537H72.2162V17.7854C72.2162 17.9999 72.3702 18.1485 72.6728 18.2365C73.0427 18.3327 73.424 18.3771 73.8061 18.3685C74.0313 18.3751 74.256 18.3454 74.4717 18.2805C74.6183 18.2384 74.7548 18.1673 74.8734 18.0714C74.9597 18.0016 75.0292 17.9132 75.0769 17.8129C75.1135 17.7294 75.134 17.6399 75.1374 17.5488C75.1336 17.4379 75.0964 17.3308 75.0306 17.2414C74.9648 17.1521 74.8736 17.0847 74.7688 17.0482C74.4754 16.9193 74.1694 16.8216 73.8556 16.7566C73.4888 16.6723 73.0927 16.5897 72.6673 16.5091C72.2582 16.4274 71.8596 16.3001 71.479 16.1295C71.124 15.9688 70.81 15.7299 70.5603 15.4308C70.3024 15.0902 70.1737 14.6691 70.1972 14.2425C70.2003 13.9341 70.2504 13.6281 70.3457 13.3348C70.4514 13.0122 70.6303 12.7185 70.8684 12.4766C71.1532 12.1967 71.492 11.9777 71.8641 11.8329C72.3601 11.6494 72.8869 11.5635 73.4155 11.5799C73.8111 11.5818 74.2062 11.6094 74.5983 11.6624C74.9973 11.7106 75.3857 11.824 75.7481 11.998C76.0907 12.1637 76.3887 12.4089 76.6173 12.7131C76.8582 13.0756 76.9776 13.5052 76.9584 13.9399V14.4901L74.8954 14.5121Z" fill="#4D4D4F"/>
<path d="M82.8834 14.8532L84.7208 17.956H85.634V19.7494H84.3192C84.1297 19.751 83.942 19.7116 83.7691 19.6339C83.5934 19.5603 83.4301 19.4601 83.285 19.3368C83.1353 19.21 82.9972 19.0701 82.8724 18.9187C82.7535 18.7698 82.6468 18.6116 82.5533 18.4456L81.3375 16.3331L80.4738 17.2353V18.3356C80.4695 18.5039 80.4282 18.6692 80.3527 18.8197C80.272 18.9839 80.1683 19.1358 80.0447 19.2708C79.9231 19.4017 79.7821 19.513 79.6266 19.6009C79.4818 19.6816 79.3192 19.725 79.1535 19.7274H77.5031V17.956H77.9927C78.0981 17.9525 78.1983 17.9092 78.2732 17.8349C78.3117 17.8011 78.3427 17.7597 78.3645 17.7133C78.3862 17.6669 78.3983 17.6166 78.3998 17.5654V11.1783C78.3974 11.1289 78.385 11.0804 78.3632 11.036C78.3415 10.9915 78.3108 10.9519 78.2732 10.9197C78.2034 10.8479 78.1092 10.8047 78.0092 10.7987H77.5031V9.00528H79.0104C79.2018 9.00392 79.3906 9.04924 79.5605 9.13731C79.7337 9.2301 79.893 9.34677 80.0337 9.4839C80.1708 9.62331 80.2858 9.78286 80.3748 9.95701C80.4679 10.1252 80.5153 10.3149 80.5123 10.5071V14.8312L81.9701 13.0873L82.3442 12.6472C82.4682 12.4986 82.6024 12.3589 82.7458 12.2291C82.8836 12.1049 83.0371 11.9995 83.2024 11.9155C83.3624 11.833 83.5396 11.7897 83.7196 11.789H85.0344V13.5824H84.1377L82.8834 14.8532Z" fill="#4D4D4F"/>
<path d="M93.8365 17.5655C93.8402 17.6634 93.8816 17.756 93.9521 17.8241C93.9802 17.8638 94.0173 17.8964 94.0602 17.9193C94.1032 17.9422 94.1509 17.9548 94.1996 17.9561H94.7497V19.7495H92.9728C92.8571 19.7454 92.7432 19.7192 92.6372 19.6725C92.511 19.6223 92.3939 19.5517 92.2906 19.4635C92.1852 19.3743 92.0975 19.266 92.0321 19.1444C91.9615 19.0185 91.9255 18.8761 91.9276 18.7318V18.5227C91.6882 18.9645 91.3299 19.3304 90.8933 19.579C90.4451 19.8312 89.9388 19.9621 89.4244 19.9586C88.9151 19.9633 88.4088 19.8795 87.9281 19.711C87.4747 19.5488 87.0631 19.2876 86.7233 18.9463C86.363 18.5739 86.0888 18.127 85.9201 17.637C85.7119 17.036 85.6131 16.4025 85.6285 15.7666C85.6127 15.1304 85.7269 14.4976 85.9641 13.9071C86.1591 13.4228 86.4568 12.9866 86.8367 12.6285C87.2166 12.2705 87.6697 11.9991 88.1646 11.8331C88.6601 11.6623 89.1809 11.5768 89.705 11.58C89.9179 11.5809 90.13 11.6048 90.3377 11.6516C90.5521 11.7038 90.7619 11.7737 90.9648 11.8606C91.1576 11.952 91.3417 12.0607 91.515 12.1852C91.6737 12.2971 91.8162 12.4304 91.9386 12.5813V11.8606H93.853L93.8365 17.5655ZM91.5975 15.7666C91.5948 15.499 91.5691 15.2321 91.5205 14.9689C91.4739 14.693 91.3809 14.427 91.2454 14.1822C91.1042 13.9349 90.9014 13.7283 90.6567 13.5825C90.3528 13.4271 90.0162 13.346 89.6748 13.346C89.3333 13.346 88.9968 13.4271 88.6928 13.5825C88.4521 13.7298 88.2533 13.9362 88.1151 14.1822C87.9796 14.427 87.8866 14.693 87.8401 14.9689C87.7914 15.2321 87.7657 15.499 87.763 15.7666C87.7654 16.0415 87.7912 16.3157 87.8401 16.5863C87.8875 16.8602 87.9805 17.1242 88.1151 17.3675C88.2526 17.6125 88.4517 17.8173 88.6928 17.9616C88.9978 18.1137 89.3339 18.1929 89.6748 18.1929C90.0156 18.1929 90.3517 18.1137 90.6567 17.9616C90.9021 17.8192 91.1053 17.6142 91.2454 17.3675C91.38 17.1242 91.473 16.8602 91.5205 16.5863C91.5694 16.3157 91.5951 16.0415 91.5975 15.7666Z" fill="#4D4D4F"/>
<path d="M95.5801 13.9895C95.5755 13.8843 95.5324 13.7844 95.459 13.7089C95.4252 13.6705 95.3838 13.6395 95.3374 13.6177C95.291 13.5959 95.2407 13.5839 95.1895 13.5824H94.6779V11.789H96.2732C96.4242 11.79 96.5736 11.8198 96.7134 11.877C96.8657 11.9354 97.007 12.0191 97.1315 12.1246C97.2558 12.2254 97.3603 12.3485 97.4395 12.4876C97.5178 12.6091 97.5598 12.7503 97.5606 12.8947V13.1643H97.5881C97.6981 12.9663 97.8136 12.7737 97.9347 12.5812C98.0551 12.3929 98.2014 12.2225 98.3693 12.075C98.5429 11.9207 98.7421 11.7978 98.9579 11.712C99.2188 11.6178 99.4949 11.573 99.7721 11.5799H99.9756H100.179V13.753C100.083 13.7348 99.9855 13.7256 99.8876 13.7254H99.5795C99.2429 13.7113 98.9071 13.7695 98.5948 13.896C98.3647 13.9935 98.1638 14.1489 98.0117 14.3471C97.8717 14.5266 97.774 14.7353 97.7256 14.9577C97.6759 15.1762 97.6501 15.3994 97.6486 15.6234V19.7494H95.5581L95.5801 13.9895Z" fill="#4D4D4F"/>
<path d="M103.486 11.7889H104.784V13.2853H103.486V16.9052C103.486 16.9877 103.486 17.0702 103.486 17.1692C103.497 17.2639 103.531 17.3545 103.585 17.4333C103.651 17.5296 103.742 17.6058 103.849 17.6534C104.003 17.7197 104.171 17.7498 104.338 17.7414H104.729V19.8374H104.564H104.371H103.92H103.37C103.095 19.8444 102.823 19.7885 102.573 19.6741C102.323 19.5597 102.103 19.3897 101.929 19.1772C101.522 18.6256 101.327 17.9462 101.379 17.2628V13.2853H100.278V11.7889H101.379V9.00525H103.475L103.486 11.7889Z" fill="#4D4D4F"/>
<path d="M105.279 18.4897C105.281 18.2862 105.333 18.0862 105.431 17.9076C105.529 17.729 105.669 17.5772 105.839 17.4656C106.009 17.3541 106.204 17.2863 106.407 17.2682C106.61 17.2501 106.814 17.2823 107.001 17.3619C107.146 17.4265 107.28 17.5138 107.397 17.6205C107.512 17.7316 107.604 17.8644 107.667 18.0111C107.732 18.1622 107.764 18.3253 107.761 18.4897C107.762 18.6551 107.731 18.8191 107.668 18.9723C107.606 19.1254 107.513 19.2646 107.397 19.3818C107.28 19.499 107.141 19.5919 106.988 19.655C106.835 19.7181 106.672 19.7502 106.506 19.7495C106.341 19.7507 106.178 19.7169 106.028 19.6505C105.881 19.5873 105.748 19.4957 105.637 19.3809C105.527 19.2663 105.439 19.1319 105.378 18.9848C105.311 18.8286 105.277 18.6599 105.279 18.4897Z" fill="#4D4D4F"/>
<path d="M115.182 16.4102V17.2189C115.171 17.5133 115.104 17.8028 114.984 18.0716C114.835 18.4111 114.617 18.7164 114.345 18.9683C114.026 19.2699 113.653 19.5088 113.245 19.6725C112.72 19.8794 112.159 19.9767 111.595 19.9586C110.961 19.983 110.33 19.8527 109.757 19.579C109.319 19.3458 108.942 19.0121 108.657 18.6052C108.394 18.2146 108.208 17.7779 108.107 17.3179C108.005 16.8832 107.952 16.4385 107.947 15.9921C107.944 15.3946 108.018 14.7992 108.167 14.2207C108.293 13.71 108.525 13.2319 108.85 12.8178C109.163 12.4249 109.567 12.1135 110.027 11.9101C110.576 11.6765 111.169 11.5639 111.765 11.58C112.116 11.5835 112.466 11.6203 112.811 11.69C113.209 11.7649 113.594 11.9023 113.949 12.0971C114.314 12.293 114.626 12.5719 114.863 12.9113C115.125 13.3084 115.256 13.778 115.237 14.2537V15.0349H113.036V14.3032C113.032 14.1768 113 14.0529 112.942 13.9406C112.884 13.8282 112.801 13.7303 112.701 13.654C112.46 13.4551 112.154 13.3514 111.842 13.3624H111.738C111.45 13.3498 111.166 13.4267 110.924 13.5825C110.715 13.7264 110.54 13.9142 110.412 14.1326C110.287 14.3629 110.199 14.6118 110.153 14.8698C110.104 15.1273 110.078 15.3888 110.076 15.651C110.076 15.8656 110.076 16.1241 110.109 16.4212C110.124 16.7102 110.188 16.9947 110.296 17.2629C110.398 17.5275 110.56 17.7647 110.77 17.9561C111.033 18.1592 111.362 18.2589 111.694 18.2366C111.882 18.238 112.069 18.2024 112.244 18.1321C112.401 18.069 112.546 17.9797 112.673 17.868C112.781 17.7701 112.872 17.6548 112.943 17.527C113 17.4144 113.032 17.2904 113.036 17.1639V16.4102H115.182Z" fill="#4D4D4F"/>
<path d="M123.638 15.7665C123.652 16.4067 123.536 17.043 123.297 17.637C123.098 18.134 122.792 18.581 122.4 18.9463C122.029 19.2908 121.588 19.5516 121.108 19.711C120.107 20.0409 119.027 20.0409 118.027 19.711C117.545 19.5504 117.102 19.2899 116.728 18.9463C116.339 18.5795 116.033 18.1329 115.832 17.637C115.597 17.0418 115.483 16.4061 115.496 15.7665C115.483 15.1305 115.597 14.4984 115.832 13.9071C116.034 13.4136 116.34 12.9691 116.728 12.6033C117.105 12.262 117.547 12 118.027 11.8331C119.026 11.4956 120.108 11.4956 121.108 11.8331C121.602 11.999 122.056 12.2704 122.435 12.6285C122.815 12.9866 123.113 13.4228 123.308 13.9071C123.547 14.4972 123.663 15.13 123.649 15.7665M121.493 15.7665C121.49 15.4989 121.464 15.232 121.416 14.9688C121.369 14.6929 121.276 14.4269 121.141 14.1821C120.999 13.9365 120.799 13.7303 120.557 13.5825C120.252 13.427 119.915 13.3459 119.573 13.3459C119.23 13.3459 118.893 13.427 118.588 13.5825C118.357 13.7333 118.168 13.9395 118.038 14.1821C117.898 14.4256 117.803 14.692 117.757 14.9688C117.71 15.2322 117.686 15.4991 117.686 15.7665C117.686 16.0413 117.71 16.3155 117.757 16.5862C117.804 16.8611 117.899 17.1256 118.038 17.3674C118.167 17.6093 118.357 17.8139 118.588 17.9616C118.894 18.1146 119.231 18.1942 119.573 18.1942C119.914 18.1942 120.252 18.1146 120.557 17.9616C120.799 17.8166 121 17.612 121.141 17.3674C121.275 17.1242 121.368 16.8601 121.416 16.5862C121.464 16.3157 121.49 16.0415 121.493 15.7665Z" fill="#4D4D4F"/>
<path d="M124.699 14.0169C124.694 13.9063 124.647 13.8019 124.567 13.7253C124.531 13.6832 124.488 13.6487 124.439 13.6241C124.389 13.5995 124.336 13.5853 124.281 13.5823H123.78V11.7889H125.606C125.734 11.7898 125.86 11.8199 125.975 11.8769C126.223 11.9938 126.427 12.1865 126.558 12.427C126.617 12.5371 126.649 12.6597 126.652 12.7846V13.1312C126.723 12.9992 126.817 12.8451 126.927 12.6691C127.053 12.4753 127.209 12.3027 127.389 12.1575C127.592 11.9884 127.818 11.8495 128.06 11.7449C128.349 11.6237 128.66 11.5655 128.973 11.5743C129.227 11.5705 129.48 11.5982 129.727 11.6568C129.932 11.7063 130.129 11.786 130.31 11.8934C130.487 11.9991 130.644 12.1329 130.778 12.2895C130.923 12.4654 131.059 12.6491 131.185 12.8396L131.454 12.4765C131.575 12.318 131.716 12.1757 131.873 12.0529C132.059 11.911 132.265 11.7962 132.483 11.7118C132.748 11.609 133.03 11.5604 133.314 11.5688C133.688 11.5639 134.059 11.6215 134.414 11.7394C134.739 11.8453 135.037 12.0198 135.289 12.251C135.539 12.4819 135.738 12.7631 135.872 13.0762C136.026 13.4413 136.101 13.8351 136.092 14.2315V17.5323C136.096 17.629 136.135 17.721 136.202 17.7908C136.231 17.8297 136.268 17.8616 136.311 17.8845C136.354 17.9073 136.401 17.9204 136.45 17.9229H137V19.7493H135.399C135.221 19.7465 135.046 19.6972 134.893 19.6063C134.72 19.5131 134.567 19.388 134.442 19.2377C134.312 19.092 134.206 18.9268 134.128 18.7481C134.051 18.5845 134.01 18.4063 134.007 18.2254V14.9246C134.054 14.488 133.934 14.0499 133.671 13.6978C133.568 13.5892 133.443 13.5029 133.305 13.4443C133.167 13.3856 133.018 13.3558 132.868 13.3567C132.661 13.3348 132.451 13.3657 132.259 13.4465C132.066 13.5272 131.898 13.6554 131.768 13.8189C131.548 14.1669 131.439 14.5736 131.454 14.9851V19.7493H129.358V14.9631C129.358 14.7871 129.358 14.6111 129.358 14.413C129.343 14.2327 129.299 14.0562 129.226 13.8904C129.142 13.7234 129.01 13.5854 128.847 13.4943C128.625 13.3791 128.376 13.3259 128.126 13.3402C127.913 13.3328 127.701 13.3722 127.504 13.4558C127.347 13.5316 127.211 13.645 127.108 13.7859C127.004 13.9356 126.93 14.1035 126.888 14.281C126.844 14.4814 126.821 14.6862 126.822 14.8916V18.3355C126.819 18.5154 126.77 18.6914 126.679 18.8471C126.481 19.1931 126.176 19.4653 125.81 19.6228C125.638 19.7039 125.45 19.7453 125.26 19.7438H123.78V17.9559H124.275C124.377 17.9492 124.472 17.9062 124.545 17.8348C124.584 17.8036 124.616 17.7644 124.639 17.7198C124.661 17.6752 124.674 17.6263 124.677 17.5763L124.699 14.0169Z" fill="#4D4D4F"/>
<mask id="mask0_935_102" style="mask-type:luminance" maskUnits="userSpaceOnUse" x="39" y="8" width="4" height="6">
<path d="M40.865 13.2027H42.4658V10.1605L39.165 8.86218C40.0775 10.1486 40.6611 11.6388 40.865 13.2027Z" fill="white"/>
</mask>
<g mask="url(#mask0_935_102)">
<path d="M41.8729 7.6005L37.5056 9.63794L39.7594 14.4689L44.1267 12.4315L41.8729 7.6005Z" fill="url(#paint0_linear_935_102)"/>
</g>
<mask id="mask1_935_102" style="mask-type:luminance" maskUnits="userSpaceOnUse" x="6" y="6" width="35" height="17">
<path d="M31.5609 19.8926C28.5077 19.6395 26.01 17.3675 26.01 14.2592C26.023 12.7711 26.5966 11.3425 27.6163 10.2586C28.636 9.17468 30.0268 8.51503 31.5114 8.41126C35.0763 8.19671 37.1393 11.1619 37.1393 14.2592C37.1393 17.1914 36.149 19.9256 32.3201 19.9256C32.0835 19.9256 31.8415 19.9256 31.5829 19.8926M9.66005 14.2042C9.66005 10.9804 11.9156 8.04267 15.2439 8.28473C18.3522 8.51579 21.4329 11.2995 21.1194 14.5068C20.8058 17.714 18.3687 20.0961 15.2274 20.0961C12.0861 20.0961 9.66005 17.604 9.66005 14.2042ZM7.95463 8.86237L6.6123 9.41251L8.71932 20.1676C10.3697 21.653 12.7628 22.5992 16.0306 22.1261C18.8922 21.7249 21.5415 20.3906 23.5675 18.3302C25.5947 20.3889 28.2433 21.7229 31.1043 22.1261C32.1975 22.3023 33.3119 22.3023 34.4051 22.1261L34.7242 22.0656C36.7741 21.6256 38.5719 20.4041 39.7359 18.6603C40.6161 17.3785 40.9407 15.409 40.8362 13.2524C40.7922 12.1522 40.6931 10.3917 39.7084 9.04942C39.1731 8.34081 38.4723 7.77415 37.6674 7.39901C36.4319 6.84052 35.0951 6.54096 33.7394 6.5188H13.3074C12.8508 6.5188 9.77558 6.60682 7.95463 8.89538" fill="white"/>
</mask>
<g mask="url(#mask1_935_102)">
<path d="M39.6836 0.00343863L3.5752 7.06799L7.87646 29.0527L43.9849 21.9881L39.6836 0.00343863Z" fill="url(#paint1_linear_935_102)"/>
</g>
<mask id="mask2_935_102" style="mask-type:luminance" maskUnits="userSpaceOnUse" x="12" y="14" width="12" height="9">
<path d="M21.1198 14.5067C20.7952 17.8075 18.3691 20.096 15.2278 20.096C14.7167 20.0966 14.2078 20.0281 13.715 19.8925C13.0658 20.0575 12.6147 20.2611 12.5267 20.5416C12.3836 21.0367 13.6269 21.8124 14.7272 22.192C15.1416 22.192 15.5707 22.1535 16.0145 22.0765C18.8024 21.6756 21.3912 20.4004 23.4083 18.4346C22.3676 17.2326 21.5916 15.8249 21.1308 14.3031C21.1308 14.3636 21.1308 14.4241 21.1308 14.4846" fill="white"/>
</mask>
<g mask="url(#mask2_935_102)">
<path d="M20.6564 7.5049L8.08276 14.7848L15.1587 27.0061L27.7323 19.7262L20.6564 7.5049Z" fill="url(#paint2_linear_935_102)"/>
</g>
<mask id="mask3_935_102" style="mask-type:luminance" maskUnits="userSpaceOnUse" x="4" y="8" width="4" height="6">
<path d="M4.65918 10.1605V13.2028H6.26007C6.46138 11.6374 7.04315 10.1452 7.95449 8.85669L4.65918 10.1605Z" fill="white"/>
</mask>
<g mask="url(#mask3_935_102)">
<path d="M7.95449 8.86206H4.65918V13.2081H7.95449V8.86206Z" fill="url(#paint3_linear_935_102)"/>
</g>
<mask id="mask4_935_102" style="mask-type:luminance" maskUnits="userSpaceOnUse" x="22" y="7" width="13" height="8">
<path d="M22.8467 9.9956C23.8809 11.5525 26.6041 14.8533 26.6041 14.8533C26.6041 14.8533 25.9164 12.9828 28.4636 10.2982C31.0107 7.61352 34.35 9.02736 34.35 9.02736C33.4258 8.14715 31.3573 7.70154 29.2337 7.70154C26.5216 7.70154 23.6554 8.43322 22.8467 9.9956Z" fill="white"/>
</mask>
<g mask="url(#mask4_935_102)">
<path d="M22.9091 6.8217L22.3496 14.8231L34.2969 15.6586L34.8564 7.65713L22.9091 6.8217Z" fill="url(#paint4_linear_935_102)"/>
</g>
<mask id="mask5_935_102" style="mask-type:luminance" maskUnits="userSpaceOnUse" x="6" y="6" width="16" height="17">
<path d="M12.8845 6.50762C11.3551 6.61214 8.45044 7.16228 7.44369 8.55412C6.52497 9.83593 6.22239 11.6239 6.18388 13.1752C6.12337 15.3373 6.50846 17.3343 7.38868 18.6161C8.95656 20.9046 11.7457 22.7201 16.0313 22.1039C18.079 21.7999 20.0303 21.0322 21.7362 19.8594C19.6457 21.0422 14.3204 20.7286 11.9768 19.0562C9.90279 17.6038 8.57697 12.328 11.4432 9.74791C15.3491 6.23805 21.4556 8.43309 21.4556 8.43309C19.5045 7.12797 17.201 6.45038 14.854 6.49111H13.7537C13.4622 6.49111 13.1596 6.49111 12.857 6.51862" fill="white"/>
</mask>
<g mask="url(#mask5_935_102)">
<path d="M8.71138 0.438785L0.00488281 19.9939L19.1579 28.5214L27.8644 8.96627L8.71138 0.438785Z" fill="url(#paint5_linear_935_102)"/>
</g>
<mask id="mask6_935_102" style="mask-type:luminance" maskUnits="userSpaceOnUse" x="12" y="7" width="29" height="16">
<path d="M12.7247 8.82919C12.7247 8.82919 16.8397 7.53087 19.2933 10.6171C21.7469 13.7034 20.7732 15.7389 23.5184 18.473C25.8564 20.7891 29.6139 22.8026 33.5583 22.522C34.9645 22.419 36.3177 21.9424 37.4782 21.1417C38.6387 20.3409 39.5645 19.245 40.1599 17.9669C38.7408 18.8739 37.1449 19.4684 35.4783 19.7109C34.0996 19.9306 32.6871 19.7728 31.3908 19.2542C27.0447 17.6038 25.961 12.8287 23.5074 9.90195C22.7998 9.08705 21.9199 8.43969 20.9313 8.00677C19.9427 7.57385 18.8702 7.36619 17.7915 7.39884C16.0073 7.40898 14.2582 7.89516 12.7247 8.80718" fill="white"/>
</mask>
<g mask="url(#mask6_935_102)">
<path d="M40.1217 7.42102H12.725V22.8028H40.1217V7.42102Z" fill="url(#paint6_linear_935_102)"/>
</g>
<mask id="mask7_935_102" style="mask-type:luminance" maskUnits="userSpaceOnUse" x="12" y="8" width="22" height="15">
<path d="M12.6035 8.88969C12.6035 8.88969 16.647 7.7014 18.3909 11.2278C19.9148 14.325 20.1789 16.5146 22.792 19.4798C25.1356 22.1479 29.6412 22.8686 33.5691 22.544C27.9248 22.3625 25.2126 19.3422 22.4289 12.8452C20.9821 9.45082 18.2094 8.14701 15.7338 8.1415C14.6493 8.13157 13.5799 8.39654 12.6255 8.91169" fill="white"/>
</mask>
<g mask="url(#mask7_935_102)">
<path d="M33.5469 7.69592H12.6033V22.8466H33.5469V7.69592Z" fill="url(#paint7_linear_935_102)"/>
</g>
<defs>
<linearGradient id="paint0_linear_935_102" x1="38.7447" y1="4.7091" x2="43.1001" y2="2.67855" gradientUnits="userSpaceOnUse">
<stop stop-color="#A59E35"/>
<stop offset="0.3" stop-color="#A59E35"/>
<stop offset="0.41" stop-color="#B7BC4A"/>
<stop offset="0.65" stop-color="#C8DC61"/>
<stop offset="1" stop-color="#C8DC61"/>
</linearGradient>
<linearGradient id="paint1_linear_935_102" x1="27.5071" y1="5.64487" x2="31.5244" y2="26.178" gradientUnits="userSpaceOnUse">
<stop stop-color="#C1CE31"/>
<stop offset="0.32" stop-color="#C3D030"/>
<stop offset="0.44" stop-color="#CAD52F"/>
<stop offset="0.53" stop-color="#D6DF2B"/>
<stop offset="0.54" stop-color="#D7E02B"/>
<stop offset="0.61" stop-color="#D2DA2C"/>
<stop offset="0.71" stop-color="#C5C82F"/>
<stop offset="0.83" stop-color="#AEAA33"/>
<stop offset="0.87" stop-color="#A59E35"/>
<stop offset="0.93" stop-color="#A59E35"/>
<stop offset="1" stop-color="#A59E35"/>
</linearGradient>
<linearGradient id="paint2_linear_935_102" x1="17.2876" y1="26.6173" x2="22.9867" y2="23.3169" gradientUnits="userSpaceOnUse">
<stop stop-color="#E3EBA2"/>
<stop offset="0.01" stop-color="#E0E998"/>
<stop offset="0.04" stop-color="#DAE682"/>
<stop offset="0.07" stop-color="#D6E372"/>
<stop offset="0.1" stop-color="#D2E166"/>
<stop offset="0.16" stop-color="#D1DF5F"/>
<stop offset="0.3" stop-color="#D0DF5D"/>
<stop offset="0.41" stop-color="#CEDD5C"/>
<stop offset="0.47" stop-color="#C9D557"/>
<stop offset="0.51" stop-color="#C0C74E"/>
<stop offset="0.56" stop-color="#B2B342"/>
<stop offset="0.59" stop-color="#A39D35"/>
<stop offset="1" stop-color="#4F5123"/>
</linearGradient>
<linearGradient id="paint3_linear_935_102" x1="6.6966" y1="9.44163" x2="9.94564" y2="9.44163" gradientUnits="userSpaceOnUse">
<stop stop-color="#6CAD44"/>
<stop offset="0.02" stop-color="#6CAD44"/>
<stop offset="0.23" stop-color="#5DAB46"/>
<stop offset="0.33" stop-color="#47A547"/>
<stop offset="0.78" stop-color="#398F43"/>
<stop offset="1" stop-color="#2B783B"/>
</linearGradient>
<linearGradient id="paint4_linear_935_102" x1="25.3628" y1="13.5316" x2="24.9592" y2="19.3027" gradientUnits="userSpaceOnUse">
<stop stop-color="#CEB730"/>
<stop offset="0.09" stop-color="#D0C12F"/>
<stop offset="0.32" stop-color="#D5D82C"/>
<stop offset="0.47" stop-color="#D7E02B"/>
<stop offset="0.56" stop-color="#D3DB2B"/>
<stop offset="0.66" stop-color="#C6CC2B"/>
<stop offset="0.77" stop-color="#B1B32B"/>
<stop offset="0.9" stop-color="#94902B"/>
<stop offset="1" stop-color="#756C2B"/>
</linearGradient>
<linearGradient id="paint5_linear_935_102" x1="1.32117" y1="15.3031" x2="20.2833" y2="23.7469" gradientUnits="userSpaceOnUse">
<stop stop-color="#85B340"/>
<stop offset="0.09" stop-color="#79B042"/>
<stop offset="0.13" stop-color="#6CAD44"/>
<stop offset="0.37" stop-color="#5DAB46"/>
<stop offset="0.48" stop-color="#47A547"/>
<stop offset="0.83" stop-color="#398F43"/>
<stop offset="1" stop-color="#2B783B"/>
</linearGradient>
<linearGradient id="paint6_linear_935_102" x1="14.0052" y1="18.4829" x2="41.0336" y2="18.4829" gradientUnits="userSpaceOnUse">
<stop stop-color="#3FB1A6"/>
<stop offset="0.41" stop-color="#3FB1A6"/>
<stop offset="0.57" stop-color="#0D7082"/>
<stop offset="0.93" stop-color="#053855"/>
<stop offset="1" stop-color="#012C46"/>
</linearGradient>
<linearGradient id="paint7_linear_935_102" x1="16.0026" y1="11.074" x2="36.6618" y2="11.074" gradientUnits="userSpaceOnUse">
<stop stop-color="#BAE2DC"/>
<stop offset="0.14" stop-color="#92D4CE"/>
<stop offset="0.36" stop-color="#6FC9C1"/>
<stop offset="0.61" stop-color="#4FAFA8"/>
<stop offset="1" stop-color="#369C93"/>
</linearGradient>
</defs>
</svg>
