<svg width="76" height="24" viewBox="0 0 76 24" fill="none" xmlns="http://www.w3.org/2000/svg">
<g clip-path="url(#clip0_935_213)">
<path d="M75.7261 7.04613C75.0366 5.07487 73.1577 3.65932 70.9508 3.65932H70.9046C69.47 3.65932 68.177 4.25643 67.2567 5.21499C66.3347 4.25643 65.0418 3.65932 63.6087 3.65932H63.5626C62.3015 3.65932 61.1486 4.12108 60.2633 4.88538V4.49686C60.2331 4.10994 59.9146 3.80581 59.5213 3.80581H56.1361C55.7221 3.80581 55.3877 4.14019 55.3877 4.55578V22.9389C55.3877 23.3544 55.7221 23.6888 56.1361 23.6888H59.5213C59.8987 23.6888 60.2092 23.407 60.2585 23.0424L60.2569 9.84539C60.2569 9.79922 60.2585 9.75622 60.2633 9.71323C60.3174 9.12408 60.749 8.64002 61.4305 8.57952H61.5563H61.9113H62.0546C62.3397 8.60499 62.5801 8.70531 62.7696 8.85658C63.0642 9.09064 63.2282 9.4505 63.2282 9.84539L63.2409 22.9771C63.2409 23.3927 63.5769 23.7286 63.9893 23.7286H67.3745C67.7742 23.7286 68.099 23.4102 68.1181 23.0137L68.1165 9.82788C68.1149 9.39477 68.3156 9.00307 68.6675 8.77059C68.841 8.65913 69.0496 8.58429 69.29 8.562H69.4158H69.7709H69.9142C70.6467 8.62569 71.0893 9.1814 71.0878 9.82788L71.1005 22.942C71.1005 23.3576 71.4365 23.692 71.8489 23.692H75.2341C75.6465 23.692 75.9825 23.3576 75.9825 22.942V8.83747C75.9825 7.87572 75.8742 7.4665 75.7261 7.04613Z" fill="#54C1F0"/>
<path d="M52.8069 3.85348H50.8707V0.716648C50.8707 0.713463 50.8707 0.710279 50.8707 0.707094C50.8707 0.32972 50.565 0.0240002 50.1876 0.0240002C50.143 0.0240002 50.1 0.0303688 50.0586 0.0383301C47.9122 0.62748 48.3421 3.6003 44.4235 3.85348H44.3359H44.0429C43.9856 3.85348 43.9315 3.86144 43.8789 3.87258C43.5446 3.94742 43.293 4.24518 43.293 4.60186V7.98708C43.293 8.39949 43.6289 8.73546 44.0429 8.73546H46.0859L46.0827 23.09C46.0827 23.4992 46.4139 23.8304 46.8231 23.8304H50.1701C50.5777 23.8304 50.9089 23.4992 50.9089 23.09L50.9105 8.73546H52.8069C53.2194 8.73546 53.5553 8.39949 53.5553 7.98708V4.60186C53.5553 4.18945 53.2194 3.85348 52.8069 3.85348Z" fill="#54C1F0"/>
<path d="M40.628 3.85362H37.2427C36.8303 3.85362 36.4959 4.18959 36.4959 4.602V11.6017C36.488 12.0348 36.1377 12.382 35.703 12.382H34.2858C33.8464 12.382 33.4913 12.0285 33.4913 11.589L33.4785 4.602C33.4785 4.18959 33.1426 3.85362 32.7302 3.85362H29.3449C28.9309 3.85362 28.5966 4.18959 28.5966 4.602V12.2737C28.5966 15.1876 30.6745 17.2655 33.59 17.2655C33.59 17.2655 35.7778 17.2655 35.8447 17.2783C36.2396 17.3229 36.5469 17.6541 36.5469 18.0617C36.5469 18.4645 36.246 18.7941 35.8558 18.8435C35.8367 18.8467 35.8192 18.8515 35.7985 18.8547L30.8481 18.8722C30.4341 18.8722 30.0997 19.2081 30.0997 19.6206V23.0042C30.0997 23.4182 30.4341 23.7526 30.8481 23.7526H36.3829C39.3 23.7526 41.3763 21.6762 41.3763 18.7607V4.602C41.3763 4.18959 41.042 3.85362 40.628 3.85362Z" fill="#233266"/>
<path d="M7.86206 10.0562V11.6357V12.1453C7.86206 12.5832 7.50698 12.9398 7.0691 12.9398L4.92109 12.9414V8.75527H7.0691C7.50698 8.75527 7.86206 9.10876 7.86206 9.54824V10.0562ZM8.15982 3.85259H0.760416C0.35438 3.85259 0.0263672 4.1822 0.0263672 4.58664V7.9034C0.0263672 7.90976 0.0279594 7.91613 0.0279594 7.9225C0.0279594 7.93843 0.0263672 7.95435 0.0263672 7.96868V18.6068V22.9809C0.0263672 23.3885 0.332088 23.7213 0.711055 23.7308H0.774747H4.15997C4.57238 23.7308 4.90835 23.3965 4.90835 22.9825L4.92109 17.8377H8.15982C10.8699 17.8377 12.7584 15.9572 12.7584 13.236V8.4607C12.7584 5.73946 10.8699 3.85259 8.15982 3.85259Z" fill="#233266"/>
<path d="M21.9075 18.0039V18.5326C21.9075 18.5756 21.9012 18.617 21.8948 18.6568C21.8868 18.695 21.8757 18.7316 21.8629 18.7667C21.7578 19.0628 21.4617 19.2778 21.1098 19.2778H19.7006C19.2611 19.2778 18.9029 18.9434 18.9029 18.5326V17.8941C18.9029 17.8861 18.9013 17.8782 18.9013 17.8702L18.9029 16.1712V16.168V15.9801V15.6394L18.9045 15.6346C18.906 15.2254 19.2611 14.8942 19.7006 14.8942H21.1098C21.5508 14.8942 21.9075 15.227 21.9075 15.6394V18.0039ZM21.3693 3.8723H16.672C16.2565 3.8723 15.9205 4.18758 15.9205 4.5745V5.89134C15.9205 5.8993 15.9221 5.90885 15.9221 5.91681C15.9221 5.92637 15.9205 5.93592 15.9205 5.94547V7.74955C15.9205 8.15877 16.2772 8.49315 16.7166 8.49315H21.1894C21.5429 8.54888 21.8231 8.80683 21.8629 9.20969V9.64597C21.8231 10.0297 21.5461 10.31 21.2085 10.3418H18.9936C16.0479 10.3418 13.9492 12.2987 13.9492 15.0471V18.8829V18.9832C13.9492 21.7156 15.7533 23.6598 18.6783 23.6598H24.8167C25.9185 23.6598 26.8118 22.8254 26.8118 21.7984V8.95333C26.8118 5.83879 25.2068 3.8723 21.3693 3.8723Z" fill="#233266"/>
</g>
<defs>
<clipPath id="clip0_935_213">
<rect width="76" height="23.8544" fill="white"/>
</clipPath>
</defs>
</svg>
