<svg width="52" height="52" viewBox="0 0 52 52" fill="none" xmlns="http://www.w3.org/2000/svg">
<path d="M22.422 46.5542C22.5447 46.6978 22.7241 46.7808 22.9127 46.7817H29.195C29.5406 46.7823 29.8262 46.5124 29.845 46.1674C30.3488 37.1944 38.4867 35.806 38.8314 35.7674C39.1491 35.716 39.3815 35.4395 39.3775 35.1174V31.1492C39.3775 30.9768 39.309 30.8114 39.1871 30.6895C39.065 30.5677 38.8999 30.4992 38.7275 30.4992H13.6278C13.5167 30.4893 13.4047 30.5085 13.3028 30.5543C12.8252 30.7754 12.8055 30.7818 13.0396 34.8248C13.0507 35.086 13.2169 35.3152 13.4621 35.4066C23.1148 39.3066 22.3118 45.7777 22.2732 46.0473C22.2488 46.2299 22.3033 46.4141 22.4226 46.5543L22.422 46.5542ZM14.4697 34.4055H28.1197C27.9708 33.985 27.9708 33.5262 28.1197 33.1055H14.2617C14.2391 32.5985 14.2193 32.1305 14.213 31.8055H38.0839V33.1055H31.7789C31.9275 33.5262 31.9275 33.985 31.7789 34.4055H38.0839V34.5842C36.0983 35.0816 29.371 37.3566 28.5969 45.4819H23.5919C23.5887 43.48 22.773 37.9843 14.4696 34.4059L14.4697 34.4055Z" fill="#ED712E"/>
<path d="M12.5805 11.0445C12.5805 11.4035 12.2909 11.6945 11.9337 11.6945C11.5765 11.6945 11.2869 11.4035 11.2869 11.0445C11.2869 10.6856 11.5765 10.3945 11.9337 10.3945C12.2909 10.3945 12.5805 10.6856 12.5805 11.0445Z" fill="#ED712E"/>
<path d="M12.5805 9.74131C12.5805 10.1003 12.2909 10.3913 11.9337 10.3913C11.5765 10.3913 11.2869 10.1003 11.2869 9.74131C11.2869 9.38207 11.5765 9.09131 11.9337 9.09131C12.2909 9.09131 12.5805 9.38207 12.5805 9.74131Z" fill="#ED712E"/>
<path d="M12.5805 8.43784C12.5805 8.79708 12.2909 9.08784 11.9337 9.08784C11.5765 9.08784 11.2869 8.79708 11.2869 8.43784C11.2869 8.07889 11.5765 7.78784 11.9337 7.78784C12.2909 7.78784 12.5805 8.07889 12.5805 8.43784Z" fill="#ED712E"/>
<path d="M12.5805 7.13468C12.5805 7.49363 12.2909 7.78468 11.9337 7.78468C11.5765 7.78468 11.2869 7.49363 11.2869 7.13468C11.2869 6.77573 11.5765 6.48468 11.9337 6.48468C12.2909 6.48468 12.5805 6.77573 12.5805 7.13468Z" fill="#ED712E"/>
<path d="M12.5805 5.83146C12.5805 6.19041 12.2909 6.48146 11.9337 6.48146C11.5765 6.48146 11.2869 6.19041 11.2869 5.83146C11.2869 5.47251 11.5765 5.18146 11.9337 5.18146C12.2909 5.18146 12.5805 5.47251 12.5805 5.83146Z" fill="#ED712E"/>
<path d="M27.2348 20.7814C27.4635 20.7777 27.6733 20.6543 27.7873 20.4564C27.7252 20.9001 27.7339 21.3511 27.8134 21.7921C27.6698 21.4961 27.3274 21.3539 27.0163 21.4616C26.7053 21.5689 26.5236 21.8922 26.5936 22.214C26.6635 22.5355 26.9627 22.7543 27.2906 22.723C27.6182 22.6917 27.8706 22.4203 27.8785 22.0913C28.005 22.5721 28.2258 23.0227 28.5285 23.4171C29.2078 24.3077 30.5986 25.2795 33.4229 25.2795C33.9334 25.278 34.4432 25.2499 34.9504 25.195C41.3497 24.5189 41.2815 19.787 41.2522 17.245V16.6275C41.2522 16.3512 41.2522 14.1998 40.3941 12.8836C40.6469 12.7278 40.7618 12.4208 40.6739 12.1373C40.5856 11.8541 40.3169 11.6663 40.0204 11.6811C39.7833 11.684 39.5665 11.816 39.4548 12.0256C39.0416 11.8378 38.5776 11.7923 38.1354 11.8956L37.4235 12.0386C34.4272 12.6561 30.2898 13.4654 28.0049 19.5719C27.9506 19.7196 27.905 19.8705 27.8682 20.0234C27.829 19.7736 27.6482 19.569 27.4051 19.4994C27.1619 19.4297 26.9004 19.5075 26.7348 19.699C26.5691 19.8903 26.5296 20.1601 26.6335 20.3908C26.7371 20.6218 26.9654 20.7712 27.2182 20.7744L27.2348 20.7814ZM39.8025 15.0191H39.8028C39.9017 15.5487 39.9505 16.0861 39.949 16.6246V17.2746C39.9847 19.8421 40.0367 23.3553 34.8076 23.9078C32.2402 24.1809 30.4332 23.7485 29.572 22.6664C31.9056 16.5858 35.9452 15.7828 39.1949 15.1398L39.8025 15.0191ZM29.2272 20.034C31.2422 14.6065 34.8073 13.8978 37.6772 13.3326L38.4052 13.1863C38.4789 13.1698 38.5541 13.1611 38.6295 13.1602C38.7929 13.1564 38.9519 13.2145 39.0747 13.3227C39.2099 13.4481 39.3202 13.5981 39.3997 13.7647L38.9479 13.8558C35.8572 14.4669 31.7265 15.2858 29.0649 20.6027C29.0988 20.408 29.1534 20.2173 29.2274 20.034L29.2272 20.034Z" fill="#ED712E"/>
<path d="M40.6671 11.0445C40.6671 11.4035 40.3776 11.6945 40.0203 11.6945C39.6631 11.6945 39.3735 11.4035 39.3735 11.0445C39.3735 10.6856 39.6631 10.3945 40.0203 10.3945C40.3776 10.3945 40.6671 10.6856 40.6671 11.0445Z" fill="#ED712E"/>
<path d="M40.6671 9.74131C40.6671 10.1003 40.3776 10.3913 40.0203 10.3913C39.6631 10.3913 39.3735 10.1003 39.3735 9.74131C39.3735 9.38207 39.6631 9.09131 40.0203 9.09131C40.3776 9.09131 40.6671 9.38207 40.6671 9.74131Z" fill="#ED712E"/>
<path d="M40.6671 8.43784C40.6671 8.79708 40.3776 9.08784 40.0203 9.08784C39.6631 9.08784 39.3735 8.79708 39.3735 8.43784C39.3735 8.07889 39.6631 7.78784 40.0203 7.78784C40.3776 7.78784 40.6671 8.07889 40.6671 8.43784Z" fill="#ED712E"/>
<path d="M40.6671 7.13468C40.6671 7.49363 40.3776 7.78468 40.0203 7.78468C39.6631 7.78468 39.3735 7.49363 39.3735 7.13468C39.3735 6.77573 39.6631 6.48468 40.0203 6.48468C40.3776 6.48468 40.6671 6.77573 40.6671 7.13468Z" fill="#ED712E"/>
<path d="M40.6671 5.83146C40.6671 6.19041 40.3776 6.48146 40.0203 6.48146C39.6631 6.48146 39.3735 6.19041 39.3735 5.83146C39.3735 5.47251 39.6631 5.18146 40.0203 5.18146C40.3776 5.18146 40.6671 5.47251 40.6671 5.83146Z" fill="#ED712E"/>
<path d="M26.5915 20.1248C26.5915 20.4837 26.3019 20.7748 25.9447 20.7748C25.5874 20.7748 25.2979 20.4837 25.2979 20.1248C25.2979 19.7656 25.5874 19.4748 25.9447 19.4748C26.3019 19.4748 26.5915 19.7656 26.5915 20.1248Z" fill="#ED712E"/>
<path d="M17.0072 25.1948C17.5144 25.2496 18.0242 25.2778 18.5346 25.2792C21.359 25.2792 22.7596 24.3042 23.4291 23.4169C23.6961 23.0655 23.8986 22.6691 24.0272 22.2469C24.1038 22.5356 24.3673 22.7353 24.6659 22.7303C24.9647 22.7257 25.2215 22.5176 25.2889 22.2266C25.3559 21.9355 25.216 21.6361 24.9496 21.5008C24.6833 21.3656 24.3591 21.4295 24.1636 21.6555C24.2106 21.2939 24.2106 20.928 24.1636 20.5668C24.2848 20.6991 24.4555 20.7757 24.6348 20.778C24.8771 20.7804 25.1005 20.648 25.2146 20.4345C25.3286 20.2209 25.3147 19.9615 25.178 19.7615C25.0416 19.5616 24.8051 19.4539 24.5649 19.4824C24.3243 19.5111 24.1197 19.6707 24.0336 19.8973C24.0011 19.7868 23.9686 19.6762 23.9297 19.5723C21.6547 13.4623 17.524 12.6467 14.5043 12.0517L13.8218 11.9086C13.3796 11.805 12.9159 11.8508 12.5023 12.0386C12.3938 11.823 12.1747 11.6854 11.9336 11.6811C11.6472 11.6805 11.3942 11.8671 11.3106 12.141C11.2267 12.4147 11.3321 12.7109 11.5694 12.8705C10.7018 14.1999 10.7018 16.3512 10.7018 16.6243V17.245C10.6725 19.7866 10.6043 24.5186 17.0068 25.195L17.0072 25.1948ZM12.886 13.3061C13.0088 13.1979 13.1678 13.1398 13.3315 13.1436C13.4069 13.1445 13.4821 13.1532 13.5558 13.1697L14.2838 13.316C17.147 13.8975 20.7121 14.6061 22.7271 20.0336C22.8566 20.3972 22.914 20.7823 22.896 21.168C20.2473 15.3406 15.941 14.4892 12.7426 13.8554L12.512 13.8099C12.6002 13.6178 12.7276 13.4463 12.8857 13.3061L12.886 13.3061ZM12.0022 17.2647V16.6147C12.0004 16.0936 12.046 15.5738 12.1386 15.0611L12.5059 15.136C15.7853 15.786 19.864 16.5921 22.1913 22.8127C22.1913 22.8127 22.1913 22.8353 22.2107 22.8484C21.2944 23.794 19.5521 24.1484 17.1407 23.9014C11.9114 23.3457 11.9637 19.8326 12.0025 17.265L12.0022 17.2647Z" fill="#ED712E"/>
<path d="M26.5915 22.0785C26.5915 22.4374 26.3019 22.7285 25.9447 22.7285C25.5874 22.7285 25.2979 22.4374 25.2979 22.0785C25.2979 21.7195 25.5874 21.4285 25.9447 21.4285C26.3019 21.4285 26.5915 21.7195 26.5915 22.0785Z" fill="#ED712E"/>
<path d="M30.6022 33.7555C30.6022 34.1147 30.3126 34.4055 29.9554 34.4055C29.5982 34.4055 29.3086 34.1147 29.3086 33.7555C29.3086 33.3965 29.5982 33.1055 29.9554 33.1055C30.3126 33.1055 30.6022 33.3965 30.6022 33.7555Z" fill="#ED712E"/>
</svg>
