<svg width="52" height="52" viewBox="0 0 52 52" fill="none" xmlns="http://www.w3.org/2000/svg">
<path d="M25.9995 4.99994C23.2148 4.99994 20.5432 6.10554 18.5742 8.07466C17.9127 8.73653 18.9051 9.72906 19.567 9.06746C21.2736 7.36058 23.5857 6.40122 25.9995 6.40122C28.4132 6.40122 30.7267 7.36058 32.4336 9.06714C33.112 9.71589 34.0745 8.75182 33.4248 8.07466C31.4558 6.10594 28.7839 4.99994 25.9996 4.99994H25.9995ZM25.9995 7.80122C23.9576 7.80122 21.9979 8.61026 20.5539 10.0543C19.9058 10.72 20.8686 11.6996 21.5452 11.0456C22.727 9.86402 24.3283 9.20122 25.9996 9.20122C27.6705 9.20122 29.272 9.86403 30.454 11.0456C31.1174 11.7091 32.1008 10.7187 31.4464 10.0543C30.0027 8.6109 28.0415 7.80122 25.9996 7.80122H25.9995ZM25.9995 10.6012C24.7001 10.6012 23.4511 11.1137 22.5323 12.0328C21.8704 12.6944 22.8632 13.6872 23.5248 13.0253C24.1813 12.3687 25.0707 12.0028 25.9995 12.0028C26.9279 12.0028 27.8188 12.3691 28.4754 13.0256C29.1129 13.6853 30.1404 12.7016 29.4626 12.0328C28.5439 11.1144 27.2985 10.6012 25.9995 10.6012ZM7.8011 14.7971C6.2483 14.7971 4.99982 16.0593 4.99982 17.5984V27.4016C4.99982 28.96 6.26198 30.2016 7.8011 30.2016H9.00293L8.51887 32.1294C8.40512 32.5738 8.74231 33.0057 9.20106 33.0032H42.7986C43.2574 33.0057 43.5946 32.5738 43.4808 32.1294L42.9968 30.2016H44.1999C45.7389 30.2016 46.9999 28.96 46.9999 27.4016V17.5984C46.9999 16.0594 45.7555 14.7971 44.1999 14.7971H7.8011ZM7.8011 16.1971H44.1995C44.9873 16.1971 45.5995 16.8353 45.5995 17.5984V27.4016C45.5995 28.166 44.9873 28.8016 44.1995 28.8016H42.7982V25.2975C42.7966 24.9132 42.4854 24.6019 42.1007 24.6003H9.89831C9.51362 24.6019 9.20238 24.9132 9.20081 25.2975V28.8016H7.80081C7.03268 28.8016 6.40081 28.1894 6.40081 27.4016V17.5984C6.40081 16.8106 7.03768 16.1971 7.80081 16.1971H7.8011ZM11.3027 17.5987C10.1374 17.5987 9.1999 18.55 9.1999 19.7015C9.1999 20.8531 10.1374 21.7987 11.3027 21.7987C12.468 21.7987 13.4014 20.8531 13.4014 19.7015C13.4014 18.5499 12.468 17.5987 11.3027 17.5987ZM18.3014 17.5987C17.1361 17.5987 16.1973 18.55 16.1973 19.7015C16.1973 20.8531 17.1364 21.7987 18.3014 21.7987C19.4667 21.7987 20.3986 20.8531 20.3986 19.7015C20.3986 18.5499 19.4664 17.5987 18.3014 17.5987ZM23.9027 17.6C23.4724 17.6 23.1999 17.9365 23.1999 18.2972V21.1024C23.2014 21.4893 23.5161 21.8015 23.9027 21.7999H42.1011C42.4855 21.7984 42.7967 21.4871 42.7983 21.1028V18.2975C42.797 17.9128 42.4858 17.6016 42.1011 17.6H23.9027ZM11.3027 18.9987C11.6811 18.9987 12.0014 19.3065 12.0014 19.7015C12.0014 20.0965 11.6814 20.3987 11.3027 20.3987C10.9243 20.3987 10.5999 20.0962 10.5999 19.7015C10.5999 19.3065 10.9243 18.9987 11.3027 18.9987ZM18.3014 18.9987C18.6799 18.9987 18.9986 19.3065 18.9986 19.7015C18.9986 20.0965 18.6798 20.3987 18.3014 20.3987C17.923 20.3987 17.5986 20.0962 17.5986 19.7015C17.5986 19.3065 17.923 18.9987 18.3014 18.9987ZM24.5998 19H41.3982V20.4H24.5998V19ZM10.6014 25.9999H41.399V28.8012H10.6014V25.9999ZM10.447 30.2012H41.5534L41.9062 31.6012H10.0959L10.447 30.2012ZM16.2083 35.0999C16.2083 40.9059 11.5374 45.5999 5.70832 45.5999C4.77328 45.6115 4.7624 46.9937 5.70832 46.9999C12.289 46.9999 17.6083 41.719 17.6083 35.0999C17.6152 34.7059 17.2849 34.3809 16.8652 34.3978C16.4871 34.4299 16.2017 34.7393 16.2083 35.0999ZM34.3923 35.0999C34.3923 41.7075 39.7117 46.9999 46.2923 46.9999C47.2041 46.9999 47.2426 45.629 46.2923 45.5999C40.4633 45.5999 35.7923 40.8981 35.7923 35.0999C35.7992 34.7059 35.4551 34.3809 35.0492 34.3978C34.6654 34.4296 34.3857 34.739 34.3923 35.0999ZM23.9035 36.4999C23.9035 39.3871 22.7322 42.0327 20.8342 43.9306C20.1917 44.6078 21.1557 45.5734 21.8214 44.9231C23.972 42.7724 25.2979 39.8093 25.2979 36.4999C25.3048 36.1052 24.9835 35.7761 24.5542 35.8033C24.1604 35.8283 23.8967 36.1411 23.9032 36.4999L23.9035 36.4999ZM26.6979 36.4999C26.6979 39.7903 28.0307 42.7724 30.1817 44.9231C30.8407 45.57 31.8192 44.6075 31.1689 43.9307C29.2707 42.0328 28.0995 39.3954 28.0995 36.5C28.1064 36.1053 27.7886 35.7913 27.3576 35.7978C26.9629 35.841 26.6914 36.1394 26.698 36.5L26.6979 36.4999Z" fill="#ED712E"/>
</svg>
