<svg width="53" height="52" viewBox="0 0 53 52" fill="none" xmlns="http://www.w3.org/2000/svg">
<path d="M48.5098 23.1032C48.1485 23.0148 47.7691 23.0363 47.4203 23.165C47.0711 23.2937 46.7687 23.5236 46.5509 23.825C46.1571 24.3611 45.7595 24.8678 45.3579 25.3447H45.3583C44.9335 24.6951 44.3081 24.2018 43.5772 23.9407C43.3742 23.2084 42.9118 22.5746 42.276 22.1579C41.6405 21.7415 40.875 21.5701 40.1222 21.6763C39.3698 21.7821 38.6812 22.1582 38.1855 22.7342C37.748 23.244 37.4848 23.8805 37.4344 24.5502C36.6635 24.9145 36.0085 25.4861 35.5431 26.201C35.2245 26.1707 34.9033 26.1828 34.5878 26.2363C33.9261 24.9982 32.9687 23.9427 31.8005 23.164C32.4713 22.6048 33.0365 21.9307 33.4704 21.1728C34.1314 21.1114 34.735 20.7706 35.1288 20.2359C35.523 19.7016 35.6699 19.0241 35.5324 18.3745C35.3953 17.7245 34.987 17.1643 34.4103 16.8349C34.249 15.114 33.4844 13.5056 32.2518 12.2942C31.0192 11.0827 29.398 10.3458 27.6747 10.214C27.6425 10.2092 27.6102 10.2069 27.5776 10.2069C27.423 10.1975 27.2681 10.1904 27.1122 10.1904V10.1908C25.286 10.1908 23.5257 10.8723 22.1758 12.1019C20.8259 13.3316 19.9831 15.0206 19.813 16.8387C19.239 17.1694 18.8327 17.7289 18.6966 18.3775C18.5608 19.0258 18.7073 19.7013 19.1002 20.2349C19.4927 20.7686 20.0943 21.1093 20.754 21.1722C21.1881 21.931 21.7544 22.6065 22.4262 23.166C21.5447 23.7518 20.7805 24.4975 20.1739 25.3649C19.4171 25.0325 18.5881 24.8988 17.7651 24.9754C17.3911 24.273 16.6739 23.8204 15.8788 23.7847C15.0837 23.7495 14.3289 24.1366 13.8941 24.8033C13.4589 25.4697 13.4085 26.3166 13.761 27.0301C13.2549 27.0633 12.7632 27.2122 12.3237 27.4656C11.5793 26.7874 10.5916 26.441 9.58687 26.5052C8.58212 26.5693 7.64646 27.0391 6.99452 27.8067C6.34291 28.5743 6.03072 29.5733 6.13017 30.5755C5.60895 30.7644 5.07897 30.9734 4.54093 31.2019H4.5406C4.19177 31.3511 3.90209 31.6119 3.71726 31.9433C3.53243 32.2749 3.46253 32.6584 3.51899 33.0338C3.59998 33.5651 3.92058 34.0298 4.38832 34.2946C4.7684 34.5114 5.21939 34.5675 5.6411 34.4509L6.39118 39.2122C6.39252 39.2216 6.39454 39.231 6.39622 39.2411H6.39656C6.84822 41.4285 8.03922 43.3938 9.76921 44.8065C11.4992 46.2196 13.6628 46.9939 15.8962 46.9999H37.8245C40.185 46.9959 42.4634 46.1322 44.2338 44.5702C46.0041 43.0086 47.145 40.8554 47.4435 38.5139L48.7034 27.5329H48.7037C48.7141 27.4412 48.7051 27.3481 48.6772 27.2601C48.9927 26.8736 49.3116 26.4703 49.6343 26.05H49.6346C49.9344 25.6406 50.05 25.1244 49.9528 24.6264C49.8913 24.2578 49.721 23.916 49.4639 23.6448C49.2071 23.3733 48.8748 23.1851 48.5101 23.1034L48.5098 23.1032ZM35.7317 27.5634C36.0267 27.6336 36.3319 27.4935 36.4703 27.2236C36.8551 26.4695 37.5148 25.8921 38.3133 25.6109C38.5966 25.5107 38.7763 25.2318 38.7501 24.9324C38.6967 24.3063 38.9706 23.6974 39.4743 23.322C39.9781 22.9466 40.6405 22.8589 41.2245 23.0894C41.8089 23.3203 42.2324 23.8368 42.344 24.4552C42.3487 24.4824 42.3527 24.5093 42.3557 24.5365C42.3876 24.8171 42.5947 25.0459 42.8706 25.1061C43.5659 25.259 44.1455 25.7359 44.4299 26.3885C42.7002 28.224 40.8858 29.5484 38.9357 30.403C36.0459 31.6696 32.84 31.9179 29.1343 31.1628L28.5364 31.0405L28.5411 30.492C28.5411 30.4726 28.5405 30.4531 28.5391 30.4336V30.4339C28.4921 29.8374 28.6893 29.2473 29.0855 28.799C29.4818 28.351 30.043 28.0828 30.6408 28.056C31.2383 28.0294 31.8214 28.2468 32.2558 28.6582C32.397 28.7916 32.5906 28.8561 32.7838 28.8339C32.977 28.8118 33.1508 28.7052 33.258 28.5429C33.5752 28.0624 34.0601 27.7172 34.618 27.5744C34.9826 27.4793 35.3651 27.4756 35.7313 27.5633L35.7317 27.5634ZM21.7371 20.2182C21.6252 19.9957 21.3977 19.8556 21.1487 19.8552C21.1258 19.8552 21.103 19.8566 21.0801 19.8589C21.0452 19.8626 21.0095 19.8643 20.9743 19.8646C20.4792 19.865 20.0568 19.5064 19.9772 19.0178C19.8975 18.5291 20.1838 18.0546 20.6536 17.898C20.9141 17.811 21.0935 17.5713 21.1033 17.2971C21.1426 16.1223 21.5271 14.9851 22.2083 14.0269C22.8898 13.0692 23.8381 12.3332 24.935 11.9108C24.647 12.5987 24.6984 13.3817 25.0731 14.0262C25.2892 14.4302 25.6091 14.7686 25.9999 15.0072C26.3908 15.2454 26.8381 15.3748 27.2957 15.3819C27.3828 15.3819 27.4698 15.3772 27.5562 15.3678C28.0707 15.3086 28.5307 15.0203 28.8076 14.5831C29.1067 14.124 29.1823 13.5547 29.013 13.0338C28.8695 12.565 28.5213 12.1866 28.0659 12.0045C27.6462 11.8418 27.1751 11.8788 26.7852 12.1043C26.6316 12.1903 26.5187 12.3345 26.472 12.5045C26.4253 12.6742 26.4488 12.8557 26.5369 13.0083C26.6249 13.1608 26.7704 13.2717 26.9408 13.3161C27.1112 13.3608 27.2927 13.3353 27.4439 13.2452C27.4899 13.2186 27.5454 13.2146 27.5944 13.2344C27.6781 13.2751 27.7389 13.3511 27.7605 13.4414C27.8055 13.5856 27.7836 13.7422 27.7013 13.8686C27.6385 13.9721 27.5319 14.042 27.412 14.0584C26.8454 14.1203 26.4182 13.7355 26.2243 13.3867C26.1396 13.2341 25.8926 12.6998 26.27 12.2199C26.5977 11.8227 27.0708 11.573 27.5837 11.527C29.0552 11.6372 30.4345 12.2868 31.4564 13.3511C32.4784 14.4157 33.0712 15.8204 33.1206 17.295C33.1307 17.5706 33.3112 17.8106 33.5729 17.8966C34.0434 18.0525 34.3311 18.5264 34.2521 19.0157C34.1735 19.5046 33.7514 19.8642 33.2561 19.8642C33.2208 19.8642 33.1858 19.8625 33.1509 19.8585C32.8766 19.8279 32.6125 19.9711 32.4885 20.2171C31.9958 21.2027 31.2417 22.0338 30.3088 22.6199C30.2641 22.6404 30.2218 22.6663 30.1825 22.6962C29.2526 23.2446 28.1927 23.5336 27.1129 23.534C26.0335 23.534 24.9732 23.2453 24.043 22.6972C24.0047 22.6676 23.963 22.6424 23.919 22.6219C22.9848 22.0362 22.23 21.2044 21.737 20.2181L21.7371 20.2182ZM23.6244 23.976C25.8044 25.1441 28.4239 25.1434 30.6032 23.9743C31.7458 24.6151 32.6914 25.5558 33.3387 26.6947C33.0699 26.8533 32.8226 27.0465 32.6031 27.2686C31.8641 26.8086 30.9807 26.6385 30.1237 26.7908C29.2664 26.943 28.4962 27.4071 27.9608 28.0937C27.4255 28.7803 27.163 29.6405 27.2242 30.5089L27.2218 30.7724C26.415 30.608 25.6336 30.4511 24.8772 30.3019H24.8775C25.1043 29.4903 24.8825 28.6192 24.2955 28.015L24.2114 27.9176C23.954 27.6071 23.7581 27.2505 23.6341 26.8667C23.3616 26.0857 22.7002 25.5043 21.8906 25.334C22.395 24.7943 22.9798 24.3362 23.6244 23.976ZM9.32816 27.8669C9.76806 27.7718 10.2258 27.8034 10.6482 27.9576C11.0706 28.1119 11.441 28.383 11.7158 28.7389C11.8271 28.8821 11.9924 28.9728 12.1726 28.99C12.353 29.0074 12.5325 28.9496 12.6689 28.8303C12.9246 28.6075 13.2335 28.454 13.5655 28.3837C13.7856 28.3367 14.0121 28.3279 14.2356 28.3575C14.6164 28.4083 14.9931 28.2358 15.2028 27.9136C15.2041 27.9116 15.2088 27.9042 15.2102 27.9021C15.4615 27.5143 15.4148 27.0048 15.0969 26.6695C14.8983 26.4564 14.8109 26.1624 14.8603 25.8754C14.9101 25.5881 15.0912 25.3407 15.3496 25.2067C15.6084 25.0722 15.9149 25.0665 16.1783 25.1912C16.4418 25.3159 16.6317 25.5565 16.6918 25.8415C16.7281 26.0125 16.8306 26.1621 16.9771 26.2575C17.1237 26.3526 17.3021 26.3859 17.4728 26.3496C18.1009 26.2162 18.7532 26.2541 19.3615 26.4605C19.1524 26.819 19.0429 27.2267 19.0432 27.642C19.0432 28.0056 19.3379 28.3007 19.7019 28.3007C20.0655 28.3007 20.3605 28.0056 20.3605 27.642C20.3605 27.1326 20.7282 26.698 21.2302 26.613C21.7323 26.5283 22.2226 26.818 22.3899 27.2989C22.569 27.8386 22.8483 28.34 23.2132 28.7762L23.312 28.8908C23.3228 28.9032 23.3339 28.9153 23.3453 28.9271C23.639 29.2222 23.7294 29.6634 23.5758 30.0506C17.4798 28.9066 12.81 28.4822 7.43053 30.1383H7.43086C7.44733 29.6019 7.64325 29.0867 7.98738 28.6751C8.33116 28.2634 8.80332 27.9788 9.3279 27.8669H9.32816ZM5.03438 33.1459C4.92046 33.0818 4.84249 32.9688 4.82234 32.8395C4.79444 32.6607 4.89089 32.4859 5.05691 32.4137C8.66821 30.8766 11.9585 30.2485 15.7247 30.3755C18.2048 30.4596 20.8022 30.8615 23.7745 31.4294L23.7786 31.4301C25.0243 31.668 26.3363 31.9355 27.733 32.2205L27.7387 32.2215L27.9356 32.2618L28.8715 32.4527L28.8719 32.4534C30.2655 32.7461 31.685 32.8976 33.1089 32.9054C37.8929 32.9054 41.9536 31.0074 45.5635 27.1003C45.5847 27.0808 45.6045 27.0596 45.623 27.0375C46.3297 26.2632 46.9941 25.451 47.6128 24.6044C47.7482 24.4162 47.9848 24.3295 48.2099 24.3853C48.4401 24.4361 48.6166 24.6219 48.6549 24.8548C48.6865 24.9895 48.6626 25.1314 48.5887 25.2483C45.6284 29.1082 43.0676 31.3914 40.2854 32.6513C37.3385 33.9858 33.9856 34.2751 29.4137 33.5886C27.3802 33.2835 25.537 32.943 23.7549 32.6141C20.2602 31.9692 17.1524 31.3952 14.0412 31.3952C11.2331 31.3952 8.42237 31.863 5.32459 33.1682C5.22948 33.2075 5.12127 33.1991 5.03323 33.146L5.03438 33.1459ZM46.1363 38.3561C45.8772 40.3785 44.8905 42.2376 43.3611 43.5858C41.8317 44.9341 39.8638 45.6795 37.8249 45.6828H15.8966C13.969 45.6774 12.1015 45.01 10.6077 43.7919C9.1136 42.5737 8.0839 40.879 7.69075 38.9916L6.90672 34.0193C6.90404 34.0015 6.9 33.984 6.89563 33.9666C12.5683 31.8904 17.2193 32.7477 23.5158 33.9101C25.3087 34.2411 27.1631 34.5832 29.218 34.8921C30.7276 35.13 32.2529 35.255 33.781 35.2664C36.4627 35.2664 38.7301 34.802 40.8288 33.8517C43.0182 32.8603 45.0604 31.3037 47.2135 28.9557L46.1363 38.3561Z" fill="#ED712E"/>
<path d="M24.2453 17.187C24.2453 16.7857 24.0037 16.4238 23.6327 16.2702C23.262 16.1167 22.8352 16.2014 22.5513 16.4853C22.2677 16.769 22.1826 17.1957 22.3362 17.5667C22.4898 17.9374 22.8517 18.1794 23.253 18.1794C23.8007 18.1787 24.2446 17.7347 24.2453 17.187ZM22.928 17.187C22.928 17.0556 23.0073 16.937 23.1286 16.8866C23.2503 16.8361 23.3901 16.864 23.4828 16.9571C23.5759 17.0499 23.6038 17.19 23.5534 17.3113C23.503 17.433 23.3844 17.512 23.253 17.512C23.0735 17.5116 22.9284 17.3664 22.928 17.187Z" fill="#ED712E"/>
<path d="M30.9765 18.1797C31.3778 18.1797 31.7397 17.9377 31.8932 17.567C32.0468 17.1964 31.9618 16.7692 31.6782 16.4856C31.3942 16.2017 30.9674 16.117 30.5968 16.2706C30.2258 16.4241 29.9841 16.7861 29.9841 17.1873C29.9848 17.7351 30.4287 18.179 30.9765 18.1797ZM30.9765 16.8624C31.1079 16.8624 31.2265 16.9413 31.2766 17.063C31.327 17.1843 31.2991 17.3244 31.2064 17.4172C31.1133 17.5103 30.9735 17.5382 30.8518 17.4878C30.7305 17.4374 30.6512 17.3187 30.6512 17.1873C30.6515 17.0079 30.7967 16.8624 30.9765 16.8624Z" fill="#ED712E"/>
<path d="M24.0184 19.8213C24.0244 20.9108 24.6088 21.9149 25.5535 22.4579C26.4979 23.0007 27.6599 23.0007 28.6042 22.4579C29.5488 21.9149 30.1336 20.9108 30.1393 19.8213C30.1393 19.4576 29.8446 19.1626 29.4807 19.1626C29.1171 19.1626 28.822 19.4577 28.822 19.8213C28.8176 20.4413 28.4843 21.0119 27.9469 21.3204C27.4092 21.6289 26.7485 21.6289 26.2108 21.3204C25.6735 21.0119 25.3401 20.4413 25.3357 19.8213C25.3357 19.4576 25.0407 19.1626 24.6771 19.1626C24.3131 19.1626 24.0184 19.4577 24.0184 19.8213Z" fill="#ED712E"/>
<path d="M44.454 15.2012C44.454 15.7843 44.6856 16.3435 45.0979 16.7558C45.5103 17.1681 46.0695 17.4 46.6525 17.4C47.2355 17.4 47.7947 17.1681 48.2071 16.7561C48.6194 16.3438 48.8509 15.7846 48.8509 15.2016C48.8509 14.6185 48.6194 14.0593 48.2071 13.647C47.7947 13.2347 47.2355 13.0031 46.6525 13.0031C46.0694 13.0038 45.5109 13.2357 45.0986 13.6477C44.6866 14.0597 44.4547 14.6185 44.454 15.2012ZM47.5337 15.2012C47.5337 15.5578 47.3189 15.8791 46.9896 16.0155C46.6606 16.1519 46.2815 16.0767 46.0295 15.8246C45.7775 15.5726 45.7022 15.1935 45.8383 14.8642C45.9747 14.5352 46.296 14.3204 46.6525 14.3204C47.1388 14.3208 47.533 14.715 47.5337 15.2012Z" fill="#ED712E"/>
<path d="M8.35859 18.2812C8.35859 18.8642 8.59013 19.4234 9.00248 19.8354C9.41448 20.2477 9.97367 20.4793 10.5567 20.4793C11.1397 20.4793 11.6989 20.2477 12.1113 19.8354C12.5236 19.423 12.7552 18.8638 12.7552 18.2808C12.7552 17.6981 12.5236 17.1389 12.1113 16.7266C11.6989 16.3142 11.1397 16.0827 10.5567 16.0827C9.97398 16.0834 9.41508 16.3153 9.00308 16.7273C8.59073 17.1396 8.35926 17.6981 8.35859 18.2812ZM11.4379 18.2812C11.4379 18.6374 11.2231 18.9586 10.8941 19.0951C10.5648 19.2315 10.1857 19.1559 9.93404 18.9042C9.682 18.6522 9.60638 18.2731 9.74282 17.9441C9.87925 17.6148 10.2005 17.4 10.5567 17.4C11.043 17.4007 11.4372 17.7946 11.4379 18.2812Z" fill="#ED712E"/>
<path d="M14.4346 11.3574C14.4346 11.8044 14.6121 12.2332 14.928 12.5491C15.2442 12.8654 15.6727 13.0428 16.1197 13.0428C16.5666 13.0428 16.9954 12.8654 17.3114 12.5491C17.6272 12.2332 17.805 11.8048 17.805 11.3578C17.805 10.9108 17.6276 10.482 17.3114 10.1661C16.9955 9.84986 16.5667 9.67242 16.1197 9.67242C15.673 9.6731 15.2446 9.85053 14.9287 10.1664C14.6127 10.4823 14.435 10.9108 14.4346 11.3574ZM16.4876 11.3574C16.4876 11.5063 16.3978 11.6404 16.2604 11.6975C16.123 11.7543 15.965 11.7231 15.8595 11.6179C15.7543 11.5127 15.723 11.3544 15.7798 11.217C15.8366 11.0795 15.9711 10.9898 16.1196 10.9898C16.3226 10.9901 16.4872 11.1545 16.4876 11.3574Z" fill="#ED712E"/>
<path d="M40.4727 13.7483C40.4727 14.2225 40.7583 14.6497 41.1962 14.8311C41.6341 15.0122 42.1381 14.9121 42.4732 14.577C42.8086 14.2417 42.9088 13.7376 42.7273 13.2997C42.5458 12.8618 42.1187 12.5765 41.6445 12.5765C40.9976 12.5771 40.4733 13.1014 40.4727 13.7483ZM41.79 13.7483C41.79 13.8071 41.7547 13.8602 41.7002 13.8827C41.6461 13.9053 41.5833 13.8928 41.5416 13.8515C41.5003 13.8098 41.4875 13.7473 41.51 13.6929C41.5325 13.6384 41.5856 13.6031 41.6444 13.6031C41.7248 13.6031 41.79 13.668 41.79 13.7483Z" fill="#ED712E"/>
<path d="M32.956 7.17178C32.956 7.64561 33.2416 8.07312 33.6795 8.25455C34.1174 8.43569 34.6215 8.33554 34.9566 8.00016C35.2919 7.66512 35.3921 7.16103 35.2103 6.72313C35.0288 6.28525 34.6017 5.9996 34.1275 5.99994C33.4806 6.00061 32.9567 6.52488 32.956 7.17178ZM34.2733 7.17178C34.2733 7.23059 34.238 7.28368 34.1836 7.3062C34.1291 7.32871 34.0666 7.31628 34.0249 7.27461C33.9833 7.23294 33.9708 7.17044 33.9933 7.11599C34.0159 7.06154 34.069 7.02626 34.1278 7.02626C34.2081 7.02626 34.2733 7.09146 34.2733 7.17178Z" fill="#ED712E"/>
</svg>
