<svg width="116" height="24" viewBox="0 0 116 24" fill="none" xmlns="http://www.w3.org/2000/svg">
<g clip-path="url(#clip0_924_1568)">
<path d="M7.00616 10.0284L11.519 5.39415L16.0343 10.0309L18.6602 7.33422L11.519 0.000488281L4.38025 7.33177L7.00616 10.0284Z" fill="#F3BA2F"/>
<path d="M5.15126 11.9322L2.52539 9.2356L-0.100604 11.9323L2.52526 14.6289L5.15126 11.9322Z" fill="#F3BA2F"/>
<path d="M7.00586 13.8367L11.5188 18.471L16.0338 13.8345L18.6612 16.5296L18.6599 16.5311L11.5188 23.8647L4.37977 16.5336L4.3761 16.5298L7.00586 13.8367Z" fill="#F3BA2F"/>
<path d="M20.5122 14.6298L23.1382 11.9331L20.5123 9.23651L17.8863 11.9332L20.5122 14.6298Z" fill="#F3BA2F"/>
<path d="M14.1824 11.9312H14.1835L11.5188 9.19482L9.54962 11.2171H9.54944L9.32332 11.4495L8.85658 11.9288L8.85291 11.9326L8.85658 11.9365L11.5188 14.6705L14.1835 11.9341L14.1847 11.9326L14.1824 11.9312Z" fill="#F3BA2F"/>
<path d="M27.2317 5.78296H32.9429C34.3604 5.78296 35.4323 6.15653 36.1587 6.90369C36.7209 7.48233 37.0019 8.19951 37.0019 9.05504V9.09123C37.0019 9.45274 36.9584 9.77222 36.8709 10.0493C36.7835 10.3267 36.6668 10.5765 36.5208 10.7995C36.3753 11.0226 36.2061 11.2185 36.0137 11.387C35.8212 11.5558 35.6143 11.7006 35.3928 11.8209C36.1053 12.0983 36.6662 12.4747 37.0751 12.9508C37.4839 13.4271 37.6885 14.087 37.6885 14.9305V14.9665C37.6885 15.5451 37.5802 16.0512 37.3635 16.4853C37.1467 16.919 36.8362 17.2807 36.4318 17.57C36.0275 17.8593 35.5413 18.0761 34.9731 18.2208C34.4048 18.3654 33.7751 18.4376 33.0841 18.4376H27.2317V5.78296ZM32.3719 10.899C32.9706 10.899 33.446 10.7938 33.7978 10.5827C34.1499 10.3718 34.3259 10.0312 34.3259 9.56131V9.52512C34.3259 9.10348 34.1732 8.78118 33.8681 8.55801C33.5629 8.33503 33.1228 8.22345 32.5479 8.22345H29.8721V10.899H32.3719ZM33.0938 15.9973C33.6923 15.9973 34.1614 15.8861 34.5021 15.6629C34.8424 15.4399 35.0127 15.0933 35.0127 14.6232V14.5872C35.0127 14.1654 34.8541 13.831 34.5373 13.5837C34.2204 13.337 33.7099 13.2134 33.0057 13.2134H29.8721V15.9975L33.0938 15.9973Z" fill="#F3BA2F"/>
<path d="M41.0901 5.78296H43.8013V18.438H41.0901V5.78296Z" fill="#F3BA2F"/>
<path d="M47.9078 5.78296H50.4073L56.1817 13.5749V5.78296H58.8575V18.438H56.5515L50.5835 10.3931V18.438H47.9078V5.78296Z" fill="#F3BA2F"/>
<path d="M67.0653 5.69263H69.5649L74.8465 18.4379H72.0121L70.8853 15.5997H65.6744L64.5479 18.4379H61.7836L67.0653 5.69263ZM69.9172 13.1408L68.2798 9.03709L66.643 13.1408H69.9172Z" fill="#F3BA2F"/>
<path d="M77.7728 5.78296H80.2728L86.0468 13.5749V5.78296H88.7227V18.438H86.4167L80.4487 10.3931V18.438H77.7728V5.78296Z" fill="#F3BA2F"/>
<path d="M98.4797 18.6546C97.5756 18.6546 96.7368 18.4857 95.9621 18.1486C95.1874 17.8114 94.5185 17.3501 93.9552 16.7655C93.3918 16.181 92.9515 15.4909 92.635 14.6955C92.3181 13.8999 92.1597 13.0502 92.1597 12.1463V12.1103C92.1597 11.2063 92.3181 10.3598 92.635 9.57026C92.9516 8.78089 93.3918 8.08783 93.9552 7.49128C94.5183 6.89473 95.1934 6.42446 95.9795 6.08105C96.7656 5.73763 97.6347 5.56592 98.5852 5.56592C99.1599 5.56592 99.685 5.61436 100.16 5.71049C100.636 5.80718 101.067 5.93949 101.455 6.10819C101.842 6.27707 102.2 6.48195 102.529 6.72283C102.857 6.96409 103.162 7.2291 103.444 7.51842L101.719 9.56121C101.237 9.11545 100.747 8.76562 100.249 8.51268C99.7496 8.25973 99.1894 8.13307 98.5674 8.13307C98.0509 8.13307 97.5726 8.23561 97.1329 8.44049C96.6927 8.64537 96.3141 8.92847 95.9971 9.28999C95.6805 9.6515 95.434 10.0705 95.2576 10.5464C95.082 11.0227 94.9941 11.5318 94.9941 12.0741V12.1101C94.9941 12.6524 95.082 13.1648 95.2576 13.6466C95.434 14.1289 95.677 14.5506 95.9885 14.9121C96.2992 15.2736 96.6749 15.5601 97.1149 15.771C97.5554 15.9821 98.0394 16.0873 98.5674 16.0873C99.2719 16.0873 99.8669 15.9548 100.354 15.6896C100.841 15.4248 101.325 15.0631 101.807 14.6049L103.532 16.3947C103.215 16.7443 102.886 17.0578 102.546 17.3347C102.206 17.6121 101.833 17.85 101.428 18.049C101.023 18.2477 100.58 18.3987 100.099 18.5008C99.6175 18.6032 99.0779 18.6546 98.4797 18.6546Z" fill="#F3BA2F"/>
<path d="M106.723 5.78296H116V8.25983H109.399V10.827H115.208V13.3037H109.399V15.9613H116.088V18.438H106.723V5.78296Z" fill="#F3BA2F"/>
</g>
<defs>
<clipPath id="clip0_924_1568">
<rect width="116" height="23.8642" fill="white" transform="translate(0 0.000244141)"/>
</clipPath>
</defs>
</svg>
