<svg width="105" height="29" viewBox="0 0 105 29" fill="none" xmlns="http://www.w3.org/2000/svg">
<path d="M17.7734 1.39743C16.4573 0.466726 14.7399 0.000244141 12.6213 0.000244141H4.41903C3.76953 0.000244141 3.4107 0.33439 3.34254 1.00187L0.0104588 22.5181C-0.0241704 22.7294 0.027225 22.9227 0.164175 23.0984C0.300342 23.2744 0.471607 23.3619 0.676719 23.3619H4.57274C5.25608 23.3619 5.63168 23.0286 5.70062 22.3601L6.62323 16.5595C6.65692 16.2784 6.7771 16.0499 6.98222 15.8738C7.18717 15.6981 7.44352 15.5832 7.75111 15.5305C8.0587 15.4783 8.34874 15.452 8.62264 15.452C8.89575 15.452 9.22027 15.4697 9.5968 15.5047C9.97239 15.5399 10.2118 15.5569 10.3145 15.5569C13.2534 15.5569 15.5602 14.7051 17.2351 12.9995C18.9092 11.2946 19.7472 8.93046 19.7472 5.90654C19.7472 3.83252 19.0888 2.32959 17.7734 1.39743ZM13.5442 7.8579C13.3728 9.08858 12.929 9.89678 12.2114 10.2836C11.4936 10.671 10.4683 10.8634 9.13565 10.8634L7.44383 10.9163L8.31552 5.27355C8.38352 4.88718 8.60556 4.69376 8.98178 4.69376H9.9561C11.3225 4.69376 12.3142 4.89637 12.9294 5.29999C13.5442 5.70457 13.7493 6.55759 13.5442 7.8579Z" fill="#003087"/>
<path d="M104.333 0.000488281H100.54C100.163 0.000488281 99.941 0.193915 99.8733 0.580609L96.5409 22.5183L96.4895 22.6237C96.4895 22.8004 96.558 22.9666 96.6949 23.1249C96.8309 23.2828 97.0025 23.362 97.2073 23.362H100.591C101.239 23.362 101.598 23.0286 101.668 22.3602L105 0.791122V0.738735C105 0.246624 104.777 0.000488281 104.333 0.000488281Z" fill="#009CDE"/>
<path d="M58.5024 8.49044C58.5024 8.31507 58.4336 8.14776 58.2978 7.98979C58.1606 7.83166 58.0066 7.7522 57.8363 7.7522H53.8889C53.5122 7.7522 53.2047 7.92886 52.9661 8.27945L47.5321 16.5066L45.2767 8.59618C45.1051 8.03396 44.7294 7.7522 44.1488 7.7522H40.3036C40.1323 7.7522 39.9784 7.8315 39.8426 7.98979C39.7055 8.14776 39.6375 8.31523 39.6375 8.49044C39.6375 8.56137 39.9707 9.59798 40.637 11.6019C41.3033 13.6061 42.0211 15.7683 42.7901 18.0889C43.5592 20.4089 43.9603 21.6401 43.9948 21.7799C41.1922 25.7177 39.7912 27.8272 39.7912 28.108C39.7912 28.5654 40.0132 28.7937 40.4576 28.7937H44.405C44.7809 28.7937 45.0883 28.6183 45.3278 28.2666L58.4002 8.85957C58.4682 8.78961 58.5024 8.66711 58.5024 8.49044Z" fill="#003087"/>
<path d="M95.2594 7.7521H91.3631C90.8844 7.7521 90.5947 8.33222 90.4922 9.49246C89.6026 8.08689 87.9803 7.38281 85.6217 7.38281C83.161 7.38281 81.0673 8.33222 79.3419 10.2307C77.6158 12.1294 76.7532 14.3621 76.7532 16.9283C76.7532 19.003 77.3425 20.6551 78.5215 21.8852C79.7006 23.1165 81.2811 23.731 83.2639 23.731C84.2547 23.731 85.2629 23.5196 86.2881 23.0981C87.3135 22.6763 88.1159 22.1141 88.6979 21.4106C88.6979 21.4459 88.6631 21.6039 88.5953 21.885C88.5263 22.1668 88.4926 22.3781 88.4926 22.5178C88.4926 23.081 88.7142 23.3615 89.1592 23.3615H92.6967C93.3451 23.3615 93.7216 23.0282 93.824 22.3597L95.926 8.59592C95.9597 8.38493 95.9085 8.19182 95.7721 8.0158C95.635 7.84027 95.4645 7.7521 95.2594 7.7521ZM88.5696 18.1411C87.698 19.02 86.6473 19.4593 85.4169 19.4593C84.4254 19.4593 83.6229 19.1785 83.0074 18.6156C82.3921 18.054 82.0845 17.2805 82.0845 16.2953C82.0845 14.9953 82.5117 13.896 83.3663 12.9995C84.2198 12.1029 85.2801 11.6547 86.5448 11.6547C87.5008 11.6547 88.2955 11.9448 88.9284 12.5248C89.5602 13.1049 89.877 13.905 89.877 14.9245C89.8769 16.19 89.4409 17.2626 88.5696 18.1411Z" fill="#009CDE"/>
<path d="M37.0232 7.7521H33.1272C32.648 7.7521 32.3581 8.33222 32.2555 9.49246C31.3327 8.08689 29.7092 7.38281 27.3853 7.38281C24.9246 7.38281 22.831 8.33222 21.1053 10.2307C19.3792 12.1294 18.5166 14.3621 18.5166 16.9283C18.5166 19.003 19.1062 20.6551 20.2854 21.8852C21.4645 23.1165 23.0447 23.731 25.0272 23.731C25.9837 23.731 26.9754 23.5196 28.0005 23.0981C29.0257 22.6763 29.846 22.1141 30.4612 21.4106C30.3241 21.8325 30.2561 22.2018 30.2561 22.5178C30.2561 23.081 30.4781 23.3615 30.9225 23.3615H34.4597C35.1085 23.3615 35.4849 23.0282 35.5876 22.3597L37.6893 8.59592C37.723 8.38493 37.6717 8.19182 37.5356 8.0158C37.3988 7.84027 37.2281 7.7521 37.0232 7.7521ZM30.3332 18.1672C29.4615 19.0295 28.393 19.4593 27.1292 19.4593C26.1375 19.4593 25.3429 19.1785 24.7453 18.6156C24.1469 18.054 23.8481 17.2805 23.8481 16.2953C23.8481 14.9953 24.2751 13.896 25.1298 12.9995C25.9837 12.1029 27.0432 11.6547 28.3082 11.6547C29.2647 11.6547 30.0593 11.9448 30.6921 12.5248C31.3239 13.1049 31.6404 13.905 31.6404 14.9245C31.6404 16.2253 31.2047 17.3068 30.3332 18.1672Z" fill="#003087"/>
<path d="M76.0092 1.39768C74.6933 0.46697 72.9763 0.000488281 70.8573 0.000488281H62.7063C62.0223 0.000488281 61.6462 0.334634 61.5784 1.00212L58.2463 22.5182C58.2117 22.7295 58.2629 22.9227 58.4 23.0984C58.5357 23.2745 58.7075 23.362 58.9126 23.362H63.116C63.5261 23.362 63.7994 23.1337 63.9363 22.6766L64.8592 16.5596C64.8931 16.2785 65.0128 16.0499 65.2181 15.8739C65.4232 15.6982 65.6792 15.5833 65.9871 15.5306C66.2946 15.4784 66.5846 15.4521 66.8587 15.4521C67.1318 15.4521 67.4563 15.4698 67.8323 15.5048C68.2082 15.5399 68.4481 15.557 68.55 15.557C71.4894 15.557 73.7959 14.7051 75.4708 12.9996C77.1454 11.2947 77.9828 8.93054 77.9828 5.90663C77.9829 3.83276 77.3247 2.32984 76.0092 1.39768ZM70.7547 10.0729C70.0027 10.6001 68.8748 10.8637 67.3713 10.8637L65.7308 10.9166L66.6025 5.2738C66.6701 4.88743 66.8922 4.694 67.2687 4.694H68.1912C68.9428 4.694 69.5409 4.72914 69.9859 4.79926C70.4295 4.87018 70.8573 5.08923 71.2674 5.45836C71.6778 5.82764 71.8825 6.36392 71.8825 7.06703C71.8825 8.54352 71.5062 9.54531 70.7547 10.0729Z" fill="#009CDE"/>
</svg>
