<svg width="232" height="54" viewBox="0 0 232 54" fill="none" xmlns="http://www.w3.org/2000/svg">
<g clip-path="url(#clip0_957_2430)">
<path d="M57.8926 40.2334V4.48242H79.0029V8.96463H62.2639V19.9567H77.297V24.4389H62.2639V35.6445H80.1757V40.1267H57.8926V40.2334Z" fill="#E43225"/>
<path d="M102.352 40.2333L95.1019 30.7353L87.8519 40.2333H82.7343L92.6497 27.5337L82.2012 14.4072H87.9585L95.1019 24.2254L102.352 14.4072H108.003L98.0872 27.5337L107.47 40.2333H102.352Z" fill="#E43225"/>
<path d="M114.506 36.3916V54.0003H110.135V27.6406C110.135 20.9173 115.252 13.7671 123.249 13.7671C131.352 13.7671 137.429 18.8896 137.429 27.3204C137.429 35.5378 131.245 41.194 124.208 41.194C120.797 41.194 116.212 39.6999 114.506 36.3916ZM132.844 27.3204C132.844 21.5576 129.113 18.1426 122.502 18.4627C119.304 18.5695 114.399 20.9173 114.826 29.1347C114.933 31.8027 117.705 36.8185 123.782 36.8185C129.006 36.8185 132.844 33.8303 132.844 27.3204Z" fill="#E43225"/>
<path d="M141.16 40.2332V14.4071H145.531V17.1818C147.664 14.7273 150.969 13.8735 154.487 13.8735V18.5692C153.954 18.4625 148.73 17.8221 145.531 24.6522V40.3399H141.16V40.2332Z" fill="#E43225"/>
<path d="M155.661 27.3204C155.661 19.8501 160.992 13.7671 168.349 13.7671C177.518 13.7671 180.929 19.8501 180.929 27.6406V29.775H160.459C160.779 34.6841 165.15 37.2453 169.202 37.1386C172.187 37.0319 174.213 36.1782 176.345 34.0438L179.224 37.0319C176.558 39.5932 173.146 41.3007 168.988 41.3007C161.205 41.194 155.661 35.4311 155.661 27.3204ZM168.029 18.1426C163.871 18.1426 160.672 21.771 160.459 25.7197H176.345C176.345 21.8778 173.573 18.1426 168.029 18.1426Z" fill="#E43225"/>
<path d="M183.168 36.6049L186.366 33.7235C186.26 33.7235 187.966 35.431 188.179 35.5377C188.925 36.178 189.672 36.6049 190.631 36.8184C193.403 37.5654 198.414 37.352 198.841 33.5101C199.054 31.3757 197.455 30.2018 195.642 29.4547C193.297 28.601 190.738 28.2808 188.392 27.2136C185.727 26.0397 184.021 24.012 184.021 21.0239C184.021 13.2334 195.109 11.9527 200.12 15.5812C200.333 15.7946 202.786 18.0357 202.679 18.0357L199.48 20.597C197.881 18.6761 196.389 17.7156 192.977 17.7156C191.271 17.7156 188.925 18.4626 188.499 20.2769C187.859 22.8381 190.738 23.7986 192.657 24.3322C195.216 24.9725 197.988 25.3994 200.227 26.7867C203.319 28.7077 204.065 32.8697 202.892 36.0713C201.613 39.5931 197.775 40.9804 194.363 41.0871C190.311 41.3006 186.793 40.0199 183.914 37.1385C183.701 37.1385 183.168 36.6049 183.168 36.6049Z" fill="#E43225"/>
<path d="M205.664 36.6049L208.863 33.7235C208.756 33.7235 210.462 35.431 210.675 35.5377C211.421 36.178 212.168 36.6049 213.127 36.8184C215.899 37.5654 220.91 37.352 221.337 33.5101C221.55 31.3757 219.951 30.2018 218.138 29.4547C215.793 28.601 213.234 28.2808 210.888 27.2136C208.223 26.0397 206.517 24.012 206.517 21.0239C206.517 13.2334 217.605 11.9527 222.616 15.5812C222.829 15.7946 225.282 18.0357 225.175 18.0357L221.977 20.597C220.377 18.6761 218.885 17.7156 215.473 17.7156C213.767 17.7156 211.421 18.4626 210.995 20.2769C210.355 22.8381 213.234 23.7986 215.153 24.3322C217.712 24.9725 220.484 25.3994 222.723 26.7867C225.815 28.7077 226.561 32.8697 225.388 36.0713C224.109 39.5931 220.271 40.9804 216.859 41.0871C212.807 41.3006 209.289 40.0199 206.41 37.1385C206.197 37.1385 205.664 36.6049 205.664 36.6049Z" fill="#E43225"/>
<path d="M226.456 14.4074V11.6327H225.496V11.0991H228.055V11.6327H227.095V14.4074H226.456Z" fill="#E43225"/>
<path d="M231.254 14.4074V11.8462L230.295 14.4074H230.082L229.122 11.8462V14.4074H228.589V11.0991H229.442L230.295 13.3402L231.148 11.0991H232.001V14.4074H231.254Z" fill="#E43225"/>
<path d="M28.2537 40.2334L25.0551 31.6959H7.78309L4.58456 40.2334H0L13.8603 4.48242H18.8713L32.625 40.2334H28.2537ZM16.2059 9.60495L9.70221 27.3204H23.2426L16.2059 9.60495Z" fill="#F7971D"/>
<path d="M35.5039 40.2334V4.48242H39.9818V40.2334H35.5039Z" fill="#F7971D"/>
<path d="M46.6982 40.2334V14.9409H51.1762V40.2334H46.6982Z" fill="#F7971D"/>
<path d="M55.4403 6.72331C55.4403 6.61659 55.4403 6.61659 55.4403 6.50987C55.4403 6.40315 55.4403 6.40315 55.4403 6.29644C52.0285 6.18972 49.2565 3.41502 49.1499 0C49.0433 0 48.9366 0 48.83 0C48.7234 0 48.6168 0 48.5102 0C48.4035 3.41502 45.6315 6.18972 42.2197 6.29644C42.2197 6.40315 42.2197 6.40315 42.2197 6.50987C42.2197 6.61659 42.2197 6.61659 42.2197 6.72331C45.6315 6.83003 48.4035 9.60474 48.5102 13.0198C48.6168 13.0198 48.7234 13.0198 48.83 13.0198C48.9366 13.0198 49.0433 13.0198 49.1499 13.0198C49.2565 9.60474 52.0285 6.83003 55.4403 6.72331Z" fill="#F7971D"/>
</g>
<defs>
<clipPath id="clip0_957_2430">
<rect width="232" height="54" fill="white"/>
</clipPath>
</defs>
</svg>
