<svg width="52" height="52" viewBox="0 0 52 52" fill="none" xmlns="http://www.w3.org/2000/svg">
<rect width="52" height="52" fill="white"/>
<path d="M43.4907 34.9015V32.0968C43.491 32.0865 43.4955 32.0764 43.4955 32.066C43.4953 31.7349 43.2888 31.4265 42.9298 31.2193L29.171 23.2754C29.5945 22.3384 30.1845 21.5068 30.9234 20.8394C31.0649 20.7113 31.076 20.4933 30.9482 20.3518C30.8207 20.2104 30.6015 20.1998 30.4612 20.3271C29.6679 21.0439 29.0309 21.9311 28.5711 22.9287L26.1968 21.5578C25.7348 20.1814 25.071 19.0209 24.2524 18.2242C24.1157 18.0912 23.8977 18.0938 23.7646 18.2307C23.6318 18.3674 23.6347 18.5857 23.7716 18.7185C24.3619 19.2931 24.8638 20.0824 25.2591 21.0162L22.0706 19.1754C21.4587 18.822 20.4284 18.8239 19.8129 19.1788L9.57196 25.0914C9.20838 25.3009 9 25.6126 9 25.9458C9 25.9554 9.00409 25.9648 9.00457 25.9744C9.00409 25.9824 9 25.9889 9 25.9968V28.8092C9 28.8126 9.00217 28.8157 9.00217 28.8188C8.99447 29.1571 9.19683 29.4719 9.56546 29.6846L30.4267 41.7285C30.4368 41.7343 30.4484 41.7379 30.4587 41.7437C30.4621 41.7454 30.4652 41.7471 30.4688 41.7485C30.7768 41.9148 31.1611 42 31.5485 42C31.9398 42 32.3298 41.9131 32.6424 41.7439C32.6455 41.7425 32.6482 41.7413 32.6506 41.7399C32.6612 41.7336 32.6734 41.7302 32.684 41.724L42.9237 35.8118C43.3133 35.5864 43.5166 35.2562 43.4908 34.9016L43.4907 34.9015ZM9.91655 25.6887L20.1569 19.7766C20.3597 19.6596 20.6475 19.5923 20.9466 19.5923C21.2423 19.5923 21.5257 19.6582 21.7245 19.773L25.6245 22.0245C26.0174 23.2909 26.2357 24.7442 26.2357 26.2648C26.2357 26.4556 26.3899 26.6098 26.5807 26.6098C26.7715 26.6098 26.9258 26.4556 26.9258 26.2648C26.9258 24.9481 26.7658 23.6752 26.4739 22.5154L28.3036 23.5717C27.927 24.5934 27.7258 25.7096 27.7258 26.8675C27.7258 27.0583 27.8801 27.2126 28.0709 27.2126C28.2617 27.2126 28.416 27.0583 28.416 26.8675C28.416 25.834 28.5873 24.8371 28.9102 23.9216L42.5847 31.8168C42.7206 31.8955 42.8051 31.9907 42.8051 32.0663C42.8051 32.1443 42.7177 32.2429 42.5774 32.3235L32.3378 38.2358C31.9342 38.4695 31.17 38.4714 30.7699 38.2399L9.90982 26.1954C9.77387 26.117 9.68941 26.0214 9.68941 25.9456C9.68941 25.8679 9.77676 25.7692 9.91656 25.6886L9.91655 25.6887ZM9.68941 28.8298C9.68965 28.8252 9.68772 28.8218 9.68772 28.8173C9.68772 28.8142 9.68941 28.8117 9.68941 28.8091V26.8653L30.2525 38.7374V40.832L9.90993 29.0862C9.76916 29.0051 9.68471 28.907 9.68952 28.8292L9.68941 28.8298ZM30.9425 41.2119V39.0398C31.1328 39.0865 31.3378 39.1105 31.5476 39.1105C31.7618 39.1105 31.9709 39.085 32.1655 39.0364V41.208C31.7981 41.3464 31.3084 41.3481 30.9425 41.2119ZM42.5774 35.2151L32.8551 40.8278V38.7337L42.8004 32.9915V34.9015C42.8004 34.9102 42.8049 34.9177 42.8057 34.9263C42.8059 34.9326 42.8035 34.9374 42.8042 34.9436C42.8138 35.0242 42.7267 35.1284 42.5775 35.2151L42.5774 35.2151Z" fill="black"/>
<path d="M14.4089 25.3713C14.6086 25.4865 14.8666 25.5501 15.1361 25.5501C15.4073 25.5501 15.6681 25.4858 15.8697 25.3696L19.6039 23.2136C19.8612 23.0647 20.0089 22.8373 20.0089 22.5902C20.0089 22.3445 19.8624 22.119 19.6071 21.9718C19.2062 21.7405 18.5481 21.7424 18.1472 21.9739L14.4135 24.1297C14.1558 24.2784 14.0078 24.5053 14.0078 24.7526C14.0076 24.9983 14.1536 25.224 14.4089 25.3713ZM14.758 24.7274L18.4918 22.5714C18.6845 22.4607 19.0719 22.4593 19.262 22.5692C19.2757 22.5769 19.2868 22.5844 19.2957 22.5914C19.2861 22.5986 19.274 22.6072 19.2584 22.6161L15.5247 24.7721C15.3319 24.8838 14.9453 24.8845 14.7537 24.7738C14.7402 24.7661 14.7291 24.7587 14.7202 24.7522C14.7301 24.7445 14.7426 24.7358 14.758 24.7274Z" fill="black"/>
<path d="M34.3313 22.6797C34.7591 22.7998 35.1992 22.8604 35.6398 22.8604C37.7941 22.8604 39.7058 21.4102 40.2891 19.3343C41.0091 16.7693 39.508 14.097 36.9437 13.3765C36.5159 13.2564 36.0758 13.1958 35.6352 13.1958C33.4809 13.1958 31.5696 14.646 30.9861 16.7224C30.2659 19.2874 31.7664 21.9597 34.3313 22.6797ZM31.6503 16.9088C32.1498 15.1289 33.7882 13.8857 35.635 13.8857C36.0123 13.8857 36.3899 13.9376 36.7568 14.0409C38.9552 14.6581 40.242 16.9488 39.6246 19.1476C39.125 20.9275 37.4861 22.1705 35.6396 22.1705C35.2623 22.1705 34.8848 22.1185 34.5178 22.0153C33.4528 21.7162 32.5681 21.0204 32.0267 20.0559C31.4851 19.0915 31.3513 17.9738 31.6504 16.9088L31.6503 16.9088Z" fill="black"/>
<path d="M34.4808 18.0621L34.5891 18.0925L34.3051 19.1038L34.2613 19.0913C34.0789 19.041 33.8874 19.1469 33.8359 19.33C33.7844 19.5136 33.8915 19.7039 34.0746 19.7554L34.1184 19.7679L33.9221 20.4672C33.8706 20.6508 33.9776 20.8411 34.1608 20.8926C34.192 20.9013 34.2236 20.9056 34.2544 20.9056C34.405 20.9056 34.5433 20.806 34.5862 20.6537L34.7825 19.9542L35.3648 20.1178L35.1685 20.8171C35.117 21.0007 35.2241 21.191 35.4072 21.2425C35.4385 21.2512 35.47 21.2555 35.5008 21.2555C35.6514 21.2555 35.7898 21.1559 35.8326 21.0036L36.0289 20.3043L36.137 20.3346C36.246 20.3654 36.3574 20.3806 36.4678 20.3806C36.6738 20.3806 36.8769 20.3279 37.0612 20.2244C37.3442 20.0654 37.5482 19.8057 37.6363 19.4927C37.817 18.8476 37.4397 18.1758 36.7946 17.9941L36.6863 17.9638L36.9705 16.9517L37.0141 16.9637C37.1979 17.0152 37.388 16.9082 37.4395 16.7248C37.491 16.5412 37.3839 16.3511 37.2008 16.2994L37.157 16.2869L37.3533 15.5881C37.4048 15.4045 37.2977 15.2142 37.1146 15.1627C36.9318 15.1117 36.7407 15.2182 36.6892 15.4014L36.4929 16.1001L35.9106 15.937L36.1069 15.2377C36.1584 15.0541 36.0513 14.8638 35.8682 14.8123C35.6858 14.7613 35.4943 14.8679 35.4428 15.051L35.2464 15.7503L35.1382 15.72C34.8254 15.6319 34.4977 15.6716 34.2144 15.8304C33.9312 15.9895 33.7269 16.2491 33.6393 16.5614C33.4577 17.208 33.8354 17.8807 34.4808 18.0621ZM34.9695 19.2905L35.2534 18.2792L35.8357 18.4428L35.5516 19.4541L34.9695 19.2905ZM36.6082 18.6594C36.8873 18.7376 37.0504 19.0285 36.9725 19.3069C36.9344 19.4421 36.8461 19.5545 36.7237 19.6233C36.6012 19.6919 36.4587 19.709 36.3242 19.671L36.2162 19.6406L36.5001 18.6288L36.6082 18.6594ZM36.3062 16.7659L36.022 17.778L35.4397 17.6144L35.7239 16.6023L36.3062 16.7659ZM34.3035 16.7493C34.341 16.6141 34.4293 16.5019 34.5523 16.4334C34.6743 16.3648 34.8165 16.3477 34.9515 16.3857L35.0602 16.416L34.7758 17.4281L34.6678 17.3978C34.3884 17.3191 34.2248 17.0286 34.3035 16.7493Z" fill="black"/>
<path d="M21.8818 18.0738C22.0502 18.0738 22.2213 18.0632 22.39 18.0421C23.4598 17.9078 24.4131 17.365 25.0743 16.5132C25.736 15.6619 26.0265 14.6036 25.892 13.5338C25.6391 11.5193 23.9191 10 21.8911 10C21.7225 10 21.5516 10.0106 21.3829 10.0318C19.175 10.3092 17.6039 12.3316 17.8814 14.5401C18.1345 16.5551 19.8545 18.0739 21.8817 18.0739L21.8818 18.0738ZM21.4691 10.7164C21.6089 10.6988 21.7506 10.6899 21.8909 10.6899C23.5714 10.6899 24.9974 11.9493 25.2069 13.6197C25.3183 14.5066 25.0775 15.3837 24.5291 16.09C23.9807 16.7962 23.19 17.2462 22.3031 17.3573C22.1633 17.3749 22.0213 17.3838 21.8813 17.3838C20.201 17.3838 18.7753 16.1244 18.5655 14.454C18.3359 12.6233 19.6384 10.9466 21.4691 10.7164Z" fill="black"/>
<path d="M20.2451 14.2777C20.4335 14.424 20.6602 14.5012 20.8945 14.5012C20.9393 14.5012 20.9843 14.4986 21.0295 14.493L21.0606 14.4892L21.1542 15.2305C20.9778 15.2654 20.8548 15.4276 20.8774 15.6083C20.8991 15.7827 21.0478 15.91 21.2194 15.91C21.2259 15.91 21.2324 15.9093 21.2393 15.9091L21.3062 16.4428C21.3279 16.6172 21.4766 16.7445 21.6482 16.7445C21.6623 16.7445 21.6768 16.7438 21.6917 16.7419C21.8808 16.718 22.0149 16.5455 21.9908 16.3566L21.9232 15.8244L22.2957 15.7775L22.3626 16.3097C22.3842 16.4842 22.5329 16.6115 22.7045 16.6115C22.7187 16.6115 22.7331 16.6107 22.748 16.6088C22.9372 16.585 23.0712 16.4125 23.0471 16.2236L22.9802 15.6913L23.012 15.6875C23.2928 15.6518 23.5435 15.5092 23.7175 15.2856C23.8915 15.0618 23.9675 14.7834 23.9321 14.5026C23.897 14.2216 23.7546 13.9706 23.5305 13.7964C23.3068 13.6229 23.0308 13.5466 22.7471 13.5815L22.7158 13.5854L22.6222 12.8438C22.7981 12.8089 22.9215 12.6467 22.8989 12.466C22.876 12.2853 22.7206 12.159 22.5375 12.1686L22.4701 11.6315C22.4468 11.4429 22.2786 11.3079 22.0849 11.3322C21.8957 11.356 21.7617 11.5285 21.7858 11.7174L21.8527 12.2497L21.4797 12.2966L21.413 11.7646C21.3897 11.5754 21.2227 11.4409 21.0278 11.4652C20.8387 11.4891 20.7046 11.6616 20.7287 11.8505L20.7956 12.3827L20.7646 12.3866C20.483 12.4217 20.2323 12.5646 20.0581 12.7889C19.8841 13.0127 19.8081 13.2911 19.8434 13.5719C19.8786 13.8529 20.0211 14.1037 20.2451 14.2777ZM21.8373 15.1396L21.7444 14.403L22.1169 14.3561L22.2098 15.0926L21.8373 15.1396ZM22.8332 14.2661C22.9326 14.2533 23.0289 14.2805 23.1076 14.3414C23.1858 14.402 23.2356 14.4896 23.2476 14.5883C23.2601 14.6869 23.2334 14.7841 23.1723 14.8626C23.1116 14.9408 23.0241 14.9908 22.9256 15.0029L22.8944 15.0067L22.8015 14.2699L22.8332 14.2661ZM21.9388 12.9347L22.0317 13.6715L21.6592 13.7184L21.5663 12.9817L21.9388 12.9347ZM20.6033 13.2119C20.6645 13.1337 20.752 13.0837 20.8507 13.0712L20.8817 13.0673L20.9746 13.8046L20.9433 13.8084C20.8471 13.8205 20.7477 13.7943 20.6688 13.7329C20.5906 13.6723 20.5408 13.5847 20.5288 13.4863C20.5158 13.3876 20.5422 13.2904 20.6033 13.2119Z" fill="black"/>
</svg>
