<svg width="149" height="36" viewBox="0 0 149 36" fill="none" xmlns="http://www.w3.org/2000/svg">
<path d="M49 7L67 0L63 33H49V7Z" fill="#ED712E"/>
<path d="M1.43466 27V12.4545H10.7528V14.6634H4.0696V18.6122H10.1136V20.821H4.0696V27H1.43466ZM14.9049 27H12.0924L17.2131 12.4545H20.466L25.5938 27H22.7813L18.8964 15.4375H18.7827L14.9049 27ZM14.9972 21.2969H22.6677V23.4134H14.9972V21.2969ZM31.8446 12.4545V27H29.2097V12.4545H31.8446ZM36.3979 27V12.4545H41.8525C42.9699 12.4545 43.9074 12.6487 44.665 13.0369C45.4273 13.4252 46.0026 13.9697 46.3908 14.6705C46.7838 15.3665 46.9803 16.1785 46.9803 17.1065C46.9803 18.0393 46.7815 18.849 46.3837 19.5355C45.9907 20.2173 45.4107 20.7453 44.6437 21.1193C43.8766 21.4886 42.9344 21.6733 41.817 21.6733H37.932V19.4858H41.4619C42.1153 19.4858 42.6503 19.3958 43.067 19.2159C43.4836 19.0312 43.7914 18.7637 43.9903 18.4134C44.1939 18.0582 44.2957 17.6226 44.2957 17.1065C44.2957 16.5904 44.1939 16.1501 43.9903 15.7855C43.7867 15.4162 43.4765 15.1368 43.0599 14.9474C42.6432 14.7533 42.1058 14.6562 41.4477 14.6562H39.0329V27H36.3979ZM43.9121 20.4091L47.513 27H44.5727L41.0357 20.4091H43.9121ZM67.6619 27H64.8494L69.9702 12.4545H73.223L78.3509 27H75.5384L71.6534 15.4375H71.5398L67.6619 27ZM67.7543 21.2969H75.4247V23.4134H67.7543V21.2969ZM82.2526 12.4545L86.0381 23.9034H86.1872L89.9656 12.4545H92.8633L87.7355 27H84.4827L79.3619 12.4545H82.2526ZM99.1141 12.4545V27H96.4792V12.4545H99.1141ZM115.621 12.4545V27H113.277L106.423 17.0923H106.302V27H103.667V12.4545H106.025L112.872 22.3693H113V12.4545H115.621ZM129.936 17.0994C129.818 16.7159 129.654 16.3726 129.446 16.0696C129.242 15.7618 128.996 15.4991 128.707 15.2812C128.423 15.0634 128.097 14.9001 127.727 14.7912C127.358 14.6776 126.955 14.6207 126.52 14.6207C125.739 14.6207 125.043 14.8172 124.432 15.2102C123.821 15.6032 123.34 16.1809 122.99 16.9432C122.644 17.7008 122.472 18.6241 122.472 19.7131C122.472 20.8116 122.644 21.742 122.99 22.5043C123.336 23.2666 123.816 23.8466 124.432 24.2443C125.047 24.6373 125.762 24.8338 126.577 24.8338C127.315 24.8338 127.954 24.6918 128.494 24.4077C129.039 24.1236 129.458 23.7211 129.751 23.2003C130.045 22.6747 130.192 22.0592 130.192 21.3537L130.788 21.446H126.839V19.3864H132.741V21.1335C132.741 22.3788 132.476 23.456 131.946 24.3651C131.416 25.2741 130.686 25.9749 129.758 26.4673C128.83 26.955 127.765 27.1989 126.562 27.1989C125.222 27.1989 124.046 26.8982 123.033 26.2969C122.024 25.6908 121.236 24.8314 120.668 23.7188C120.104 22.6013 119.822 21.2756 119.822 19.7415C119.822 18.5672 119.988 17.5185 120.32 16.5952C120.656 15.6719 121.124 14.8883 121.726 14.2443C122.327 13.5956 123.033 13.1032 123.842 12.767C124.652 12.4261 125.533 12.2557 126.484 12.2557C127.289 12.2557 128.04 12.3741 128.736 12.6108C129.432 12.8428 130.05 13.1742 130.589 13.6051C131.134 14.036 131.581 14.5473 131.932 15.1392C132.282 15.7311 132.512 16.3845 132.621 17.0994H129.936ZM144.894 16.4531C144.828 15.8329 144.549 15.3499 144.056 15.0043C143.568 14.6586 142.934 14.4858 142.153 14.4858C141.603 14.4858 141.132 14.5687 140.739 14.7344C140.346 14.9001 140.046 15.125 139.837 15.4091C139.629 15.6932 139.522 16.0175 139.518 16.3821C139.518 16.6851 139.586 16.9479 139.724 17.1705C139.866 17.393 140.058 17.5824 140.299 17.7386C140.54 17.8902 140.808 18.018 141.102 18.1222C141.395 18.2263 141.691 18.3139 141.989 18.3849L143.353 18.7259C143.902 18.8537 144.43 19.0265 144.937 19.2443C145.448 19.4621 145.905 19.7367 146.308 20.0682C146.715 20.3996 147.037 20.7997 147.273 21.2685C147.51 21.7372 147.629 22.2865 147.629 22.9162C147.629 23.7685 147.411 24.5189 146.975 25.1676C146.54 25.8116 145.91 26.3158 145.086 26.6804C144.267 27.0402 143.275 27.2202 142.11 27.2202C140.978 27.2202 139.996 27.045 139.163 26.6946C138.334 26.3442 137.685 25.8329 137.217 25.1605C136.753 24.4882 136.502 23.669 136.464 22.7031H139.056C139.094 23.2098 139.25 23.6312 139.525 23.9673C139.799 24.3035 140.157 24.5545 140.597 24.7202C141.042 24.8859 141.54 24.9688 142.089 24.9688C142.662 24.9688 143.164 24.8835 143.594 24.7131C144.03 24.5379 144.371 24.2964 144.617 23.9886C144.863 23.6761 144.989 23.3116 144.994 22.8949C144.989 22.5161 144.878 22.2036 144.66 21.9574C144.442 21.7064 144.137 21.4981 143.744 21.3324C143.355 21.1619 142.901 21.0104 142.38 20.8778L140.725 20.4517C139.527 20.1439 138.58 19.6776 137.884 19.0526C137.193 18.4228 136.847 17.5871 136.847 16.5455C136.847 15.6884 137.079 14.938 137.543 14.294C138.012 13.6501 138.649 13.1506 139.454 12.7955C140.259 12.4356 141.17 12.2557 142.188 12.2557C143.22 12.2557 144.125 12.4356 144.901 12.7955C145.683 13.1506 146.296 13.6454 146.741 14.2798C147.186 14.9096 147.415 15.634 147.43 16.4531H144.894Z" fill="#201F1F"/>
<path d="M59.0106 16.4531C58.9443 15.8329 58.6649 15.3499 58.1725 15.0043C57.6848 14.6586 57.0504 14.4858 56.2691 14.4858C55.7199 14.4858 55.2487 14.5687 54.8558 14.7344C54.4628 14.9001 54.1621 15.125 53.9538 15.4091C53.7454 15.6932 53.6389 16.0175 53.6342 16.3821C53.6342 16.6851 53.7028 16.9479 53.8401 17.1705C53.9822 17.393 54.1739 17.5824 54.4154 17.7386C54.6569 17.8902 54.9244 18.018 55.218 18.1222C55.5115 18.2263 55.8075 18.3139 56.1058 18.3849L57.4694 18.7259C58.0186 18.8537 58.5466 19.0265 59.0532 19.2443C59.5646 19.4621 60.0215 19.7367 60.4239 20.0682C60.8311 20.3996 61.1531 20.7997 61.3898 21.2685C61.6266 21.7372 61.745 22.2865 61.745 22.9162C61.745 23.7685 61.5272 24.5189 61.0915 25.1676C60.6559 25.8116 60.0262 26.3158 59.2023 26.6804C58.3832 27.0402 57.3913 27.2202 56.2265 27.2202C55.0949 27.2202 54.1124 27.045 53.279 26.6946C52.4504 26.3442 51.8018 25.8329 51.333 25.1605C50.869 24.4882 50.6181 23.669 50.5802 22.7031H53.1725C53.2104 23.2098 53.3666 23.6312 53.6413 23.9673C53.9159 24.3035 54.2734 24.5545 54.7137 24.7202C55.1588 24.8859 55.6559 24.9688 56.2052 24.9688C56.7781 24.9688 57.28 24.8835 57.7109 24.7131C58.1465 24.5379 58.4874 24.2964 58.7336 23.9886C58.9798 23.6761 59.1053 23.3116 59.11 22.8949C59.1053 22.5161 58.994 22.2036 58.7762 21.9574C58.5584 21.7064 58.253 21.4981 57.86 21.3324C57.4718 21.1619 57.0172 21.0104 56.4964 20.8778L54.8415 20.4517C53.6436 20.1439 52.6967 19.6776 52.0006 19.0526C51.3094 18.4228 50.9637 17.5871 50.9637 16.5455C50.9637 15.6884 51.1957 14.938 51.6597 14.294C52.1285 13.6501 52.7653 13.1506 53.5702 12.7955C54.3752 12.4356 55.2866 12.2557 56.3046 12.2557C57.3368 12.2557 58.2412 12.4356 59.0177 12.7955C59.7989 13.1506 60.4121 13.6454 60.8572 14.2798C61.3022 14.9096 61.5319 15.634 61.5461 16.4531H59.0106Z" fill="white"/>
</svg>
