<svg width="52" height="52" viewBox="0 0 52 52" fill="none" xmlns="http://www.w3.org/2000/svg">
<path d="M20.7656 31.4087L18.8595 30.5264L18.506 28.4559C18.4721 28.2579 18.3286 28.0961 18.1362 28.039C17.9453 27.9827 17.7359 28.039 17.5987 28.1862L16.1705 29.7263L14.0918 29.4224C13.8932 29.3933 13.6952 29.4798 13.5812 29.645C13.4671 29.8102 13.4572 30.0258 13.5547 30.2013L14.5778 32.0357L13.647 33.9186C13.5583 34.0985 13.5789 34.3138 13.7015 34.4731C13.8232 34.6324 14.0248 34.7089 14.222 34.6699L16.2835 34.2634L17.7867 35.7306C17.8868 35.8288 18.02 35.881 18.1554 35.881C18.2139 35.881 18.2735 35.8711 18.3309 35.8509C18.5203 35.7843 18.6554 35.6158 18.6789 35.4164L18.9295 33.3304L20.7896 32.3536C20.9673 32.2601 21.0766 32.074 21.0718 31.8735C21.067 31.6733 20.9482 31.493 20.7657 31.4088L20.7656 31.4087ZM18.1933 32.5256C18.0391 32.6062 17.9353 32.757 17.9147 32.9296L17.7588 34.229L16.8221 33.3152C16.7224 33.218 16.5899 33.1647 16.4534 33.1647C16.4196 33.1647 16.3854 33.168 16.3515 33.1746L15.0667 33.4277L15.6469 32.2537C15.7238 32.0981 15.719 31.9145 15.6348 31.7626L14.9972 30.6195L16.2926 30.8089C16.4644 30.8328 16.6377 30.7732 16.7558 30.6456L17.6462 29.6857L17.8665 30.9764C17.896 31.1471 18.0074 31.2935 18.1649 31.366L19.3525 31.916L18.1933 32.5256Z" fill="black"/>
<path d="M46.5149 26.8731C46.7713 26.7344 46.8662 26.4143 46.7275 26.1582L45.1643 23.2705V23.2702V23.2698L37.4588 9.03381L35.8956 6.14574C35.829 6.02286 35.7164 5.93125 35.5821 5.89152C35.4486 5.85178 35.304 5.86687 35.1807 5.93309C34.7977 6.14022 34.3573 6.18584 33.9409 6.06186C33.5237 5.93787 33.1797 5.65826 32.9729 5.276C32.9064 5.15312 32.7938 5.06152 32.6595 5.02178C32.5259 4.98204 32.381 4.99713 32.2581 5.06335L20.8392 11.2427C20.5827 11.3814 20.4878 11.7015 20.6265 11.9575C20.8337 12.3405 20.8793 12.7809 20.7553 13.1974C20.6313 13.6146 20.3524 13.9586 19.9694 14.1653C19.8466 14.2319 19.755 14.3445 19.7152 14.4788C19.6751 14.6127 19.6906 14.7573 19.7568 14.8802L21.3201 17.7682V17.7686C21.3201 17.7686 21.3201 17.769 21.3204 17.769L21.6258 18.3333L14.8519 16.3169C14.7183 16.2771 14.5737 16.2922 14.4505 16.3584C14.3276 16.425 14.236 16.5376 14.1963 16.6719C14.0723 17.0891 13.7927 17.4323 13.4104 17.6398C13.0281 17.8466 12.5881 17.8926 12.1698 17.7686C12.0363 17.7288 11.8913 17.7439 11.7684 17.8102C11.6455 17.8767 11.5539 17.9893 11.5142 18.1236L5.02206 39.9358C4.93854 40.2147 5.09785 40.5086 5.37709 40.5918C6.23799 40.8482 6.72986 41.7569 6.47415 42.6182C6.39137 42.8971 6.54994 43.1911 6.82918 43.2742L19.2728 46.9779C19.3229 46.9926 19.3736 47 19.4237 47C19.651 47 19.8607 46.8517 19.9288 46.6229C20.1852 45.7616 21.0928 45.2712 21.9553 45.5258C22.2342 45.6086 22.5274 45.45 22.6113 45.1708L23.548 42.023L27.4151 29.0302L29.0254 32.0051V32.0055L29.0258 32.0059L30.5891 34.8936C30.7278 35.15 31.0468 35.2449 31.3039 35.1062C32.0946 34.6791 33.0846 34.9738 33.5121 35.7633C33.5787 35.8862 33.6912 35.9778 33.8255 36.0175C33.8745 36.0322 33.9252 36.0396 33.976 36.0396C34.0632 36.0396 34.1497 36.0179 34.2269 35.976L45.6449 29.7955C45.9013 29.6568 45.9963 29.3367 45.8576 29.0806C45.43 28.2911 45.7251 27.3004 46.5146 26.8729L46.5149 26.8731ZM21.766 13.4989C21.9194 12.9834 21.9154 12.4463 21.7598 11.9441L32.3414 6.21719C32.6769 6.62226 33.1239 6.91915 33.6394 7.07257C34.1548 7.22562 34.6916 7.22194 35.1942 7.06632L36.2802 9.07254L21.9971 16.803L20.9111 14.7972C21.3161 14.4613 21.613 14.0143 21.7665 13.4988L21.766 13.4989ZM12.3895 18.8817C12.9104 18.9303 13.4395 18.8247 13.9126 18.5682C14.3858 18.3118 14.7625 17.9296 15.0075 17.4641L26.5395 20.8967C26.4906 21.4206 26.5965 21.9466 26.8529 22.4194C27.1086 22.8926 27.4916 23.2693 27.9571 23.5143L27.3062 25.7005L11.7385 21.0671L12.3895 18.8817ZM22.6876 41.2166L7.11988 36.5832L11.4369 22.0788L27.0047 26.7122L22.6876 41.2166ZM21.7359 44.4144C20.662 44.3169 19.623 44.8776 19.1182 45.8313L7.58534 42.3994C7.68467 41.3251 7.12214 40.2864 6.16852 39.7817L6.81935 37.5948L22.3871 42.2282L21.7359 44.4144ZM27.8373 27.6119L29.1032 23.3597C29.1433 23.2258 29.1278 23.0812 29.0616 22.9583C28.995 22.8354 28.8824 22.7438 28.7482 22.7041C28.3309 22.5801 27.9877 22.3005 27.7802 21.9182C27.5731 21.536 27.5275 21.0956 27.6515 20.6784C27.6916 20.5445 27.6761 20.3999 27.6099 20.2766C27.5433 20.1538 27.4307 20.0622 27.2964 20.0224L23.056 18.7602L22.4989 17.7311L36.782 9.99987L43.9856 23.3081L29.7016 31.0394L27.8639 27.6443C27.8573 27.631 27.8451 27.6237 27.837 27.6115L27.8373 27.6119ZM44.7245 29.095L34.1429 34.8219C33.8074 34.4168 33.3604 34.1199 32.8449 33.9665C32.3295 33.8131 31.7927 33.8171 31.2902 33.9727L30.2041 31.9669L44.4872 24.2357L45.5732 26.2419C44.7436 26.9317 44.4073 28.0642 44.7241 29.095L44.7245 29.095Z" fill="black"/>
<path d="M29.7399 21.976L31.7612 22.5492L32.4341 24.5388C32.4985 24.7294 32.6652 24.8663 32.8638 24.8928C32.887 24.8961 32.9102 24.8975 32.9334 24.8975C33.1081 24.8975 33.2729 24.8111 33.3715 24.6639L34.5415 22.9193L36.6423 22.894C36.8428 22.8914 37.0253 22.7751 37.1117 22.5945C37.1989 22.4135 37.175 22.199 37.0507 22.0411L35.7531 20.3892L36.3782 18.3834C36.4378 18.1921 36.3833 17.9831 36.2384 17.8444C36.0927 17.7061 35.8807 17.6623 35.6931 17.7315L33.7211 18.4555L32.007 17.2417C31.8429 17.1251 31.6273 17.1126 31.4511 17.2086C31.2745 17.3039 31.1675 17.4919 31.1752 17.6924L31.2543 19.7917L29.5696 21.047C29.4088 21.1673 29.3297 21.3678 29.3661 21.5654C29.4011 21.7611 29.5464 21.9204 29.7399 21.976ZM32.1056 20.4702C32.2446 20.3664 32.3241 20.2005 32.3175 20.0276L32.2678 18.7196L33.3359 19.4761C33.4782 19.5769 33.6596 19.6 33.8226 19.5408L35.0514 19.0897L34.6622 20.3399C34.6107 20.5054 34.6438 20.6857 34.7508 20.8226L35.5599 21.852L34.2509 21.8678C34.0772 21.87 33.9161 21.9576 33.8193 22.1014L33.0905 23.189L32.6711 21.9491C32.6155 21.7847 32.4827 21.6581 32.3157 21.6107L31.0564 21.253L32.1056 20.4702Z" fill="black"/>
</svg>
