<svg width="52" height="52" viewBox="0 0 52 52" fill="none" xmlns="http://www.w3.org/2000/svg">
<rect width="52" height="52" fill="white"/>
<path d="M17.7073 33.7019C15.4359 33.7019 10.9329 35.0309 10.4206 37.5942L10.01 40.0578C9.94385 40.4542 10.2119 40.8285 10.6078 40.8947C10.6481 40.9016 10.689 40.9049 10.7283 40.9049C11.0773 40.9049 11.3857 40.6531 11.445 40.2972L11.851 37.8564C12.144 36.3917 15.6565 35.1561 17.7073 35.1561C18.1087 35.1561 18.4344 34.8302 18.4344 34.429C18.4344 34.0278 18.109 33.7019 17.7073 33.7019ZM34.8451 37.5709C34.3414 35.0575 30.2921 33.7187 27.5623 33.7187C27.1609 33.7187 26.8352 34.0446 26.8352 34.4458C26.8352 34.8473 27.1611 35.1729 27.5623 35.1729C29.9717 35.1729 33.1216 36.3697 33.4153 37.8328L33.8259 40.2965C33.8852 40.652 34.1931 40.9041 34.5426 40.9041C34.5819 40.9041 34.6225 40.9008 34.663 40.8942C35.0589 40.828 35.3265 40.4534 35.2608 40.0573L34.8451 37.5709ZM27.3461 31.1374C28.0415 30.0935 28.9754 27.7643 29.3309 26.8485C29.9206 26.6296 30.3421 26.061 30.3421 25.396V23.7536C30.3421 23.1624 30.0093 22.6476 29.5211 22.3868V21.7003C29.5211 19.8765 28.85 15.6353 22.6351 15.6353C18.3233 15.6353 15.749 17.9021 15.749 21.7003V22.3927C15.2644 22.6577 14.9273 23.1743 14.9273 23.7533V25.3957C14.9273 26.061 15.3488 26.6298 15.9393 26.8487C16.2946 27.7645 17.2279 30.0932 17.9238 31.1369L17.9877 31.2332C18.5124 32.0301 19.4901 33.514 22.6349 33.514C25.778 33.514 26.7562 32.0309 27.2814 31.2343L27.3461 31.1374ZM26.1361 30.3304L26.0676 30.4333C25.5898 31.1579 24.9951 32.0595 22.6349 32.0595C20.2735 32.0595 19.6793 31.1579 19.202 30.4328L19.134 30.3303C18.3686 29.1822 17.1687 25.9938 17.1568 25.9618C17.0503 25.6783 16.779 25.4898 16.4759 25.4898C16.4237 25.4898 16.3813 25.4477 16.3813 25.3952V23.7528C16.3813 23.7186 16.4439 23.6625 16.4759 23.6587C16.8774 23.6587 17.203 23.3328 17.203 22.9316V21.6998C17.203 19.5965 18.1455 17.0893 22.6347 17.0893C27.1239 17.0893 28.0664 19.5965 28.0664 21.6998V22.9316C28.0664 23.3331 28.3923 23.6587 28.7935 23.6587C28.8455 23.6587 28.8873 23.7008 28.8873 23.7528V25.3952C28.8873 25.4475 28.8455 25.4898 28.7935 25.4898C28.4902 25.4898 28.219 25.6778 28.1125 25.9618C27.7783 26.8538 26.7711 29.3771 26.1361 30.3304ZM41.2729 17.09H36.91V12.7271C36.91 12.3256 36.5841 12 36.1828 12C35.7814 12 35.4557 12.3259 35.4557 12.7271V17.09H31.0928C30.6913 17.09 30.3657 17.4159 30.3657 17.8172C30.3657 18.2186 30.6916 18.5443 31.0928 18.5443H35.4557V22.9072C35.4557 23.3087 35.7816 23.6343 36.1828 23.6343C36.5843 23.6343 36.91 23.3084 36.91 22.9072V18.5443H41.2729C41.6744 18.5443 42 18.2184 42 17.8172C42 17.4159 41.6741 17.09 41.2729 17.09Z" fill="black"/>
</svg>
