<svg width="52" height="52" viewBox="0 0 52 52" fill="none" xmlns="http://www.w3.org/2000/svg">
<path d="M40.1042 34.1472L40.3178 33.355L47.2868 19.1502C47.7229 18.2691 47.358 17.2011 46.4769 16.765L44.9461 16.0174L45.9874 12.1279C46.2366 11.1756 45.6759 10.2054 44.7236 9.94729L41.288 9.03052C41.1011 8.97712 40.9053 9.09282 40.8519 9.27973L40.576 10.3122C40.3713 11.0687 39.597 11.5227 38.8315 11.3179C38.066 11.1132 37.621 10.3389 37.8258 9.57341L38.1017 8.54093C38.1551 8.35402 38.0394 8.15821 37.8525 8.10481L34.4169 7.18804C33.4646 6.93883 32.4944 7.49955 32.2363 8.45187L30.3762 15.3586C26.0773 11.6204 19.5533 12.0743 15.815 16.3732C14.1862 18.2601 13.2873 20.6632 13.2873 23.1553V26.0034C13.2873 29.3678 14.9338 32.5274 17.693 34.4591L18.1024 33.8806C13.7502 30.8367 12.691 24.8463 15.7439 20.4944C18.7967 16.1425 24.7781 15.083 29.13 18.1358C33.4819 21.1887 34.5414 27.1701 31.4886 31.522C30.9902 32.234 30.3938 32.8748 29.7263 33.4266L30.1802 33.9785C30.3672 33.8183 30.5541 33.6581 30.7321 33.4889L37.9236 35.4114C38.0749 35.4559 38.2262 35.4737 38.3864 35.4737H38.4843L38.2173 36.0255L32.3163 38.3752L27.9017 36.2125C28.5692 35.6072 28.9519 34.7439 28.9519 33.8361V33.1241C28.9519 32.9282 28.7917 32.768 28.5959 32.768H21.9474C21.0929 32.768 20.283 33.1062 19.6777 33.7025L17.0432 36.337L5.05429 37.7522L5.13439 38.4554L17.2389 37.0313C17.319 37.0224 17.3902 36.9868 17.4525 36.9334L20.176 34.2099C20.6388 33.7382 21.2796 33.48 21.9383 33.48H28.2398V33.8361C28.2398 35.2156 27.1272 36.3282 25.7477 36.3282H22.1875C21.9917 36.3282 21.8315 36.4884 21.8315 36.6842C21.8315 36.8177 21.9027 36.9334 22.0184 36.9957L28.4267 40.5558C28.5246 40.6092 28.6314 40.6181 28.7293 40.5736L41.2252 35.5716C42.1509 35.1978 43.21 35.4203 43.9131 36.1234L44.3937 36.604L29.3964 45.0857C28.8534 45.3972 28.2126 45.4862 27.5985 45.3438L16.5795 42.7538C16.5172 42.736 16.4549 42.7449 16.3926 42.7627L5.00012 46.3229L5.21373 46.9993L16.5175 43.4659L27.429 46.0292C28.2123 46.2161 29.04 46.1004 29.7432 45.6999L45.1499 36.9952C45.319 36.8973 45.3813 36.6837 45.2834 36.5057C45.2656 36.479 45.2478 36.4523 45.2211 36.4256L44.4111 35.6156C43.5033 34.7078 42.1415 34.4319 40.9578 34.9036L39.1955 35.6067L39.4447 35.0905C39.774 34.868 39.9965 34.5298 40.1033 34.1471L40.1042 34.1472ZM16.8473 18.2067C15.628 19.2658 14.6756 20.5919 14.0615 22.0873C14.3018 19.9067 15.2898 17.8774 16.8473 16.3287V18.2067ZM19.6954 16.4533C18.9389 16.7648 18.218 17.1653 17.5593 17.6459V15.6967C18.209 15.1627 18.93 14.7266 19.6954 14.3794V16.4533ZM23.2556 15.6878C22.2854 15.7234 21.3242 15.8926 20.4074 16.1863V14.0947C21.3242 13.7743 22.2854 13.5874 23.2556 13.5518V15.6878ZM28.6225 39.8521L23.5582 37.0396H25.7477C26.2639 37.0396 26.7712 36.915 27.234 36.6747L31.4261 38.7307L28.6225 39.8521ZM46.1563 17.4057C46.6814 17.6638 46.9039 18.3046 46.6458 18.8386L41.2611 29.8128L44.7589 16.7294L46.1563 17.4057ZM26.8159 16.1863C25.8992 15.8837 24.938 15.7146 23.9678 15.6879V13.5518C24.938 13.5874 25.8992 13.7654 26.8159 14.0948V16.1863ZM29.6641 17.646C29.0054 17.1654 28.2845 16.7649 27.528 16.4534V14.3797C28.2934 14.7268 29.0144 15.1629 29.6641 15.697V17.646ZM30.3761 18.2068V16.3288C31.9337 17.8686 32.9216 19.9068 33.1619 22.0874C32.5477 20.601 31.5954 19.2659 30.3761 18.2068ZM38.9204 34.6103C38.6712 34.7527 38.3864 34.7883 38.1105 34.7171L31.3017 32.9015C31.9781 32.1538 32.5389 31.3083 32.9661 30.4005L36.099 31.2371L36.2859 30.5518L33.2509 29.7418C33.6425 28.7361 33.865 27.677 33.9273 26.6089L39.7126 20.3074C39.8461 20.165 39.8372 19.9336 39.6948 19.8001L38.6445 18.8389C38.5021 18.7054 38.2707 18.7143 38.1372 18.8567L33.9362 23.4226V23.1555C33.9362 22.0341 33.7493 20.9127 33.3933 19.8446C33.8472 20.4943 34.7373 20.6456 35.387 20.2006C36.0367 19.7556 36.188 18.8566 35.743 18.2069C35.298 17.5572 34.399 17.4059 33.7493 17.8509C33.3221 18.1535 33.0907 18.6608 33.1441 19.1859C32.6368 17.9666 31.8981 16.854 30.9635 15.9106L32.9038 8.63007C33.0551 8.06045 33.6425 7.72225 34.2122 7.87354L37.3094 8.70128L37.1225 9.38661C36.8199 10.5259 37.4964 11.7007 38.6356 12.0033C39.7749 12.3058 40.9498 11.6295 41.2523 10.4902L41.4392 9.80488L44.5365 10.6326C45.1061 10.7839 45.4443 11.3714 45.293 11.941L39.4188 33.9512C39.3386 34.236 39.1606 34.4674 38.9203 34.6098L38.9204 34.6103ZM33.9362 25.5232V24.4729L38.4132 19.5955L38.9383 20.0761L33.9362 25.5232ZM34.0341 18.5453C34.1587 18.4029 34.3368 18.3228 34.5237 18.3139H34.5593C34.9509 18.3139 35.2713 18.6343 35.2713 19.0259C35.2713 19.2039 35.2001 19.373 35.0844 19.5065C34.8174 19.8002 34.3723 19.818 34.0787 19.551C33.785 19.2929 33.7671 18.839 34.0341 18.5453Z" fill="black"/>
<path d="M23.6121 19.2402C26.0241 19.2491 28.2581 20.5307 29.4685 22.6223L30.0826 22.2662C28.0178 18.6883 23.443 17.469 19.8652 19.5338C17.5511 20.8689 16.127 23.3343 16.127 26.0044C16.1181 27.6243 16.6433 29.1997 17.6223 30.4902L18.1919 30.063C15.9491 27.0725 16.5543 22.836 19.5448 20.5926C20.7285 19.7115 22.1526 19.2398 23.6122 19.2398L23.6121 19.2402Z" fill="black"/>
<path d="M32.752 13.3832L32.9357 12.6953L34.9996 13.2465L34.8159 13.9344L32.752 13.3832Z" fill="black"/>
<path d="M41.0001 15.5902L41.1838 14.9023L43.2477 15.4535L43.064 16.1414L41.0001 15.5902Z" fill="black"/>
<path d="M35.4983 14.1176L35.682 13.4297L37.746 13.9809L37.5622 14.6687L35.4983 14.1176Z" fill="black"/>
<path d="M38.254 14.8558L38.4378 14.168L40.5017 14.7192L40.3179 15.407L38.254 14.8558Z" fill="black"/>
<path d="M35.7963 26.0495C35.2623 26.6281 35.3068 27.527 35.8853 28.061C36.4638 28.5951 37.3627 28.5506 37.8968 27.972C38.4309 27.3935 38.3863 26.4946 37.8078 25.9605C37.2293 25.4354 36.3304 25.471 35.7963 26.0495ZM37.3716 27.4914C37.1046 27.7851 36.6596 27.8029 36.3659 27.5359C36.0722 27.2689 36.0544 26.8239 36.3214 26.5302C36.5884 26.2454 37.0334 26.2187 37.3271 26.4857C37.6208 26.7527 37.6386 27.2066 37.3716 27.4914Z" fill="black"/>
<path d="M5.63274 32.0915L11.5337 35.5716C11.7028 35.6695 11.9253 35.6161 12.0232 35.447C12.0499 35.3936 12.0677 35.3402 12.0766 35.2779L12.3704 28.4335C12.3793 28.2377 12.2279 28.0686 12.0321 28.0597C11.9698 28.0597 11.9075 28.0686 11.8452 28.1042L10.4034 28.8874C9.83373 27.2765 9.54892 25.5765 9.54892 23.8676C9.54892 15.4298 16.42 8.55936 24.8571 8.55936C26.7885 8.55936 28.7021 8.91538 30.491 9.6274L30.7491 8.96877C28.8801 8.22114 26.8775 7.84735 24.8571 7.84735C16.019 7.84735 8.83607 15.03 8.83607 23.8684C8.83607 25.7998 9.18318 27.7134 9.8596 29.529C9.9308 29.7159 10.1355 29.8049 10.3224 29.7337C10.3402 29.7248 10.3491 29.7248 10.3669 29.7159L11.6219 29.0306L11.3816 34.6556L6.5309 31.7986L7.83925 31.0955C7.99946 31.0065 8.07066 30.8196 7.99946 30.6505C7.13615 28.4877 6.69999 26.1914 6.69999 23.8684C6.69999 13.8552 14.844 5.71204 24.8563 5.71204C27.0725 5.71204 29.2709 6.11256 31.3358 6.90467L31.5939 6.23714C29.44 5.41835 27.1615 5 24.8563 5C14.4517 5 5.98713 13.4646 5.98713 23.8692C5.98713 26.1744 6.40545 28.4618 7.23314 30.6156L5.64886 31.4701C5.47975 31.5591 5.40855 31.7816 5.50645 31.9507C5.52425 32.013 5.56876 32.0575 5.63105 32.0931L5.63274 32.0915Z" fill="black"/>
</svg>
