<svg width="52" height="52" viewBox="0 0 52 52" fill="none" xmlns="http://www.w3.org/2000/svg">
<path d="M46.9533 24.8105L41.9195 13.6325C41.807 13.3826 41.5214 13.2611 41.2633 13.353L36.4844 15.0576C35.9652 15.2427 35.3866 15.2038 34.8971 14.9509L30.0502 12.4466C29.4162 12.1191 28.7034 11.967 27.9918 12.006L22.5807 12.3039C21.1979 12.3801 19.9472 13.0821 19.1576 14.1831L16.0387 14.9257C15.2374 15.1167 14.3942 15.1006 13.6006 14.8797L11.0459 14.1684C10.8013 14.1004 10.5435 14.2162 10.4322 14.4441L5.05324 25.4488C4.93371 25.6935 5.02072 25.9891 5.25363 26.13L11.1224 29.6802L10.2819 30.9968C9.6092 32.0503 9.872 33.4546 10.8804 34.1931L11.4297 34.5956C11.8393 34.8956 12.3353 35.055 12.8375 35.055C12.9825 35.055 13.1281 35.0418 13.2719 35.0149C13.4955 34.973 13.7096 34.8971 13.9094 34.7954C14.0345 35.331 14.3413 35.8255 14.8153 36.1724L15.2304 36.4765C15.6397 36.7762 16.1357 36.9352 16.6376 36.9352C16.7826 36.9352 16.9282 36.9221 17.0723 36.8948C17.3275 36.8471 17.5704 36.7559 17.7936 36.6309C17.9275 37.1421 18.2293 37.6114 18.6849 37.9449L19.0358 38.2018C19.4451 38.5015 19.9411 38.6606 20.443 38.6606C20.588 38.6606 20.7336 38.6474 20.8778 38.6201C21.2322 38.5536 21.563 38.4045 21.8489 38.1936C22.0001 38.6439 22.284 39.0535 22.693 39.3529C23.1025 39.6526 23.5982 39.8117 24.1001 39.8117C24.2451 39.8117 24.391 39.7985 24.5352 39.7712C25.178 39.6508 25.7487 39.2653 26.1005 38.7139L26.5546 38.0025C26.9771 38.3538 27.5167 38.5565 28.0804 38.5565C28.5729 38.5565 29.0472 38.4057 29.453 38.1197C29.8529 37.8367 30.1391 37.4535 30.3026 37.0281C30.6146 37.2821 30.9823 37.4664 31.3822 37.5552C31.5683 37.5965 31.7569 37.6167 31.945 37.6167C32.4797 37.6167 33.0079 37.4523 33.4509 37.1394C34.0166 36.7401 34.3764 36.1589 34.5044 35.5293C34.7109 35.6391 34.9309 35.7247 35.163 35.7762C35.3496 35.8175 35.5386 35.838 35.7272 35.838C36.2628 35.838 36.7919 35.6734 37.236 35.3599C38.0168 34.8088 38.4073 33.912 38.3349 33.0188C38.5417 33.0712 38.7562 33.0997 38.9747 33.0997C39.515 33.0997 40.035 32.9341 40.4789 32.6209C41.4146 31.9609 41.7911 30.8045 41.48 29.7516L46.805 25.4344C46.9904 25.2842 47.0514 25.0275 46.9535 24.8098L46.9533 24.8105ZM13.0788 33.9808C12.7149 34.0485 12.3502 33.9658 12.052 33.7473L11.5027 33.3448C10.9408 32.9331 10.794 32.1503 11.169 31.5632L12.1513 30.0245C12.3505 29.7125 12.6605 29.5033 13.0241 29.4353C13.107 29.4198 13.1899 29.4122 13.2723 29.4122C13.5506 29.4122 13.8204 29.5001 14.051 29.6688L14.6003 30.0714C15.1613 30.4824 15.3081 31.2629 14.9357 31.85L14.2168 32.9759C14.2162 32.9768 14.2156 32.978 14.215 32.9791L13.9517 33.3916C13.7524 33.7033 13.4425 33.9125 13.0789 33.9808L13.0788 33.9808ZM16.8792 35.8607C16.5156 35.929 16.1509 35.8461 15.8524 35.6275L15.4372 35.3234C14.8759 34.9124 14.7291 34.1319 15.1015 33.5448L15.8204 32.4189C15.821 32.418 15.8216 32.4169 15.8222 32.4157L16.4281 31.4665C16.6273 31.1548 16.9369 30.9453 17.3008 30.8773C17.3837 30.8618 17.4669 30.8542 17.5493 30.8542C17.8276 30.8542 18.0974 30.9421 18.3277 31.1108L18.7428 31.4149C19.305 31.8265 19.4518 32.6094 19.0768 33.1968L17.752 35.2716C17.5528 35.5833 17.2431 35.7928 16.8792 35.8607ZM20.6846 37.5866C20.321 37.6549 19.9562 37.572 19.6577 37.3534L19.3068 37.0965C18.7446 36.6849 18.5978 35.902 18.9728 35.3146L20.1456 33.4777C20.3448 33.166 20.6544 32.9566 21.0183 32.8886C21.1012 32.8731 21.1844 32.8654 21.2668 32.8654C21.5451 32.8654 21.8149 32.9533 22.0452 33.1221L22.3962 33.379C22.9584 33.7906 23.1051 34.5735 22.7301 35.1609L21.5574 36.9978C21.3584 37.3092 21.0484 37.5187 20.6846 37.5866ZM25.2147 38.1486C25.0158 38.4603 24.7058 38.6697 24.3422 38.7377C23.9787 38.8057 23.6139 38.7231 23.3154 38.5045C22.7532 38.0926 22.6064 37.3101 22.9814 36.7227L23.7909 35.4547C23.9898 35.143 24.2998 34.9335 24.6634 34.8655C24.7466 34.85 24.8295 34.8424 24.9118 34.8424C25.1901 34.8424 25.46 34.9303 25.6902 35.0988C26.2524 35.5107 26.3992 36.2932 26.0242 36.8806L25.2147 38.1486ZM39.8735 31.7625C39.608 31.9497 39.2978 32.0487 38.9758 32.0487C38.4171 32.0487 37.8983 31.749 37.6199 31.2667L34.5886 25.9687C34.5654 25.9282 34.5364 25.8937 34.5051 25.862C34.3583 25.7129 34.1348 25.6643 33.937 25.7437C33.9148 25.7527 33.8922 25.7609 33.8705 25.7732C33.7563 25.8386 33.6777 25.9414 33.6373 26.0565C33.6332 26.0683 33.6274 26.0794 33.6241 26.0917C33.6221 26.0993 33.6218 26.1072 33.62 26.1148C33.6145 26.14 33.6089 26.1652 33.6068 26.1913C33.5992 26.2924 33.6209 26.3967 33.6748 26.4913L33.9625 26.9943L36.7026 31.7844C36.7044 31.7873 36.7064 31.7902 36.7082 31.7931L37.0847 32.4512C37.4866 33.1534 37.2912 34.0352 36.63 34.5017C36.2664 34.7583 35.8266 34.8471 35.3916 34.7504C34.9568 34.654 34.5956 34.388 34.3746 34.0016L34.2129 33.7188C34.2123 33.7177 34.2118 33.7165 34.2112 33.7153L31.1631 28.3871C31.019 28.1351 30.6976 28.0473 30.4453 28.1917C30.2247 28.318 30.1301 28.5799 30.2066 28.8122C30.2174 28.8453 30.2318 28.8781 30.2499 28.9095L33.2997 34.2412C33.6976 34.9405 33.5024 35.8171 32.8447 36.2814C32.482 36.5375 32.0437 36.6254 31.6108 36.5293C31.1775 36.4332 30.8174 36.1681 30.5971 35.7828L29.1208 33.2018L27.7468 30.7994C27.6568 30.6418 27.4974 30.5486 27.329 30.5361C27.2279 30.5284 27.1236 30.5501 27.029 30.604C26.7767 30.7482 26.6891 31.0695 26.8336 31.3218L27.808 33.0257L29.2327 35.5165C29.5749 36.1139 29.4085 36.8642 28.8468 37.2615C28.6201 37.4215 28.3552 37.5058 28.081 37.5058C27.6993 37.5058 27.3501 37.347 27.1022 37.0749C27.5118 36.082 27.205 34.9051 26.3109 34.2507C25.7829 33.8642 25.1118 33.7113 24.4687 33.8323C24.2868 33.8663 24.1113 33.924 23.9443 33.9984C23.8341 33.428 23.5177 32.8974 23.0171 32.5307L22.6661 32.2737C22.1382 31.8873 21.4667 31.7347 20.8239 31.8551C20.6379 31.89 20.4592 31.9494 20.289 32.0262C20.1774 31.459 19.8621 30.9316 19.3638 30.5669L18.9486 30.2628C18.421 29.8764 17.7492 29.7237 17.1065 29.8442C16.7163 29.9174 16.3536 30.0891 16.0491 30.3355C15.8942 29.9036 15.6158 29.5122 15.2212 29.2234L14.6719 28.8208C14.1443 28.4341 13.4728 28.2815 12.8295 28.4019C12.4539 28.4722 12.1044 28.6351 11.8073 28.8665L6.20981 25.4792L11.1856 15.2995L13.3187 15.8933C14.2834 16.162 15.3085 16.1813 16.2827 15.9493L18.4878 15.4243L16.4426 19.7591C15.9158 20.875 16.3166 22.1951 17.3748 22.8296C18.3618 23.4217 19.6319 23.226 20.3948 22.3647L23.5893 18.7588C23.8674 18.4448 24.2927 18.3141 24.6991 18.4184L28.7268 19.4485C28.9507 19.5056 29.1663 19.5929 29.3673 19.7074L35.9397 23.4548C36.7266 23.9034 37.3806 24.5561 37.8309 25.3421L40.3296 29.7103C40.7312 30.4134 40.5353 31.2958 39.8735 31.7625ZM41.0096 28.7806L38.7455 24.8229C38.7449 24.8217 38.7443 24.8208 38.7437 24.8199L38.7364 24.807C38.7352 24.805 38.7334 24.8032 38.732 24.8009C38.1888 23.8605 37.4043 23.0788 36.4603 22.5409L29.8878 18.7935C29.6051 18.6324 29.3019 18.5096 28.9869 18.4294L24.9592 17.3993C24.7796 17.3533 24.5983 17.3311 24.4187 17.3311C23.8081 17.3311 23.2193 17.5897 22.8015 18.0614L19.607 21.6673C19.1798 22.1498 18.4685 22.2591 17.9157 21.9274C17.3233 21.5721 17.0985 20.8326 17.3936 20.208L19.6914 15.3382C20.2357 14.1848 21.3651 13.4245 22.6383 13.3546L28.0497 13.0566C28.5759 13.0285 29.1 13.1401 29.5676 13.3815L34.4145 15.8858C35.1621 16.2723 36.0454 16.3314 36.8382 16.0487L41.16 14.5071L45.8279 24.8729L41.0096 28.7806Z" fill="black"/>
</svg>
