<svg width="25" height="24" viewBox="0 0 25 24" fill="none" xmlns="http://www.w3.org/2000/svg">
<g clip-path="url(#clip0_980_1793)">
<path d="M12.4981 1.99951C10.5202 1.99951 8.58684 2.586 6.94235 3.68482C5.29786 4.78363 4.01613 6.34542 3.25926 8.17268C2.50238 9.99994 2.30435 12.0106 2.6902 13.9504C3.07605 15.8902 4.02846 17.6721 5.42698 19.0706C6.82551 20.4691 8.60734 21.4215 10.5471 21.8074C12.487 22.1932 14.4976 21.9952 16.3249 21.2383C18.1521 20.4814 19.7139 19.1997 20.8127 17.5552C21.9116 15.9107 22.4981 13.9773 22.4981 11.9995C22.4981 10.6863 22.2394 9.38593 21.7368 8.17268C21.2343 6.95942 20.4977 5.85703 19.5691 4.92844C18.6405 3.99986 17.5381 3.26326 16.3249 2.76072C15.1116 2.25817 13.8113 1.99951 12.4981 1.99951ZM12.4981 19.9995C10.9158 19.9995 9.36908 19.5303 8.05349 18.6513C6.7379 17.7722 5.71252 16.5228 5.10702 15.061C4.50151 13.5992 4.34309 11.9906 4.65177 10.4388C4.96045 8.88694 5.72238 7.46148 6.8412 6.34266C7.96002 5.22384 9.38548 4.46191 10.9373 4.15323C12.4892 3.84455 14.0977 4.00297 15.5595 4.60848C17.0213 5.21398 18.2708 6.23936 19.1498 7.55495C20.0289 8.87054 20.4981 10.4173 20.4981 11.9995C20.4981 14.1212 19.6552 16.1561 18.1549 17.6564C16.6546 19.1567 14.6198 19.9995 12.4981 19.9995Z" fill="#FF8E86"/>
<path d="M12.498 9.00049C13.0503 9.00049 13.498 8.55277 13.498 8.00049C13.498 7.4482 13.0503 7.00049 12.498 7.00049C11.9458 7.00049 11.498 7.4482 11.498 8.00049C11.498 8.55277 11.9458 9.00049 12.498 9.00049Z" fill="#FF8E86"/>
<path d="M12.498 10.0005C12.2328 10.0005 11.9785 10.1058 11.7909 10.2934C11.6034 10.4809 11.498 10.7353 11.498 11.0005V16.0005C11.498 16.2657 11.6034 16.5201 11.7909 16.7076C11.9785 16.8951 12.2328 17.0005 12.498 17.0005C12.7633 17.0005 13.0176 16.8951 13.2052 16.7076C13.3927 16.5201 13.498 16.2657 13.498 16.0005V11.0005C13.498 10.7353 13.3927 10.4809 13.2052 10.2934C13.0176 10.1058 12.7633 10.0005 12.498 10.0005Z" fill="#FF8E86"/>
</g>
<defs>
<clipPath id="clip0_980_1793">
<rect width="24" height="24" fill="white" transform="translate(0.5)"/>
</clipPath>
</defs>
</svg>
