<svg width="52" height="52" viewBox="0 0 52 52" fill="none" xmlns="http://www.w3.org/2000/svg">
<rect width="52" height="52" fill="white"/>
<path d="M35.7961 21.9078C38.5257 21.9078 40.75 19.6835 40.75 16.9539C40.75 14.2243 38.5257 12 35.7961 12C33.0665 12 30.8422 14.2243 30.8422 16.9539C30.8422 17.3542 30.8946 17.7478 30.9799 18.1219L19.3921 22.833C18.4998 21.9735 17.2924 21.442 15.9539 21.442C13.2243 21.442 11 23.6663 11 26.3959C11 29.1255 13.2243 31.3498 15.9539 31.3498C17.2924 31.3498 18.5064 30.8183 19.3987 29.9522L30.9206 34.3615C30.8681 34.6502 30.8418 34.9455 30.8418 35.2473C30.8418 37.9769 33.0662 40.2013 35.7957 40.2013C38.5253 40.2013 40.7497 37.9769 40.7497 35.2473C40.7497 32.5178 38.5253 30.2934 35.7957 30.2934C33.7814 30.2934 32.0491 31.5007 31.2749 33.2264L20.1796 28.9811C20.6455 28.2266 20.9145 27.3407 20.9145 26.3959C20.9145 25.4445 20.6455 24.5521 20.173 23.7976L31.3997 19.2308C32.2199 20.8187 33.88 21.9078 35.7959 21.9078H35.7961ZM35.7961 31.4746C37.8761 31.4746 39.569 33.1675 39.569 35.2475C39.569 37.3275 37.8761 39.0203 35.7961 39.0203C33.7161 39.0203 32.0232 37.3275 32.0232 35.2475C32.0232 33.1675 33.7161 31.4746 35.7961 31.4746ZM15.9541 30.1688C13.8741 30.1688 12.1812 28.4759 12.1812 26.3959C12.1812 24.3159 13.8806 22.6231 15.9541 22.6231C18.0276 22.6231 19.727 24.3159 19.727 26.3959C19.727 28.4759 18.0341 30.1688 15.9541 30.1688ZM35.7961 13.1812C37.8761 13.1812 39.569 14.8741 39.569 16.9541C39.569 19.0341 37.8761 20.727 35.7961 20.727C33.7161 20.727 32.0232 19.0341 32.0232 16.9541C32.0232 14.8741 33.7161 13.1812 35.7961 13.1812Z" fill="black"/>
</svg>
