<svg width="52" height="52" viewBox="0 0 52 52" fill="none" xmlns="http://www.w3.org/2000/svg">
<rect width="52" height="52" fill="white"/>
<path d="M10.0001 22.3234C10.0025 22.5987 10.2264 22.8207 10.5018 22.8207C10.5522 22.8207 14.8606 22.7862 14.8099 22.7836C15.1178 22.7805 15.3484 22.5052 15.3013 22.2039L15.1302 21.1166C18.599 19.9 21.0501 21.6846 21.1003 21.6987C23.9427 23.5063 27.5587 23.4606 30.3355 21.7058V23.4349H28.2551C27.1233 23.4349 26.1757 24.3193 26.0974 25.4511C25.982 27.3056 25.461 35.6866 25.2116 39.6983C25.1305 40.9425 26.1212 42 27.3699 42H39.9837C41.2308 42 42.2221 40.9443 42.142 39.6992C41.9966 37.3587 41.6158 31.2323 41.2562 25.4477C41.1779 24.3195 40.2303 23.4349 39.0985 23.4349H37.5193L37.5195 16.2529L39.6004 14.6603C40.7295 13.7964 40.9388 12.1791 40.0644 11.0561L40.0316 11.014C39.1453 9.87576 37.4986 9.66375 36.3613 10.5412C36.2016 10.6644 35.9712 10.8372 35.6923 11.0442C33.2904 9.68947 30.3355 11.43 30.3355 14.1684V14.9373C30.2084 15.0287 30.0868 15.1165 29.9695 15.201C29.964 14.1167 29.2334 13.157 28.1611 12.8978L20.1005 10.7479C17.8433 10.2027 15.553 10.6411 13.6884 11.9466L13.5621 11.1439C13.5233 10.8995 13.3132 10.7201 13.0661 10.7201H13.0597L10.4955 10.752C10.2185 10.7553 9.9967 10.9828 10 11.2601C10.0034 11.5349 10.2273 11.7553 10.5017 11.7553H10.5081L12.638 11.7289L14.2196 21.7846L10.4974 21.817C10.2206 21.8196 9.99765 22.0459 10 22.3232L10.0001 22.3234ZM39.9841 40.9972H27.3696C26.7021 40.9972 26.169 40.4363 26.2128 39.7625L26.2802 38.6788H41.0732L41.1406 39.7635C41.1844 40.4317 40.6542 40.9972 39.9841 40.9972ZM39.0988 24.4386C39.7054 24.4386 40.2135 24.9124 40.2551 25.514L41.0112 37.6752H26.343L27.099 25.5176C27.1407 24.9124 27.6488 24.4386 28.2553 24.4386H30.3357V25.9845H29.7972C29.5199 25.9845 29.2955 26.2089 29.2955 26.4862C29.2955 26.7634 29.5199 26.9878 29.7972 26.9878H31.878C32.1553 26.9878 32.3797 26.7634 32.3797 26.4862C32.3797 26.2089 32.1553 25.9845 31.878 25.9845H31.339V24.4386H36.5164V25.9845H35.9779C35.7006 25.9845 35.4762 26.2089 35.4762 26.4862C35.4762 26.7634 35.7006 26.9878 35.9779 26.9878H38.0587C38.3359 26.9878 38.5604 26.7634 38.5604 26.4862C38.5604 26.2089 38.3359 25.9845 38.0587 25.9845H37.5197V24.4386L39.0988 24.4386ZM36.5163 23.4352H31.3389V20.9836L36.5163 17.0213V23.4352ZM36.9749 11.3361C37.675 10.7947 38.6921 10.9271 39.24 11.6305L39.2728 11.6726C39.8023 12.3528 39.68 13.3356 38.991 13.8637L31.3386 19.7203V15.4515C32.3767 14.7031 35.9675 12.1132 36.9746 11.3362L36.9749 11.3361ZM34.7686 11.7245C33.7536 12.4675 32.475 13.3937 31.3389 14.2137C31.8603 11.7416 33.4157 11.2597 34.7686 11.7245ZM19.8531 11.7202L27.9137 13.8701C28.6059 14.0377 29.0562 14.6962 28.9612 15.4018C28.8577 16.1697 28.1535 16.6873 27.4148 16.5924L23.2067 15.9279C22.9337 15.8825 22.676 16.0714 22.6329 16.3449C22.5894 16.6188 22.7764 16.8756 23.0499 16.9186L27.2694 17.585C28.3575 17.7328 28.8596 17.2361 30.3355 16.1743V20.4871C27.8094 22.4076 24.3174 22.5547 21.6383 20.8522C21.5881 20.8374 18.8902 18.861 14.9722 20.1102L13.8664 13.0798C15.562 11.7078 17.7289 11.2072 19.8529 11.7205L19.8531 11.7202Z" fill="black"/>
</svg>
