<svg width="52" height="52" viewBox="0 0 52 52" fill="none" xmlns="http://www.w3.org/2000/svg">
<path d="M45.7387 45.2796H6.26132C5.75935 45.279 5.27809 45.0794 4.92314 44.7244C4.5682 44.3695 4.36855 43.8882 4.368 43.3862V27.8128C4.36896 26.9239 4.72247 26.0718 5.35097 25.4433C5.97946 24.8148 6.83161 24.4613 7.72044 24.4603H44.2796C45.1684 24.4613 46.0205 24.8148 46.649 25.4433C47.2775 26.0718 47.631 26.9239 47.632 27.8128V43.3862C47.6314 43.8882 47.4318 44.3695 47.0768 44.7244C46.7219 45.0794 46.2407 45.279 45.7387 45.2796ZM7.72044 26.1243C7.2728 26.1249 6.84366 26.3029 6.52714 26.6195C6.21061 26.936 6.03255 27.3651 6.032 27.8128V43.3862C6.03213 43.447 6.05634 43.5053 6.09931 43.5482C6.14229 43.5912 6.20054 43.6154 6.26132 43.6156H45.7387C45.7995 43.6154 45.8577 43.5912 45.9007 43.5482C45.9437 43.5053 45.9679 43.447 45.968 43.3862V27.8128C45.9674 27.3651 45.7894 26.936 45.4729 26.6195C45.1563 26.3029 44.7272 26.1249 44.2796 26.1243H7.72044Z" fill="#ED712E"/>
<path d="M24.062 26.1242C23.8413 26.1242 23.6297 26.0366 23.4737 25.8805C23.3176 25.7245 23.23 25.5129 23.23 25.2922V23.9225C23.2321 23.0204 22.9003 22.1494 22.2985 21.4773C21.6967 20.8052 20.8675 20.3796 19.9706 20.2825C19.8376 20.2684 19.704 20.2613 19.5702 20.2612H12.3978C12.2646 20.2611 12.1314 20.2684 11.999 20.2831C11.1017 20.3796 10.272 20.8049 9.66982 21.4771C9.06766 22.1493 8.73573 23.0206 8.73808 23.9231V25.2927C8.73808 25.5134 8.65043 25.725 8.4944 25.8811C8.33836 26.0371 8.12674 26.1247 7.90608 26.1247C7.68542 26.1247 7.4738 26.0371 7.31777 25.8811C7.16174 25.725 7.07408 25.5134 7.07408 25.2927V23.9225C7.07394 23.2234 7.21155 22.531 7.47904 21.885C7.74653 21.239 8.13866 20.652 8.63304 20.1576C9.12742 19.6632 9.71435 19.271 10.3603 19.0034C11.0063 18.7359 11.6987 18.5982 12.3978 18.5983H19.5702C19.7641 18.5982 19.9578 18.6086 20.1505 18.6295C21.4552 18.7704 22.6615 19.3891 23.5373 20.3664C24.413 21.3436 24.8963 22.6103 24.894 23.9225V25.2922C24.894 25.5129 24.8063 25.7245 24.6503 25.8805C24.4942 26.0366 24.2826 26.1242 24.062 26.1242Z" fill="#ED712E"/>
<path d="M11.908 20.2893C11.6873 20.2893 11.4757 20.2017 11.3197 20.0457C11.1637 19.8896 11.076 19.678 11.076 19.4573V17.4527C11.076 15.8662 12.2907 14.4887 14.0993 14.0291C14.5111 13.9246 14.9344 13.8721 15.3592 13.8731H16.6104C17.72 13.8731 18.771 14.223 19.5692 14.8611C20.4235 15.5412 20.8936 16.4621 20.8936 17.4553V19.4594C20.8936 19.6801 20.8059 19.8917 20.6499 20.0477C20.4939 20.2038 20.2823 20.2914 20.0616 20.2914C19.8409 20.2914 19.6293 20.2038 19.4733 20.0477C19.3173 19.8917 19.2296 19.6801 19.2296 19.4594V17.4527C19.2296 16.4127 18.0305 15.5365 16.6104 15.5365H15.3582C15.0723 15.5358 14.7874 15.5708 14.5101 15.6405C13.468 15.9073 12.74 16.6519 12.74 17.4527V19.4573C12.74 19.678 12.6523 19.8896 12.4963 20.0457C12.3403 20.2017 12.1287 20.2893 11.908 20.2893Z" fill="#ED712E"/>
<path d="M14.3037 15.6676C14.083 15.6676 13.8714 15.5799 13.7154 15.4239C13.5593 15.2679 13.4717 15.0562 13.4717 14.8356V9.91379C13.4717 9.69313 13.5593 9.4815 13.7154 9.32547C13.8714 9.16944 14.083 9.08179 14.3037 9.08179C14.5243 9.08179 14.736 9.16944 14.892 9.32547C15.048 9.4815 15.1357 9.69313 15.1357 9.91379V14.8356C15.1357 15.0562 15.048 15.2679 14.892 15.4239C14.736 15.5799 14.5243 15.6676 14.3037 15.6676Z" fill="#ED712E"/>
<path d="M17.6631 15.6665C17.4424 15.6665 17.2308 15.5789 17.0747 15.4229C16.9187 15.2668 16.8311 15.0552 16.8311 14.8345V9.91379C16.8311 9.69313 16.9187 9.4815 17.0747 9.32547C17.2308 9.16944 17.4424 9.08179 17.6631 9.08179C17.8837 9.08179 18.0953 9.16944 18.2514 9.32547C18.4074 9.4815 18.4951 9.69313 18.4951 9.91379V14.8345C18.4951 15.0552 18.4074 15.2668 18.2514 15.4229C18.0953 15.5789 17.8837 15.6665 17.6631 15.6665Z" fill="#ED712E"/>
<path d="M18.7387 10.7458H13.2267C12.3334 10.7458 11.6329 9.86178 11.6329 8.73286C11.6329 7.60394 12.3334 6.72046 13.2267 6.72046H18.7387C19.6326 6.72046 20.3325 7.60446 20.3325 8.73286C20.3325 9.86126 19.6326 10.7458 18.7387 10.7458ZM13.3692 9.08178H18.5983C18.6446 8.97137 18.6685 8.85285 18.6685 8.73312C18.6685 8.61339 18.6446 8.49486 18.5983 8.38446H13.3692C13.3229 8.49486 13.299 8.61339 13.299 8.73312C13.299 8.85285 13.3229 8.97137 13.3692 9.08178Z" fill="#ED712E"/>
<path d="M29.1262 26.1243C28.9056 26.1243 28.694 26.0366 28.5379 25.8806C28.3819 25.7246 28.2942 25.5129 28.2942 25.2923V10.192C27.6482 10.3742 27.0793 10.7623 26.6739 11.2972C26.2685 11.8322 26.0487 12.4848 26.0478 13.156V25.2923C26.0478 25.5129 25.9602 25.7246 25.8041 25.8806C25.6481 26.0366 25.4365 26.1243 25.2158 26.1243C24.9952 26.1243 24.7836 26.0366 24.6275 25.8806C24.4715 25.7246 24.3838 25.5129 24.3838 25.2923V13.156C24.3841 11.8983 24.8838 10.6921 25.7731 9.80274C26.6624 8.91335 27.8685 8.4135 29.1262 8.41309C29.3469 8.41309 29.5585 8.50074 29.7145 8.65677C29.8706 8.8128 29.9582 9.02443 29.9582 9.24509V25.2923C29.9582 25.5129 29.8706 25.7246 29.7145 25.8806C29.5585 26.0366 29.3469 26.1243 29.1262 26.1243Z" fill="#ED712E"/>
<path d="M32.088 10.0792H29.124C28.9033 10.0792 28.6917 9.9915 28.5357 9.83547C28.3796 9.67944 28.292 9.46782 28.292 9.24716C28.292 9.0265 28.3796 8.81488 28.5357 8.65885C28.6917 8.50282 28.9033 8.41516 29.124 8.41516H32.088C32.3087 8.41516 32.5203 8.50282 32.6763 8.65885C32.8323 8.81488 32.92 9.0265 32.92 9.24716C32.92 9.46782 32.8323 9.67944 32.6763 9.83547C32.5203 9.9915 32.3087 10.0792 32.088 10.0792Z" fill="#ED712E"/>
<path d="M32.088 14.2823H29.124C28.9033 14.2823 28.6917 14.1946 28.5357 14.0386C28.3796 13.8826 28.292 13.6709 28.292 13.4503C28.292 13.2296 28.3796 13.018 28.5357 12.862C28.6917 12.7059 28.9033 12.6183 29.124 12.6183H32.088C32.3087 12.6183 32.5203 12.7059 32.6763 12.862C32.8323 13.018 32.92 13.2296 32.92 13.4503C32.92 13.6709 32.8323 13.8826 32.6763 14.0386C32.5203 14.1946 32.3087 14.2823 32.088 14.2823Z" fill="#ED712E"/>
<path d="M32.088 18.4849H29.124C28.9033 18.4849 28.6917 18.3973 28.5357 18.2412C28.3796 18.0852 28.292 17.8736 28.292 17.6529C28.292 17.4323 28.3796 17.2206 28.5357 17.0646C28.6917 16.9086 28.9033 16.8209 29.124 16.8209H32.088C32.3087 16.8209 32.5203 16.9086 32.6763 17.0646C32.8323 17.2206 32.92 17.4323 32.92 17.6529C32.92 17.8736 32.8323 18.0852 32.6763 18.2412C32.5203 18.3973 32.3087 18.4849 32.088 18.4849Z" fill="#ED712E"/>
<path d="M32.088 22.6882H29.124C28.9033 22.6882 28.6917 22.6005 28.5357 22.4445C28.3796 22.2885 28.292 22.0768 28.292 21.8562C28.292 21.6355 28.3796 21.4239 28.5357 21.2679C28.6917 21.1118 28.9033 21.0242 29.124 21.0242H32.088C32.3087 21.0242 32.5203 21.1118 32.6763 21.2679C32.8323 21.4239 32.92 21.6355 32.92 21.8562C32.92 22.0768 32.8323 22.2885 32.6763 22.4445C32.5203 22.6005 32.3087 22.6882 32.088 22.6882Z" fill="#ED712E"/>
<path d="M42.7106 26.1243C42.49 26.1243 42.2784 26.0366 42.1223 25.8806C41.9663 25.7245 41.8786 25.5129 41.8786 25.2923V18.4636C41.8789 18.2556 41.8382 18.0495 41.7587 17.8573C41.6792 17.665 41.5626 17.4903 41.4155 17.3432C41.2684 17.1961 41.0938 17.0794 40.9015 16.9999C40.7093 16.9203 40.5033 16.8795 40.2952 16.8797H36.4296C36.2214 16.8792 36.0152 16.9199 35.8229 16.9993C35.6305 17.0787 35.4557 17.1954 35.3085 17.3426C35.1613 17.4897 35.0447 17.6645 34.9652 17.8569C34.8858 18.0493 34.8452 18.2555 34.8456 18.4636V25.2923C34.8456 25.5129 34.758 25.7245 34.602 25.8806C34.4459 26.0366 34.2343 26.1243 34.0136 26.1243C33.793 26.1243 33.5814 26.0366 33.4253 25.8806C33.2693 25.7245 33.1816 25.5129 33.1816 25.2923V18.4636C33.1812 18.037 33.265 17.6145 33.428 17.2202C33.5911 16.826 33.8303 16.4678 34.132 16.1661C34.4337 15.8644 34.7919 15.6252 35.1862 15.4621C35.5804 15.299 36.0029 15.2153 36.4296 15.2157H40.2952C40.4645 15.2155 40.6335 15.2287 40.8007 15.2552C41.565 15.3757 42.2612 15.765 42.7639 16.3533C43.2666 16.9415 43.5428 17.6899 43.5426 18.4636V25.2923C43.5426 25.5129 43.455 25.7245 43.299 25.8806C43.1429 26.0366 42.9313 26.1243 42.7106 26.1243Z" fill="#ED712E"/>
<path d="M35.8388 16.952C35.6182 16.952 35.4066 16.8643 35.2505 16.7083C35.0945 16.5523 35.0068 16.3406 35.0068 16.12V11.83C35.0077 11.1013 35.2975 10.4027 35.8129 9.88745C36.3282 9.37222 37.0269 9.08248 37.7556 9.08179H38.7545C39.4831 9.08261 40.1816 9.37242 40.6968 9.88763C41.212 10.4028 41.5018 11.1014 41.5027 11.83V16.0768C41.5027 16.2975 41.415 16.5091 41.259 16.6651C41.103 16.8212 40.8913 16.9088 40.6707 16.9088C40.45 16.9088 40.2384 16.8212 40.0824 16.6651C39.9263 16.5091 39.8387 16.2975 39.8387 16.0768V11.83C39.8384 11.5425 39.7241 11.2669 39.5208 11.0636C39.3175 10.8604 39.0419 10.7461 38.7545 10.7458H37.7556C37.468 10.7461 37.1924 10.8604 36.989 11.0636C36.7857 11.2669 36.6712 11.5425 36.6708 11.83V16.12C36.6708 16.3406 36.5832 16.5523 36.4271 16.7083C36.2711 16.8643 36.0595 16.952 35.8388 16.952Z" fill="#ED712E"/>
<path d="M42.7102 23.2596H34.0137C33.7931 23.2596 33.5814 23.1719 33.4254 23.0159C33.2694 22.8599 33.1817 22.6482 33.1817 22.4276C33.1817 22.2069 33.2694 21.9953 33.4254 21.8393C33.5814 21.6832 33.7931 21.5956 34.0137 21.5956H42.7102C42.9309 21.5956 43.1425 21.6832 43.2985 21.8393C43.4545 21.9953 43.5422 22.2069 43.5422 22.4276C43.5422 22.6482 43.4545 22.8599 43.2985 23.0159C43.1425 23.1719 42.9309 23.2596 42.7102 23.2596Z" fill="#ED712E"/>
</svg>
