<svg width="52" height="52" viewBox="0 0 52 52" fill="none" xmlns="http://www.w3.org/2000/svg">
<path d="M46.2004 22.8879H44.1204C44.37 22.5551 44.5365 22.0975 44.5365 21.6399C44.5365 21.3903 44.3702 21.2238 44.1204 21.2238H41.2085C41.7909 20.8076 42.2485 20.2253 42.5398 19.5599H42.8727C43.7879 19.5599 44.5365 18.8113 44.5365 17.8961C44.5365 17.1889 43.9956 16.648 43.2884 16.648H42.7476C42.6228 16.3984 42.3314 16.2319 42.0404 16.2319H41.6661C42.0404 15.8575 42.2899 15.4414 42.498 14.9838H42.8726C43.7878 14.9838 44.5364 14.2351 44.5364 13.3199C44.5364 12.6128 43.9956 12.0719 43.2884 12.0719H42.7475C42.6227 11.8223 42.3314 11.6557 42.0403 11.6557H41.666C42.0403 11.2814 42.2899 10.8653 42.4979 10.4077L42.8725 10.408C43.7877 10.408 44.5364 9.6593 44.5364 8.7441C44.5364 8.03694 43.9955 7.49603 43.2883 7.49603H42.7474C42.6227 7.24647 42.3313 7.07991 42.0403 7.07991H34.5523C34.0947 7.07991 33.7203 7.45424 33.7203 7.91184V8.74376C33.7203 9.86704 34.178 10.907 34.9266 11.6557L34.5523 11.656C34.0946 11.656 33.7203 12.0303 33.7203 12.4879V13.3198C33.7203 14.4431 34.1779 15.4831 34.9266 16.2318H29.9761C29.5185 16.2318 29.1442 16.6061 29.1442 17.0637V17.8956C29.1442 19.2684 29.8099 20.4747 30.808 21.2237H27.8961C27.6466 21.2237 27.48 21.39 27.48 21.6398C27.48 22.0974 27.6463 22.555 27.8961 22.8879H18.3281L18.6195 20.7246L22.2803 18.6861C22.4051 18.6028 22.4884 18.5199 22.4884 18.3948L23.7365 9.65878C23.7365 9.53401 23.7365 9.40923 23.6532 9.32595C23.5699 9.20146 23.4448 9.15996 23.3201 9.15996H19.992L19.9923 8.74384C19.9923 7.82864 19.2436 7.07999 18.3284 7.07999H17.4965L17.4962 6.41433C17.4962 5.62385 16.8723 5 16.0819 5H8.92667C8.1362 5 7.51235 5.62388 7.51235 6.41433V7.07999H6.68012C5.76492 7.07999 5.01627 7.82864 5.01627 8.74384V9.57577V9.61727V9.65876L7.09627 26.2163L5.01627 36.1171C4.97478 36.2419 5.01627 36.3667 5.09955 36.4499C5.18255 36.5747 5.30761 36.6165 5.43239 36.6165H5.84851V37.0326C5.84851 37.7398 6.3894 38.2807 7.09659 38.2807H14.5846V44.1045C14.5846 44.3541 14.7509 44.5207 15.0007 44.5207H16.6646V46.1845C16.6646 46.4341 16.8308 46.6006 17.0807 46.6006H22.0726C22.3222 46.6006 22.4887 46.4344 22.4887 46.1845V44.5207H38.7127V46.1845C38.7127 46.4341 38.879 46.6006 39.1288 46.6006H44.1208C44.3703 46.6006 44.5369 46.4344 44.5369 46.1845V44.5207H46.2007C46.4503 44.5207 46.6169 44.3544 46.6169 44.1045L46.616 23.3046C46.616 23.055 46.4497 22.8887 46.1999 22.8887L46.2004 22.8879ZM43.6213 22.056C43.455 22.5551 42.9974 22.8879 42.4565 22.8879H34.1365C33.5956 22.8879 33.138 22.5551 32.9717 22.056H43.6213ZM43.7046 17.896C43.7046 18.3536 43.3302 18.7279 42.8726 18.7279H42.7893C42.8308 18.4784 42.8726 18.1871 42.8726 17.896V17.4799H43.2887C43.538 17.4799 43.7046 17.6462 43.7046 17.896ZM42.0404 17.896C42.0404 19.7265 40.5428 21.2241 38.7123 21.2241H37.8804C36.0499 21.2241 34.5523 19.7265 34.5523 17.896V17.0641H42.0403L42.0404 17.896ZM43.7046 13.3199C43.7046 13.7775 43.3302 14.1518 42.8726 14.1518H42.7893C42.8308 13.9022 42.8726 13.6109 42.8726 13.3199V12.9038H43.2887C43.538 12.9038 43.7046 13.0703 43.7046 13.3199ZM43.7046 8.74372C43.7046 9.20134 43.3302 9.57565 42.8726 9.57565H42.7893C42.8308 9.3261 42.8726 9.03476 42.8726 8.74372V8.3279H43.2887C43.538 8.3279 43.7046 8.49417 43.7046 8.74372ZM34.5526 8.74372V7.9118H42.0406V8.74372C42.0406 9.9918 41.3334 11.0733 40.3349 11.6557H36.2997C35.2597 11.0736 34.5525 9.9918 34.5525 8.74372H34.5526ZM34.5526 13.3199V12.4879H42.0406V13.3199C42.0406 14.5679 41.3334 15.6494 40.3349 16.2318H36.2582C35.2597 15.6494 34.5525 14.5679 34.5525 13.3199H34.5526ZM29.9764 17.896V17.0641H33.7203V17.896C33.7203 19.1441 34.3026 20.2674 35.1764 21.0575C34.8436 21.1408 34.5107 21.2238 34.1364 21.2238H33.3045C31.474 21.2238 29.9764 19.7262 29.9764 17.896ZM28.3955 22.056H32.0979C32.1812 22.3474 32.306 22.6384 32.4723 22.8879H29.5603C29.0197 22.8879 28.5621 22.5551 28.3955 22.056ZM19.7427 11.656H20.7827L20.0341 16.7727L19.0356 17.2719L19.7427 11.656ZM21.6979 18.0623L18.7442 19.7261L18.9105 18.3118L20.6161 17.4799C20.7409 17.4384 20.8242 17.3136 20.8242 17.147L21.6561 11.3232C21.6561 11.1984 21.6561 11.0736 21.5728 10.9903C21.4901 10.8656 21.3651 10.8238 21.2403 10.8238H19.826L19.9092 9.99186H22.8212L21.6979 18.0623ZM8.34433 6.41427C8.34433 6.08144 8.59389 5.83189 8.92672 5.83189H16.0819C16.4148 5.83189 16.6643 6.08144 16.6643 6.41427V7.07994H8.3443L8.34433 6.41427ZM5.84818 8.7438C5.84818 8.28618 6.22252 7.91187 6.68011 7.91187H18.3281C18.7857 7.91187 19.16 8.28621 19.16 8.7438V9.15992H5.84804L5.84818 8.7438ZM5.88997 9.99187H19.0772L18.7443 12.9038H12.5043V13.3199H18.7028L18.4947 14.9838H12.5043V15.3999H18.4115L18.2034 17.0637H12.5043V17.4799H18.1619L17.9538 19.1437H12.5043V19.5598H17.9124L17.7043 21.2237H12.5043V21.6398H17.6628L17.4962 22.8879H15.0001C14.7505 22.8879 14.584 23.0541 14.584 23.304V25.8001L7.88666 25.7999L5.88997 9.99187ZM5.93147 35.7839L7.84521 26.6319H14.5843V29.1695C14.0435 28.6286 13.3363 28.2957 12.5043 28.2957C10.8819 28.2957 9.59241 29.5853 9.59241 31.2077C9.59241 32.8301 10.8819 34.1196 12.5043 34.1196C13.3363 34.1196 14.0435 33.7867 14.5843 33.2458V35.7837L5.93147 35.7839ZM12.0882 29.1695C12.213 29.1281 12.3795 29.1281 12.5043 29.1281C12.6291 29.1281 12.7957 29.1281 12.9204 29.1695L12.9201 30.3761C12.9201 30.6257 12.7539 30.7922 12.504 30.7922C12.2545 30.7922 12.0879 30.6259 12.0879 30.3761L12.0882 29.1695ZM12.5043 31.208C12.9619 31.208 13.3362 30.8337 13.3362 30.3761V29.2946C14.0849 29.6274 14.5843 30.3346 14.5843 31.2083C14.5843 32.3731 13.6691 33.2883 12.5043 33.2883C11.3395 33.2883 10.4243 32.3731 10.4243 31.2083C10.4243 30.3764 10.9234 29.6274 11.6724 29.2946V30.3761C11.6724 30.8337 12.0467 31.208 12.5043 31.208ZM7.09624 37.448C6.84668 37.448 6.68012 37.2818 6.68012 37.0319V36.6158H14.5841V37.4477L7.09624 37.448ZM15.4162 23.72H37.8802V43.688H15.4162V23.72ZM21.6562 45.768H17.4962V44.52H21.6562V45.768ZM43.7042 45.768H39.5442V44.52H43.7042V45.768ZM45.7842 43.688H38.712L38.7123 23.72H45.7842L45.7842 43.688Z" fill="#ED712E"/>
<path d="M23.3204 37.2816C23.3619 37.2816 23.4452 37.2816 23.4867 37.2401L29.3523 31.3744C29.4356 31.2912 29.4356 31.1664 29.3523 31.0831C29.2691 30.9998 29.1443 30.9998 29.061 31.0831L23.1541 36.9488C23.0708 37.032 23.0708 37.1568 23.1541 37.2401C23.1956 37.2816 23.2789 37.2816 23.3204 37.2816Z" fill="#ED712E"/>
<path d="M23.3204 39.3199C23.3619 39.3199 23.4452 39.3199 23.4867 39.2784L29.3523 33.4128C29.4356 33.3295 29.4356 33.2047 29.3523 33.1214C29.2691 33.0381 29.1443 33.0381 29.061 33.1214L23.1541 38.9456C23.0708 39.0289 23.0708 39.1536 23.1541 39.2369C23.1956 39.3199 23.2789 39.3199 23.3204 39.3199Z" fill="#ED712E"/>
<path d="M39.5439 27.2559C39.5439 28.7535 40.7502 29.9598 42.2478 29.9598C43.7454 29.9598 44.9517 28.7535 44.9517 27.2559C44.9519 25.7583 43.7454 24.5518 42.2478 24.5518C40.7502 24.5518 39.5439 25.7583 39.5439 27.2559ZM42.4559 25.5918V27.2556C42.4559 27.3804 42.3726 27.4637 42.2478 27.4637C42.123 27.4637 42.0398 27.3807 42.0398 27.2559V25.592C42.0398 25.4673 42.123 25.384 42.2478 25.384C42.3726 25.3837 42.4559 25.467 42.4559 25.5918ZM44.1197 27.2559C44.1197 28.2959 43.2878 29.1278 42.2478 29.1278C41.2078 29.1278 40.3759 28.2959 40.3759 27.2559C40.3759 26.424 40.9168 25.7583 41.6239 25.5087V25.592V27.2558C41.6239 27.5887 41.9153 27.8797 42.2478 27.8797C42.5807 27.8797 42.8717 27.5884 42.8717 27.2558V25.592V25.5087C43.5792 25.7583 44.1197 26.4236 44.1197 27.2559Z" fill="#ED712E"/>
<path d="M42.2488 30.792C40.7512 30.792 39.5449 31.9982 39.5449 33.4958C39.5449 34.9934 40.7512 36.1997 42.2488 36.1997C43.7464 36.1997 44.9526 34.9934 44.9526 33.4958C44.9529 31.9985 43.7464 30.792 42.2488 30.792ZM42.4568 31.832V33.4958C42.4568 33.6206 42.3736 33.7039 42.2488 33.7039C42.124 33.7039 42.0407 33.6209 42.0407 33.4961V31.8323C42.0407 31.7075 42.124 31.6242 42.2488 31.6242C42.3736 31.6239 42.4568 31.7072 42.4568 31.832ZM42.2488 35.3681C41.2088 35.3681 40.3768 34.5362 40.3768 33.4962C40.3768 32.6643 40.9177 31.9986 41.6249 31.749V31.8323V33.4961C41.6249 33.829 41.9163 34.12 42.2488 34.12C42.5816 34.12 42.8727 33.8287 42.8727 33.4961V31.8323V31.749C43.6213 31.9986 44.1208 32.7057 44.1208 33.4962C44.1208 34.5362 43.2888 35.3681 42.2488 35.3681Z" fill="#ED712E"/>
<path d="M37.048 27.464H16.248V42.856H37.048V27.464ZM36.6322 42.44H16.6642V27.88H36.6322V42.44Z" fill="#ED712E"/>
<path d="M21.0324 26.632H32.2644C32.8468 26.632 33.3044 26.1744 33.3044 25.592C33.3044 25.0096 32.8468 24.552 32.2644 24.552H21.0324C20.45 24.552 19.9924 25.0096 19.9924 25.592C19.9924 26.1744 20.45 26.632 21.0324 26.632ZM21.0324 25.3839H32.2644C32.3892 25.3839 32.4725 25.4672 32.4725 25.592C32.4725 25.7168 32.3892 25.8 32.2644 25.8H21.0324C20.9076 25.8 20.8243 25.7168 20.8243 25.592C20.8243 25.4672 20.9076 25.3839 21.0324 25.3839Z" fill="#ED712E"/>
</svg>
