<svg width="52" height="52" viewBox="0 0 52 52" fill="none" xmlns="http://www.w3.org/2000/svg">
<mask id="mask0_935_4533" style="mask-type:luminance" maskUnits="userSpaceOnUse" x="5" y="5" width="42" height="42">
<path d="M5 5H47V47H5V5Z" fill="white"/>
</mask>
<g mask="url(#mask0_935_4533)">
<path d="M44.0221 21.6608L41.785 23.0491C37.8051 25.5187 34.3469 28.7431 31.6053 32.5407L31.6052 32.5408C31.4672 32.7319 31.3141 32.9116 31.1474 33.0785L29.942 34.2838C28.2176 36.0082 25.4216 36.0082 23.6971 34.2837L23.6611 34.2478L21.7642 36.1447L15.7852 30.1657L17.682 28.2688L17.6461 28.2327C15.9216 26.5083 15.9216 23.7123 17.6461 21.9878L18.8514 20.7825C19.0182 20.6158 19.198 20.4627 19.3892 20.3247C23.1868 17.583 26.4112 14.1248 28.881 10.1449L30.2692 7.90785C30.4479 7.61984 30.6592 7.3534 30.8988 7.11371C32.6234 5.38925 35.4194 5.38925 37.1439 7.11371L39.93 9.8999L42.0302 12L44.8163 14.7862C46.5408 16.5107 46.5408 19.3067 44.8163 21.0311C44.5766 21.2708 44.3101 21.4821 44.0221 21.6608Z" stroke="#ED712E" stroke-width="2.03125" stroke-miterlimit="10" stroke-linecap="round" stroke-linejoin="round"/>
<path d="M22.8143 37.1948L14.7353 29.1157C14.4364 28.8169 13.952 28.8169 13.6533 29.1157L12.0434 30.7255C11.7446 31.0242 11.7446 31.5087 12.0434 31.8074L20.1225 39.8865C20.4213 40.1853 20.9057 40.1853 21.2044 39.8865L22.8143 38.2767C23.1131 37.9779 23.1131 37.4935 22.8143 37.1948Z" stroke="#ED712E" stroke-width="2.03125" stroke-miterlimit="10" stroke-linecap="round" stroke-linejoin="round"/>
<path d="M29.0179 16.762C28.1915 17.2095 27.3801 17.8084 26.6372 18.5513C23.8131 21.3753 23.0465 25.1875 24.9251 27.0661C26.8037 28.9447 30.6158 28.1782 33.4399 25.3541C36.2641 22.53 37.0306 18.7178 35.152 16.8392C35.1014 16.7886 35.0487 16.7408 34.9952 16.694" stroke="#ED712E" stroke-width="2.03125" stroke-miterlimit="10" stroke-linecap="round" stroke-linejoin="round"/>
<path d="M27.5985 22.0602L30.087 24.5487" stroke="#ED712E" stroke-width="2.03125" stroke-miterlimit="10" stroke-linecap="round" stroke-linejoin="round"/>
<path d="M29.8721 19.7869L32.3606 22.2755" stroke="#ED712E" stroke-width="2.03125" stroke-miterlimit="10" stroke-linecap="round" stroke-linejoin="round"/>
<path d="M13.7364 33.501L14.7292 32.5082" stroke="#ED712E" stroke-width="2.03125" stroke-miterlimit="10" stroke-linecap="round" stroke-linejoin="round"/>
<path d="M16.124 35.8883L17.1135 34.8988" stroke="#ED712E" stroke-width="2.03125" stroke-miterlimit="10" stroke-linecap="round" stroke-linejoin="round"/>
<path d="M18.5107 38.2758L19.4968 37.2897" stroke="#ED712E" stroke-width="2.03125" stroke-miterlimit="10" stroke-linecap="round" stroke-linejoin="round"/>
<path d="M6.25059 44.059C6.09301 44.711 5.97414 45.3723 5.89178 46.038" stroke="#ED712E" stroke-width="2.03125" stroke-miterlimit="10" stroke-linecap="round" stroke-linejoin="round"/>
<path d="M11.8314 35.3935C10.7621 36.2114 9.8044 37.1752 8.98926 38.2463" stroke="#ED712E" stroke-width="2.03125" stroke-miterlimit="10" stroke-linecap="round" stroke-linejoin="round"/>
<path d="M17.1134 41.6409C17.0516 42.8164 17.1079 44.6939 18.0209 46.1797" stroke="#ED712E" stroke-width="2.03125" stroke-miterlimit="10" stroke-linecap="round" stroke-linejoin="round"/>
<path d="M12.1692 42.3509C11.7962 43.5862 11.6726 44.9091 11.8315 46.1797" stroke="#ED712E" stroke-width="2.03125" stroke-miterlimit="10" stroke-linecap="round" stroke-linejoin="round"/>
<path d="M14.3492 38.6941C14.0268 39.0027 13.7318 39.3432 13.4658 39.7091" stroke="#ED712E" stroke-width="2.03125" stroke-miterlimit="10" stroke-linecap="round" stroke-linejoin="round"/>
</g>
</svg>
