<svg width="52" height="52" viewBox="0 0 52 52" fill="none" xmlns="http://www.w3.org/2000/svg">
<path d="M25.9995 5C23.2148 5 20.5432 6.1056 18.5742 8.07472C17.9127 8.73659 18.9051 9.72912 19.567 9.06752C21.2736 7.36064 23.5857 6.40128 25.9995 6.40128C28.4132 6.40128 30.7267 7.36064 32.4336 9.0672C33.112 9.71595 34.0745 8.75189 33.4248 8.07472C31.4558 6.106 28.7839 5 25.9996 5H25.9995ZM25.9995 7.80128C23.9576 7.80128 21.9979 8.61032 20.5539 10.0544C19.9058 10.72 20.8686 11.6997 21.5452 11.0457C22.727 9.86408 24.3283 9.20128 25.9996 9.20128C27.6705 9.20128 29.272 9.86409 30.454 11.0457C31.1174 11.7091 32.1008 10.7188 31.4464 10.0544C30.0027 8.61096 28.0415 7.80128 25.9996 7.80128H25.9995ZM25.9995 10.6013C24.7001 10.6013 23.4511 11.1138 22.5323 12.0329C21.8704 12.6944 22.8632 13.6873 23.5248 13.0254C24.1813 12.3688 25.0707 12.0029 25.9995 12.0029C26.9279 12.0029 27.8188 12.3691 28.4754 13.0257C29.1129 13.6854 30.1404 12.7016 29.4626 12.0329C28.5439 11.1145 27.2985 10.6013 25.9995 10.6013ZM7.8011 14.7972C6.2483 14.7972 4.99982 16.0594 4.99982 17.5985V27.4017C4.99982 28.9601 6.26198 30.2017 7.8011 30.2017H9.00293L8.51887 32.1295C8.40512 32.5739 8.74231 33.0057 9.20106 33.0033H42.7986C43.2574 33.0058 43.5946 32.5739 43.4808 32.1295L42.9968 30.2017H44.1999C45.7389 30.2017 46.9999 28.9601 46.9999 27.4017V17.5985C46.9999 16.0594 45.7555 14.7972 44.1999 14.7972H7.8011ZM7.8011 16.1972H44.1995C44.9873 16.1972 45.5995 16.8353 45.5995 17.5985V27.4017C45.5995 28.166 44.9873 28.8017 44.1995 28.8017H42.7982V25.2976C42.7966 24.9132 42.4854 24.602 42.1007 24.6004H9.89831C9.51362 24.602 9.20238 24.9132 9.20081 25.2976V28.8017H7.80081C7.03268 28.8017 6.40081 28.1895 6.40081 27.4017V17.5985C6.40081 16.8107 7.03768 16.1972 7.80081 16.1972H7.8011ZM11.3027 17.5988C10.1374 17.5988 9.1999 18.5501 9.1999 19.7016C9.1999 20.8531 10.1374 21.7988 11.3027 21.7988C12.468 21.7988 13.4014 20.8532 13.4014 19.7016C13.4014 18.55 12.468 17.5988 11.3027 17.5988ZM18.3014 17.5988C17.1361 17.5988 16.1973 18.5501 16.1973 19.7016C16.1973 20.8531 17.1364 21.7988 18.3014 21.7988C19.4667 21.7988 20.3986 20.8532 20.3986 19.7016C20.3986 18.55 19.4664 17.5988 18.3014 17.5988ZM23.9027 17.6C23.4724 17.6 23.1999 17.9366 23.1999 18.2972V21.1025C23.2014 21.4894 23.5161 21.8016 23.9027 21.8H42.1011C42.4855 21.7984 42.7967 21.4872 42.7983 21.1028V18.2975C42.797 17.9129 42.4858 17.6016 42.1011 17.6H23.9027ZM11.3027 18.9988C11.6811 18.9988 12.0014 19.3066 12.0014 19.7016C12.0014 20.0966 11.6814 20.3988 11.3027 20.3988C10.9243 20.3988 10.5999 20.0963 10.5999 19.7016C10.5999 19.3066 10.9243 18.9988 11.3027 18.9988ZM18.3014 18.9988C18.6799 18.9988 18.9986 19.3066 18.9986 19.7016C18.9986 20.0966 18.6798 20.3988 18.3014 20.3988C17.923 20.3988 17.5986 20.0963 17.5986 19.7016C17.5986 19.3066 17.923 18.9988 18.3014 18.9988ZM24.5998 19H41.3982V20.4H24.5998V19ZM10.6014 26H41.399V28.8013H10.6014V26ZM10.447 30.2013H41.5534L41.9062 31.6013H10.0959L10.447 30.2013ZM16.2083 35.1C16.2083 40.9059 11.5374 45.6 5.70832 45.6C4.77328 45.6116 4.7624 46.9938 5.70832 47C12.289 47 17.6083 41.719 17.6083 35.1C17.6152 34.7059 17.2849 34.3809 16.8652 34.3978C16.4871 34.43 16.2017 34.7394 16.2083 35.1ZM34.3923 35.1C34.3923 41.7075 39.7117 47 46.2923 47C47.2041 47 47.2426 45.629 46.2923 45.6C40.4633 45.6 35.7923 40.8982 35.7923 35.1C35.7992 34.7059 35.4551 34.3809 35.0492 34.3978C34.6654 34.4297 34.3857 34.7391 34.3923 35.1ZM23.9035 36.5C23.9035 39.3872 22.7322 42.0328 20.8342 43.9306C20.1917 44.6078 21.1557 45.5734 21.8214 44.9231C23.972 42.7725 25.2979 39.8094 25.2979 36.4999C25.3048 36.1052 24.9835 35.7762 24.5542 35.8034C24.1604 35.8284 23.8967 36.1412 23.9032 36.4999L23.9035 36.5ZM26.6979 36.5C26.6979 39.7903 28.0307 42.7725 30.1817 44.9232C30.8407 45.5701 31.8192 44.6076 31.1689 43.9307C29.2707 42.0329 28.0995 39.3954 28.0995 36.5001C28.1064 36.1054 27.7886 35.7913 27.3576 35.7979C26.9629 35.841 26.6914 36.1395 26.698 36.5001L26.6979 36.5Z" fill="#ED712E"/>
</svg>
