<svg width="52" height="52" viewBox="0 0 52 52" fill="none" xmlns="http://www.w3.org/2000/svg">
<path d="M15.2305 13.1201C14.8907 13.1201 14.6152 13.3955 14.6152 13.7354V13.7888C14.6152 14.1286 14.8907 14.404 15.2305 14.404C15.5702 14.404 15.8457 14.1286 15.8457 13.7888V13.7354C15.8457 13.3956 15.5702 13.1201 15.2305 13.1201Z" fill="#ED712E"/>
<path d="M42.2798 7.69227L40.039 6.39954C38.452 5.4839 36.6446 5 34.8124 5H27.5011C27.0439 5 26.6719 5.37193 26.6719 5.82909V8.61003C26.6719 9.06727 27.0439 9.4392 27.5011 9.4392H28.9894V12.4158H27.7608C27.1604 12.4158 26.6719 12.9043 26.6719 13.5047V15.0719H26.5428C24.2973 15.0719 22.4705 16.8987 22.4705 19.1442V32.5064C22.4705 32.8462 22.7459 33.1216 23.0857 33.1216C23.4255 33.1216 23.7009 32.8462 23.7009 32.5064V19.1444C23.7009 17.5774 24.9758 16.3025 26.5428 16.3025H27.2872H36.2718H37.0162C38.5832 16.3025 39.858 17.5774 39.858 19.1444V44.1283C39.858 45.0333 39.1218 45.7695 38.2169 45.7695H33.4214C33.0816 45.7695 32.8061 46.0449 32.8061 46.3848C32.8061 46.7246 33.0816 47 33.4214 47H38.2169C39.8003 47 41.0885 45.7118 41.0885 44.1283V19.1444C41.0885 16.8989 39.2617 15.072 37.0162 15.072H36.887V13.5048C36.887 12.9044 36.3985 12.416 35.7982 12.416H34.5696V9.43929H41.812C42.2416 9.43929 42.605 9.16046 42.7162 8.74538C42.8273 8.3303 42.652 7.90711 42.2798 7.69227ZM35.6566 13.6463V15.072H27.9024V13.6463H29.6046H33.9543H35.6566ZM30.2199 12.4159V9.43929H33.3391V12.4159H30.2199ZM33.9543 8.20882H29.6046H27.9024V6.23047H34.8124C36.4291 6.23047 38.0237 6.65752 39.424 7.46537L40.7127 8.20882H33.9543Z" fill="#ED712E"/>
<path d="M31.7805 24.0743C29.151 24.0743 27.0117 26.2136 27.0117 28.8432V32.5063C27.0117 32.8462 27.2872 33.1216 27.627 33.1216C27.9667 33.1216 28.2422 32.8462 28.2422 32.5063V28.8432C28.2422 26.8922 29.8295 25.3048 31.7805 25.3048C33.7316 25.3048 35.3189 26.8922 35.3189 28.8432V33.2285C35.3189 34.4741 34.652 35.6421 33.5785 36.2768C33.286 36.4497 33.1891 36.8271 33.362 37.1195C33.4768 37.3137 33.6818 37.4217 33.8922 37.4217C33.9986 37.4217 34.1064 37.3941 34.2047 37.336C35.6509 36.4808 36.5494 34.907 36.5494 33.2285V28.8432C36.5494 26.2136 34.4101 24.0743 31.7805 24.0743Z" fill="#ED712E"/>
<path d="M28.082 34.2171H21.4611V33.25C21.4611 33.2487 21.4613 33.2474 21.4613 33.2461V26.0624C21.4613 26.0611 21.4611 26.0598 21.4611 26.0585V21.2282C21.4611 20.0489 20.5913 19.0688 19.4594 18.8961V17.8689C19.4594 17.3025 18.9986 16.8417 18.4322 16.8417H18.2078V12.0889C18.2078 11.3747 17.6268 10.7937 16.9126 10.7937H13.5488C12.8346 10.7937 12.2536 11.3747 12.2536 12.0889V16.8416H12.0293C11.4628 16.8416 11.0021 17.3024 11.0021 17.8688V18.8969C9.99192 19.0532 9.16964 19.8604 9.02305 20.8967C8.97547 21.2332 9.20959 21.5444 9.54608 21.592C9.88274 21.6403 10.1938 21.4055 10.2415 21.0691C10.3196 20.5163 10.8001 20.0995 11.3591 20.0995H11.6158C11.6164 20.0995 11.6169 20.0996 11.6174 20.0996H18.8442C18.8448 20.0996 18.8453 20.0995 18.8458 20.0995H19.102C19.7244 20.0995 20.2307 20.6059 20.2307 21.2282V25.4472H10.2305V23.3064C10.2305 22.9666 9.95501 22.6912 9.61523 22.6912C9.27546 22.6912 9 22.9666 9 23.3064V26.0624V33.2461V44.6408C9 45.9416 10.0583 47 11.3592 47H11.5956C11.9353 47 12.2108 46.7246 12.2108 46.3848C12.2108 46.0449 11.9353 45.7695 11.5956 45.7695H11.3592C10.7368 45.7695 10.2305 45.2631 10.2305 44.6408V33.8613H20.2306V34.2171H17.017C14.6389 34.2171 12.7043 36.1518 12.7043 38.5298V39.4603V44.6302C12.7043 45.937 13.7673 47 15.074 47H30.0249C31.3316 47 32.3947 45.937 32.3947 44.6302V39.4603V38.5298C32.3947 36.1518 30.4601 34.2171 28.082 34.2171ZM13.484 12.0889C13.484 12.0531 13.513 12.0242 13.5487 12.0242H16.9125C16.9483 12.0242 16.9773 12.0532 16.9773 12.0889V16.8416H13.484V12.0889ZM18.2288 18.869H12.2324V18.0721H12.8688H17.5925H18.2288V18.869ZM10.2305 32.6308V26.6777H20.2306V32.6308H10.2305ZM13.9348 38.5298C13.9348 36.8302 15.3176 35.4475 17.0171 35.4475H28.082C29.7816 35.4475 31.1643 36.8302 31.1643 38.5298V38.8451H13.9348V38.5298ZM31.1644 44.6302C31.1643 45.2585 30.6532 45.7695 30.025 45.7695H15.0741C14.4459 45.7695 13.9348 45.2585 13.9348 44.6302V40.0756H31.1644V44.6302Z" fill="#ED712E"/>
</svg>
