<svg width="52" height="52" viewBox="0 0 52 52" fill="none" xmlns="http://www.w3.org/2000/svg">
<path d="M32.0643 23.9683C33.9141 23.9683 35.419 22.4634 35.419 20.6135H34.077C34.077 21.7234 33.1739 22.6265 32.064 22.6265C30.954 22.6265 30.051 21.7235 30.051 20.6135H28.7089C28.7095 22.4634 30.2144 23.9683 32.0643 23.9683Z" fill="#ED712E"/>
<path d="M19.9878 23.9683C21.8377 23.9683 23.3425 22.4634 23.3425 20.6135H22.0005C22.0005 21.7234 21.0975 22.6265 19.9875 22.6265C18.8776 22.6265 17.9745 21.7235 17.9745 20.6135H16.6328C16.6328 22.4634 18.1379 23.9683 19.9878 23.9683Z" fill="#ED712E"/>
<path d="M39.0124 14.1306L40.2755 13.6776C39.0293 10.2013 35.7134 7.86536 32.0246 7.86536H31.3935V9.2074H32.0246C35.1487 9.2074 37.957 11.1859 39.0127 14.1305L39.0124 14.1306Z" fill="#ED712E"/>
<path d="M39.445 16.591L40.787 16.5843C40.7847 16.0974 40.7418 15.6084 40.6594 15.1313L39.337 15.3597C39.4066 15.7639 39.443 16.1781 39.445 16.591Z" fill="#ED712E"/>
<path d="M43.4713 16.6281C43.4713 10.3164 38.3366 5.1814 32.0246 5.1814H20.0267C13.715 5.1814 8.58002 10.3161 8.58002 16.6281C8.58002 17.9832 8.8168 19.3091 9.28312 20.5757C8.84291 21.1433 8.58002 21.8548 8.58002 22.627C8.58002 24.4768 10.0849 25.9817 11.9348 25.9817H12.6056V28.6673C11.7914 29.2798 11.2636 30.2539 11.2636 31.3494C11.2636 31.4413 11.2674 31.5333 11.2749 31.625C10.0722 32.1482 9.25123 33.356 9.25123 34.7041C9.25123 36.3442 10.4343 37.713 11.9914 38.0025C12.281 39.5599 13.6498 40.743 15.2898 40.743C15.5948 40.743 15.8975 40.7012 16.1888 40.6203C16.3374 41.0024 16.5533 41.3489 16.8214 41.6463L13.1193 42.2995C11.2668 42.6265 9.92215 44.2292 9.92215 46.1107V46.7816H42.1287V46.1107C42.1287 44.2295 40.784 42.6266 38.9312 42.2998L32.3854 41.1446C31.4217 40.9745 30.7221 40.1408 30.7221 39.162V39.0811C35.721 37.871 39.4447 33.3596 39.4447 27.9947V25.9817H40.1156C41.9655 25.9817 43.4703 24.4768 43.4703 22.6269C43.4703 21.8547 43.2074 21.1432 42.7672 20.5757C43.2336 19.309 43.4706 17.9833 43.4706 16.6281L43.4713 16.6281ZM20.0274 6.52374H32.0253C37.5968 6.52374 42.1297 11.0564 42.1297 16.6281C42.1297 17.6614 41.9736 18.675 41.666 19.6526C41.2023 19.41 40.6756 19.2719 40.1167 19.2719H39.4459V17.9299H38.775C37.2234 17.9299 35.7649 17.3257 34.6678 16.2289L34.4374 15.9985C33.0869 14.648 31.2912 13.9043 29.3813 13.9043H28.7105V15.2463H29.3813C30.9138 15.2463 32.3551 15.8368 33.4473 16.9085C32.956 17.5474 32.1957 17.9302 31.369 17.9302H31.1461C30.2657 17.9302 29.4489 17.4929 28.9605 16.7605L28.2345 15.6718C27.4971 14.565 26.2624 13.9043 24.9326 13.9043H24.0136V15.2463H24.9326C25.813 15.2463 26.6298 15.6836 27.1182 16.416L27.5926 17.1275C27.0715 17.6354 26.364 17.9302 25.6282 17.9302H25.5774C24.4544 17.9302 23.4466 17.3095 22.9472 16.3101L22.5392 15.4939C22.0491 14.5134 21.0637 13.9043 19.9674 13.9043H19.8374C19.3934 13.9043 18.9488 14.0093 18.5513 14.2078L17.975 14.4962L17.3543 14.186C16.9876 14.0026 16.5772 13.9043 16.1673 13.9011L16.093 13.9005H16.0706C14.9137 13.9005 13.8917 14.59 13.4628 15.6622L13.0392 16.7217C12.7525 17.4381 12.6071 18.1929 12.6071 18.9644L12.6074 19.272H11.9365C11.3779 19.272 10.851 19.4101 10.3873 19.6527C10.0797 18.6751 9.92357 17.6612 9.92357 16.6282C9.92357 11.0565 14.4562 6.52383 20.0279 6.52383L20.0274 6.52374ZM11.9362 24.6398C10.8263 24.6398 9.92325 23.7368 9.92325 22.6268C9.92325 21.5169 10.8263 20.6138 11.9362 20.6138H12.6071V24.6397L11.9362 24.6398ZM13.9489 18.9639C13.9489 18.3638 14.0621 17.7768 14.285 17.2194L14.7086 16.1602C14.9321 15.6014 15.466 15.2421 16.0707 15.2421H16.0823L16.1566 15.2427C16.3629 15.2442 16.5695 15.2938 16.7541 15.3861L17.9749 15.9966L19.1513 15.4084C19.3631 15.3025 19.6002 15.2465 19.8373 15.2465H19.9673C20.552 15.2465 21.0775 15.5712 21.3387 16.0938L21.7467 16.91C22.475 18.367 23.9427 19.2721 25.5773 19.2721H25.6281C26.6652 19.2721 27.6642 18.876 28.4225 18.1883C29.1505 18.8772 30.1195 19.2721 31.1461 19.2721H31.3689C32.5819 19.2721 33.7011 18.7283 34.4448 17.8131C35.5072 18.625 36.7665 19.1177 38.1037 19.2414V26.6528H35.4198V27.3237C35.4198 28.8091 35.015 30.2017 34.3104 31.3976L34.2086 30.6855C33.8807 28.3867 31.8817 26.6529 29.5593 26.6529H26.6973V23.969H25.3553V26.6529H24.6824C24.0698 25.8386 23.0957 25.3108 22.0003 25.3108C20.6521 25.3108 19.4441 26.132 18.9212 27.3351C18.8295 27.3276 18.7375 27.3238 18.6455 27.3238C17.7135 27.3238 16.824 27.7199 16.1956 28.3884C15.7139 28.1319 15.1725 27.995 14.6202 27.995C14.3904 27.995 14.1661 28.0182 13.9493 28.0626L13.9489 18.9639ZM38.0145 29.3364H36.5451C36.6409 28.8997 36.7062 28.4514 36.7386 27.9944L38.1042 27.9947C38.1042 28.4497 38.0732 28.8974 38.0145 29.3364ZM25.2879 27.9947H29.5593C31.218 27.9947 32.646 29.2332 32.8804 30.8753L33.1697 32.901C32.8024 33.2832 32.3975 33.6288 31.9614 33.9329L31.5517 31.0651C31.4112 30.0797 30.5546 29.3365 29.5593 29.3365H25.2864C25.3314 29.1174 25.3555 28.8931 25.3555 28.6656C25.3555 28.4358 25.332 28.2114 25.2879 27.9947ZM25.3094 33.9663C25.5444 34.0101 25.7835 34.0333 26.0264 34.0333C27.071 34.0333 28.053 33.6265 28.7916 32.888L29.1847 32.4948L28.2359 31.5459L27.8427 31.9391C27.3578 32.4243 26.7127 32.6916 26.0265 32.6916C25.77 32.6916 25.5195 32.6533 25.2775 32.5793C25.1554 31.9658 24.8922 31.3878 24.508 30.8931C24.5692 30.824 24.627 30.7523 24.6824 30.6786H29.5594C29.8911 30.6786 30.1766 30.9264 30.2236 31.2546L30.7085 34.6491C29.6906 35.1151 28.5591 35.3754 27.3686 35.3754H25.3594C25.2317 35.28 25.0973 35.1923 24.9557 35.1151C25.1319 34.753 25.2499 34.3671 25.3094 33.9663ZM26.4202 36.7172H27.3685C27.594 36.7172 27.8177 36.709 28.0394 36.6934V38.0593H26.6974C26.6974 37.5842 26.5992 37.1298 26.4202 36.7172ZM29.3811 36.4998C29.826 36.4023 30.2592 36.2732 30.6782 36.115L31.3671 37.4931C30.7316 37.7166 30.0671 37.8779 29.3812 37.9696L29.3815 36.4999L29.3811 36.4998ZM31.897 35.5512C32.3366 35.3083 32.755 35.0312 33.1482 34.7233L34.2965 35.8718C33.7718 36.2894 33.2051 36.6562 32.603 36.9637L31.897 35.5512ZM36.142 30.6785H37.7398C37.5628 31.3172 37.3245 31.9306 37.0311 32.5119L35.7132 31.6332C35.8733 31.3245 36.0164 31.0059 36.142 30.6785ZM15.2908 39.4011C14.1809 39.4011 13.2778 38.4981 13.2778 37.3881V36.7172H12.6069C11.497 36.7172 10.5939 35.8142 10.5939 34.7042C10.5939 33.7629 11.2607 32.9356 12.1794 32.7372L12.8782 32.5863L12.6835 31.8986C12.6327 31.7195 12.6069 31.5347 12.6069 31.3495C12.6069 30.2396 13.5099 29.3365 14.6199 29.3365C15.0926 29.3365 15.5522 29.504 15.9141 29.8084L16.515 30.3136L16.9204 29.6412C17.2886 29.0304 17.9337 28.6656 18.6455 28.6656C18.8304 28.6656 19.0152 28.6915 19.1949 28.7422L19.8823 28.9367L20.0332 28.2382C20.232 27.3195 21.059 26.6527 22.0003 26.6527C23.1102 26.6527 24.0133 27.5557 24.0133 28.6656C24.0133 29.3151 23.6964 29.9285 23.1657 30.3063L22.4791 30.7953L23.1097 31.3547C23.6839 31.8646 24.0133 32.5961 24.0133 33.3624C24.0133 33.9741 23.8122 34.5507 23.4317 35.0295L22.7733 35.8585L23.804 36.1002C24.7172 36.3141 25.3554 37.1197 25.3554 38.0592C25.3554 39.1691 24.4523 40.0722 23.3424 40.0722C22.9416 40.0722 22.5546 39.9547 22.2232 39.7324L21.5032 39.2496L21.2163 40.0676C20.9336 40.8729 20.1702 41.414 19.3165 41.414C18.2901 41.414 17.4306 40.6462 17.3165 39.6277L17.2016 38.5987L16.3093 39.1239C16.0014 39.3053 15.6492 39.401 15.2908 39.401L15.2908 39.4011ZM32.1529 42.4663L38.6987 43.6215C39.681 43.7948 40.4444 44.5173 40.6975 45.44L11.3546 45.4397C11.6076 44.5167 12.3711 43.7945 13.3533 43.6212L18.6424 42.6881C18.8603 42.7325 19.0858 42.7562 19.3165 42.7562C20.481 42.7562 21.5448 42.1518 22.1506 41.1962C22.5284 41.3399 22.9309 41.4142 23.3421 41.4142C24.7149 41.4142 25.8972 40.5848 26.416 39.4012H28.039C28.4942 39.4012 28.9432 39.3736 29.3848 39.3214C29.4576 40.8829 30.599 42.1921 32.1529 42.4663ZM35.2897 34.9672L34.1441 33.8215C34.4572 33.4951 34.7471 33.1463 35.0109 32.7777L36.3468 33.6686C36.0305 34.1305 35.6765 34.565 35.2897 34.9672ZM40.1163 24.6392H39.4454V20.6133H40.1163C41.2262 20.6133 42.1293 21.5163 42.1293 22.6263C42.1293 23.7362 41.2263 24.6393 40.1163 24.6393V24.6392Z" fill="#ED712E"/>
<path d="M18.6454 33.3624C18.6454 34.4723 19.5485 35.3754 20.6584 35.3754C21.7683 35.3754 22.6714 34.4723 22.6714 33.3624C22.6714 32.2525 21.7684 31.3494 20.6584 31.3494C19.5485 31.3494 18.6454 32.2524 18.6454 33.3624ZM20.6584 32.6915C21.0284 32.6915 21.3293 32.9924 21.3293 33.3624C21.3293 33.7323 21.0284 34.0332 20.6584 34.0332C20.2885 34.0332 19.9876 33.7323 19.9876 33.3624C19.9876 32.9924 20.2885 32.6915 20.6584 32.6915Z" fill="#ED712E"/>
<path d="M13.2782 34.7041C13.2782 35.0747 12.9779 35.3753 12.6074 35.3753C12.2368 35.3753 11.9365 35.0747 11.9365 34.7041C11.9365 34.3335 12.2368 34.0332 12.6074 34.0332C12.9779 34.0332 13.2782 34.3335 13.2782 34.7041Z" fill="#ED712E"/>
<path d="M15.2903 31.3492C15.2903 31.7198 14.9899 32.0201 14.6194 32.0201C14.2488 32.0201 13.9482 31.7198 13.9482 31.3492C13.9482 30.9787 14.2488 30.6783 14.6194 30.6783C14.9899 30.6783 15.2903 30.9787 15.2903 31.3492Z" fill="#ED712E"/>
<path d="M16.6326 36.0456C16.6326 36.4162 16.3322 36.7165 15.9617 36.7165C15.5911 36.7165 15.2908 36.4162 15.2908 36.0456C15.2908 35.6751 15.5911 35.3748 15.9617 35.3748C16.3322 35.3748 16.6326 35.6751 16.6326 36.0456Z" fill="#ED712E"/>
<path d="M19.3165 30.6785C19.3165 31.049 19.0162 31.3493 18.6457 31.3493C18.2751 31.3493 17.9748 31.049 17.9748 30.6785C17.9748 30.3079 18.2751 30.0076 18.6457 30.0076C19.0162 30.0076 19.3165 30.3079 19.3165 30.6785Z" fill="#ED712E"/>
<path d="M19.9873 39.4004C19.9873 39.7709 19.6867 40.0713 19.3162 40.0713C18.9456 40.0713 18.6453 39.7709 18.6453 39.4004C18.6453 39.0298 18.9456 38.7295 19.3162 38.7295C19.6867 38.7295 19.9873 39.0298 19.9873 39.4004Z" fill="#ED712E"/>
<path d="M21.9997 38.0588C21.9997 38.4293 21.6994 38.7296 21.3288 38.7296C20.9583 38.7296 20.658 38.4293 20.658 38.0588C20.658 37.6882 20.9583 37.3876 21.3288 37.3876C21.6994 37.3876 21.9997 37.6882 21.9997 38.0588Z" fill="#ED712E"/>
</svg>
