<svg width="52" height="52" viewBox="0 0 52 52" fill="none" xmlns="http://www.w3.org/2000/svg">
<path d="M48.0098 23.1031C47.6485 23.0147 47.2691 23.0362 46.9203 23.1649C46.5711 23.2936 46.2687 23.5235 46.0509 23.8249C45.6571 24.3609 45.2595 24.8677 44.8579 25.3446H44.8583C44.4335 24.695 43.8081 24.2016 43.0772 23.9405C42.8742 23.2083 42.4118 22.5745 41.776 22.1577C41.1405 21.7414 40.375 21.57 39.6222 21.6762C38.8698 21.782 38.1812 22.1581 37.6855 22.7341C37.248 23.2439 36.9848 23.8803 36.9344 24.5501C36.1635 24.9144 35.5085 25.486 35.0431 26.2008C34.7245 26.1706 34.4033 26.1827 34.0878 26.2361C33.4261 24.9981 32.4687 23.9426 31.3005 23.1639C31.9713 22.6047 32.5365 21.9306 32.9704 21.1727C33.6314 21.1112 34.235 20.7705 34.6288 20.2358C35.023 19.7014 35.1699 19.0239 35.0324 18.3743C34.8953 17.7244 34.487 17.1642 33.9103 16.8348C33.749 15.1139 32.9844 13.5055 31.7518 12.294C30.5192 11.0826 28.898 10.3456 27.1747 10.2138C27.1425 10.2091 27.1102 10.2068 27.0776 10.2068C26.923 10.1974 26.7681 10.1903 26.6122 10.1903V10.1906C24.786 10.1906 23.0257 10.8722 21.6758 12.1018C20.3259 13.3314 19.4831 15.0205 19.313 16.8386C18.739 17.1692 18.3327 17.7288 18.1966 18.3774C18.0608 19.0256 18.2073 19.7011 18.6002 20.2348C18.9927 20.7684 19.5943 21.1092 20.254 21.1721C20.6881 21.9309 21.2544 22.6064 21.9262 23.1659C21.0447 23.7517 20.2805 24.4974 19.6739 25.3648C18.9171 25.0324 18.0881 24.8987 17.2651 24.9753C16.8911 24.2729 16.1739 23.8202 15.3788 23.7846C14.5837 23.7493 13.8289 24.1365 13.3941 24.8032C12.9589 25.4696 12.9085 26.3165 13.261 27.0299C12.7549 27.0632 12.2632 27.2121 11.8237 27.4655C11.0793 26.7873 10.0916 26.4409 9.08687 26.505C8.08212 26.5692 7.14646 27.039 6.49452 27.8066C5.84291 28.5741 5.53072 29.5732 5.63017 30.5754C5.10895 30.7643 4.57897 30.9733 4.04093 31.2018H4.0406C3.69177 31.351 3.40209 31.6118 3.21726 31.9431C3.03243 32.2748 2.96253 32.6583 3.01899 33.0337C3.09998 33.565 3.42058 34.0297 3.88832 34.2945C4.2684 34.5113 4.71939 34.5674 5.1411 34.4508L5.89118 39.212C5.89252 39.2215 5.89454 39.2309 5.89622 39.241H5.89656C6.34822 41.4284 7.53922 43.3936 9.26921 44.8063C10.9992 46.2195 13.1628 46.9938 15.3962 46.9998H37.3245C39.685 46.9957 41.9634 46.1321 43.7338 44.5701C45.5041 43.0085 46.645 40.8553 46.9435 38.5137L48.2034 27.5328H48.2037C48.2141 27.4411 48.2051 27.348 48.1772 27.2599C48.4927 26.8735 48.8116 26.4702 49.1343 26.0498H49.1346C49.4344 25.6405 49.55 25.1243 49.4528 24.6263C49.3913 24.2576 49.221 23.9159 48.9639 23.6447C48.7071 23.3732 48.3748 23.185 48.0101 23.1033L48.0098 23.1031ZM35.2317 27.5632C35.5267 27.6335 35.8319 27.4933 35.9703 27.2235C36.3551 26.4694 37.0148 25.892 37.8133 25.6108C38.0966 25.5106 38.2763 25.2317 38.2501 24.9323C38.1967 24.3062 38.4706 23.6973 38.9743 23.3219C39.4781 22.9465 40.1405 22.8588 40.7245 23.0893C41.3089 23.3202 41.7324 23.8367 41.844 24.455C41.8487 24.4823 41.8527 24.5091 41.8557 24.5364C41.8876 24.817 42.0947 25.0458 42.3706 25.106C43.0659 25.2589 43.6455 25.7357 43.9299 26.3883C42.2002 28.2239 40.3858 29.5482 38.4357 30.4029C35.5459 31.6695 32.34 31.9178 28.6343 31.1627L28.0364 31.0404L28.0411 30.4919C28.0411 30.4724 28.0405 30.4529 28.0391 30.4334V30.4338C27.9921 29.8373 28.1893 29.2472 28.5855 28.7989C28.9818 28.3509 29.543 28.0827 30.1408 28.0558C30.7383 28.0293 31.3214 28.2467 31.7558 28.6581C31.897 28.7915 32.0906 28.856 32.2838 28.8338C32.477 28.8116 32.6508 28.7051 32.758 28.5428C33.0752 28.0622 33.5601 27.7171 34.118 27.5743C34.4826 27.4792 34.8651 27.4755 35.2313 27.5632L35.2317 27.5632ZM21.2371 20.218C21.1252 19.9956 20.8977 19.8554 20.6487 19.8551C20.6258 19.8551 20.603 19.8564 20.5801 19.8588C20.5452 19.8625 20.5095 19.8642 20.4743 19.8645C19.9792 19.8648 19.5568 19.5063 19.4772 19.0176C19.3975 18.529 19.6838 18.0545 20.1536 17.8979C20.4141 17.8108 20.5935 17.5712 20.6033 17.297C20.6426 16.1222 21.0271 14.9849 21.7083 14.0268C22.3898 13.069 23.3381 12.333 24.435 11.9106C24.147 12.5985 24.1984 13.3816 24.5731 14.0261C24.7892 14.4301 25.1091 14.7685 25.4999 15.007C25.8908 15.2453 26.3381 15.3747 26.7957 15.3817C26.8828 15.3817 26.9698 15.377 27.0562 15.3676C27.5707 15.3085 28.0307 15.0201 28.3076 14.5829C28.6067 14.1239 28.6823 13.5546 28.513 13.0337C28.3695 12.5649 28.0213 12.1865 27.5659 12.0043C27.1462 11.8417 26.6751 11.8787 26.2852 12.1042C26.1316 12.1902 26.0187 12.3344 25.972 12.5044C25.9253 12.6741 25.9488 12.8556 26.0369 13.0082C26.1249 13.1607 26.2704 13.2716 26.4408 13.316C26.6112 13.3607 26.7927 13.3351 26.9439 13.2451C26.9899 13.2185 27.0454 13.2145 27.0944 13.2343C27.1781 13.275 27.2389 13.3509 27.2605 13.4413C27.3055 13.5855 27.2836 13.7421 27.2013 13.8684C27.1385 13.9719 27.0319 14.0418 26.912 14.0583C26.3454 14.1201 25.9182 13.7354 25.7243 13.3865C25.6396 13.234 25.3926 12.6996 25.77 12.2198C26.0977 11.8226 26.5708 11.5729 27.0837 11.5268C28.5552 11.6371 29.9345 12.2867 30.9564 13.3509C31.9784 14.4156 32.5712 15.8203 32.6206 17.2949C32.6307 17.5705 32.8112 17.8104 33.0729 17.8965C33.5434 18.0524 33.8311 18.5262 33.7521 19.0155C33.6735 19.5045 33.2514 19.8641 32.7561 19.8641C32.7208 19.8641 32.6858 19.8624 32.6509 19.8584C32.3766 19.8278 32.1125 19.971 31.9885 20.217C31.4958 21.2026 30.7417 22.0337 29.8088 22.6198C29.7641 22.6403 29.7218 22.6662 29.6825 22.6961C28.7526 23.2445 27.6927 23.5335 26.6129 23.5339C25.5335 23.5339 24.4732 23.2452 23.543 22.6971C23.5047 22.6675 23.463 22.6423 23.419 22.6218C22.4848 22.0361 21.73 21.2043 21.237 20.218L21.2371 20.218ZM23.1244 23.9758C25.3044 25.144 27.9239 25.1433 30.1032 23.9742C31.2458 24.615 32.1914 25.5557 32.8387 26.6945C32.5699 26.8532 32.3226 27.0464 32.1031 27.2685C31.3641 26.8085 30.4807 26.6384 29.6237 26.7906C28.7664 26.9429 27.9962 27.407 27.4608 28.0936C26.9255 28.7801 26.663 29.6404 26.7242 30.5088L26.7218 30.7723C25.915 30.6079 25.1336 30.451 24.3772 30.3018H24.3775C24.6043 29.4902 24.3825 28.6191 23.7955 28.0149L23.7114 27.9175C23.454 27.6069 23.2581 27.2504 23.1341 26.8666C22.8616 26.0856 22.2002 25.5042 21.3906 25.3339C21.895 24.7942 22.4798 24.3361 23.1244 23.9758ZM8.82816 27.8667C9.26806 27.7716 9.7258 27.8032 10.1482 27.9575C10.5706 28.1117 10.941 28.3829 11.2158 28.7388C11.3271 28.882 11.4924 28.9727 11.6726 28.9898C11.853 29.0073 12.0325 28.9495 12.1689 28.8302C12.4246 28.6074 12.7335 28.4538 13.0655 28.3836C13.2856 28.3365 13.5121 28.3278 13.7356 28.3574C14.1164 28.4081 14.4931 28.2357 14.7028 27.9135C14.7041 27.9114 14.7088 27.904 14.7102 27.902C14.9615 27.5142 14.9148 27.0047 14.5969 26.6694C14.3983 26.4563 14.3109 26.1623 14.3603 25.8753C14.4101 25.588 14.5912 25.3406 14.8496 25.2065C15.1084 25.0721 15.4149 25.0664 15.6783 25.1911C15.9418 25.3157 16.1317 25.5564 16.1918 25.8413C16.2281 26.0124 16.3306 26.1619 16.4771 26.2574C16.6237 26.3525 16.8021 26.3857 16.9728 26.3495C17.6009 26.216 18.2532 26.254 18.8615 26.4604C18.6524 26.8189 18.5429 27.2266 18.5432 27.6419C18.5432 28.0055 18.8379 28.3006 19.2019 28.3006C19.5655 28.3006 19.8605 28.0055 19.8605 27.6419C19.8605 27.1324 20.2282 26.6979 20.7302 26.6129C21.2323 26.5282 21.7226 26.8179 21.8899 27.2988C22.069 27.8385 22.3483 28.3399 22.7132 28.7761L22.812 28.8907C22.8228 28.9031 22.8339 28.9152 22.8453 28.927C23.139 29.222 23.2294 29.6633 23.0758 30.0505C16.9798 28.9065 12.31 28.4821 6.93053 30.1382H6.93086C6.94733 29.6018 7.14325 29.0866 7.48738 28.675C7.83116 28.2633 8.30332 27.9786 8.8279 27.8667H8.82816ZM4.53438 33.1458C4.42046 33.0816 4.34249 32.9687 4.32234 32.8393C4.29444 32.6606 4.39089 32.4858 4.55691 32.4136C8.16821 30.8765 11.4585 30.2483 15.2247 30.3754C17.7048 30.4594 20.3022 30.8613 23.2745 31.4293L23.2786 31.43C24.5243 31.6679 25.8363 31.9354 27.233 32.2204L27.2387 32.2214L27.4356 32.2617L28.3715 32.4526L28.3719 32.4533C29.7655 32.746 31.185 32.8975 32.6089 32.9053C37.3929 32.9053 41.4536 31.0072 45.0635 27.1002C45.0847 27.0807 45.1045 27.0595 45.123 27.0373C45.8297 26.2631 46.4941 25.4508 47.1128 24.6043C47.2482 24.4161 47.4848 24.3294 47.7099 24.3852C47.9401 24.4359 48.1166 24.6218 48.1549 24.8547C48.1865 24.9894 48.1626 25.1312 48.0887 25.2482C45.1284 29.1081 42.5676 31.3913 39.7854 32.6512C36.8385 33.9857 33.4856 34.275 28.9137 33.5885C26.8802 33.2833 25.037 32.9429 23.2549 32.6139C19.7602 31.969 16.6524 31.3951 13.5412 31.3951C10.7331 31.3951 7.92237 31.8628 4.82459 33.1681C4.72948 33.2074 4.62127 33.199 4.53323 33.1459L4.53438 33.1458ZM45.6363 38.356C45.3772 40.3784 44.3905 42.2374 42.8611 43.5857C41.3317 44.934 39.3638 45.6793 37.3249 45.6827H15.3966C13.469 45.6773 11.6015 45.0099 10.1077 43.7917C8.6136 42.5736 7.5839 40.8788 7.19075 38.9915L6.40672 34.0192C6.40404 34.0014 6.4 33.9839 6.39563 33.9664C12.0683 31.8903 16.7193 32.7476 23.0158 33.91C24.8087 34.241 26.6631 34.5831 28.718 34.8919C30.2276 35.1299 31.7529 35.2549 33.281 35.2663C35.9627 35.2663 38.2301 34.8019 40.3288 33.8515C42.5182 32.8602 44.5604 31.3036 46.7135 28.9555L45.6363 38.356Z" fill="#ED712E"/>
<path d="M23.7453 17.1869C23.7453 16.7857 23.5037 16.4237 23.1327 16.2702C22.762 16.1166 22.3352 16.2013 22.0513 16.4853C21.7677 16.7689 21.6826 17.1957 21.8362 17.5667C21.9898 17.9373 22.3517 18.1793 22.753 18.1793C23.3007 18.1786 23.7446 17.7347 23.7453 17.1869ZM22.428 17.1869C22.428 17.0555 22.5073 16.9369 22.6286 16.8865C22.7503 16.8361 22.8901 16.864 22.9828 16.9571C23.0759 17.0498 23.1038 17.1899 23.0534 17.3113C23.003 17.4329 22.8844 17.5119 22.753 17.5119C22.5735 17.5116 22.4284 17.3664 22.428 17.1869Z" fill="#ED712E"/>
<path d="M30.4765 18.1797C30.8778 18.1797 31.2397 17.9377 31.3933 17.567C31.5469 17.1964 31.4618 16.7692 31.1782 16.4856C30.8942 16.2017 30.4674 16.117 30.0968 16.2706C29.7258 16.4241 29.4842 16.7861 29.4842 17.1873C29.4848 17.7351 29.9288 18.179 30.4765 18.1797ZM30.4765 16.8624C30.6079 16.8624 30.7266 16.9413 30.7766 17.063C30.827 17.1843 30.7991 17.3244 30.7064 17.4172C30.6133 17.5103 30.4735 17.5382 30.3519 17.4878C30.2305 17.4374 30.1512 17.3187 30.1512 17.1873C30.1516 17.0079 30.2967 16.8624 30.4765 16.8624Z" fill="#ED712E"/>
<path d="M23.5183 19.8213C23.5244 20.9108 24.1088 21.9149 25.0535 22.4579C25.9978 23.0007 27.1598 23.0007 28.1042 22.4579C29.0488 21.9149 29.6336 20.9108 29.6393 19.8213C29.6393 19.4576 29.3446 19.1626 28.9807 19.1626C28.617 19.1626 28.322 19.4577 28.322 19.8213C28.3176 20.4413 27.9842 21.0119 27.4469 21.3204C26.9092 21.6289 26.2485 21.6289 25.7108 21.3204C25.1734 21.0119 24.8401 20.4413 24.8357 19.8213C24.8357 19.4576 24.5406 19.1626 24.177 19.1626C23.8131 19.1626 23.5183 19.4577 23.5183 19.8213Z" fill="#ED712E"/>
<path d="M43.954 15.2012C43.954 15.7842 44.1856 16.3434 44.5979 16.7557C45.0103 17.1681 45.5695 17.4 46.1525 17.4C46.7355 17.4 47.2947 17.1681 47.7071 16.7561C48.1194 16.3437 48.3509 15.7845 48.3509 15.2015C48.3509 14.6185 48.1194 14.0593 47.7071 13.6469C47.2947 13.2346 46.7355 13.0031 46.1525 13.0031C45.5694 13.0037 45.0109 13.2356 44.5986 13.6476C44.1866 14.0596 43.9547 14.6184 43.954 15.2012ZM47.0337 15.2012C47.0337 15.5577 46.8189 15.879 46.4896 16.0154C46.1606 16.1519 45.7815 16.0766 45.5295 15.8245C45.2775 15.5725 45.2022 15.1934 45.3383 14.8641C45.4747 14.5351 45.796 14.3204 46.1525 14.3204C46.6388 14.3207 47.033 14.7149 47.0337 15.2012Z" fill="#ED712E"/>
<path d="M7.85862 18.2811C7.85862 18.8642 8.09016 19.4233 8.50251 19.8353C8.91451 20.2477 9.4737 20.4792 10.0567 20.4792C10.6398 20.4792 11.199 20.2477 11.6113 19.8353C12.0236 19.423 12.2552 18.8638 12.2552 18.2808C12.2552 17.698 12.0236 17.1389 11.6113 16.7265C11.199 16.3142 10.6398 16.0826 10.0567 16.0826C9.47401 16.0833 8.91511 16.3152 8.50311 16.7272C8.09076 17.1395 7.85929 17.6981 7.85862 18.2811ZM10.9379 18.2811C10.9379 18.6373 10.7232 18.9586 10.3942 19.095C10.0648 19.2315 9.68576 19.1558 9.43407 18.9041C9.18203 18.6521 9.10641 18.273 9.24285 17.944C9.37928 17.6147 9.70056 17.4 10.0568 17.4C10.543 17.4006 10.9372 17.7945 10.9379 18.2811Z" fill="#ED712E"/>
<path d="M13.9346 11.3574C13.9346 11.8043 14.112 12.2332 14.4279 12.5491C14.7442 12.8653 15.1726 13.0427 15.6196 13.0427C16.0666 13.0427 16.4954 12.8653 16.8113 12.5491C17.1272 12.2332 17.305 11.8047 17.305 11.3577C17.305 10.9108 17.1276 10.4819 16.8113 10.166C16.4954 9.8498 16.0666 9.67236 15.6196 9.67236C15.173 9.67304 14.7445 9.85047 14.4286 10.1664C14.1127 10.4823 13.9349 10.9107 13.9346 11.3574ZM15.9875 11.3574C15.9875 11.5063 15.8978 11.6403 15.7604 11.6975C15.6229 11.7543 15.465 11.723 15.3595 11.6178C15.2543 11.5126 15.223 11.3544 15.2798 11.2169C15.3366 11.0795 15.471 10.9897 15.6196 10.9897C15.8225 10.9901 15.9872 11.1544 15.9875 11.3574Z" fill="#ED712E"/>
<path d="M39.9727 13.7483C39.9727 14.2224 40.2583 14.6496 40.6962 14.831C41.1341 15.0122 41.6381 14.912 41.9732 14.577C42.3086 14.2416 42.4088 13.7375 42.2273 13.2996C42.0458 12.8617 41.6187 12.5764 41.1445 12.5764C40.4976 12.5771 39.9733 13.1014 39.9727 13.7483ZM41.29 13.7483C41.29 13.8071 41.2547 13.8602 41.2002 13.8827C41.1461 13.9052 41.0833 13.8928 41.0416 13.8514C41.0003 13.8098 40.9875 13.7473 41.01 13.6928C41.0325 13.6384 41.0856 13.6031 41.1444 13.6031C41.2248 13.6031 41.29 13.6679 41.29 13.7483Z" fill="#ED712E"/>
<path d="M32.456 7.17172C32.456 7.64555 32.7416 8.07306 33.1795 8.25449C33.6174 8.43563 34.1215 8.33548 34.4566 8.0001C34.7919 7.66506 34.8921 7.16097 34.7103 6.72307C34.5288 6.28519 34.1017 5.99953 33.6275 5.99988C32.9806 6.00055 32.4567 6.52482 32.456 7.17172ZM33.7733 7.17172C33.7733 7.23052 33.738 7.28362 33.6836 7.30614C33.6291 7.32865 33.5666 7.31622 33.5249 7.27455C33.4833 7.23288 33.4708 7.17037 33.4933 7.11593C33.5159 7.06148 33.569 7.0262 33.6278 7.0262C33.7081 7.0262 33.7733 7.0914 33.7733 7.17172Z" fill="#ED712E"/>
</svg>
