<svg width="52" height="52" viewBox="0 0 52 52" fill="none" xmlns="http://www.w3.org/2000/svg">
<path d="M34.2793 7.06806C32.0567 5.73447 29.1163 5 25.9996 5C22.8829 5 19.9425 5.73447 17.7199 7.06806C15.3853 8.46876 14.0996 10.3694 14.0996 12.42V39.58C14.0996 41.6307 15.3853 43.5314 17.7199 44.9321C19.9425 46.2656 22.8829 47 25.9996 47C29.1163 47 32.0567 46.2656 34.2793 44.9321C36.6139 43.5314 37.8996 41.6307 37.8996 39.58V12.42C37.8996 10.3694 36.6139 8.46876 34.2793 7.06806ZM33.559 43.7316C31.5509 44.9365 28.8662 45.6 25.9996 45.6C23.133 45.6 20.4483 44.9365 18.4402 43.7316C16.555 42.6006 15.5123 41.1367 15.5002 39.6069C16.1378 40.33 16.8872 40.9461 17.7199 41.4319C19.9425 42.7655 22.8829 43.5 25.9996 43.5C29.1163 43.5 32.0567 42.7655 34.2793 41.4319C35.112 40.9461 35.8614 40.33 36.499 39.6069C36.4869 41.1367 35.4442 42.6006 33.559 43.7316ZM36.4996 36.08C36.4996 37.6194 35.4553 39.0938 33.5591 40.2315C31.5509 41.4364 28.8662 42.1 25.9996 42.1C23.133 42.1 20.4483 41.4364 18.4401 40.2315C16.5439 39.0938 15.4996 37.6194 15.4996 36.08V22.1062C16.1373 22.8296 16.887 23.446 17.7199 23.9319C19.9425 25.2655 22.8829 26 25.9996 26C29.1163 26 32.0567 25.2655 34.2793 23.9319C35.1123 23.446 35.8619 22.8296 36.4996 22.1062V36.08ZM36.4996 18.58C36.4996 20.1194 35.4553 21.5938 33.5591 22.7315C31.5509 23.9364 28.8662 24.6 25.9996 24.6C23.133 24.6 20.4483 23.9364 18.4401 22.7315C16.5439 21.5938 15.4996 20.1194 15.4996 18.58V15.9462C16.1374 16.6696 16.887 17.2859 17.7199 17.7719C19.9424 19.1054 22.8829 19.8399 25.9996 19.8399C29.1163 19.8399 32.0568 19.1054 34.2793 17.7719C35.1122 17.2859 35.8618 16.6696 36.4996 15.9462V18.58ZM33.5591 16.5715C31.5509 17.7764 28.8662 18.44 25.9996 18.44C23.133 18.44 20.4483 17.7764 18.4401 16.5715C16.5439 15.4338 15.4996 13.9595 15.4996 12.42C15.4996 10.8805 16.5439 9.40624 18.4401 8.26848C20.4483 7.0636 23.133 6.4 25.9996 6.4C28.8662 6.4 31.5509 7.0636 33.5591 8.26848C35.4553 9.40624 36.4996 10.8806 36.4996 12.42C36.4996 13.9594 35.4553 15.4338 33.5591 16.5715Z" fill="#ED712E"/>
<path d="M26.0004 9.27002C22.8079 9.27002 20.4004 10.6242 20.4004 12.42C20.4004 14.2159 22.8079 15.57 26.0004 15.57C29.1929 15.57 31.6004 14.2158 31.6004 12.42C31.6004 10.6243 29.1929 9.27002 26.0004 9.27002ZM26.0004 14.17C23.3982 14.17 21.8004 13.1507 21.8004 12.42C21.8004 11.6893 23.3982 10.67 26.0004 10.67C28.6026 10.67 30.2004 11.6892 30.2004 12.42C30.2004 13.1508 28.6026 14.17 26.0004 14.17Z" fill="#ED712E"/>
<path d="M25.3 28.1H26.7V29.5H25.3V28.1Z" fill="#ED712E"/>
<path d="M25.3 30.9H26.7V32.3H25.3V30.9Z" fill="#ED712E"/>
<path d="M25.3 33.7H26.7V35.1H25.3V33.7Z" fill="#ED712E"/>
<path d="M25.3 36.5H26.7V37.9H25.3V36.5Z" fill="#ED712E"/>
<path d="M25.3 39.3H26.7V40.7H25.3V39.3Z" fill="#ED712E"/>
<path d="M28.0996 28.1H29.4996V29.5H28.0996V28.1Z" fill="#ED712E"/>
<path d="M28.0996 30.9H29.4996V32.3H28.0996V30.9Z" fill="#ED712E"/>
<path d="M28.0996 33.7H29.4996V35.1H28.0996V33.7Z" fill="#ED712E"/>
<path d="M28.0996 36.5H29.4996V37.9H28.0996V36.5Z" fill="#ED712E"/>
<path d="M28.0996 39.3H29.4996V40.7H28.0996V39.3Z" fill="#ED712E"/>
<path d="M30.9004 28.1H32.3004V29.5H30.9004V28.1Z" fill="#ED712E"/>
<path d="M30.9004 30.9H32.3004V32.3H30.9004V30.9Z" fill="#ED712E"/>
<path d="M30.9004 33.7H32.3004V35.1H30.9004V33.7Z" fill="#ED712E"/>
<path d="M30.9004 36.5H32.3004V37.9H30.9004V36.5Z" fill="#ED712E"/>
<path d="M33.7 28.1H35.1V29.5H33.7V28.1Z" fill="#ED712E"/>
<path d="M33.7 25.3H35.1V26.7H33.7V25.3Z" fill="#ED712E"/>
<path d="M33.7 30.9H35.1V32.3H33.7V30.9Z" fill="#ED712E"/>
<path d="M33.7 33.7H35.1V35.1H33.7V33.7Z" fill="#ED712E"/>
<path d="M22.5 28.1H23.9V29.5H22.5V28.1Z" fill="#ED712E"/>
<path d="M22.5 30.9H23.9V32.3H22.5V30.9Z" fill="#ED712E"/>
<path d="M22.5 33.7H23.9V35.1H22.5V33.7Z" fill="#ED712E"/>
<path d="M22.5 36.5H23.9V37.9H22.5V36.5Z" fill="#ED712E"/>
<path d="M22.5 39.3H23.9V40.7H22.5V39.3Z" fill="#ED712E"/>
<path d="M19.7 28.1H21.1V29.5H19.7V28.1Z" fill="#ED712E"/>
<path d="M19.7 30.9H21.1V32.3H19.7V30.9Z" fill="#ED712E"/>
<path d="M19.7 33.7H21.1V35.1H19.7V33.7Z" fill="#ED712E"/>
<path d="M19.7 36.5H21.1V37.9H19.7V36.5Z" fill="#ED712E"/>
<path d="M16.9004 28.1H18.3004V29.5H16.9004V28.1Z" fill="#ED712E"/>
<path d="M16.9004 25.3H18.3004V26.7H16.9004V25.3Z" fill="#ED712E"/>
<path d="M16.9004 30.9H18.3004V32.3H16.9004V30.9Z" fill="#ED712E"/>
<path d="M16.9004 33.7H18.3004V35.1H16.9004V33.7Z" fill="#ED712E"/>
<path d="M42.8 37.9C42.4288 37.8995 42.073 37.7519 41.8105 37.4894C41.5481 37.227 41.4004 36.8711 41.4 36.5H40C40 37.0537 40.1642 37.5951 40.4719 38.0555C40.7795 38.516 41.2168 38.8749 41.7285 39.0868C42.2401 39.2987 42.8031 39.3542 43.3462 39.2462C43.8894 39.1381 44.3883 38.8714 44.7799 38.4798C45.1715 38.0883 45.4381 37.5894 45.5462 37.0462C45.6542 36.5031 45.5988 35.9401 45.3869 35.4284C45.1749 34.9168 44.816 34.4795 44.3556 34.1718C43.8951 33.8642 43.3538 33.7 42.8 33.7H39.3V35.1H42.8C43.1713 35.1 43.5274 35.2474 43.7899 35.51C44.0525 35.7726 44.2 36.1286 44.2 36.5C44.2 36.8713 44.0525 37.2274 43.7899 37.4899C43.5274 37.7525 43.1713 37.9 42.8 37.9Z" fill="#ED712E"/>
<path d="M44.2 23.9C43.4576 23.9009 42.7459 24.1961 42.221 24.721C41.6961 25.246 41.4008 25.9577 41.4 26.7H42.8C42.8 26.4231 42.8821 26.1525 43.0359 25.9222C43.1898 25.692 43.4084 25.5126 43.6642 25.4066C43.92 25.3006 44.2015 25.2729 44.4731 25.3269C44.7447 25.3809 44.9941 25.5143 45.1899 25.7101C45.3857 25.9059 45.5191 26.1553 45.5731 26.4269C45.6271 26.6985 45.5994 26.98 45.4934 27.2358C45.3875 27.4916 45.208 27.7102 44.9778 27.8641C44.7476 28.0179 44.4769 28.1 44.2 28.1H39.3V29.5H44.2C44.9426 29.5 45.6548 29.205 46.1799 28.6799C46.705 28.1548 47 27.4426 47 26.7C47 25.9574 46.705 25.2452 46.1799 24.7201C45.6548 24.195 44.9426 23.9 44.2 23.9Z" fill="#ED712E"/>
<path d="M39.3 30.9H47V32.3H39.3V30.9Z" fill="#ED712E"/>
<path d="M9.20039 35.1H12.7004V33.7H9.20039C8.6466 33.7 8.10525 33.8642 7.6448 34.1718C7.18434 34.4795 6.82545 34.9168 6.61353 35.4284C6.4016 35.9401 6.34615 36.5031 6.45419 37.0462C6.56223 37.5894 6.82891 38.0883 7.22049 38.4798C7.61208 38.8714 8.11099 39.1381 8.65414 39.2462C9.19729 39.3542 9.76027 39.2987 10.2719 39.0868C10.7835 38.8749 11.2208 38.516 11.5285 38.0555C11.8362 37.5951 12.0004 37.0537 12.0004 36.5H10.6004C10.6004 36.7768 10.5183 37.0475 10.3644 37.2778C10.2106 37.508 9.99197 37.6874 9.73615 37.7934C9.48033 37.8993 9.19884 37.9271 8.92727 37.8731C8.65569 37.819 8.40624 37.6857 8.21044 37.4899C8.01465 37.2941 7.88131 37.0447 7.82729 36.7731C7.77327 36.5015 7.801 36.22 7.90696 35.9642C8.01292 35.7084 8.19236 35.4897 8.42259 35.3359C8.65282 35.1821 8.9235 35.1 9.20039 35.1Z" fill="#ED712E"/>
<path d="M7.8 29.5H12.7V28.1H7.8C7.52311 28.1 7.25243 28.0179 7.0222 27.8641C6.79197 27.7103 6.61253 27.4916 6.50657 27.2358C6.40061 26.98 6.37288 26.6985 6.4269 26.4269C6.48092 26.1553 6.61426 25.9059 6.81005 25.7101C7.00585 25.5143 7.2553 25.3809 7.52688 25.3269C7.79845 25.2729 8.07994 25.3006 8.33576 25.4066C8.59158 25.5126 8.81023 25.692 8.96406 25.9222C9.11789 26.1525 9.2 26.4231 9.2 26.7H10.6C10.6 26.1462 10.4358 25.6049 10.1281 25.1444C9.82045 24.684 9.38315 24.3251 8.87152 24.1132C8.35988 23.9012 7.7969 23.8458 7.25375 23.9538C6.7106 24.0619 6.21169 24.3285 5.8201 24.7201C5.42852 25.1117 5.16184 25.6106 5.0538 26.1538C4.94576 26.6969 5.00121 27.2599 5.21314 27.7715C5.42506 28.2832 5.78395 28.7205 6.2444 29.0281C6.70486 29.3358 7.24621 29.5 7.8 29.5Z" fill="#ED712E"/>
<path d="M5 30.9H12.7V32.3H5V30.9Z" fill="#ED712E"/>
<path d="M27.8787 21.1359C26.6588 21.5399 25.3413 21.5399 24.1214 21.1359C23.9453 21.0772 23.7531 21.0909 23.587 21.1739C23.4209 21.2569 23.2946 21.4025 23.2359 21.5787C23.1772 21.7548 23.1909 21.947 23.2739 22.1131C23.357 22.2792 23.5025 22.4054 23.6787 22.4641C25.186 22.9631 26.8141 22.9631 28.3214 22.4641C28.4976 22.4054 28.6432 22.2792 28.7262 22.1131C28.8092 21.947 28.8229 21.7548 28.7642 21.5787C28.7055 21.4025 28.5792 21.2569 28.4131 21.1739C28.2471 21.0909 28.0548 21.0772 27.8787 21.1359Z" fill="#ED712E"/>
</svg>
