<svg width="52" height="52" viewBox="0 0 52 52" fill="none" xmlns="http://www.w3.org/2000/svg">
<path d="M22.4217 46.5541C22.5445 46.6977 22.7238 46.7807 22.9124 46.7816H29.1948C29.5404 46.7822 29.8259 46.5123 29.8448 46.1673C30.3485 37.1943 38.4864 35.8059 38.8311 35.7673C39.1489 35.7159 39.3813 35.4394 39.3772 35.1173V31.1491C39.3772 30.9767 39.3088 30.8113 39.1869 30.6895C39.0647 30.5676 38.8996 30.4991 38.7272 30.4991H13.6276C13.5164 30.4892 13.4044 30.5084 13.3026 30.5542C12.825 30.7754 12.8052 30.7817 13.0394 34.8248C13.0504 35.0859 13.2167 35.3152 13.4619 35.4066C23.1146 39.3066 22.3116 45.7776 22.2729 46.0473C22.2485 46.2298 22.3031 46.4141 22.4224 46.5542L22.4217 46.5541ZM14.4695 34.4054H28.1195C27.9706 33.985 27.9706 33.5262 28.1195 33.1054H14.2615C14.2388 32.5985 14.2191 32.1304 14.2127 31.8054H38.0837V33.1054H31.7787C31.9273 33.5262 31.9273 33.985 31.7787 34.4054H38.0837V34.5842C36.098 35.0815 29.3707 37.3565 28.5967 45.4819H23.5917C23.5885 43.48 22.7728 37.9842 14.4694 34.4059L14.4695 34.4054Z" fill="#ED712E"/>
<path d="M12.5804 11.0445C12.5804 11.4035 12.2908 11.6945 11.9336 11.6945C11.5764 11.6945 11.2868 11.4035 11.2868 11.0445C11.2868 10.6856 11.5764 10.3945 11.9336 10.3945C12.2908 10.3945 12.5804 10.6856 12.5804 11.0445Z" fill="#ED712E"/>
<path d="M12.5804 9.74131C12.5804 10.1003 12.2908 10.3913 11.9336 10.3913C11.5764 10.3913 11.2868 10.1003 11.2868 9.74131C11.2868 9.38207 11.5764 9.09131 11.9336 9.09131C12.2908 9.09131 12.5804 9.38207 12.5804 9.74131Z" fill="#ED712E"/>
<path d="M12.5804 8.43784C12.5804 8.79708 12.2908 9.08784 11.9336 9.08784C11.5764 9.08784 11.2868 8.79708 11.2868 8.43784C11.2868 8.07889 11.5764 7.78784 11.9336 7.78784C12.2908 7.78784 12.5804 8.07889 12.5804 8.43784Z" fill="#ED712E"/>
<path d="M12.5804 7.13462C12.5804 7.49357 12.2908 7.78462 11.9336 7.78462C11.5764 7.78462 11.2868 7.49357 11.2868 7.13462C11.2868 6.77567 11.5764 6.48462 11.9336 6.48462C12.2908 6.48462 12.5804 6.77567 12.5804 7.13462Z" fill="#ED712E"/>
<path d="M12.5804 5.8314C12.5804 6.19035 12.2908 6.4814 11.9336 6.4814C11.5764 6.4814 11.2868 6.19035 11.2868 5.8314C11.2868 5.47245 11.5764 5.1814 11.9336 5.1814C12.2908 5.1814 12.5804 5.47245 12.5804 5.8314Z" fill="#ED712E"/>
<path d="M27.2347 20.7814C27.4634 20.7777 27.6732 20.6543 27.7872 20.4564C27.7251 20.9001 27.7338 21.3511 27.8133 21.7921C27.6697 21.4961 27.3273 21.3539 27.0163 21.4616C26.7052 21.5689 26.5235 21.8922 26.5935 22.214C26.6634 22.5355 26.9626 22.7543 27.2905 22.723C27.6181 22.6917 27.8705 22.4203 27.8784 22.0913C28.0049 22.5721 28.2257 23.0227 28.5284 23.4171C29.2077 24.3077 30.5985 25.2795 33.4228 25.2795C33.9333 25.278 34.4431 25.2499 34.9503 25.195C41.3496 24.5189 41.2815 19.787 41.2521 17.245V16.6275C41.2521 16.3512 41.2521 14.1998 40.394 12.8836C40.6468 12.7278 40.7617 12.4208 40.6738 12.1373C40.5856 11.8541 40.3168 11.6663 40.0203 11.6811C39.7832 11.684 39.5664 11.816 39.4547 12.0256C39.0415 11.8378 38.5775 11.7923 38.1353 11.8956L37.4235 12.0386C34.4271 12.6561 30.2897 13.4654 28.0048 19.5719C27.9505 19.7196 27.9049 19.8705 27.8681 20.0234C27.8289 19.7736 27.6481 19.569 27.405 19.4994C27.1618 19.4297 26.9003 19.5075 26.7347 19.699C26.569 19.8903 26.5295 20.1601 26.6334 20.3908C26.737 20.6218 26.9654 20.7712 27.2181 20.7744L27.2347 20.7814ZM39.8024 15.0191H39.8027C39.9016 15.5487 39.9504 16.0861 39.9489 16.6246V17.2746C39.9846 19.8421 40.0366 23.3553 34.8075 23.9078C32.2401 24.1809 30.4331 23.7485 29.5719 22.6664C31.9055 16.5858 35.9451 15.7828 39.1949 15.1398L39.8024 15.0191ZM29.2271 20.034C31.2421 14.6065 34.8072 13.8978 37.6771 13.3326L38.4051 13.1863C38.4788 13.1698 38.554 13.1611 38.6294 13.1602C38.7928 13.1564 38.9518 13.2145 39.0746 13.3227C39.2098 13.4481 39.3201 13.5981 39.3996 13.7647L38.9478 13.8558C35.8571 14.4669 31.7264 15.2858 29.0648 20.6027C29.0987 20.408 29.1533 20.2173 29.2273 20.034L29.2271 20.034Z" fill="#ED712E"/>
<path d="M40.6675 11.0445C40.6675 11.4035 40.3779 11.6945 40.0207 11.6945C39.6635 11.6945 39.3739 11.4035 39.3739 11.0445C39.3739 10.6856 39.6635 10.3945 40.0207 10.3945C40.3779 10.3945 40.6675 10.6856 40.6675 11.0445Z" fill="#ED712E"/>
<path d="M40.6675 9.74131C40.6675 10.1003 40.3779 10.3913 40.0207 10.3913C39.6635 10.3913 39.3739 10.1003 39.3739 9.74131C39.3739 9.38207 39.6635 9.09131 40.0207 9.09131C40.3779 9.09131 40.6675 9.38207 40.6675 9.74131Z" fill="#ED712E"/>
<path d="M40.6675 8.43784C40.6675 8.79708 40.3779 9.08784 40.0207 9.08784C39.6635 9.08784 39.3739 8.79708 39.3739 8.43784C39.3739 8.07889 39.6635 7.78784 40.0207 7.78784C40.3779 7.78784 40.6675 8.07889 40.6675 8.43784Z" fill="#ED712E"/>
<path d="M40.6675 7.13462C40.6675 7.49357 40.3779 7.78462 40.0207 7.78462C39.6635 7.78462 39.3739 7.49357 39.3739 7.13462C39.3739 6.77567 39.6635 6.48462 40.0207 6.48462C40.3779 6.48462 40.6675 6.77567 40.6675 7.13462Z" fill="#ED712E"/>
<path d="M40.6675 5.8314C40.6675 6.19035 40.3779 6.4814 40.0207 6.4814C39.6635 6.4814 39.3739 6.19035 39.3739 5.8314C39.3739 5.47245 39.6635 5.1814 40.0207 5.1814C40.3779 5.1814 40.6675 5.47245 40.6675 5.8314Z" fill="#ED712E"/>
<path d="M26.5914 20.1247C26.5914 20.4837 26.3018 20.7747 25.9446 20.7747C25.5874 20.7747 25.2978 20.4837 25.2978 20.1247C25.2978 19.7655 25.5874 19.4747 25.9446 19.4747C26.3018 19.4747 26.5914 19.7655 26.5914 20.1247Z" fill="#ED712E"/>
<path d="M17.0071 25.1947C17.5143 25.2496 18.0241 25.2777 18.5345 25.2792C21.3589 25.2792 22.7595 24.3042 23.429 23.4168C23.696 23.0654 23.8985 22.6691 24.027 22.2468C24.1036 22.5356 24.3671 22.7352 24.6657 22.7303C24.9646 22.7256 25.2214 22.5176 25.2887 22.2265C25.3558 21.9355 25.2159 21.636 24.9495 21.5008C24.6831 21.3656 24.359 21.4294 24.1634 21.6554C24.2104 21.2939 24.2104 20.928 24.1634 20.5667C24.2847 20.699 24.4554 20.7756 24.6347 20.778C24.877 20.7803 25.1004 20.648 25.2145 20.4344C25.3285 20.2208 25.3146 19.9614 25.1779 19.7615C25.0415 19.5615 24.805 19.4539 24.5648 19.4823C24.3242 19.5111 24.1196 19.6707 24.0334 19.8973C24.0009 19.7867 23.9684 19.6762 23.9296 19.5723C21.6546 13.4623 17.5239 12.6466 14.5042 12.0516L13.8217 11.9085C13.3795 11.8049 12.9158 11.8508 12.5022 12.0385C12.3937 11.8229 12.1746 11.6854 11.9335 11.681C11.6471 11.6805 11.394 11.867 11.3105 12.141C11.2266 12.4146 11.3319 12.7109 11.5693 12.8705C10.7017 14.1998 10.7017 16.3511 10.7017 16.6242V17.2449C10.6723 19.7866 10.6042 24.5185 17.0067 25.195L17.0071 25.1947ZM12.8859 13.306C13.0087 13.1978 13.1677 13.1398 13.3313 13.1435C13.4068 13.1444 13.4819 13.1531 13.5556 13.1697L14.2837 13.3159C17.1469 13.8974 20.712 14.606 22.727 20.0336C22.8564 20.3972 22.9139 20.7822 22.8959 21.1679C20.2472 15.3406 15.9409 14.4892 12.7425 13.8554L12.5118 13.8098C12.6 13.6177 12.7274 13.4462 12.8856 13.3061L12.8859 13.306ZM12.0021 17.2647V16.6147C12.0003 16.0935 12.0459 15.5738 12.1384 15.061L12.5058 15.1359C15.7851 15.7859 19.8639 16.5921 22.1912 22.8126C22.1912 22.8126 22.1912 22.8352 22.2106 22.8483C21.2942 23.7939 19.552 24.1483 17.1406 23.9014C11.9113 23.3457 11.9636 19.8325 12.0024 17.265L12.0021 17.2647Z" fill="#ED712E"/>
<path d="M26.5914 22.0785C26.5914 22.4374 26.3018 22.7285 25.9446 22.7285C25.5874 22.7285 25.2978 22.4374 25.2978 22.0785C25.2978 21.7195 25.5874 21.4285 25.9446 21.4285C26.3018 21.4285 26.5914 21.7195 26.5914 22.0785Z" fill="#ED712E"/>
<path d="M30.6021 33.7553C30.6021 34.1146 30.3125 34.4053 29.9553 34.4053C29.5981 34.4053 29.3085 34.1146 29.3085 33.7553C29.3085 33.3964 29.5981 33.1053 29.9553 33.1053C30.3125 33.1053 30.6021 33.3964 30.6021 33.7553Z" fill="#ED712E"/>
</svg>
