<svg width="52" height="52" viewBox="0 0 52 52" fill="none" xmlns="http://www.w3.org/2000/svg">
<path d="M41.7682 22.5993V10.021C41.7668 9.44568 41.6521 8.87629 41.4305 8.34537C41.2089 7.81445 40.8848 7.33241 40.4768 6.92682C40.0688 6.52122 39.5848 6.20002 39.0526 5.98159C38.5204 5.76316 37.9503 5.65177 37.375 5.6538C37.2816 5.65375 37.1892 5.6721 37.1029 5.70781C37.0166 5.74352 36.9382 5.79589 36.8722 5.86191C36.8062 5.92794 36.7538 6.00633 36.7181 6.09261C36.6824 6.17889 36.664 6.27136 36.6641 6.36474V11.568H34.8766V7.98974C34.8759 7.35956 34.6254 6.75536 34.1798 6.30968C33.7343 5.864 33.1302 5.61323 32.5 5.61237H10.5962C9.96593 5.61301 9.36161 5.86369 8.9159 6.3094C8.4702 6.7551 8.21952 7.35942 8.21887 7.98974V43.9693C8.21962 44.5995 8.47035 45.2037 8.91604 45.6494C9.36174 46.095 9.966 46.3456 10.5962 46.3462H32.5C33.1302 46.3455 33.7344 46.0948 34.18 45.6492C34.6256 45.2036 34.8762 44.5995 34.877 43.9693V41.2645H36.6645V45.0215C36.6644 45.1148 36.6828 45.2073 36.7185 45.2936C36.7542 45.3799 36.8066 45.4583 36.8726 45.5243C36.9386 45.5903 37.017 45.6427 37.1033 45.6784C37.1896 45.7141 37.2821 45.7324 37.3754 45.7324H37.4022C38.5601 45.7311 39.6702 45.2706 40.4889 44.4519C41.3076 43.6331 41.7681 42.5231 41.7694 41.3652V28.7865C42.3067 28.7743 42.818 28.5526 43.194 28.1687C43.5701 27.7848 43.7813 27.2691 43.7824 26.7317V24.6549C43.7813 24.1172 43.57 23.6013 43.1937 23.2172C42.8173 22.8331 42.3058 22.6114 41.7682 22.5993ZM36.6633 12.9899V14.0238H34.8758V12.9899H36.6633ZM36.6633 15.4456V37.3868H34.8758V15.4456H36.6633ZM33.4539 43.9693C33.4537 44.2223 33.3532 44.4649 33.1744 44.644C32.9955 44.823 32.7531 44.9238 32.5 44.9244H10.5962C10.343 44.9241 10.1001 44.8235 9.92099 44.6444C9.74185 44.4654 9.64107 44.2225 9.64075 43.9693V7.98974C9.64107 7.73643 9.74184 7.49358 9.92096 7.31446C10.1001 7.13534 10.3429 7.03456 10.5962 7.03424H32.5C32.7533 7.03456 32.9961 7.13535 33.1752 7.31448C33.3542 7.49361 33.4549 7.73646 33.4551 7.98974L33.4539 43.9693ZM34.8758 39.8426V38.8087H36.6633V39.8426H34.8758ZM40.3447 41.3652C40.3438 42.0272 40.1204 42.6697 39.7102 43.1894C39.3001 43.7091 38.7272 44.0757 38.0835 44.2305V7.15571C38.7272 7.31046 39.3001 7.67714 39.7102 8.19682C40.1204 8.7165 40.3438 9.35898 40.3447 10.021V41.3652ZM42.3593 26.7313C42.3587 26.8919 42.2975 27.0463 42.1879 27.1636C42.0783 27.281 41.9284 27.3526 41.7682 27.3642V24.0208C41.9285 24.0324 42.0784 24.1042 42.188 24.2217C42.2976 24.3393 42.3588 24.4938 42.3593 24.6545V26.7313Z" fill="#ED712E"/>
<path d="M30.5732 7.7594H12.5235C12.0508 7.75983 11.5974 7.94781 11.2631 8.28209C10.9287 8.61637 10.7407 9.06964 10.7401 9.54243V42.4365C10.7406 42.9093 10.9287 43.3626 11.2631 43.697C11.5974 44.0313 12.0507 44.2194 12.5235 44.2199H30.5732C31.046 44.2194 31.4993 44.0313 31.8336 43.697C32.1679 43.3626 32.3558 42.9093 32.3563 42.4365V9.54081C32.3554 9.06833 32.1672 8.61548 31.833 8.28154C31.4987 7.9476 31.0457 7.75983 30.5732 7.7594ZM12.5235 9.18127H30.5732C30.669 9.18138 30.7608 9.21947 30.8285 9.28717C30.8962 9.35488 30.9343 9.44668 30.9344 9.54243V18.2922H24.6635C25.5045 17.424 25.9749 16.2628 25.9753 15.054V13.5066C25.9754 13.4132 25.957 13.3208 25.9213 13.2345C25.8856 13.1482 25.8332 13.0698 25.7672 13.0038C25.7012 12.9378 25.6228 12.8854 25.5365 12.8497C25.4502 12.814 25.3577 12.7956 25.2644 12.7957H17.3535C17.2601 12.7956 17.1676 12.814 17.0813 12.8497C16.9951 12.8854 16.9167 12.9378 16.8506 13.0038C16.7846 13.0698 16.7322 13.1482 16.6965 13.2345C16.6608 13.3208 16.6425 13.4132 16.6425 13.5066V15.054C16.6449 16.2637 17.1178 17.425 17.9612 18.2922H12.162V9.54081C12.1626 9.4453 12.201 9.35392 12.2687 9.28657C12.3364 9.21923 12.428 9.18138 12.5235 9.18127ZM26.9625 22.4726H25.2083V22.0407H26.9625V22.4726ZM25.1717 26.789C25.2986 26.734 25.4066 26.6432 25.4826 26.5278C25.5586 26.4123 25.5992 26.2772 25.5995 26.139V23.8944H26.5713V26.1373C26.5713 26.2772 26.6126 26.4139 26.69 26.5304C26.7674 26.6469 26.8774 26.738 27.0064 26.7922C27.1368 26.8477 27.2596 26.9195 27.372 27.0059C27.4967 27.0898 27.6007 27.201 27.6761 27.3311C27.7515 27.4612 27.7963 27.6067 27.8071 27.7567V31.3483H24.3625V27.7567C24.3906 27.5348 24.4818 27.3257 24.6253 27.1542C24.7687 26.9827 24.9584 26.8559 25.1717 26.789ZM28.2345 25.8741C28.1577 25.8148 28.0768 25.7591 27.994 25.7071V23.725C28.1146 23.6402 28.2131 23.5277 28.2812 23.3969C28.3493 23.2661 28.3849 23.1209 28.3852 22.9735V21.541C28.385 21.2965 28.2877 21.0621 28.1148 20.8892C27.9419 20.7163 27.7075 20.6191 27.463 20.6188H24.7086C24.4641 20.6191 24.2297 20.7163 24.0568 20.8892C23.8839 21.0621 23.7866 21.2965 23.7864 21.541V22.9722C23.7867 23.1197 23.8223 23.2649 23.8904 23.3957C23.9585 23.5265 24.057 23.639 24.1776 23.7238V25.7087C23.813 25.9152 23.5076 26.2121 23.291 26.5707C23.0743 26.9294 22.9537 27.3378 22.9406 27.7567V31.3483H20.0591C20.5786 30.7016 20.8615 29.8968 20.861 29.0672C20.8199 28.0604 20.391 27.1085 19.6641 26.4107C18.9372 25.7129 17.9687 25.3232 16.961 25.3232C15.9534 25.3232 14.9848 25.7129 14.2579 26.4107C13.531 27.1085 13.1021 28.0604 13.061 29.0672C13.0617 29.8972 13.3459 30.702 13.8666 31.3483H12.1604V19.7141H30.9344V31.3483H29.2281V27.7567C29.2203 27.3872 29.1264 27.0247 28.9539 26.6978C28.7814 26.371 28.5351 26.089 28.2345 25.8741ZM16.515 31.3483C15.9606 31.2713 15.4518 30.9994 15.0797 30.5815C14.7075 30.1635 14.4962 29.6267 14.4837 29.0672C14.5248 28.4379 14.8038 27.8479 15.264 27.4167C15.7242 26.9856 16.3312 26.7457 16.9618 26.7457C17.5924 26.7457 18.1995 26.9856 18.6597 27.4167C19.1199 27.8479 19.3989 28.4379 19.44 29.0672C19.4285 29.6314 19.2141 30.1726 18.836 30.5915C18.4579 31.0105 17.9416 31.2792 17.3815 31.3483H16.515ZM18.0644 15.054V14.2188H24.5534V15.0552C24.5525 15.8767 24.2406 16.6673 23.6803 17.2681C23.1201 17.8689 22.3532 18.2352 21.5338 18.2935H21.0646V18.2914C20.2493 18.2272 19.488 17.8586 18.9321 17.2587C18.3762 16.6589 18.0665 15.8718 18.0644 15.054ZM30.5732 42.7964H12.5235C12.4277 42.7962 12.3359 42.7581 12.2681 42.6903C12.2004 42.6225 12.1622 42.5307 12.162 42.4349V32.7702H30.9344V42.4349C30.9343 42.5307 30.8962 42.6225 30.8285 42.6903C30.7608 42.758 30.669 42.7962 30.5732 42.7964Z" fill="#ED712E"/>
</svg>
