<svg width="52" height="52" viewBox="0 0 52 52" fill="none" xmlns="http://www.w3.org/2000/svg">
<path d="M46.3084 6.0084H25.1294C24.9482 6.0084 24.7744 6.08037 24.6463 6.2085C24.5182 6.33662 24.4462 6.51039 24.4462 6.69159V14.8899C24.4462 15.0711 24.5182 15.2449 24.6463 15.373C24.7744 15.5011 24.9482 15.5731 25.1294 15.5731C25.3106 15.5731 25.4844 15.5011 25.6125 15.373C25.7406 15.2449 25.8126 15.0711 25.8126 14.8899V7.37478H45.6252V21.7218H31.9613V17.6227C31.9613 17.4415 31.8894 17.2677 31.7612 17.1396C31.6331 17.0115 31.4593 16.9395 31.2782 16.9395H22.3966V9.42436C22.3966 9.24317 22.3247 9.0694 22.1965 8.94127C22.0684 8.81315 21.8946 8.74117 21.7134 8.74117H19.2635L20.8301 7.17461C20.8953 7.11158 20.9474 7.0362 20.9832 6.95284C21.019 6.86949 21.0378 6.77984 21.0386 6.68913C21.0394 6.59842 21.0221 6.50845 20.9878 6.42449C20.9534 6.34053 20.9027 6.26425 20.8385 6.2001C20.7744 6.13596 20.6981 6.08523 20.6142 6.05088C20.5302 6.01652 20.4402 5.99924 20.3495 6.00003C20.2588 6.00081 20.1692 6.01966 20.0858 6.05547C20.0025 6.09127 19.9271 6.14332 19.864 6.20857L17.6143 8.45833L15.3645 6.20857C15.2357 6.08412 15.0631 6.01526 14.884 6.01682C14.7048 6.01837 14.5335 6.09022 14.4068 6.21689C14.2801 6.34356 14.2083 6.51492 14.2067 6.69405C14.2052 6.87318 14.274 7.04575 14.3985 7.17461L15.9651 8.74117H8.04958C7.86839 8.74117 7.69461 8.81315 7.56649 8.94127C7.43837 9.0694 7.36639 9.24317 7.36639 9.42436V14.8899C7.36639 15.0711 7.43837 15.2449 7.56649 15.373C7.69461 15.5011 7.86839 15.5731 8.04958 15.5731C8.23077 15.5731 8.40455 15.5011 8.53267 15.373C8.66079 15.2449 8.73277 15.0711 8.73277 14.8899V10.1076H12.8319V16.9395H6.68319C6.502 16.9395 6.32823 17.0115 6.2001 17.1396C6.07198 17.2677 6 17.4415 6 17.6227V31.2866C6 31.4677 6.07198 31.6415 6.2001 31.7696C6.32823 31.8978 6.502 31.9697 6.68319 31.9697C6.86439 31.9697 7.03816 31.8978 7.16628 31.7696C7.29441 31.6415 7.36639 31.4677 7.36639 31.2866V23.7714H28.5454C28.7266 23.7714 28.9003 23.6994 29.0285 23.5713C29.1566 23.4432 29.2286 23.2694 29.2286 23.0882C29.2286 22.907 29.1566 22.7333 29.0285 22.6051C28.9003 22.477 28.7266 22.405 28.5454 22.405H16.9311V21.0387H18.2975C18.4787 21.0387 18.6524 20.9667 18.7806 20.8385C18.9087 20.7104 18.9807 20.5367 18.9807 20.3555C18.9807 20.1743 18.9087 20.0005 18.7806 19.8724C18.6524 19.7442 18.4787 19.6723 18.2975 19.6723H16.9311V18.3059H30.595V45.6336H12.8319V42.2176C12.8319 42.0365 12.76 41.8627 12.6318 41.7346C12.5037 41.6064 12.3299 41.5345 12.1487 41.5345H7.36639V34.0193C7.36639 33.8381 7.29441 33.6644 7.16628 33.5362C7.03816 33.4081 6.86439 33.3361 6.68319 33.3361C6.502 33.3361 6.32823 33.4081 6.2001 33.5362C6.07198 33.6644 6 33.8381 6 34.0193V46.3168C6 46.498 6.07198 46.6718 6.2001 46.7999C6.32823 46.928 6.502 47 6.68319 47H31.2782C31.4593 47 31.6331 46.928 31.7612 46.7999C31.8894 46.6718 31.9613 46.498 31.9613 46.3168V44.2672H37.4269C37.7893 44.2672 38.1368 44.1233 38.3931 43.867C38.6493 43.6108 38.7933 43.2632 38.7933 42.9008V38.8017C38.7933 38.4393 38.6493 38.0917 38.3931 37.8355C38.1368 37.5793 37.7893 37.4353 37.4269 37.4353H31.9613V36.0689H42.8924V45.6336H34.0109C33.8297 45.6336 33.656 45.7056 33.5278 45.8337C33.3997 45.9618 33.3277 46.1356 33.3277 46.3168C33.3277 46.498 33.3997 46.6718 33.5278 46.7999C33.656 46.928 33.8297 47 34.0109 47H43.5756C43.7568 47 43.9306 46.928 44.0587 46.7999C44.1869 46.6718 44.2588 46.498 44.2588 46.3168V35.3857C44.2588 35.2045 44.1869 35.0307 44.0587 34.9026C43.9306 34.7745 43.7568 34.7025 43.5756 34.7025H31.9613V23.0882H45.6252V46.3168C45.6252 46.498 45.6972 46.6718 45.8253 46.7999C45.9534 46.928 46.1272 47 46.3084 47C46.4896 47 46.6634 46.928 46.7915 46.7999C46.9196 46.6718 46.9916 46.498 46.9916 46.3168V6.69159C46.9916 6.51039 46.9196 6.33662 46.7915 6.2085C46.6634 6.08037 46.4896 6.0084 46.3084 6.0084ZM16.9311 15.5731H18.2975V16.9395H16.9311V15.5731ZM14.1983 12.8403H15.5647V14.2067H14.1983V12.8403ZM16.9311 12.8403H18.2975V14.2067H16.9311V12.8403ZM18.2975 10.1076V11.4739H16.9311V10.1076H18.2975ZM21.0303 14.2067H19.6639V12.8403H21.0303V14.2067ZM19.6639 15.5731H21.0303V16.9395H19.6639V15.5731ZM21.0303 11.4739H19.6639V10.1076H21.0303V11.4739ZM15.5647 10.1076V11.4739H14.1983V10.1076H15.5647ZM14.1983 15.5731H15.5647V16.9395H14.1983V15.5731ZM7.36639 22.405V18.3059H15.5647V22.405H7.36639ZM7.36639 45.6336V42.9008H11.4655V45.6336H7.36639ZM37.4269 42.9008H32.9274L37.0265 38.8017H37.4269V42.9008ZM35.0931 38.8017L31.9613 41.9348V38.8017H35.0931Z" fill="#ED712E"/>
<path d="M42.2097 25.1378C41.6662 25.1378 41.1448 25.3538 40.7605 25.7381C40.3761 26.1225 40.1602 26.6438 40.1602 27.1874V29.9202C40.1602 30.4638 40.3761 30.9851 40.7605 31.3694C41.1448 31.7538 41.6662 31.9698 42.2097 31.9698C42.7533 31.9698 43.2746 31.7538 43.659 31.3694C44.0434 30.9851 44.2593 30.4638 44.2593 29.9202V27.1874C44.2593 26.6438 44.0434 26.1225 43.659 25.7381C43.2746 25.3538 42.7533 25.1378 42.2097 25.1378ZM42.8929 29.9202C42.8929 30.1014 42.821 30.2751 42.6928 30.4033C42.5647 30.5314 42.3909 30.6034 42.2097 30.6034C42.0285 30.6034 41.8548 30.5314 41.7266 30.4033C41.5985 30.2751 41.5265 30.1014 41.5265 29.9202V27.1874C41.5265 27.0062 41.5985 26.8324 41.7266 26.7043C41.8548 26.5762 42.0285 26.5042 42.2097 26.5042C42.3909 26.5042 42.5647 26.5762 42.6928 26.7043C42.821 26.8324 42.8929 27.0062 42.8929 27.1874V29.9202Z" fill="#ED712E"/>
<path d="M42.2097 16.2562C42.0285 16.2562 41.8548 16.1842 41.7266 16.0561C41.5985 15.928 41.5265 15.7542 41.5265 15.573C41.5265 15.3918 41.4546 15.218 41.3264 15.0899C41.1983 14.9618 41.0245 14.8898 40.8433 14.8898C40.6622 14.8898 40.4884 14.9618 40.3603 15.0899C40.2321 15.218 40.1602 15.3918 40.1602 15.573C40.1602 16.1166 40.3761 16.6379 40.7605 17.0223C41.1448 17.4066 41.6662 17.6226 42.2097 17.6226C42.7533 17.6226 43.2746 17.4066 43.659 17.0223C44.0434 16.6379 44.2593 16.1166 44.2593 15.573V12.8402C44.2593 12.2966 44.0434 11.7753 43.659 11.391C43.2746 11.0066 42.7533 10.7906 42.2097 10.7906C41.6662 10.7906 41.1448 11.0066 40.7605 11.391C40.3761 11.7753 40.1602 12.2966 40.1602 12.8402C40.1602 13.0214 40.2321 13.1952 40.3603 13.3233C40.4884 13.4514 40.6622 13.5234 40.8433 13.5234C41.0245 13.5234 41.1983 13.4514 41.3264 13.3233C41.4546 13.1952 41.5265 13.0214 41.5265 12.8402C41.5265 12.659 41.5985 12.4853 41.7266 12.3571C41.8548 12.229 42.0285 12.157 42.2097 12.157C42.3909 12.157 42.5647 12.229 42.6928 12.3571C42.821 12.4853 42.8929 12.659 42.8929 12.8402V15.573C42.8929 15.7542 42.821 15.928 42.6928 16.0561C42.5647 16.1842 42.3909 16.2562 42.2097 16.2562Z" fill="#ED712E"/>
<path d="M27.8619 21.0388C28.2392 21.0388 28.5451 20.7329 28.5451 20.3556C28.5451 19.9782 28.2392 19.6724 27.8619 19.6724C27.4846 19.6724 27.1787 19.9782 27.1787 20.3556C27.1787 20.7329 27.4846 21.0388 27.8619 21.0388Z" fill="#ED712E"/>
<path d="M25.1296 21.0388C25.5069 21.0388 25.8128 20.7329 25.8128 20.3556C25.8128 19.9782 25.5069 19.6724 25.1296 19.6724C24.7523 19.6724 24.4464 19.9782 24.4464 20.3556C24.4464 20.7329 24.7523 21.0388 25.1296 21.0388Z" fill="#ED712E"/>
<path d="M22.3961 21.0388C22.7734 21.0388 23.0793 20.7329 23.0793 20.3556C23.0793 19.9782 22.7734 19.6724 22.3961 19.6724C22.0188 19.6724 21.7129 19.9782 21.7129 20.3556C21.7129 20.7329 22.0188 21.0388 22.3961 21.0388Z" fill="#ED712E"/>
<path d="M13.5148 19.6724H9.41562C9.23442 19.6724 9.06065 19.7443 8.93252 19.8725C8.8044 20.0006 8.73242 20.1744 8.73242 20.3556C8.73242 20.5368 8.8044 20.7105 8.93252 20.8386C9.06065 20.9668 9.23442 21.0388 9.41562 21.0388H13.5148C13.696 21.0388 13.8697 20.9668 13.9979 20.8386C14.126 20.7105 14.198 20.5368 14.198 20.3556C14.198 20.1744 14.126 20.0006 13.9979 19.8725C13.8697 19.7443 13.696 19.6724 13.5148 19.6724Z" fill="#ED712E"/>
<path d="M18.9808 25.8209C16.9853 25.8172 15.0464 26.4844 13.4758 27.7153C11.9051 28.9462 10.7938 30.6694 10.3204 32.6079C9.84702 34.5465 10.039 36.5879 10.8655 38.4042C11.692 40.2205 13.105 41.7062 14.8776 42.6227C16.6502 43.5393 18.6794 43.8333 20.6393 43.4577C22.5991 43.082 24.3758 42.0585 25.6839 40.5515C26.992 39.0446 27.7555 37.1416 27.8519 35.1484C27.9482 33.1553 27.3718 31.1875 26.2151 29.5614C26.1636 29.487 26.0979 29.4235 26.0217 29.3747C25.9454 29.3259 25.8603 29.2927 25.7711 29.2771C25.682 29.2614 25.5906 29.2637 25.5023 29.2837C25.4141 29.3037 25.3306 29.341 25.2569 29.3935C25.1832 29.446 25.1206 29.5126 25.0729 29.5895C25.0251 29.6664 24.9931 29.752 24.9787 29.8414C24.9643 29.9307 24.9678 30.022 24.989 30.11C25.0102 30.198 25.0487 30.2809 25.1022 30.3539C26.1979 31.8921 26.6758 33.7857 26.4411 35.6595C26.2064 37.5334 25.2764 39.2507 23.8352 40.4712C22.3941 41.6916 20.547 42.3261 18.6601 42.2489C16.7732 42.1717 14.9841 41.3885 13.6475 40.0544C12.3108 38.7203 11.5241 36.9328 11.4433 35.046C11.3625 33.1593 11.9934 31.311 13.2111 29.8675C14.4288 28.424 16.1443 27.4906 18.0177 27.2524C19.8911 27.0141 21.7856 27.4883 23.3259 28.581C23.3989 28.6346 23.4818 28.673 23.5698 28.6942C23.6578 28.7154 23.7491 28.7189 23.8385 28.7045C23.9278 28.6901 24.0134 28.6581 24.0903 28.6104C24.1672 28.5626 24.2338 28.5001 24.2863 28.4263C24.3388 28.3526 24.3761 28.2692 24.3961 28.1809C24.4161 28.0926 24.4184 28.0013 24.4027 27.9121C24.3871 27.823 24.3539 27.7378 24.3051 27.6616C24.2563 27.5854 24.1928 27.5196 24.1184 27.4681C22.6199 26.3959 20.8233 25.8199 18.9808 25.8209Z" fill="#ED712E"/>
<path d="M18.9806 39.4849C18.1273 39.4836 17.2899 39.2533 16.5559 38.8181C16.3998 38.7259 16.2135 38.6996 16.038 38.7448C15.8625 38.79 15.7121 38.9031 15.62 39.0592C15.5278 39.2153 15.5015 39.4016 15.5467 39.5772C15.5919 39.7527 15.705 39.9031 15.8611 39.9952C17.153 40.758 18.6787 41.0233 20.1522 40.7414C21.6257 40.4595 22.9458 39.6498 23.8649 38.4641C24.784 37.2783 25.239 35.798 25.1445 34.3008C25.05 32.8035 24.4126 31.3921 23.3518 30.3313C22.291 29.2705 20.8796 28.6331 19.3823 28.5386C17.8851 28.4441 16.4048 28.8991 15.2191 29.8182C14.0333 30.7373 13.2236 32.0574 12.9417 33.5309C12.6598 35.0044 12.9251 36.5301 13.6879 37.822C13.78 37.9781 13.9304 38.0912 14.1059 38.1364C14.2815 38.1816 14.4678 38.1553 14.6239 38.0631C14.78 37.971 14.8931 37.8206 14.9383 37.6451C14.9835 37.4696 14.9572 37.2833 14.865 37.1272C14.3313 36.2188 14.1128 35.1594 14.2435 34.114C14.3741 33.0685 14.8467 32.0956 15.5876 31.3465C16.3285 30.5974 17.2962 30.1142 18.3402 29.972C19.3841 29.8299 20.4458 30.0368 21.36 30.5605C22.2742 31.0842 22.9897 31.8954 23.3951 32.8679C23.8006 33.8404 23.8732 34.9196 23.6018 35.9376C23.3304 36.9556 22.7301 37.8554 21.8943 38.497C21.0585 39.1385 20.0342 39.4858 18.9806 39.4849Z" fill="#ED712E"/>
<path d="M28.5453 26.5043C28.7265 26.5043 28.9002 26.4323 29.0284 26.3042C29.1565 26.176 29.2285 26.0023 29.2285 25.8211C29.2285 25.6399 29.1565 25.4661 29.0284 25.338C28.9002 25.2099 28.7265 25.1379 28.5453 25.1379H26.4957C26.3145 25.1379 26.1407 25.2099 26.0126 25.338C25.8845 25.4661 25.8125 25.6399 25.8125 25.8211C25.8125 26.0023 25.8845 26.176 26.0126 26.3042C26.1407 26.4323 26.3145 26.5043 26.4957 26.5043H28.5453Z" fill="#ED712E"/>
<path d="M11.4652 25.1378H9.41562C9.23442 25.1378 9.06065 25.2098 8.93252 25.3379C8.8044 25.466 8.73242 25.6398 8.73242 25.821C8.73242 26.0022 8.8044 26.176 8.93252 26.3041C9.06065 26.4322 9.23442 26.5042 9.41562 26.5042H11.4652C11.6464 26.5042 11.8202 26.4322 11.9483 26.3041C12.0764 26.176 12.1484 26.0022 12.1484 25.821C12.1484 25.6398 12.0764 25.466 11.9483 25.3379C11.8202 25.2098 11.6464 25.1378 11.4652 25.1378Z" fill="#ED712E"/>
<path d="M40.8433 38.8017C41.2207 38.8017 41.5265 38.4958 41.5265 38.1185C41.5265 37.7412 41.2207 37.4353 40.8433 37.4353C40.466 37.4353 40.1602 37.7412 40.1602 38.1185C40.1602 38.4958 40.466 38.8017 40.8433 38.8017Z" fill="#ED712E"/>
<path d="M40.8433 41.5345C41.2207 41.5345 41.5265 41.2286 41.5265 40.8513C41.5265 40.474 41.2207 40.1681 40.8433 40.1681C40.466 40.1681 40.1602 40.474 40.1602 40.8513C40.1602 41.2286 40.466 41.5345 40.8433 41.5345Z" fill="#ED712E"/>
<path d="M10.7828 12.8404C11.1601 12.8404 11.466 12.5345 11.466 12.1572C11.466 11.7799 11.1601 11.474 10.7828 11.474C10.4055 11.474 10.0996 11.7799 10.0996 12.1572C10.0996 12.5345 10.4055 12.8404 10.7828 12.8404Z" fill="#ED712E"/>
<path d="M10.7828 15.5732C11.1601 15.5732 11.466 15.2673 11.466 14.89C11.466 14.5127 11.1601 14.2068 10.7828 14.2068C10.4055 14.2068 10.0996 14.5127 10.0996 14.89C10.0996 15.2673 10.4055 15.5732 10.7828 15.5732Z" fill="#ED712E"/>
</svg>
