<svg width="52" height="52" viewBox="0 0 52 52" fill="none" xmlns="http://www.w3.org/2000/svg">
<path d="M32.0647 23.9683C33.9146 23.9683 35.4194 22.4634 35.4194 20.6136H34.0774C34.0774 21.7235 33.1744 22.6266 32.0644 22.6266C30.9544 22.6266 30.0514 21.7236 30.0514 20.6136H28.7094C28.7099 22.4634 30.2148 23.9683 32.0647 23.9683Z" fill="#ED712E"/>
<path d="M19.9872 23.9683C21.8371 23.9683 23.342 22.4634 23.342 20.6136H21.9999C21.9999 21.7235 21.0969 22.6266 19.9869 22.6266C18.877 22.6266 17.974 21.7236 17.974 20.6136H16.6322C16.6322 22.4634 18.1374 23.9683 19.9872 23.9683Z" fill="#ED712E"/>
<path d="M39.0126 14.1307L40.2757 13.6777C39.0294 10.2013 35.7135 7.86542 32.0248 7.86542H31.3937V9.20746H32.0248C35.1489 9.20746 37.9572 11.1859 39.0129 14.1306L39.0126 14.1307Z" fill="#ED712E"/>
<path d="M39.4449 16.591L40.787 16.5843C40.7846 16.0974 40.7417 15.6084 40.6593 15.1313L39.3369 15.3597C39.4066 15.7639 39.4429 16.1781 39.4449 16.591Z" fill="#ED712E"/>
<path d="M43.4712 16.6281C43.4712 10.3165 38.3365 5.18146 32.0245 5.18146H20.0266C13.715 5.18146 8.57996 10.3162 8.57996 16.6281C8.57996 17.9833 8.81674 19.3091 9.28306 20.5758C8.84285 21.1433 8.57996 21.8549 8.57996 22.627C8.57996 24.4769 10.0848 25.9818 11.9347 25.9818H12.6056V28.6673C11.7913 29.2799 11.2635 30.254 11.2635 31.3494C11.2635 31.4414 11.2673 31.5334 11.2749 31.6251C10.0721 32.1483 9.25117 33.356 9.25117 34.7042C9.25117 36.3442 10.4342 37.713 11.9913 38.0026C12.2809 39.56 13.6497 40.7431 15.2898 40.7431C15.5948 40.7431 15.8974 40.7013 16.1888 40.6203C16.3374 41.0025 16.5532 41.349 16.8214 41.6464L13.1193 42.2995C11.2667 42.6266 9.92209 44.2293 9.92209 46.1108V46.7817H42.1287V46.1108C42.1287 44.2296 40.7839 42.6266 38.9312 42.2998L32.3853 41.1446C31.4216 40.9746 30.722 40.1409 30.722 39.1621V39.0811C35.7209 37.8711 39.4446 33.3596 39.4446 27.9947V25.9817H40.1155C41.9654 25.9817 43.4703 24.4769 43.4703 22.627C43.4703 21.8548 43.2074 21.1433 42.7672 20.5757C43.2335 19.3091 43.4706 17.9833 43.4706 16.6281L43.4712 16.6281ZM20.0274 6.5238H32.0253C37.5967 6.5238 42.1296 11.0564 42.1296 16.6281C42.1296 17.6615 41.9735 18.6751 41.6659 19.6527C41.2022 19.4101 40.6755 19.272 40.1167 19.272H39.4458V17.9299H38.7749C37.2233 17.9299 35.7648 17.3258 34.6677 16.2289L34.4373 15.9985C33.0868 14.648 31.2912 13.9043 29.3813 13.9043H28.7104V15.2464H29.3813C30.9137 15.2464 32.355 15.8369 33.4472 16.9085C32.956 17.5475 32.1957 17.9303 31.3689 17.9303H31.1461C30.2657 17.9303 29.4488 17.493 28.9605 16.7606L28.2344 15.6718C27.4971 14.5651 26.2624 13.9043 24.9325 13.9043H24.0135V15.2464H24.9325C25.8129 15.2464 26.6298 15.6837 27.1181 16.4161L27.5926 17.1276C27.0714 17.6354 26.364 17.9303 25.6281 17.9303H25.5773C24.4543 17.9303 23.4465 17.3096 22.9471 16.3102L22.5392 15.4939C22.049 14.5134 21.0636 13.9043 19.9673 13.9043H19.8373C19.3933 13.9043 18.9488 14.0094 18.5513 14.2079L17.975 14.4963L17.3543 14.1861C16.9875 14.0027 16.5772 13.9043 16.1672 13.9012L16.0929 13.9006H16.0706C14.9136 13.9006 13.8916 14.59 13.4628 15.6623L13.0391 16.7217C12.7524 17.4382 12.607 18.1929 12.607 18.9645L12.6073 19.2721H11.9364C11.3778 19.2721 10.8509 19.4102 10.3872 19.6528C10.0796 18.6752 9.9235 17.6613 9.9235 16.6282C9.9235 11.0565 14.4561 6.5239 20.0278 6.5239L20.0274 6.5238ZM11.9362 24.6399C10.8263 24.6399 9.92319 23.7368 9.92319 22.6269C9.92319 21.517 10.8262 20.6139 11.9362 20.6139H12.6071V24.6398L11.9362 24.6399ZM13.9489 18.964C13.9489 18.3639 14.062 17.7769 14.2849 17.2195L14.7086 16.1603C14.932 15.6014 15.4659 15.2422 16.0707 15.2422H16.0823L16.1566 15.2428C16.3629 15.2442 16.5695 15.2938 16.754 15.3861L17.9749 15.9967L19.1512 15.4085C19.3631 15.3026 19.6002 15.2465 19.8372 15.2465H19.9672C20.5519 15.2465 21.0774 15.5713 21.3386 16.0939L21.7466 16.9101C22.475 18.3671 23.9426 19.2722 25.5772 19.2722H25.628C26.6651 19.2722 27.6642 18.8761 28.4224 18.1883C29.1505 18.8772 30.1194 19.2722 31.146 19.2722H31.3689C32.5818 19.2722 33.7011 18.7284 34.4448 17.8131C35.5071 18.6251 36.7665 19.1177 38.1036 19.2414V26.6529H35.4198V27.3238C35.4198 28.8092 35.015 30.2018 34.3104 31.3976L34.2085 30.6855C33.8806 28.3867 31.8816 26.6529 29.5593 26.6529H26.6973V23.9691H25.3552V26.6529H24.6823C24.0697 25.8387 23.0956 25.3109 22.0002 25.3109C20.6521 25.3109 19.444 26.1321 18.9211 27.3352C18.8294 27.3276 18.7375 27.3238 18.6455 27.3238C17.7134 27.3238 16.824 27.7199 16.1955 28.3885C15.7138 28.132 15.1724 27.995 14.6202 27.995C14.3903 27.995 14.166 28.0182 13.9493 28.0626L13.9489 18.964ZM38.0145 29.3365H36.545C36.6408 28.8998 36.7061 28.4515 36.7386 27.9945L38.1042 27.9947C38.1042 28.4497 38.0731 28.8975 38.0145 29.3365ZM25.2879 27.9947H29.5593C31.2179 27.9947 32.6459 29.2332 32.8804 30.8753L33.1697 32.9011C32.8023 33.2833 32.3975 33.6289 31.9613 33.933L31.5516 31.0652C31.4112 30.0797 30.5546 29.3366 29.5593 29.3366H25.2864C25.3313 29.1175 25.3554 28.8932 25.3554 28.6657C25.3554 28.4359 25.332 28.2115 25.2879 27.9947ZM25.3093 33.9664C25.5444 34.0102 25.7835 34.0334 26.0264 34.0334C27.071 34.0334 28.0529 33.6266 28.7915 32.888L29.1847 32.4949L28.2358 31.546L27.8426 31.9392C27.3578 32.4244 26.7127 32.6916 26.0264 32.6916C25.7699 32.6916 25.5195 32.6533 25.2775 32.5793C25.1553 31.9659 24.8921 31.3879 24.508 30.8931C24.5692 30.8241 24.6269 30.7524 24.6824 30.6787H29.5594C29.891 30.6787 30.1766 30.9265 30.2236 31.2547L30.7085 34.6492C29.6905 35.1152 28.5591 35.3755 27.3685 35.3755H25.3593C25.2316 35.28 25.0973 35.1924 24.9557 35.1152C25.1318 34.7531 25.2498 34.3671 25.3093 33.9664ZM26.4201 36.7172H27.3685C27.5939 36.7172 27.8177 36.7091 28.0393 36.6934V38.0593H26.6973C26.6973 37.5843 26.5992 37.1298 26.4201 36.7172ZM29.3811 36.4999C29.8259 36.4024 30.2591 36.2733 30.6782 36.1151L31.3671 37.4932C30.7316 37.7166 30.0671 37.878 29.3811 37.9697L29.3814 36.4999L29.3811 36.4999ZM31.8969 35.5513C32.3365 35.3084 32.755 35.0313 33.1482 34.7233L34.2964 35.8719C33.7718 36.2894 33.2051 36.6563 32.6029 36.9638L31.8969 35.5513ZM36.142 30.6786H37.7397C37.5627 31.3172 37.3245 31.9306 37.0311 32.5119L35.7131 31.6333C35.8733 31.3245 36.0163 31.0059 36.142 30.6786ZM15.2907 39.4012C14.1808 39.4012 13.2777 38.4982 13.2777 37.3882V36.7173H12.6068C11.4969 36.7173 10.5938 35.8143 10.5938 34.7043C10.5938 33.763 11.2607 32.9356 12.1794 32.7372L12.8781 32.5863L12.6834 31.8986C12.6326 31.7196 12.6068 31.5347 12.6068 31.3496C12.6068 30.2397 13.5098 29.3366 14.6198 29.3366C15.0925 29.3366 15.5522 29.504 15.914 29.8084L16.515 30.3136L16.9204 29.6413C17.2886 29.0305 17.9337 28.6657 18.6455 28.6657C18.8303 28.6657 19.0152 28.6915 19.1948 28.7423L19.8822 28.9367L20.0331 28.2383C20.2319 27.3196 21.0589 26.6527 22.0002 26.6527C23.1101 26.6527 24.0132 27.5557 24.0132 28.6657C24.0132 29.3151 23.6963 29.9286 23.1656 30.3064L22.479 30.7953L23.1096 31.3548C23.6839 31.8646 24.0132 32.5962 24.0132 33.3625C24.0132 33.9742 23.8121 34.5508 23.4317 35.0296L22.7733 35.8586L23.804 36.1003C24.7172 36.3142 25.3553 37.1197 25.3553 38.0593C25.3553 39.1692 24.4523 40.0723 23.3423 40.0723C22.9416 40.0723 22.5545 39.9548 22.2231 39.7325L21.5032 39.2496L21.2162 40.0677C20.9336 40.8729 20.1701 41.4141 19.3164 41.4141C18.2901 41.4141 17.4305 40.6463 17.3165 39.6277L17.2016 38.5987L16.3093 39.124C16.0014 39.3053 15.6491 39.4011 15.2907 39.4011L15.2907 39.4012ZM32.1528 42.4664L38.6987 43.6216C39.6809 43.7948 40.4444 44.5174 40.6974 45.4401L11.3545 45.4398C11.6076 44.5167 12.3711 43.7945 13.3533 43.6213L18.6423 42.6881C18.8603 42.7325 19.0857 42.7563 19.3164 42.7563C20.4809 42.7563 21.5447 42.1519 22.1506 41.1963C22.5284 41.3399 22.9309 41.4142 23.342 41.4142C24.7148 41.4142 25.8971 40.5849 26.4159 39.4012H28.0389C28.4942 39.4012 28.9431 39.3737 29.3847 39.3214C29.4576 40.8829 30.5989 42.1922 32.1528 42.4664ZM35.2897 34.9672L34.1441 33.8216C34.4572 33.4951 34.747 33.1463 35.0108 32.7778L36.3468 33.6686C36.0305 34.1306 35.6765 34.565 35.2897 34.9672ZM40.1163 24.6393H39.4454V20.6134H40.1163C41.2262 20.6134 42.1292 21.5164 42.1292 22.6264C42.1292 23.7363 41.2262 24.6394 40.1163 24.6394V24.6393Z" fill="#ED712E"/>
<path d="M18.6449 33.3625C18.6449 34.4724 19.5479 35.3755 20.6579 35.3755C21.7678 35.3755 22.6709 34.4725 22.6709 33.3625C22.6709 32.2526 21.7679 31.3495 20.6579 31.3495C19.548 31.3495 18.6449 32.2525 18.6449 33.3625ZM20.6579 32.6916C21.0279 32.6916 21.3288 32.9925 21.3288 33.3625C21.3288 33.7325 21.0279 34.0334 20.6579 34.0334C20.2879 34.0334 19.987 33.7325 19.987 33.3625C19.987 32.9925 20.2879 32.6916 20.6579 32.6916Z" fill="#ED712E"/>
<path d="M13.2778 34.7041C13.2778 35.0747 12.9775 35.3753 12.6069 35.3753C12.2364 35.3753 11.936 35.0747 11.936 34.7041C11.936 34.3335 12.2364 34.0332 12.6069 34.0332C12.9775 34.0332 13.2778 34.3335 13.2778 34.7041Z" fill="#ED712E"/>
<path d="M15.2902 31.3494C15.2902 31.7199 14.9899 32.0202 14.6193 32.0202C14.2488 32.0202 13.9481 31.7199 13.9481 31.3494C13.9481 30.9788 14.2487 30.6785 14.6193 30.6785C14.9899 30.6785 15.2902 30.9788 15.2902 31.3494Z" fill="#ED712E"/>
<path d="M16.6326 36.0457C16.6326 36.4163 16.3322 36.7166 15.9617 36.7166C15.5911 36.7166 15.2908 36.4163 15.2908 36.0457C15.2908 35.6752 15.5911 35.3748 15.9617 35.3748C16.3322 35.3748 16.6326 35.6752 16.6326 36.0457Z" fill="#ED712E"/>
<path d="M19.3165 30.6785C19.3165 31.0491 19.0162 31.3494 18.6456 31.3494C18.2751 31.3494 17.9747 31.0491 17.9747 30.6785C17.9747 30.308 18.2751 30.0076 18.6456 30.0076C19.0162 30.0076 19.3165 30.308 19.3165 30.6785Z" fill="#ED712E"/>
<path d="M19.9872 39.4004C19.9872 39.771 19.6866 40.0713 19.316 40.0713C18.9455 40.0713 18.6451 39.771 18.6451 39.4004C18.6451 39.0299 18.9455 38.7296 19.316 38.7296C19.6866 38.7296 19.9872 39.0299 19.9872 39.4004Z" fill="#ED712E"/>
<path d="M21.9996 38.0588C21.9996 38.4294 21.6993 38.7297 21.3287 38.7297C20.9582 38.7297 20.6578 38.4294 20.6578 38.0588C20.6578 37.6883 20.9582 37.3876 21.3287 37.3876C21.6993 37.3876 21.9996 37.6883 21.9996 38.0588Z" fill="#ED712E"/>
</svg>
