<svg width="52" height="52" viewBox="0 0 52 52" fill="none" xmlns="http://www.w3.org/2000/svg">
<path d="M39.8156 20.8387C39.3957 20.4388 38.8381 20.2157 38.2582 20.2157C37.6783 20.2157 37.1207 20.4388 36.7008 20.8387L31.8582 25.6813C32.8216 23.8453 33.5019 21.8742 33.8763 19.8348L34.3769 17.0832C34.402 16.9458 34.3817 16.8039 34.3193 16.679C34.2568 16.554 34.1554 16.4527 34.0305 16.3903L33.0705 15.9103C31.8328 15.2896 30.7366 14.42 29.8507 13.3559C28.9647 12.2918 28.3082 11.0562 27.9221 9.72645C27.7782 7.5929 24.5092 6 20.1937 6C15.8782 6 12.6092 7.5929 12.4653 9.72645C12.0792 11.0562 11.4226 12.2918 10.5367 13.3559C9.65079 14.42 8.55462 15.2896 7.31691 15.9103L6.35691 16.3903C6.23193 16.4527 6.13059 16.554 6.06811 16.679C6.00564 16.8039 5.98541 16.9458 6.01046 17.0832L6.51175 19.8413C7.09116 22.9971 8.39545 25.9753 10.3219 28.5413C12.2483 31.1072 14.7442 33.1907 17.613 34.6277V38.3503C15.2821 38.5206 11.1614 39.0703 11.1614 40.8387V43.4194C11.1614 45.9277 19.2692 46 20.1937 46C21.1182 46 29.2259 45.9277 29.2259 43.4194V40.8387C29.2259 39.0703 25.1053 38.5206 22.7743 38.3503V34.629C25.8798 33.0692 28.5434 30.7537 30.5201 27.8955C30.5201 27.909 30.5163 27.9219 30.5163 27.9355C30.5154 28.2249 30.572 28.5115 30.6827 28.7789C30.7935 29.0462 30.9562 29.2889 31.1614 29.4929L35.6776 34.009V38.4142C33.9666 38.6303 31.1614 39.2297 31.1614 40.8387V43.4194C31.1614 45.1923 34.8389 46 38.2582 46C41.6776 46 45.355 45.1923 45.355 43.4194V40.8387C45.355 39.2258 42.5427 38.6297 40.8389 38.4142V34.009L45.355 29.4929C45.768 29.0798 46.0001 28.5196 46.0001 27.9355C46.0001 27.3513 45.768 26.7911 45.355 26.3781L39.8156 20.8387ZM27.2905 20.8387C27.2905 20.9663 27.2526 21.091 27.1817 21.1971C27.1108 21.3032 27.0101 21.3859 26.8922 21.4348C26.7743 21.4836 26.6446 21.4964 26.5194 21.4715C26.3943 21.4466 26.2793 21.3851 26.1891 21.2949C26.0989 21.2047 26.0374 21.0897 26.0125 20.9646C25.9876 20.8394 26.0004 20.7097 26.0493 20.5918C26.0981 20.4739 26.1808 20.3732 26.2869 20.3023C26.393 20.2314 26.5177 20.1935 26.6453 20.1935C26.8164 20.1935 26.9805 20.2615 27.1015 20.3825C27.2225 20.5035 27.2905 20.6676 27.2905 20.8387ZM27.0447 18.9458C26.9134 18.9175 26.7796 18.9033 26.6453 18.9032C26.1565 18.9046 25.6863 19.0912 25.3297 19.4255C24.973 19.7597 24.7563 20.2168 24.7234 20.7045C24.0759 21.073 23.3931 21.3755 22.6853 21.6077C22.4177 21.1859 22.0505 20.8362 21.616 20.5896C21.1815 20.343 20.6931 20.207 20.1937 20.1935C19.6942 20.2071 19.2056 20.3434 18.7711 20.5902C18.3367 20.837 17.9695 21.1869 17.7021 21.609C16.9942 21.3768 16.3115 21.0742 15.664 20.7058C15.6313 20.2179 15.4148 19.7605 15.0581 19.4259C14.7014 19.0914 14.2311 18.9046 13.7421 18.9032C13.6078 18.9033 13.474 18.9175 13.3427 18.9458C12.2162 17.8285 11.3406 16.4841 10.7743 15.0019C11.7792 14.0054 12.5888 12.8297 13.1614 11.5355C14.3627 12.8619 16.9879 13.7419 20.1937 13.7419C23.3995 13.7419 26.0247 12.8619 27.2259 11.5355C27.7986 12.8297 28.6082 14.0054 29.613 15.0019C29.0468 16.4841 28.1712 17.8285 27.0447 18.9458ZM22.1292 24.0645C22.1292 25.4877 21.2608 26.6452 20.1937 26.6452C19.1266 26.6452 18.2582 25.4877 18.2582 24.0645C18.2582 22.6413 19.1266 21.4839 20.1937 21.4839C21.2608 21.4839 22.1292 22.6413 22.1292 24.0645ZM13.7421 20.1935C13.8697 20.1935 13.9944 20.2314 14.1005 20.3023C14.2066 20.3732 14.2893 20.4739 14.3381 20.5918C14.387 20.7097 14.3997 20.8394 14.3748 20.9646C14.3499 21.0897 14.2885 21.2047 14.1983 21.2949C14.108 21.3851 13.9931 21.4466 13.8679 21.4715C13.7428 21.4964 13.6131 21.4836 13.4952 21.4348C13.3773 21.3859 13.2765 21.3032 13.2056 21.1971C13.1348 21.091 13.0969 20.9663 13.0969 20.8387C13.0969 20.6676 13.1649 20.5035 13.2859 20.3825C13.4069 20.2615 13.571 20.1935 13.7421 20.1935ZM20.1937 7.29032C23.8866 7.29032 26.6453 8.6529 26.6453 9.87097C26.6453 11.089 23.8866 12.4516 20.1937 12.4516C16.5008 12.4516 13.7421 11.089 13.7421 9.87097C13.7421 8.6529 16.5008 7.29032 20.1937 7.29032ZM20.1937 44.7097C15.5879 44.7097 12.784 43.8652 12.4518 43.3755V42.3039C14.7782 43.3787 19.5014 43.4194 20.1937 43.4194C20.8859 43.4194 25.6092 43.3787 27.9356 42.3039V43.3755C27.6034 43.8652 24.7995 44.7097 20.1937 44.7097ZM20.1937 42.129C15.7272 42.129 12.955 41.3348 12.4885 40.8387C12.8111 40.5129 14.3634 39.8839 17.6318 39.6406C17.6479 39.7767 17.7076 39.9039 17.8021 40.0032C18.0657 40.2688 18.3794 40.4794 18.7251 40.6229C19.0707 40.7663 19.4414 40.8396 19.8156 40.8387H20.5718C20.9459 40.8398 21.3165 40.7666 21.6621 40.6234C22.0078 40.4803 22.3216 40.2699 22.5853 40.0045C22.6798 39.9052 22.7395 39.778 22.7556 39.6419C26.024 39.8852 27.5769 40.5142 27.8989 40.84C27.4324 41.3348 24.6601 42.129 20.1937 42.129ZM21.484 39.2529C21.2182 39.4441 20.8992 39.5474 20.5718 39.5484H19.8156C19.4882 39.5474 19.1692 39.4441 18.9034 39.2529V35.2187C19.2614 35.3684 19.6214 35.5135 19.9898 35.6432C20.1258 35.6892 20.2734 35.6879 20.4085 35.6394C20.773 35.5103 21.1298 35.3671 21.484 35.2187V39.2529ZM20.1937 34.3458C17.0225 33.1811 14.2097 31.2096 12.0331 28.626C9.85637 26.0423 8.39096 22.9358 7.78143 19.6129L7.36659 17.3303L7.89433 17.0665C8.54687 16.7374 9.16572 16.3455 9.74208 15.8961C10.3348 17.2887 11.176 18.5617 12.2247 19.6529C12.065 19.8542 11.9472 20.0854 11.8782 20.3329C11.8091 20.5804 11.7902 20.8391 11.8226 21.094C11.8549 21.3489 11.9379 21.5948 12.0666 21.8171C12.1953 22.0395 12.3672 22.2339 12.5721 22.3889C12.777 22.544 13.0108 22.6565 13.2598 22.7199C13.5088 22.7833 13.7679 22.7963 14.022 22.7581C14.2761 22.72 14.52 22.6314 14.7393 22.4977C14.9587 22.3639 15.1492 22.1877 15.2995 21.9794C15.8946 22.2986 16.5147 22.5687 17.1537 22.7871C17.0312 23.2019 16.9686 23.632 16.9679 24.0645C16.9679 26.1994 18.415 27.9355 20.1937 27.9355C21.9724 27.9355 23.4195 26.1994 23.4195 24.0645C23.4192 23.6321 23.3571 23.2019 23.235 22.7871C23.8742 22.5686 24.4945 22.2985 25.0898 21.9794C25.2396 22.1892 25.4299 22.3669 25.6494 22.5019C25.869 22.6369 26.1135 22.7265 26.3683 22.7655C26.6231 22.8044 26.8832 22.7918 27.1331 22.7285C27.383 22.6652 27.6176 22.5524 27.8232 22.3969C28.0287 22.2413 28.201 22.0461 28.3298 21.8228C28.4587 21.5996 28.5414 21.3527 28.5732 21.0969C28.605 20.8411 28.5851 20.5815 28.5148 20.3335C28.4446 20.0854 28.3253 19.854 28.164 19.6529C29.2122 18.5616 30.053 17.2886 30.6453 15.8961C31.2213 16.3447 31.8397 16.736 32.4918 17.0645L33.0195 17.3284L32.6059 19.6039C31.9973 22.9282 30.5324 26.0363 28.3557 28.6216C26.179 31.2068 23.3658 33.1798 20.1937 34.3458ZM36.9679 35.2523C37.3414 35.5284 37.7937 35.6775 38.2582 35.6775C38.7227 35.6775 39.175 35.5284 39.5485 35.2523V39.2523C39.2828 39.4437 38.9638 39.5472 38.6363 39.5484H37.8801C37.5527 39.5474 37.2337 39.4441 36.9679 39.2529V35.2523ZM38.2582 44.7097C34.484 44.7097 32.5492 43.7677 32.4518 43.4194V42.4052C33.8247 43.0968 36.0924 43.4194 38.2582 43.4194C40.424 43.4194 42.6924 43.0935 44.0647 42.4045V43.4097C43.9672 43.7677 42.0324 44.7097 38.2582 44.7097ZM44.0647 40.829C43.9672 41.1871 42.0324 42.129 38.2582 42.129C34.484 42.129 32.5556 41.1897 32.4518 40.8503V40.8465C32.5118 40.6413 33.4311 40.0181 35.7105 39.7123C35.7357 39.8218 35.7896 39.9226 35.8666 40.0045C36.1303 40.2699 36.4441 40.4803 36.7897 40.6234C37.1354 40.7666 37.506 40.8398 37.8801 40.8387H38.6363C39.0104 40.8398 39.381 40.7666 39.7267 40.6234C40.0723 40.4803 40.3861 40.2699 40.6498 40.0045C40.727 39.9227 40.7811 39.8218 40.8066 39.7123C43.0918 40.0187 44.0098 40.6452 44.0647 40.829ZM44.4427 28.5806L38.9034 34.12C38.7283 34.2835 38.4977 34.3744 38.2582 34.3744C38.0187 34.3744 37.7881 34.2835 37.613 34.12L32.0737 28.5806C31.9027 28.4095 31.8067 28.1774 31.8067 27.9355C31.8067 27.6935 31.9027 27.4615 32.0737 27.2903L37.613 21.751C37.7842 21.58 38.0163 21.4839 38.2582 21.4839C38.5001 21.4839 38.7322 21.58 38.9034 21.751L44.4427 27.2903C44.6137 27.4615 44.7097 27.6935 44.7097 27.9355C44.7097 28.1774 44.6137 28.4095 44.4427 28.5806Z" fill="#ED712E"/>
<path d="M40.8387 26.798V24.7097H39.5484V26.798C39.1277 27.0415 38.7838 27.398 38.5557 27.8272C38.3276 28.2564 38.2244 28.7409 38.258 29.2258C38.258 30.6729 39.1084 31.8064 40.1935 31.8064C41.2787 31.8064 42.129 30.6729 42.129 29.2258C42.1626 28.7409 42.0595 28.2564 41.8314 27.8272C41.6033 27.398 41.2594 27.0415 40.8387 26.798ZM40.1935 30.5161C39.9303 30.5161 39.5484 30.0135 39.5484 29.2258C39.5484 28.438 39.9303 27.9355 40.1935 27.9355C40.4568 27.9355 40.8387 28.438 40.8387 29.2258C40.8387 30.0135 40.4568 30.5161 40.1935 30.5161Z" fill="#ED712E"/>
<path d="M36.9677 26.798V24.7097H35.6774V26.798C35.2567 27.0415 34.9128 27.398 34.6847 27.8272C34.4566 28.2564 34.3535 28.7409 34.3871 29.2258C34.3871 30.6729 35.2374 31.8064 36.3226 31.8064C37.4077 31.8064 38.258 30.6729 38.258 29.2258C38.2916 28.7409 38.1885 28.2564 37.9604 27.8272C37.7323 27.398 37.3884 27.0415 36.9677 26.798ZM36.3226 30.5161C36.0593 30.5161 35.6774 30.0135 35.6774 29.2258C35.6774 28.438 36.0593 27.9355 36.3226 27.9355C36.5858 27.9355 36.9677 28.438 36.9677 29.2258C36.9677 30.0135 36.5858 30.5161 36.3226 30.5161Z" fill="#ED712E"/>
</svg>
