<svg width="212" height="77" viewBox="0 0 212 77" fill="none" xmlns="http://www.w3.org/2000/svg">
<path d="M96.3903 53.1858H101.287L102.138 55.9166H105.149L100.472 42.6484H97.2763L92.55 55.9183H95.4679L96.3903 53.1858ZM98.8297 45.6442H98.8678L100.511 50.8905H97.1289L98.8297 45.6442ZM91.7451 51.9868C91.7451 50.6736 91.3212 49.3802 89.695 48.7724C90.2481 48.4959 91.3212 47.961 91.3212 46.0549C91.3212 44.687 90.4899 42.6517 87.2357 42.6517H80.7871V55.9232H86.4061C89.1236 55.9232 89.844 55.4612 90.6008 54.7176C91.3013 54.037 91.7451 53.0351 91.7451 51.9868ZM83.45 44.947H86.6296C87.8849 44.947 88.6616 45.2782 88.6616 46.3679C88.6616 47.4244 87.7955 47.8484 86.7008 47.8484H83.45V44.947ZM86.8482 53.6296H83.45V50.0807H86.9791C87.9793 50.0807 88.9746 50.5295 88.9746 51.6887C88.9729 53.0351 88.1962 53.6296 86.8482 53.6296ZM126.486 48.0852L132.214 55.9166H128.647L124.545 50.0956L123.251 51.4271V55.9166H120.479V42.6484H123.251V48.0438L128.317 42.6484H131.901L126.486 48.0852ZM92.5516 63.286C92.5516 62.0175 92.2469 61.8088 91.6888 61.5637C92.3612 61.3368 92.7404 60.696 92.7404 59.9425C92.7404 59.3562 92.4109 58.0231 90.6025 58.0231H87.1645V64.8195H88.5589V62.1615H90.0245C91.0761 62.1615 91.1341 62.5226 91.1341 63.4466C91.1341 64.1455 91.1887 64.4999 91.2831 64.8178H92.8547V64.6406C92.5516 64.5264 92.5516 64.278 92.5516 63.286ZM90.2183 61.0189H88.5573V59.1972H90.3259C91.1573 59.1972 91.3195 59.7239 91.3195 60.0865C91.3179 60.7556 90.9602 61.0189 90.2183 61.0189ZM94.8254 31.0346C94.8154 30.7298 94.8055 30.3622 94.7923 29.9383C94.7658 29.5077 94.8767 29.0407 94.9214 28.5124C94.9761 27.9825 95.0473 27.4078 95.2477 26.8216C95.4166 26.2304 95.564 25.5812 95.8886 24.9768C96.031 24.6654 96.1767 24.3458 96.3291 24.0245C96.4881 23.7082 96.7083 23.4217 96.8988 23.112C97.2747 22.4761 97.7616 21.9164 98.26 21.3566C98.7419 20.7721 99.3364 20.3266 99.878 19.8116C100.472 19.3909 101.039 18.904 101.647 18.5612C102.244 18.1837 102.834 17.8458 103.415 17.5676C103.988 17.2579 104.556 17.0493 105.075 16.8174C105.876 16.5061 106.588 16.2643 107.175 16.0921C106.929 15.4893 106.719 14.8616 106.563 14.1926C106.399 13.5037 106.26 12.7999 106.247 12C107.017 12.2153 107.661 12.5283 108.289 12.8562C108.913 13.1874 109.483 13.5567 110.016 13.9574C111.093 14.7507 112.008 15.6665 112.84 16.6485C113.471 17.3921 113.525 18.4304 113.057 19.2237L112.959 19.386C112.196 20.6628 111.286 21.8501 110.187 22.9133C109.644 23.4466 109.043 23.945 108.375 24.4038C108.039 24.629 107.686 24.8476 107.327 25.0579C106.954 25.2616 106.562 25.4487 106.13 25.6143C106.1 25.154 106.106 24.7168 106.139 24.2945C106.181 23.8788 106.234 23.4714 106.298 23.069C106.441 22.2757 106.645 21.5222 106.906 20.8052C106.933 20.7273 106.964 20.6545 106.994 20.5783C106.739 20.6098 106.474 20.6445 106.186 20.6859C105.737 20.782 105.222 20.8482 104.71 20.9973C104.184 21.1165 103.645 21.2838 103.099 21.4825C102.526 21.6514 102.013 21.9429 101.43 22.1764C100.918 22.4927 100.327 22.7527 99.8415 23.1385C99.3331 23.5062 98.8198 23.8771 98.3991 24.3359C98.1855 24.5578 97.9371 24.7615 97.7433 24.9983C97.5595 25.2417 97.374 25.4868 97.1935 25.7236C96.7928 26.1857 96.546 26.7206 96.2744 27.2157C95.9763 27.7026 95.7958 28.2094 95.6402 28.6846C95.4944 29.1599 95.2841 29.5905 95.2228 29.9962C95.145 30.4036 95.0771 30.7563 95.0225 31.0495C94.9132 31.6407 94.8486 31.9802 94.8486 31.9802C94.8486 31.9802 94.8436 31.6357 94.8254 31.0346ZM80.7888 58.0231H86.3166V59.2304H84.2582V64.8228H82.8423V59.2304H80.7888V58.0231ZM95.7064 58.0231L93.2836 64.8195H94.7807L95.2526 63.4168H97.7599L98.1971 64.8195H99.7405L97.3475 58.0231H95.7064ZM95.6335 62.2444L96.5063 59.5582H96.5195L97.3674 62.2444H95.6335ZM108.185 35.0902C107.62 35.4165 107.059 35.645 106.549 35.8901C105.755 36.2246 105.055 36.4863 104.472 36.6767C104.737 37.2712 104.964 37.8939 105.141 38.558C105.318 39.2419 105.48 39.9408 105.522 40.7373C104.742 40.5469 104.089 40.2521 103.455 39.9441C102.817 39.6327 102.236 39.2817 101.693 38.8958C100.597 38.1357 99.6528 37.2464 98.7916 36.2908C98.1375 35.5655 98.0514 34.5305 98.4968 33.7223L98.5912 33.56C99.3166 32.26 100.189 31.0462 101.256 29.9515C101.782 29.4 102.369 28.885 103.018 28.4064C103.351 28.1713 103.69 27.9427 104.046 27.7225C104.412 27.5072 104.8 27.3068 105.227 27.1313C105.268 27.5883 105.275 28.0272 105.253 28.4495C105.224 28.8668 105.186 29.2758 105.134 29.6799C105.015 30.4765 104.833 31.2349 104.594 31.9619C104.568 32.0398 104.536 32.1126 104.513 32.1905C104.765 32.1524 105.032 32.1093 105.318 32.058C105.765 31.9504 106.275 31.8692 106.78 31.7036C107.304 31.5695 107.839 31.3873 108.377 31.1704C108.945 30.9865 109.45 30.6785 110.023 30.4284C110.526 30.0956 111.113 29.8207 111.581 29.4199C112.08 29.039 112.581 28.6499 112.986 28.1812C113.199 27.9527 113.438 27.7407 113.628 27.5006C113.804 27.2488 113.981 27.0004 114.153 26.757C114.541 26.2817 114.771 25.7418 115.026 25.2384C115.311 24.7416 115.475 24.2315 115.612 23.7513C115.745 23.271 115.942 22.8355 115.991 22.4281C116.056 22.0191 116.111 21.663 116.159 21.3699C116.26 20.7754 116.308 20.4359 116.308 20.4359C116.308 20.4359 116.334 20.777 116.366 21.3765C116.382 21.6812 116.402 22.0505 116.43 22.4728C116.467 22.9017 116.375 23.3737 116.341 23.902C116.304 24.4319 116.245 25.0099 116.066 25.5994C115.913 26.1939 115.784 26.8481 115.48 27.4608C115.347 27.7771 115.208 28.1001 115.069 28.4263C114.917 28.7476 114.709 29.0407 114.527 29.357C114.17 30.0045 113.703 30.5758 113.221 31.1505C112.755 31.7467 112.174 32.2137 111.649 32.7419C111.065 33.1808 110.511 33.6842 109.915 34.0452C109.337 34.441 108.754 34.7971 108.185 35.0902ZM113.82 58.0231H118.656V59.2304H115.241V60.7638H118.232V61.9661H115.241V64.8245H113.82V58.0231ZM104.805 58.0231H106.131V64.8195H104.709L101.936 59.9723H101.915V64.8195H100.592V58.0231H102.085L104.786 62.7544H104.803L104.805 58.0231ZM131.315 63.286C131.315 62.0175 131.007 61.8088 130.452 61.5637C131.121 61.3368 131.507 60.696 131.507 59.9425C131.507 59.3562 131.174 58.0231 129.365 58.0231H125.931V64.8195H127.325V62.1615H128.791C129.839 62.1615 129.9 62.5226 129.9 63.4466C129.9 64.1455 129.955 64.4999 130.051 64.8178H131.618V64.6406C131.315 64.5264 131.315 64.278 131.315 63.286ZM128.986 61.0189H127.324V59.1972H129.089C129.924 59.1972 130.086 59.7239 130.086 60.0865C130.086 60.7556 129.726 61.0189 128.986 61.0189ZM112.735 62.7759C112.735 64.8145 110.651 65 110.058 65C107.577 65 107.155 63.5742 107.155 62.7279H108.513C108.523 63.1071 108.713 63.8259 109.955 63.8259C110.622 63.8259 111.373 63.6603 111.373 62.9498C111.373 62.4166 110.859 62.2775 110.142 62.1036L109.415 61.9314C108.316 61.6796 107.257 61.4296 107.257 59.9325C107.257 59.1757 107.663 57.8426 109.869 57.8426C111.952 57.8426 112.509 59.2039 112.519 60.0368H111.161C111.123 59.7338 111.008 59.0167 109.766 59.0167C109.23 59.0167 108.582 59.2138 108.582 59.8282C108.582 60.3581 109.019 60.4724 109.304 60.5403L110.957 60.9477C111.883 61.1729 112.735 61.5554 112.735 62.7759ZM121.001 63.6172H124.768V64.8228H119.61V58.0264H124.609V59.232H121.001V60.6595H124.313V61.8618H121.001V63.6172ZM109.385 55.9232H106.799V42.6534H109.718L114.988 51.8924H115.022V42.6534H117.609V55.9249H114.84L109.423 46.4639H109.389L109.385 55.9232Z" fill="black"/>
</svg>
