<svg width="212" height="95" viewBox="0 0 212 95" fill="none" xmlns="http://www.w3.org/2000/svg">
<rect width="212" height="95" fill="white"/>
<g clip-path="url(#clip0_1145_2457)">
<path d="M55.0048 37.0279L59.5177 32.3937L64.033 37.0304L66.6589 34.3337L59.5177 27L52.3789 34.3313L55.0048 37.0279Z" fill="#F3BA2F"/>
<path d="M53.1513 38.9319L50.5254 36.2354L47.8994 38.9321L50.5253 41.6287L53.1513 38.9319Z" fill="#F3BA2F"/>
<path d="M55.0067 40.8362L59.5196 45.4705L64.0347 40.834L66.6621 43.5291L66.6608 43.5306L59.5196 50.8642L52.3806 43.5331L52.377 43.5293L55.0067 40.8362Z" fill="#F3BA2F"/>
<path d="M68.5127 41.6293L71.1387 38.9326L68.5128 36.236L65.8868 38.9328L68.5127 41.6293Z" fill="#F3BA2F"/>
<path d="M62.181 38.9307H62.1821L59.5175 36.1943L57.5483 38.2166H57.5481L57.322 38.449L56.8552 38.9283L56.8516 38.9321L56.8552 38.936L59.5175 41.67L62.1821 38.9336L62.1834 38.9321L62.181 38.9307Z" fill="#F3BA2F"/>
<path d="M75.2305 32.7822H80.9417C82.3592 32.7822 83.431 33.1558 84.1575 33.903C84.7197 34.4816 85.0007 35.1988 85.0007 36.0543V36.0905C85.0007 36.452 84.9572 36.7715 84.8696 37.0486C84.7823 37.326 84.6655 37.5758 84.5196 37.7987C84.3741 38.0219 84.2049 38.2177 84.0125 38.3862C83.82 38.5551 83.6131 38.6999 83.3916 38.8201C84.1041 39.0976 84.665 39.474 85.0739 39.9501C85.4827 40.4264 85.6873 41.0863 85.6873 41.9297V41.9657C85.6873 42.5444 85.579 43.0505 85.3623 43.4845C85.1455 43.9182 84.8349 44.2799 84.4306 44.5693C84.0263 44.8586 83.5401 45.0753 82.9718 45.2201C82.4036 45.3647 81.7739 45.4369 81.0828 45.4369H75.2305V32.7822ZM80.3707 37.8982C80.9694 37.8982 81.4448 37.7931 81.7966 37.582C82.1487 37.3711 82.3247 37.0305 82.3247 36.5606V36.5244C82.3247 36.1028 82.172 35.7804 81.8669 35.5573C81.5617 35.3343 81.1216 35.2227 80.5467 35.2227H77.8709V37.8982H80.3707ZM81.0926 42.9966C81.6911 42.9966 82.1602 42.8853 82.5009 42.6622C82.8411 42.4392 83.0115 42.0926 83.0115 41.6225V41.5865C83.0115 41.1647 82.8529 40.8303 82.5361 40.583C82.2191 40.3363 81.7087 40.2126 81.0045 40.2126H77.8709V42.9967L81.0926 42.9966Z" fill="#F3BA2F"/>
<path d="M89.0898 32.7822H91.8011V45.4372H89.0898V32.7822Z" fill="#F3BA2F"/>
<path d="M95.9082 32.7822H98.4077L104.182 40.5742V32.7822H106.858V45.4372H104.552L98.5839 37.3924V45.4372H95.9082V32.7822Z" fill="#F3BA2F"/>
<path d="M115.065 32.6924H117.565L122.846 45.4377H120.012L118.885 42.5995H113.674L112.548 45.4377H109.783L115.065 32.6924ZM117.917 40.1405L116.279 36.0368L114.643 40.1405H117.917Z" fill="#F3BA2F"/>
<path d="M125.773 32.7822H128.273L134.047 40.5742V32.7822H136.723V45.4372H134.417L128.449 37.3924V45.4372H125.773V32.7822Z" fill="#F3BA2F"/>
<path d="M146.48 45.6541C145.576 45.6541 144.737 45.4853 143.963 45.1481C143.188 44.8109 142.519 44.3496 141.956 43.765C141.392 43.1805 140.952 42.4904 140.636 41.695C140.319 40.8994 140.16 40.0498 140.16 39.1458V39.1098C140.16 38.2058 140.319 37.3593 140.636 36.5698C140.952 35.7804 141.392 35.0873 141.956 34.4908C142.519 33.8942 143.194 33.424 143.98 33.0806C144.766 32.7371 145.635 32.5654 146.586 32.5654C147.16 32.5654 147.685 32.6139 148.161 32.71C148.636 32.8067 149.067 32.939 149.455 33.1077C149.842 33.2766 150.2 33.4815 150.529 33.7223C150.857 33.9636 151.162 34.2286 151.444 34.5179L149.719 36.5607C149.238 36.115 148.748 35.7651 148.249 35.5122C147.75 35.2592 147.19 35.1326 146.568 35.1326C146.051 35.1326 145.573 35.2351 145.133 35.44C144.693 35.6449 144.315 35.928 143.998 36.2895C143.681 36.651 143.435 37.07 143.258 37.5459C143.082 38.0222 142.995 38.5313 142.995 39.0736V39.1096C142.995 39.6519 143.082 40.1644 143.258 40.6461C143.435 41.1284 143.678 41.5501 143.989 41.9116C144.3 42.2731 144.675 42.5596 145.115 42.7705C145.556 42.9816 146.04 43.0868 146.568 43.0868C147.272 43.0868 147.867 42.9543 148.354 42.6891C148.842 42.4243 149.326 42.0626 149.807 41.6044L151.532 43.3942C151.215 43.7439 150.886 44.0573 150.547 44.3342C150.206 44.6116 149.833 44.8495 149.428 45.0485C149.024 45.2472 148.58 45.3982 148.1 45.5003C147.618 45.6027 147.078 45.6541 146.48 45.6541Z" fill="#F3BA2F"/>
<path d="M154.723 32.7822H164V35.2591H157.399V37.8262H163.208V40.3029H157.399V42.9606H164.089V45.4372H154.723V32.7822Z" fill="#F3BA2F"/>
</g>
<defs>
<clipPath id="clip0_1145_2457">
<rect width="116" height="23.8642" fill="white" transform="translate(48 27)"/>
</clipPath>
</defs>
</svg>
