<svg width="212" height="95" viewBox="0 0 212 95" fill="none" xmlns="http://www.w3.org/2000/svg">
<rect width="212" height="95" fill="white"/>
<path d="M84.3402 64.9838V61.3889C84.3402 60.0103 83.5232 59.112 82.1821 59.112C81.4778 59.112 80.7241 59.3521 80.1987 60.1246C79.7902 59.4649 79.2126 59.112 78.3322 59.112C78.0049 59.0974 77.6791 59.1665 77.3841 59.3129C77.0891 59.4593 76.8341 59.6786 76.6418 59.951V59.2277H75.5332V64.9794H76.6418V61.6884C76.6418 60.6758 77.225 60.1911 78.042 60.1911C78.8591 60.1911 79.3253 60.7307 79.3253 61.6884V64.9838H80.434V61.6884C80.434 60.6758 81.0171 60.1911 81.8342 60.1911C82.6512 60.1911 83.1175 60.7307 83.1175 61.6884V64.9838H84.3402ZM102.543 59.2914H100.5V57.5554H99.3946V59.2914H98.2283V60.304H99.3946V63.0063C99.3946 64.3241 99.8609 65.1038 101.261 65.1038C101.792 65.0925 102.311 64.9485 102.775 64.6843L102.425 63.6717C102.11 63.8737 101.745 63.9777 101.374 63.9711C100.791 63.9711 100.499 63.6109 100.499 63.012V60.2577H102.542V59.2986L102.543 59.2914ZM112.928 59.112C112.626 59.1051 112.327 59.1787 112.061 59.3258C111.795 59.4729 111.571 59.6883 111.411 59.951V59.2277H110.302V64.9794H111.411V61.7491C111.411 60.79 111.877 60.1911 112.636 60.1911C112.892 60.2018 113.147 60.2421 113.394 60.3112L113.745 59.232C113.477 59.1628 113.203 59.1225 112.928 59.112ZM97.2337 59.7109C96.6505 59.2914 95.8335 59.112 94.9587 59.112C93.5585 59.112 92.6837 59.7716 92.6837 60.9101C92.6837 61.8692 93.3261 62.4074 94.5502 62.5882L95.1334 62.6475C95.7758 62.7676 96.1843 63.0077 96.1843 63.3071C96.1843 63.7267 95.718 64.0305 94.8418 64.0305C94.1728 64.0446 93.5175 63.8343 92.9753 63.4316L92.3921 64.3299C93.2092 64.9288 94.2009 65.0532 94.7869 65.0532C96.4209 65.0532 97.2957 64.2749 97.2957 63.1958C97.2957 62.1831 96.5914 61.6985 95.3701 61.5177L94.7869 61.4584C94.2614 61.3991 93.8008 61.2182 93.8008 60.8595C93.8008 60.44 94.2671 60.1362 94.9094 60.1362C95.6138 60.1362 96.3096 60.4356 96.6604 60.615L97.2337 59.7109ZM114.153 62.1079C114.153 63.8438 115.262 65.1038 117.071 65.1038C117.888 65.1038 118.471 64.9245 119.054 64.4442L118.471 63.5458C118.058 63.8893 117.544 64.0794 117.013 64.0854C116.027 64.0854 115.262 63.3071 115.262 62.1687C115.262 61.0302 116.017 60.2577 117.013 60.2577C117.544 60.2637 118.058 60.4539 118.471 60.7973L119.054 59.8989C118.471 59.4201 117.888 59.2393 117.071 59.2393C115.32 59.1192 114.153 60.3778 114.153 62.1151V62.1079ZM106.335 59.112C104.701 59.112 103.592 60.3098 103.592 62.1079C103.592 63.906 104.759 65.1038 106.451 65.1038C107.274 65.1217 108.077 64.8467 108.726 64.3256L108.142 63.4865C107.674 63.8596 107.101 64.0694 106.508 64.0854C105.751 64.0854 104.934 63.6066 104.818 62.5882H108.961V62.1094C108.961 60.3112 107.91 59.1134 106.335 59.1134V59.112ZM106.277 60.1911C107.094 60.1911 107.678 60.7307 107.735 61.6291H104.702C104.877 60.79 105.407 60.1911 106.277 60.1911ZM91.1666 62.1079V59.232H90.058V59.9554C89.6495 59.4158 89.0719 59.1163 88.2492 59.1163C86.6744 59.1163 85.5066 60.3749 85.5066 62.1122C85.5066 63.8496 86.673 65.1082 88.2492 65.1082C89.0663 65.1082 89.6495 64.8087 90.058 64.2691V64.9925H91.1666V62.1079ZM86.6744 62.1079C86.6744 61.0287 87.3167 60.1911 88.4253 60.1911C89.4762 60.1911 90.1157 61.0302 90.1157 62.1079C90.1157 63.2464 89.4114 64.0247 88.4253 64.0247C87.3167 64.084 86.6744 63.1856 86.6744 62.1079ZM129.791 59.112C129.489 59.1051 129.19 59.1787 128.924 59.3258C128.659 59.4729 128.434 59.6883 128.274 59.951V59.2277H127.165V64.9794H128.272V61.7491C128.272 60.79 128.739 60.1911 129.498 60.1911C129.754 60.2018 130.008 60.2421 130.256 60.3112L130.606 59.232C130.339 59.1628 130.065 59.1225 129.789 59.112H129.791ZM125.473 62.1079V59.232H124.365V59.9554C123.956 59.4158 123.379 59.1163 122.556 59.1163C120.981 59.1163 119.813 60.3749 119.813 62.1122C119.813 63.8496 120.98 65.1082 122.556 65.1082C123.373 65.1082 123.956 64.8087 124.365 64.2691V64.9925H125.473V62.1079ZM120.981 62.1079C120.981 61.0287 121.623 60.1911 122.732 60.1911C123.783 60.1911 124.422 61.0302 124.422 62.1079C124.422 63.2464 123.718 64.0247 122.732 64.0247C121.623 64.084 120.981 63.1856 120.981 62.1079ZM136.734 62.1079V56.9551H135.626V59.951C135.217 59.4114 134.64 59.112 133.817 59.112C132.242 59.112 131.074 60.3705 131.074 62.1079C131.074 63.8453 132.241 65.1038 133.817 65.1038C134.634 65.1038 135.217 64.8044 135.626 64.2648V64.9881H136.734V62.1079ZM132.242 62.1079C132.242 61.0287 132.884 60.1911 133.993 60.1911C135.044 60.1911 135.683 61.0302 135.683 62.1079C135.683 63.2464 134.979 64.0247 133.993 64.0247C132.883 64.0854 132.241 63.1871 132.241 62.1079H132.242Z" fill="black"/>
<path d="M116.195 15.6133H95.9492V49.5248H116.195V15.6133Z" fill="#FF5F00"/>
<path d="M97.9921 32.569C97.9928 29.3067 98.7122 26.0868 100.096 23.1505C101.48 20.2141 103.494 17.6374 105.985 15.6133C102.887 13.1117 99.1655 11.5558 95.2468 11.1234C91.3281 10.6911 87.37 11.3998 83.825 13.1684C80.28 14.9371 77.2911 17.6944 75.2 21.1251C73.1089 24.5559 72 28.5216 72 32.569C72 36.6164 73.1089 40.5821 75.2 44.0129C77.2911 47.4436 80.28 50.2009 83.825 51.9696C87.37 53.7382 91.3281 54.4469 95.2468 54.0146C99.1655 53.5822 102.887 52.0263 105.985 49.5247C103.494 47.5006 101.48 44.9239 100.096 41.9875C98.7122 39.0512 97.9928 35.8313 97.9921 32.569Z" fill="#EB001B"/>
<path d="M140 32.5697C140.003 36.6142 138.897 40.5778 136.809 44.0073C134.722 47.4367 131.736 50.1936 128.194 51.9625C124.653 53.7314 120.698 54.4409 116.782 54.01C112.866 53.579 109.147 52.0249 106.051 49.5255C108.543 47.5019 110.556 44.9252 111.94 41.9888C113.325 39.0523 114.044 35.8322 114.044 32.5697C114.044 29.3073 113.325 26.0872 111.94 23.1507C110.556 20.2142 108.543 17.6376 106.051 15.614C109.147 13.1146 112.866 11.5605 116.782 11.1295C120.698 10.6986 124.653 11.4081 128.194 13.177C131.736 14.9459 134.722 17.7027 136.809 21.1322C138.897 24.5617 140.003 28.5253 140 32.5697Z" fill="#F79E1B"/>
</svg>
