<svg width="212" height="77" viewBox="0 0 212 77" fill="none" xmlns="http://www.w3.org/2000/svg">
<path fill-rule="evenodd" clip-rule="evenodd" d="M71.9636 38.7911C71.9636 45.3067 66.8265 50.5822 60.4818 50.5822C54.1371 50.5822 49 45.3067 49 38.7911C49 32.2755 54.1371 27 60.4818 27C66.8265 27 71.9636 32.2755 71.9636 38.7911ZM55.9006 43.4563H61.5936C61.6894 43.4563 61.7277 43.3382 61.6894 43.2595L57.089 37.4132C57.0123 37.3344 56.9165 37.3738 56.8973 37.4525L55.7856 43.2989C55.7664 43.3973 55.8239 43.4563 55.9006 43.4563ZM55.7856 34.6376H61.4786C61.5552 34.6376 61.6127 34.7164 61.5936 34.7754L60.4818 40.6217C60.4626 40.7202 60.3476 40.7399 60.2901 40.6611L55.6897 34.7951C55.6514 34.7361 55.6897 34.6376 55.7856 34.6376ZM62.0536 34.7164C62.0728 34.677 62.1111 34.6179 62.1686 34.6179H66.2706C66.3473 34.6179 66.4048 34.6967 66.3856 34.7557L65.6189 38.5549C65.5997 38.6139 65.5614 38.6533 65.5039 38.6533H65.3889C63.3762 38.6533 61.7661 36.7439 62.0536 34.7164ZM80.436 33.8109H84.538C84.7297 33.8109 84.8639 33.929 84.8064 34.1455L84.5763 35.5038C85.3814 34.303 86.5507 33.5747 87.7583 33.5747C88.3525 33.5747 88.9851 33.8109 89.3301 34.1455C89.5218 34.3424 89.5218 34.4605 89.3876 34.6573L88.1992 36.3896C88.0458 36.6061 87.95 36.5864 87.7008 36.4683C87.4708 36.3699 87.1641 36.2715 86.8574 36.2715C85.4389 36.2715 84.2313 37.236 83.6754 40.1493L82.8512 44.539C82.7937 44.8343 82.5828 44.8933 82.4678 44.8933H80.3018C80.1293 44.8933 79.976 44.7358 80.0335 44.539L81.6436 36.0943L80.2826 34.1258C80.1676 33.9684 80.2443 33.8109 80.436 33.8109ZM88.2758 39.2635C88.8317 35.8384 91.2852 33.5747 94.4672 33.5747C97.7066 33.5747 99.2401 36.2321 98.78 39.106C98.665 39.854 98.4159 40.4446 97.8216 40.4446H90.9211C90.9786 42.0587 92.0711 42.8264 93.5279 42.8264C94.4864 42.8264 95.3873 42.4524 96.0582 41.9997C96.2307 41.8619 96.4224 41.8028 96.5374 41.9997L97.3233 43.2595C97.4574 43.4563 97.3808 43.5941 97.1891 43.7713C96.1732 44.7358 94.5055 45.1689 92.9912 45.1689C89.5984 45.1689 87.7583 42.5902 88.2758 39.2635ZM96.3073 38.5155C96.4032 36.7832 95.2531 36.0549 94.1605 36.0549C92.7037 36.0549 91.5919 37.0588 91.1511 38.5155H96.3073ZM109.093 44.6177L111.565 31.6653L110.358 30.0117C110.3 29.8936 110.377 29.7558 110.53 29.7558H114.326C114.536 29.7558 114.651 29.8936 114.594 30.0905L113.482 35.799C114.326 34.4802 115.61 33.5943 117.105 33.5943C119.501 33.5943 120.862 35.7006 120.344 38.2793L119.118 44.5587C119.079 44.7949 118.888 44.913 118.734 44.913H116.492C116.281 44.913 116.166 44.7752 116.204 44.5587L117.316 38.8895C117.603 37.3541 117.201 36.4092 116.3 36.4092C114.594 36.4092 113.252 38.3777 112.677 41.1532L111.949 44.6374C111.929 44.7752 111.814 44.8933 111.661 44.8933H109.303C109.169 44.8736 109.073 44.7555 109.093 44.6177ZM121.111 39.3816C121.667 35.7203 124.178 33.555 127.111 33.555C128.663 33.555 129.871 34.2833 130.35 35.4841L130.599 34.1455C130.638 33.9093 130.81 33.7912 131.002 33.7912H133.072C133.302 33.7912 133.398 33.9487 133.34 34.1455L131.366 44.539C131.328 44.7358 131.194 44.8736 130.964 44.8736H128.874C128.683 44.8736 128.587 44.7555 128.625 44.539L128.817 43.4563C127.839 44.598 126.632 45.1689 125.309 45.1689C122.3 45.1886 120.613 42.6296 121.111 39.3816ZM126.152 42.5312C127.878 42.5312 129.162 41.0351 129.411 39.3029C129.66 37.5509 128.74 36.2321 127.149 36.2321C125.443 36.2321 124.216 37.6494 123.929 39.3226C123.66 41.0154 124.485 42.5312 126.152 42.5312ZM132.708 44.5193L134.721 34.0865C134.759 33.9093 134.855 33.8109 134.97 33.8109H137.232C137.423 33.8109 137.557 33.929 137.5 34.1455L137.27 35.5038C138.075 34.303 139.244 33.5747 140.433 33.5747C141.027 33.5747 141.679 33.8109 142.005 34.1455C142.196 34.3424 142.196 34.4605 142.062 34.6573L140.874 36.3896C140.72 36.6061 140.605 36.5864 140.375 36.4683C140.145 36.3699 139.839 36.2715 139.513 36.2715C138.094 36.2715 136.887 37.236 136.35 40.1493L135.526 44.539C135.468 44.8343 135.238 44.8933 135.142 44.8933H132.976C132.823 44.8736 132.67 44.7161 132.708 44.5193ZM140.145 48.0428C140.011 47.9444 140.011 47.7673 140.107 47.6098L141.104 45.9956C141.219 45.8185 141.372 45.7791 141.506 45.8775C142.484 46.5075 143.442 46.9011 144.611 46.9011C146.662 46.9011 148.368 46.0547 148.963 43.2201C147.832 44.3028 146.797 44.8343 145.206 44.8343C142.12 44.8343 140.509 42.1768 141.008 39.1848C141.583 35.8187 144.036 33.5353 147.122 33.5353C148.828 33.5353 149.998 34.5195 150.362 35.3266L150.611 34.1258C150.649 33.8896 150.803 33.7715 150.975 33.7715H153.065C153.275 33.7715 153.391 33.9093 153.352 34.1258L151.608 43.2792C150.841 47.2555 148.158 49.342 144.516 49.342C142.982 49.3617 141.257 48.968 140.145 48.0428ZM146.03 42.2949C147.755 42.2949 149.039 40.8777 149.288 39.1848C149.538 37.4919 148.637 36.2321 147.027 36.2321C145.321 36.2321 144.094 37.61 143.806 39.2045C143.538 40.8383 144.362 42.2949 146.03 42.2949ZM153.429 39.2635C153.985 35.8384 156.438 33.5747 159.62 33.5747C162.86 33.5747 164.393 36.2321 163.914 39.106C163.818 39.854 163.55 40.4446 162.955 40.4446H156.055C156.112 42.0587 157.205 42.8264 158.662 42.8264C159.62 42.8264 160.521 42.4524 161.192 41.9997C161.365 41.8619 161.556 41.8028 161.671 41.9997L162.457 43.2595C162.591 43.4563 162.515 43.5941 162.323 43.7713C161.307 44.7358 159.639 45.1689 158.125 45.1689C154.751 45.1689 152.911 42.5902 153.429 39.2635ZM161.46 38.5155C161.556 36.7832 160.406 36.0549 159.314 36.0549C157.857 36.0549 156.745 37.0588 156.304 38.5155H161.46ZM104.32 45.1886C105.757 45.1886 107.157 44.7752 108.441 43.5351C108.633 43.3579 108.652 43.1217 108.518 42.9839L107.348 41.6454C107.233 41.5076 107.061 41.5076 106.927 41.6257C106.428 41.9997 105.642 42.4327 104.703 42.4327C103.016 42.4327 102.077 41.0745 102.288 39.3816C102.499 37.6887 103.802 36.3305 105.451 36.3305C106.352 36.3305 106.927 36.6651 107.559 37.3147C107.732 37.4919 107.827 37.4919 108.019 37.3344L109.533 35.9959C109.687 35.8581 109.725 35.7203 109.61 35.5431C108.69 34.2046 107.272 33.5747 105.7 33.5747C102.518 33.5747 99.9493 35.9959 99.5276 39.2241C99.0676 42.7083 101.329 45.1886 104.32 45.1886Z" fill="#3901F1"/>
</svg>
