<svg width="212" height="77" viewBox="0 0 212 77" fill="none" xmlns="http://www.w3.org/2000/svg">
<path fill-rule="evenodd" clip-rule="evenodd" d="M134.543 49.2438L146.001 38.5103L140.573 27.4062L134.543 49.2438Z" fill="#097939"/>
<path fill-rule="evenodd" clip-rule="evenodd" d="M130.684 49.2438L142.141 38.5103L136.714 27.4062L130.684 49.2438Z" fill="#ED752E"/>
<path fill-rule="evenodd" clip-rule="evenodd" d="M75.9291 27.5304L71.1051 45.1731L88.2307 45.2964L92.9347 27.5304H97.2763L91.6363 48.1841C91.4203 48.9728 90.5979 49.6136 89.8003 49.6136H67.8491C66.5179 49.6136 65.7291 48.5456 66.0891 47.2311L71.4683 27.5304H75.9291ZM128.875 27.4071H133.216L127.186 49.6136H122.722L128.875 27.4071ZM97.7595 36.6594L119.468 36.5362L120.916 31.8476H98.8443L100.171 27.5296L123.691 27.3077C125.155 27.2938 126.027 28.4579 125.641 29.9096L123.425 38.2269C123.039 39.6778 121.537 40.8534 120.073 40.8534H100.654L98.3643 49.9833H94.1403L97.7595 36.6594Z" fill="#747474"/>
</svg>
