<svg width="212" height="95" viewBox="0 0 212 95" fill="none" xmlns="http://www.w3.org/2000/svg">
<rect width="212" height="95" fill="white"/>
<path d="M107.546 33.5413C107.495 37.6988 111.154 40.019 113.91 41.3983C116.743 42.8137 117.694 43.7213 117.683 44.9868C117.661 46.924 115.424 47.7788 113.329 47.8121C109.675 47.8704 107.551 46.7991 105.862 45.9887L104.546 52.3137C106.241 53.1158 109.378 53.8152 112.632 53.8457C120.269 53.8457 125.266 49.9741 125.293 43.9711C125.323 36.3528 115.032 35.9309 115.102 32.5256C115.126 31.4931 116.086 30.3913 118.188 30.111C119.229 29.9695 122.102 29.8612 125.358 31.4016L126.637 25.2819C124.885 24.627 122.634 23.9997 119.832 23.9997C112.643 23.9997 107.586 27.9241 107.546 33.5413ZM138.92 24.5271C137.525 24.5271 136.35 25.3624 135.825 26.6446L124.915 53.3961H132.547L134.066 49.086H143.392L144.273 53.3961H151L145.13 24.5271H138.92ZM139.987 32.3257L142.19 43.1662H136.158L139.987 32.3257ZM98.2924 24.5271L92.2765 53.3961H99.549L105.562 24.5271H98.2924ZM87.5335 24.5271L79.9637 44.1764L76.9017 27.4689C76.5423 25.6039 75.1235 24.5271 73.5479 24.5271H61.173L61 25.3652C63.5404 25.9314 66.4267 26.8445 68.1752 27.8214C69.2455 28.4181 69.5508 28.9398 69.9022 30.358L75.7018 53.3961H83.3878L95.1709 24.5271H87.5335Z" fill="url(#paint0_linear_1145_2483)"/>
<defs>
<linearGradient id="paint0_linear_1145_2483" x1="102.377" y1="54.4445" x2="103.264" y2="23.7935" gradientUnits="userSpaceOnUse">
<stop stop-color="#222357"/>
<stop offset="1" stop-color="#254AA5"/>
</linearGradient>
</defs>
</svg>
