<svg width="24" height="24" viewBox="0 0 24 24" fill="none" xmlns="http://www.w3.org/2000/svg">
<g clip-path="url(#clip0_1145_16855)">
<mask id="mask0_1145_16855" style="mask-type:luminance" maskUnits="userSpaceOnUse" x="2" y="0" width="24" height="24">
<path d="M2 1.90735e-06H26V24H2V1.90735e-06Z" fill="white"/>
</mask>
<g mask="url(#mask0_1145_16855)">
<path d="M6.9235 2.88523C6.60341 2.88523 6.29553 3.01233 6.0691 3.23907C5.84262 3.4655 5.71582 3.77255 5.71582 4.09287V20.1746C5.71582 20.6305 6.08417 21 6.54004 21H6.54309C6.78764 21 7.02008 20.9028 7.19217 20.7301C7.99223 19.9306 10.3532 17.5697 11.3284 16.5963C11.6001 16.3231 11.9714 16.1694 12.3579 16.1694C12.7444 16.1694 13.1157 16.3231 13.3874 16.5963C14.3656 17.5727 16.7387 19.9451 17.5297 20.7373C17.6987 20.9055 17.9251 21 18.1637 21C18.6256 21 19 20.6259 19 20.1643V4.09287C19 3.77255 18.8732 3.4655 18.6468 3.23907C18.4203 3.01233 18.1124 2.88523 17.7923 2.88523H6.9235Z" stroke="#ED712E" stroke-width="0.80176" stroke-miterlimit="10" stroke-linecap="round" stroke-linejoin="round"/>
</g>
</g>
<defs>
<clipPath id="clip0_1145_16855">
<rect width="24" height="24" fill="white"/>
</clipPath>
</defs>
</svg>
