<svg width="48" height="48" viewBox="0 0 48 48" fill="none" xmlns="http://www.w3.org/2000/svg">
<path d="M23.9999 0C10.7663 0 -0.00012207 10.7665 -0.00012207 24C-0.00012207 37.2326 10.7663 48 23.9999 48C37.2325 48 47.9999 37.2326 47.9999 24C47.9999 10.7665 37.2344 0 23.9999 0ZM34.7064 18.507C34.717 18.7449 34.7228 18.9846 34.7228 19.2244C34.7228 26.5241 29.168 34.9385 19.0048 34.9385C15.8852 34.9385 12.9811 34.0269 10.5372 32.4589C10.9693 32.5101 11.4092 32.5362 11.8549 32.5362C14.4438 32.5362 16.8248 31.6526 18.7157 30.1716C16.2989 30.1271 14.2582 28.5301 13.5553 26.3346C13.8918 26.3984 14.2388 26.4342 14.5936 26.4342C15.0973 26.4342 15.5864 26.3685 16.0495 26.2418C13.5225 25.7353 11.619 23.5031 11.619 20.8253C11.619 20.8021 11.619 20.7779 11.62 20.7557C12.3643 21.1684 13.216 21.4179 14.1209 21.4459C12.6399 20.4569 11.6644 18.7652 11.6644 16.8491C11.6644 15.836 11.9361 14.8867 12.4117 14.0707C15.135 17.4137 19.2068 19.612 23.7969 19.844C23.7021 19.439 23.6548 19.0184 23.6548 18.5844C23.6548 15.5344 26.1276 13.0605 29.1777 13.0605C30.767 13.0605 32.2006 13.7314 33.2099 14.8045C34.4695 14.557 35.649 14.0988 36.7191 13.4636C36.3034 14.7542 35.4305 15.836 34.2868 16.5204C35.4053 16.387 36.4726 16.0912 37.4596 15.6513C36.723 16.7573 35.7862 17.7308 34.7064 18.507Z" fill="#ED712E"/>
</svg>
