<svg width="20" height="20" viewBox="0 0 20 20" fill="none" xmlns="http://www.w3.org/2000/svg">
<path d="M19.6004 10.2345C19.6004 9.57315 19.5364 8.89049 19.4297 8.25049H10.1924V12.0265H15.483C15.2697 13.2425 14.5657 14.3092 13.5204 14.9918L16.6777 17.4452C18.5337 15.7172 19.6004 13.1998 19.6004 10.2345Z" fill="white"/>
<path d="M10.192 19.7918C12.8373 19.7918 15.056 18.9171 16.6773 17.4238L13.52 14.9918C12.6453 15.5891 11.5146 15.9304 10.192 15.9304C7.63198 15.9304 5.47731 14.2024 4.68798 11.8984L1.44531 14.3944C3.10931 17.7011 6.47998 19.7918 10.192 19.7918Z" fill="white"/>
<path d="M4.68794 11.8772C4.28261 10.6612 4.28261 9.33856 4.68794 8.12256L1.44527 5.60522C0.0586068 8.37856 0.0586068 11.6426 1.44527 14.3946L4.68794 11.8772Z" fill="white"/>
<path d="M10.192 4.09056C11.5786 4.06922 12.944 4.60256 13.9466 5.56256L16.7413 2.74656C14.9706 1.08256 12.624 0.186559 10.192 0.207892C6.47998 0.207892 3.10931 2.29856 1.44531 5.60523L4.68798 8.12256C5.47731 5.79722 7.63198 4.09056 10.192 4.09056Z" fill="white"/>
</svg>
