<svg width="32" height="32" viewBox="0 0 32 32" fill="none" xmlns="http://www.w3.org/2000/svg">
<path d="M21.2312 14.9523C20.8369 14.9468 20.456 15.0953 20.1699 15.3666C19.8837 15.6378 19.7148 16.0101 19.6992 16.4043C19.738 16.7339 19.8723 17.045 20.0855 17.2992C20.2985 17.5537 20.5814 17.7403 20.8992 17.8362C21.1048 17.885 21.3126 17.7653 21.3741 17.5632C21.4355 17.361 21.3291 17.146 21.1312 17.0723C20.8312 16.9803 20.5032 16.6323 20.5032 16.4043C20.5212 16.2236 20.6064 16.0562 20.7421 15.9355C20.8776 15.8148 21.0537 15.7493 21.2351 15.7523C21.4998 15.8128 21.7396 15.9523 21.9232 16.1523C22.0823 16.3102 22.3393 16.3093 22.4971 16.1502C22.6552 15.9912 22.6543 15.7343 22.4952 15.5762C22.1607 15.2255 21.713 15.0044 21.2313 14.9523L21.2312 14.9523Z" fill="black"/>
<path d="M26.1239 17.3722C25.9463 16.5086 25.5306 15.7118 24.9239 15.0722C25.0379 14.875 25.0984 14.6516 25.1 14.4241C25.1266 14.0223 24.9848 13.6275 24.7086 13.3347C24.4323 13.0416 24.0466 12.877 23.6439 12.88C23.3845 12.8704 23.1271 12.9325 22.9007 13.0595C22.6741 13.1866 22.487 13.3736 22.36 13.6C21.1257 12.3955 19.6022 11.5291 17.9359 11.0841C18.7554 10.4559 19.2213 9.47092 19.1872 8.43879C19.1531 7.40683 18.6232 6.4547 17.7639 5.88199C16.9048 5.30932 15.8221 5.18626 14.8564 5.55163C13.8907 5.91716 13.1607 6.72607 12.8959 7.72411C12.2846 8.04411 11.7932 8.55304 11.4946 9.17499C11.1963 9.79711 11.107 10.4991 11.24 11.176C7.50002 12.376 5 15.328 5 18.6119C5.02679 20.5942 5.87392 22.4769 7.34002 23.8119V26.5719C7.35449 27.0126 7.54431 27.4293 7.86715 27.7296C8.19001 28.03 8.61929 28.1891 9.06002 28.1719H10.2039C10.6445 28.1891 11.0739 28.03 11.3968 27.7296C11.7197 27.4292 11.9093 27.0126 11.9239 26.5719V26.2639C13.6859 26.6948 15.5225 26.7209 17.2958 26.3398V26.5719C17.3105 27.0126 17.5001 27.4293 17.823 27.7296C18.146 28.03 18.5753 28.1891 19.0158 28.1719H20.1599C20.6004 28.1891 21.0297 28.03 21.3526 27.7296C21.6755 27.4292 21.8653 27.0126 21.8799 26.5719V24.1078C22.2503 23.791 22.5928 23.4432 22.9038 23.0678C24.2636 22.7978 25.3868 21.8426 25.8719 20.5439C26.2363 20.5252 26.5804 20.3707 26.8365 20.1107C27.0928 19.8509 27.2424 19.5044 27.2558 19.1398V18.7398C27.2485 18.4177 27.133 18.1075 26.9274 17.8593C26.7221 17.611 26.4388 17.4393 26.1239 17.3719L26.1239 17.3722ZM23.62 13.6761C23.8106 13.6745 23.9925 13.7555 24.1191 13.898C24.2456 14.0407 24.3041 14.2311 24.28 14.42C24.2849 14.46 24.2849 14.5002 24.28 14.54C23.9016 14.2857 23.4779 14.1066 23.032 14.0121C23.1465 13.7879 23.385 13.655 23.6359 13.6761L23.62 13.6761ZM15.9761 6.15195C16.6292 6.15088 17.2542 6.41606 17.7074 6.88608C18.1606 7.35607 18.4028 7.99053 18.3779 8.64288C18.3533 9.29536 18.0636 9.90967 17.5761 10.344C17.5258 9.44466 17.0954 8.60932 16.3926 8.04608C15.6899 7.48306 14.7808 7.24516 13.8922 7.39195C14.0981 7.01874 14.3997 6.70729 14.766 6.48928C15.1324 6.27142 15.55 6.15499 15.9761 6.15195ZM14.3761 8.15195C15.0128 8.15195 15.6231 8.40481 16.0733 8.85481C16.5233 9.30499 16.7761 9.91534 16.7761 10.552C16.7761 11.1884 16.5233 11.7989 16.0733 12.2489C15.6231 12.6991 15.0128 12.952 14.3761 12.952C13.7397 12.952 13.1292 12.6991 12.6792 12.2489C12.229 11.7989 11.9761 11.1884 11.9761 10.552C11.9761 9.91534 12.229 9.305 12.6792 8.85481C13.1292 8.40481 13.7397 8.15195 14.3761 8.15195ZM26.4479 19.1398C26.4288 19.315 26.3427 19.4759 26.2079 19.5891C26.0731 19.7023 25.8997 19.7593 25.724 19.7479H25.636C25.4588 19.7375 25.2959 19.845 25.236 20.012C24.784 21.2959 23.7999 22.1759 22.6599 22.304H22.66C22.5545 22.3157 22.4581 22.369 22.392 22.452C22.0504 22.8809 21.6641 23.2723 21.24 23.6199C21.1486 23.6961 21.0958 23.809 21.0959 23.9279V26.5759C21.0806 26.8042 20.9749 27.017 20.8022 27.1672C20.6295 27.3172 20.4042 27.3924 20.176 27.376H19.012C18.7838 27.3924 18.5584 27.3172 18.3858 27.1672C18.2131 27.017 18.1074 26.8042 18.092 26.5759V25.832C18.0963 25.7051 18.0402 25.5836 17.941 25.5049C17.8415 25.426 17.7106 25.3988 17.5879 25.432C15.6326 25.942 13.5754 25.9117 11.6359 25.344C11.5118 25.3061 11.377 25.331 11.2745 25.4106C11.172 25.4901 11.1143 25.6143 11.12 25.744V26.5759C11.1047 26.8042 10.999 27.017 10.8263 27.1672C10.6536 27.3172 10.4282 27.3924 10.2 27.376H9.06001C8.8318 27.3924 8.60626 27.3172 8.43377 27.1672C8.2611 27.017 8.15538 26.8042 8.14002 26.5759V23.636C8.14074 23.5237 8.09431 23.4163 8.01199 23.3399C6.64038 22.1537 5.83644 20.4412 5.80001 18.6281C5.80001 15.6882 8.08394 13.0281 11.5001 11.9484C11.7017 12.3641 11.991 12.7312 12.348 13.0244H11.5241C11.3032 13.0244 11.1241 13.2035 11.1241 13.4244C11.1241 13.6453 11.3032 13.8244 11.5241 13.8244H17.776C17.9969 13.8244 18.176 13.6453 18.176 13.4244C18.176 13.2035 17.9969 13.0244 17.776 13.0244H16.4001C16.809 12.6839 17.1265 12.2465 17.324 11.7525C19.2115 12.165 20.9199 13.1648 22.204 14.6084C22.2754 14.6921 22.3781 14.7428 22.4879 14.7484C23.924 14.8284 25.124 16.0764 25.404 17.7884C25.4334 17.9725 25.5859 18.1118 25.772 18.1245C25.9401 18.1216 26.1029 18.1823 26.2281 18.2943C26.3535 18.4061 26.4318 18.5612 26.4479 18.7284L26.4479 19.1398Z" fill="black"/>
<path d="M15.6033 23.7998C14.3458 23.8037 13.0916 23.6695 11.8634 23.3998C11.76 23.3761 11.6512 23.3943 11.5612 23.4505C11.4712 23.5068 11.4073 23.5964 11.3834 23.6998C11.3337 23.9154 11.468 24.1302 11.6834 24.1798C12.876 24.4359 14.0916 24.5698 15.3114 24.5798H15.6275H15.6273C15.7334 24.5798 15.8351 24.5377 15.9101 24.4627C15.9851 24.3877 16.0273 24.2859 16.0273 24.1798C16.0223 24.073 15.9744 23.9727 15.8948 23.9012C15.8151 23.8298 15.7101 23.7934 15.6033 23.7998Z" fill="black"/>
<path d="M17.696 23.6125L16.696 23.8125C16.5899 23.8231 16.4924 23.8754 16.4249 23.9579C16.3574 24.0404 16.3254 24.1465 16.336 24.2525C16.3581 24.4734 16.5551 24.6345 16.776 24.6125H16.856L17.856 24.4125C18.0768 24.3682 18.2202 24.1534 18.176 23.9325C18.1319 23.7115 17.9168 23.5682 17.696 23.6125Z" fill="black"/>
<path d="M12.5758 6.75214C12.6819 6.75214 12.7836 6.70999 12.8586 6.63499C12.9336 6.55982 12.9758 6.45821 12.9758 6.35214V4.4C12.9758 4.17911 12.7967 4 12.5758 4C12.3549 4 12.1758 4.17911 12.1758 4.4V6.35214C12.1758 6.57303 12.3549 6.75214 12.5758 6.75214Z" fill="black"/>
<path d="M10.8238 9.42793C10.9299 9.42793 11.0317 9.38579 11.1067 9.31079C11.1817 9.23579 11.2238 9.13401 11.2238 9.02793V6.72796C11.2238 6.50707 11.0447 6.32796 10.8238 6.32796C10.6029 6.32796 10.4238 6.50707 10.4238 6.72796V9.02793C10.4238 9.13401 10.466 9.23579 10.541 9.31079C10.616 9.38579 10.7178 9.42793 10.8238 9.42793Z" fill="black"/>
<path d="M15.6148 11.4199C15.7209 11.4199 15.8227 11.3778 15.8977 11.3028C15.9727 11.2278 16.0148 11.126 16.0148 11.0199V9.77598C16.0148 9.55509 15.8357 9.37598 15.6148 9.37598C15.394 9.37598 15.2148 9.55509 15.2148 9.77598V11.0199C15.2148 11.126 15.257 11.2278 15.332 11.3028C15.407 11.3778 15.5088 11.4199 15.6148 11.4199Z" fill="black"/>
<path d="M18.1227 5.55214C18.2287 5.55214 18.3305 5.50999 18.4055 5.43499C18.4805 5.35982 18.5227 5.25821 18.5227 5.15214V4.4C18.5227 4.17911 18.3435 4 18.1227 4C17.9018 4 17.7227 4.17911 17.7227 4.4V5.15214C17.7227 5.25821 17.7648 5.35982 17.8398 5.43499C17.9148 5.50999 18.0166 5.55214 18.1227 5.55214Z" fill="black"/>
<path d="M20.2555 10.1362C20.3615 10.1362 20.4633 10.094 20.5383 10.019C20.6133 9.94403 20.6555 9.84224 20.6555 9.73617V6.72813C20.6555 6.50723 20.4764 6.32812 20.2555 6.32812C20.0346 6.32812 19.8555 6.50723 19.8555 6.72813V9.73617C19.8555 9.84224 19.8976 9.94403 19.9726 10.019C20.0476 10.094 20.1494 10.1362 20.2555 10.1362Z" fill="black"/>
</svg>
