<svg width="32" height="32" viewBox="0 0 32 32" fill="none" xmlns="http://www.w3.org/2000/svg">
<path d="M25.6539 16.6611C26.128 16.0092 26.3849 15.2247 26.3883 14.4187C26.3934 14.3127 26.3562 14.2091 26.2848 14.1305C26.2135 14.052 26.1139 14.005 26.0079 13.9999C25.7881 13.9917 25.602 14.1607 25.5891 14.3803C25.5921 15.0191 25.3953 15.6429 25.0263 16.1643C24.2459 17.1499 22.7651 17.1999 22.4759 17.1999C22.255 17.1999 22.0759 17.379 22.0759 17.5999C22.0759 17.8208 22.255 17.9999 22.4759 17.9999C22.8295 17.9999 24.6443 17.9355 25.6539 16.6611Z" fill="#201F1F"/>
<path d="M17.6025 16.8001C17.6025 16.5792 17.4235 16.4001 17.2025 16.4001C16.9816 16.4001 16.8026 16.5792 16.8026 16.8001C16.8026 17.6837 17.5189 18.4001 18.4025 18.4001V18.8001C18.4025 19.021 18.5816 19.2001 18.8025 19.2001C19.0234 19.2001 19.2025 19.021 19.2025 18.8001V18.4001C20.0862 18.4001 20.8025 17.6837 20.8025 16.8001C20.8025 15.9164 20.0862 15.2001 19.2025 15.2001V13.6001C19.6443 13.6001 20.0025 13.9583 20.0025 14.4001C20.0025 14.621 20.1816 14.8001 20.4025 14.8001C20.6234 14.8001 20.8025 14.621 20.8025 14.4001C20.8025 13.5165 20.0862 12.8001 19.2025 12.8001V12.4001C19.2025 12.1792 19.0234 12.0002 18.8025 12.0002C18.5816 12.0002 18.4025 12.1792 18.4025 12.4001V12.8001C17.5189 12.8001 16.8026 13.5165 16.8026 14.4001C16.8026 15.2838 17.5189 16.0001 18.4025 16.0001V17.6001C17.9607 17.6001 17.6025 17.2419 17.6025 16.8001ZM17.6025 14.4001C17.6025 13.9583 17.9607 13.6001 18.4025 13.6001V15.2001C17.9607 15.2001 17.6025 14.8419 17.6025 14.4001ZM19.2025 16.0001C19.6443 16.0001 20.0025 16.3583 20.0025 16.8001C20.0025 17.2419 19.6443 17.6001 19.2025 17.6001V16.0001Z" fill="#201F1F"/>
<path d="M27.6653 17.5085C26.6797 13.3202 24.4885 10.8934 22.9062 9.62584C24.8905 9.77543 25.5293 10.601 25.5481 10.6258C25.6734 10.8047 25.9191 10.85 26.1 10.7276C26.2808 10.6051 26.3301 10.3602 26.2105 10.1774C26.1817 10.1342 25.6261 9.34064 24.0105 8.97744C24.4237 8.63784 24.668 8.13491 24.6797 7.60026C24.6263 6.71385 24.0092 5.96219 23.1502 5.73708C23.1854 5.44815 23.2033 5.15737 23.2038 4.8663C23.2033 4.59814 23.0686 4.34803 22.8449 4.20018C22.6212 4.05232 22.3382 4.02639 22.0914 4.1311C21.8894 4.22253 21.7019 4.34286 21.5346 4.4883C21.3383 4.69003 21.0681 4.80274 20.7866 4.8003C20.5056 4.80227 20.2359 4.68961 20.0398 4.4883C19.3349 3.83724 18.248 3.83724 17.543 4.4883C17.3467 4.69046 17.076 4.80324 16.7942 4.8003C16.5133 4.80263 16.2436 4.6899 16.0478 4.4883C15.881 4.34317 15.694 4.22299 15.4927 4.1315C15.246 4.02749 14.9636 4.05378 14.7403 4.20155C14.5171 4.34931 14.3825 4.59897 14.3819 4.8667C14.3819 5.86188 14.5787 7.63706 15.8247 8.82905C15.1698 9.22722 14.5583 9.69252 13.9999 10.2174V7.20027C13.9999 6.28828 12.7099 5.60029 10.9999 5.60029C9.28993 5.60029 7.99995 6.28828 7.99995 7.20027V11.2302C6.59717 11.3702 5.59998 12.0002 5.59998 12.8002V22.9741C4.63359 23.2337 4 23.7601 4 24.4001V26.4C4 27.312 5.28998 28 6.99996 28C8.52914 28 9.71993 27.4492 9.95473 26.68C10.6452 27.0456 11.419 27.2248 12.1999 27.2C13.9099 27.2 15.1999 26.512 15.1999 25.6V20.4001C15.1999 19.4881 13.9099 18.8001 12.1999 18.8001C11.9995 18.8 11.7993 18.81 11.5999 18.8301V12.8002C11.5999 11.9242 10.4091 11.257 8.79994 11.2054V8.30785C9.48042 8.65372 10.2369 8.82304 10.9999 8.80025C11.7629 8.82304 12.5194 8.65372 13.1999 8.30785V11.0358C12.9363 11.3306 12.6715 11.6518 12.4103 12.0078C12.2907 12.1859 12.3329 12.4267 12.506 12.5535C12.679 12.6803 12.9213 12.6479 13.0551 12.4802C13.312 12.1324 13.5873 11.7986 13.8799 11.4802C13.8831 11.4766 13.8859 11.473 13.8891 11.4698C14.6526 10.6212 15.5493 9.90262 16.5438 9.34224C16.7399 9.43682 16.9474 9.50579 17.161 9.54744L16.1298 10.5098C15.9684 10.6607 15.9598 10.9139 16.1106 11.0754C16.2615 11.2369 16.5148 11.2455 16.6762 11.0946L18.2762 9.60224H18.4038V10.8022C18.4038 11.0231 18.5829 11.2022 18.8038 11.2022C19.0247 11.2022 19.2038 11.0231 19.2038 10.8022V9.60024H19.3314L20.9314 11.0926C21.0359 11.1902 21.1845 11.2247 21.3212 11.183C21.458 11.1413 21.5621 11.0299 21.5944 10.8906C21.6267 10.7513 21.5822 10.6054 21.4778 10.5078L20.4398 9.54144C20.6522 9.4994 20.8583 9.43016 21.053 9.33544C22.1102 9.90743 25.5853 12.1674 26.8869 17.6917C27.4529 20.0965 27.2489 21.9361 26.2809 23.1581C25.0425 24.72 22.8938 24.8 22.4758 24.8H16.7998C16.5789 24.8 16.3998 24.9791 16.3998 25.2C16.3998 25.421 16.5789 25.6 16.7998 25.6H22.4758C23.1558 25.6 25.4777 25.4596 26.9077 23.6549C28.0349 22.2313 28.2901 20.1633 27.6653 17.5085ZM6.99996 23.6001C8.32275 23.6001 9.19993 24.0801 9.19993 24.4001C9.19993 24.72 8.32275 25.2 6.99996 25.2C5.67718 25.2 4.79999 24.72 4.79999 24.4001C4.79999 24.0801 5.67718 23.6001 6.99996 23.6001ZM6.99996 27.2C5.67718 27.2 4.79999 26.72 4.79999 26.4V25.5076C5.48047 25.8535 6.23696 26.0228 6.99996 26C7.76296 26.0228 8.51945 25.8535 9.19993 25.5076V26.4C9.19993 26.72 8.32275 27.2 6.99996 27.2ZM12.1999 26.4C10.8771 26.4 9.99993 25.92 9.99993 25.6V21.5077C10.6804 21.8536 11.4369 22.0229 12.1999 22.0001C12.9629 22.0229 13.7194 21.8536 14.3999 21.5077V25.6C14.3999 25.92 13.5227 26.4 12.1999 26.4ZM14.3999 20.4001C14.3999 20.7201 13.5227 21.2001 12.1999 21.2001C10.8771 21.2001 9.99993 20.7201 9.99993 20.4001C9.99993 20.0801 10.8771 19.6001 12.1999 19.6001C13.5227 19.6001 14.3999 20.0801 14.3999 20.4001ZM9.19993 20.4001V23.2925C8.51945 22.9466 7.76296 22.7773 6.99996 22.8001C6.79959 22.7999 6.59933 22.81 6.39997 22.8301V13.9078C7.08045 14.2537 7.83695 14.423 8.59994 14.4002C9.36294 14.423 10.1194 14.2537 10.7999 13.9078V18.9741C9.83353 19.2337 9.19993 19.7601 9.19993 20.4001ZM10.7999 12.8002C10.7999 13.1202 9.92273 13.6002 8.59994 13.6002C7.27716 13.6002 6.39997 13.1202 6.39997 12.8002C6.39997 12.4802 7.27716 12.0002 8.59994 12.0002C9.92273 12.0002 10.7999 12.4802 10.7999 12.8002ZM10.9999 8.00026C9.67713 8.00026 8.79994 7.52026 8.79994 7.20027C8.79994 6.88027 9.67713 6.40028 10.9999 6.40028C12.3227 6.40028 13.1999 6.88027 13.1999 7.20027C13.1999 7.52026 12.3227 8.00026 10.9999 8.00026ZM23.8798 7.60026C23.8798 8.25585 23.1698 8.79385 22.2798 8.80025C22.1309 8.7993 21.9826 8.78227 21.8374 8.74945C22.4179 8.13008 22.8214 7.36614 23.0058 6.53747C23.4872 6.67934 23.8335 7.10045 23.8798 7.60026ZM15.5471 5.11229C15.8849 5.42882 16.3313 5.60352 16.7942 5.60029C17.2574 5.60376 17.7042 5.42905 18.0422 5.11229C18.2399 4.91267 18.5093 4.80036 18.7902 4.80036C19.0712 4.80036 19.3405 4.91267 19.5382 5.11229C19.8762 5.42929 20.3232 5.60403 20.7866 5.60029C21.2499 5.60387 21.6969 5.42914 22.035 5.11229C22.1458 5.01432 22.2692 4.93147 22.4018 4.8659C22.4018 5.60869 22.2638 7.44506 20.975 8.45185C20.685 8.66961 20.3336 8.78989 19.971 8.79545C20.3173 8.2007 20.5913 7.56676 20.7874 6.90707C20.8257 6.76931 20.7876 6.62158 20.6874 6.51954C20.5873 6.41749 20.4403 6.37662 20.3018 6.41234C20.1634 6.44805 20.0545 6.55491 20.0162 6.69267C19.7947 7.44457 19.4541 8.15611 19.0074 8.80025H18.5962C18.1504 8.15554 17.8098 7.44417 17.587 6.69267C17.5277 6.47982 17.3071 6.35536 17.0942 6.41468C16.8814 6.47399 16.7569 6.69462 16.8162 6.90747C17.0125 7.56773 17.2868 8.20221 17.6334 8.79745C17.2636 8.79555 16.9042 8.6745 16.6086 8.45225C15.3199 7.44586 15.1819 5.60949 15.1819 4.8691C15.3144 4.9326 15.4374 5.01447 15.5471 5.11229Z" fill="#201F1F"/>
<path d="M25.6539 16.6611C26.128 16.0092 26.3849 15.2247 26.3883 14.4187C26.3934 14.3127 26.3562 14.209 26.2848 14.1305C26.2135 14.0519 26.1139 14.005 26.0079 13.9999C25.7882 13.9921 25.6024 14.1609 25.5891 14.3803C25.5921 15.0191 25.3953 15.6428 25.0263 16.1643C24.2459 17.1499 22.7651 17.1999 22.4759 17.1999C22.255 17.1999 22.0759 17.3789 22.0759 17.5998C22.0759 17.8208 22.255 17.9998 22.4759 17.9998C22.8295 17.9998 24.6443 17.9354 25.6539 16.6611Z" fill="#201F1F"/>
</svg>
