<svg width="32" height="32" viewBox="0 0 32 32" fill="none" xmlns="http://www.w3.org/2000/svg">
<path d="M11.8463 7.69361H17.3849C17.6398 7.69361 17.8465 7.48694 17.8465 7.23206C17.8465 6.97718 17.6398 6.77051 17.3849 6.77051H11.8463C11.5914 6.77051 11.3848 6.97718 11.3848 7.23206C11.3848 7.48694 11.5914 7.69361 11.8463 7.69361Z" fill="black"/>
<path d="M21.5387 12.7701C21.5387 12.6477 21.49 12.5302 21.4035 12.4437C21.3169 12.3572 21.1995 12.3085 21.0771 12.3085H11.8461C11.5912 12.3085 11.3845 12.5152 11.3845 12.7701C11.3845 13.025 11.5912 13.2316 11.8461 13.2316H21.0771C21.1995 13.2316 21.3169 13.183 21.4035 13.0965C21.49 13.0099 21.5387 12.8925 21.5387 12.7701Z" fill="black"/>
<path d="M11.8463 10.4612H13.6925C13.9474 10.4612 14.1541 10.2545 14.1541 9.99964C14.1541 9.74476 13.9474 9.53809 13.6925 9.53809H11.8463C11.5914 9.53809 11.3848 9.74476 11.3848 9.99964C11.3848 10.2545 11.5914 10.4612 11.8463 10.4612Z" fill="black"/>
<path d="M21.0777 9.53809H16.0006C15.7457 9.53809 15.5391 9.74476 15.5391 9.99964C15.5391 10.2545 15.7457 10.4612 16.0006 10.4612H21.0777C21.3326 10.4612 21.5392 10.2545 21.5392 9.99964C21.5392 9.74476 21.3326 9.53809 21.0777 9.53809Z" fill="black"/>
<path d="M22.0002 15.0771C20.4088 15.0771 18.8826 15.7093 17.7574 16.8345C16.6321 17.9598 16 19.486 16 21.0773C16 22.6686 16.6321 24.1949 17.7574 25.3201C18.8826 26.4453 20.4088 27.0775 22.0002 27.0775C23.5915 27.0775 25.1177 26.4453 26.243 25.3201C27.3682 24.1949 28.0003 22.6686 28.0003 21.0773C28.0003 19.486 27.3682 17.9598 26.243 16.8345C25.1177 15.7093 23.5915 15.0771 22.0002 15.0771ZM22.0002 26.1544C20.6537 26.1544 19.3623 25.6195 18.4101 24.6673C17.458 23.7152 16.9231 22.4239 16.9231 21.0773C16.9231 19.7307 17.458 18.4395 18.4101 17.4873C19.3623 16.5351 20.6536 16.0003 22.0002 16.0003C23.3467 16.0003 24.638 16.5352 25.5902 17.4873C26.5424 18.4395 27.0772 19.7307 27.0772 21.0773C27.0772 22.4239 26.5423 23.7152 25.5902 24.6673C24.638 25.6195 23.3467 26.1544 22.0002 26.1544Z" fill="black"/>
<path d="M15.3081 24.3083H9.53846V6.76931C9.53846 6.08706 9.28522 5.42917 8.82756 4.9231H21.539C22.0285 4.9231 22.4981 5.11761 22.8445 5.46378C23.1907 5.81015 23.3852 6.27975 23.3852 6.76931V13.6926C23.3852 13.9475 23.5918 14.1541 23.8467 14.1541C24.1016 14.1541 24.3083 13.9475 24.3083 13.6926V6.76931C24.3083 6.03473 24.0165 5.33048 23.4973 4.81101C22.9778 4.29176 22.2735 4 21.539 4H6.76931C6.03473 4 5.33048 4.29176 4.81101 4.81101C4.29176 5.33047 4 6.03473 4 6.76931V10.9233C4 11.0457 4.04863 11.1631 4.13517 11.2497C4.22171 11.3362 4.33916 11.3848 4.46155 11.3848H8.61552V24.7698C8.61552 24.8922 8.66414 25.0097 8.75068 25.0962C8.83722 25.1827 8.95467 25.2314 9.07707 25.2314H15.3077C15.5626 25.2314 15.7693 25.0247 15.7693 24.7698C15.7693 24.5149 15.5626 24.3083 15.3077 24.3083H15.3081ZM4.92294 6.76931C4.92294 6.10974 5.27488 5.50023 5.84605 5.17039C6.41721 4.84071 7.12109 4.84071 7.69225 5.17039C8.26342 5.50027 8.61536 6.10979 8.61536 6.76931V10.4617H4.92294V6.76931Z" fill="black"/>
<path d="M22.4623 20.8861V18.3085C22.4623 18.0536 22.2556 17.8469 22.0007 17.8469C21.7459 17.8469 21.5392 18.0536 21.5392 18.3085V21.0778C21.5398 21.2 21.5886 21.317 21.6754 21.4031L23.06 22.7878C23.2432 22.9446 23.516 22.9341 23.6866 22.7637C23.857 22.5931 23.8676 22.3203 23.7107 22.1371L22.4623 20.8861Z" fill="black"/>
<path d="M11.8461 21.5392C11.5912 21.5392 11.3845 21.7459 11.3845 22.0007C11.3845 22.2556 11.5912 22.4623 11.8461 22.4623H13.6923C13.9472 22.4623 14.1538 22.2556 14.1538 22.0007C14.1538 21.7459 13.9472 21.5392 13.6923 21.5392H11.8461Z" fill="black"/>
</svg>
