<svg width="25" height="24" viewBox="0 0 25 24" fill="none" xmlns="http://www.w3.org/2000/svg">
<path d="M20.5 11C20.2348 11 19.9804 11.1054 19.7929 11.2929C19.6054 11.4804 19.5 11.7348 19.5 12V18C19.5 18.2652 19.3946 18.5196 19.2071 18.7071C19.0196 18.8946 18.7652 19 18.5 19H6.5C6.23478 19 5.98043 18.8946 5.79289 18.7071C5.60536 18.5196 5.5 18.2652 5.5 18V6C5.5 5.73478 5.60536 5.48043 5.79289 5.29289C5.98043 5.10536 6.23478 5 6.5 5H12.5C12.7652 5 13.0196 4.89464 13.2071 4.70711C13.3946 4.51957 13.5 4.26522 13.5 4C13.5 3.73478 13.3946 3.48043 13.2071 3.29289C13.0196 3.10536 12.7652 3 12.5 3H6.5C5.70435 3 4.94129 3.31607 4.37868 3.87868C3.81607 4.44129 3.5 5.20435 3.5 6V18C3.5 18.7956 3.81607 19.5587 4.37868 20.1213C4.94129 20.6839 5.70435 21 6.5 21H18.5C19.2956 21 20.0587 20.6839 20.6213 20.1213C21.1839 19.5587 21.5 18.7956 21.5 18V12C21.5 11.7348 21.3946 11.4804 21.2071 11.2929C21.0196 11.1054 20.7652 11 20.5 11Z" fill="black"/>
<path d="M16.4999 5H18.0799L11.7899 11.28C11.6962 11.373 11.6218 11.4836 11.571 11.6054C11.5203 11.7273 11.4941 11.858 11.4941 11.99C11.4941 12.122 11.5203 12.2527 11.571 12.3746C11.6218 12.4964 11.6962 12.607 11.7899 12.7C11.8829 12.7937 11.9935 12.8681 12.1154 12.9189C12.2372 12.9697 12.3679 12.9958 12.4999 12.9958C12.632 12.9958 12.7627 12.9697 12.8845 12.9189C13.0064 12.8681 13.117 12.7937 13.2099 12.7L19.4999 6.42V8C19.4999 8.26522 19.6053 8.51957 19.7928 8.70711C19.9804 8.89464 20.2347 9 20.4999 9C20.7652 9 21.0195 8.89464 21.207 8.70711C21.3946 8.51957 21.4999 8.26522 21.4999 8V4C21.4999 3.73478 21.3946 3.48043 21.207 3.29289C21.0195 3.10536 20.7652 3 20.4999 3H16.4999C16.2347 3 15.9804 3.10536 15.7928 3.29289C15.6053 3.48043 15.4999 3.73478 15.4999 4C15.4999 4.26522 15.6053 4.51957 15.7928 4.70711C15.9804 4.89464 16.2347 5 16.4999 5Z" fill="black"/>
</svg>
