<svg width="24" height="24" viewBox="0 0 24 24" fill="none" xmlns="http://www.w3.org/2000/svg">
<path fill-rule="evenodd" clip-rule="evenodd" d="M16 5.59987C16 3.3907 14.2091 1.6001 11.9999 1.6001C9.79065 1.6001 7.99977 3.39084 7.99977 5.59987C7.99977 7.80904 9.79065 9.59998 11.9999 9.59998C14.2091 9.59998 16 7.8091 16 5.59987ZM11.9999 3.19987C13.3254 3.19987 14.3999 4.27438 14.3999 5.59987C14.3999 6.92536 13.3254 7.99987 11.9999 7.99987C10.6744 7.99987 9.59989 6.92536 9.59989 5.59987C9.59989 4.27438 10.6744 3.19987 11.9999 3.19987Z" fill="black"/>
<path d="M12.0003 12C14.6513 12 16.8003 14.149 16.8003 16.8C16.8003 17.2419 17.1585 17.6 17.6003 17.6C18.0421 17.6 18.4004 17.2419 18.4004 16.8C18.4004 13.2655 15.535 10.3999 12.0003 10.3999C11.5584 10.3999 11.2003 10.7582 11.2003 11.2C11.2003 11.6418 11.5584 11.9999 12.0003 11.9999L12.0003 12Z" fill="black"/>
<path d="M11.7658 14.9657L10.1659 16.5656C9.85342 16.878 9.34689 16.878 9.03444 16.5656C8.72212 16.2533 8.72212 15.7467 9.03444 15.4343L9.26882 15.1999H6.4002C5.95836 15.1999 5.60011 14.8418 5.60011 14.4C5.60011 13.9581 5.95836 13.6 6.4002 13.6H9.26882L9.03444 13.3656C8.72212 13.0532 8.72212 12.5467 9.03444 12.2343C9.3469 11.9219 9.85343 11.9219 10.1659 12.2343L11.7658 13.8343C12.0782 14.1467 12.0782 14.6532 11.7658 14.9657Z" fill="black"/>
</svg>
