<svg width="20" height="20" viewBox="0 0 20 20" fill="none" xmlns="http://www.w3.org/2000/svg">
<g clip-path="url(#clip0_960_5230)">
<path d="M18.0451 10.5514C18.4402 10.0082 18.6543 9.35442 18.6571 8.68274C18.6614 8.59441 18.6304 8.50802 18.5709 8.44257C18.5115 8.37712 18.4285 8.33797 18.3401 8.33374C18.157 8.32689 18.0019 8.46773 17.9911 8.65074C17.9937 9.18307 17.8297 9.70287 17.5221 10.1374C16.8718 10.9587 15.6378 11.0004 15.3968 11.0004C15.2127 11.0004 15.0635 11.1496 15.0635 11.3337C15.0635 11.5178 15.2127 11.6671 15.3968 11.6671C15.6915 11.6671 17.2038 11.6134 18.0451 10.5514Z" fill="white"/>
<path d="M11.3332 10.6665C11.3332 10.4824 11.1839 10.3332 10.9998 10.3332C10.8157 10.3332 10.6665 10.4824 10.6665 10.6665C10.6665 11.4029 11.2635 11.9998 11.9998 11.9998V12.3332C11.9998 12.5173 12.1491 12.6665 12.3332 12.6665C12.5173 12.6665 12.6665 12.5173 12.6665 12.3332V11.9998C13.4029 11.9998 13.9998 11.4029 13.9998 10.6665C13.9998 9.93012 13.4029 9.33317 12.6665 9.33317V7.99984C13.0347 7.99984 13.3332 8.29831 13.3332 8.6665C13.3332 8.8506 13.4824 8.99984 13.6665 8.99984C13.8506 8.99984 13.9998 8.8506 13.9998 8.6665C13.9998 7.93012 13.4029 7.33317 12.6665 7.33317V6.99984C12.6665 6.81574 12.5173 6.6665 12.3332 6.6665C12.1491 6.6665 11.9998 6.81574 11.9998 6.99984V7.33317C11.2635 7.33317 10.6665 7.93012 10.6665 8.6665C10.6665 9.40288 11.2635 9.99984 11.9998 9.99984V11.3332C11.6316 11.3332 11.3332 11.0347 11.3332 10.6665ZM11.3332 8.6665C11.3332 8.29831 11.6316 7.99984 11.9998 7.99984V9.33317C11.6316 9.33317 11.3332 9.03469 11.3332 8.6665ZM12.6665 9.99984C13.0347 9.99984 13.3332 10.2983 13.3332 10.6665C13.3332 11.0347 13.0347 11.3332 12.6665 11.3332V9.99984Z" fill="white"/>
<path d="M19.7213 11.2573C18.9 7.76692 17.074 5.74458 15.7553 4.68825C17.409 4.81292 17.9413 5.50092 17.957 5.52158C18.0614 5.67066 18.2661 5.7084 18.4169 5.60637C18.5676 5.50434 18.6086 5.30026 18.509 5.14792C18.485 5.11192 18.022 4.45058 16.6757 4.14792C17.0199 3.86491 17.2236 3.44579 17.2333 3.00025C17.1888 2.26156 16.6745 1.63517 15.9587 1.44758C15.988 1.2068 16.0029 0.964479 16.0033 0.721915C16.003 0.498449 15.8907 0.290025 15.7043 0.166811C15.5178 0.0435973 15.2821 0.0219845 15.0763 0.109249C14.908 0.18544 14.7517 0.285713 14.6123 0.406915C14.4488 0.575022 14.2236 0.668953 13.989 0.666915C13.7548 0.668564 13.5301 0.574672 13.3667 0.406915C12.7792 -0.135638 11.8735 -0.135638 11.286 0.406915C11.1224 0.575388 10.8968 0.669371 10.662 0.666915C10.4279 0.668861 10.2031 0.574916 10.04 0.406915C9.90095 0.285973 9.74511 0.185821 9.57733 0.109582C9.37175 0.0229027 9.13643 0.0448106 8.95038 0.167951C8.76433 0.291092 8.65221 0.499138 8.65167 0.722249C8.65167 1.55158 8.81567 3.03092 9.854 4.02425C9.30831 4.35606 8.79867 4.74382 8.33333 5.18125V2.66692C8.33333 1.90692 7.25833 1.33358 5.83333 1.33358C4.40833 1.33358 3.33333 1.90692 3.33333 2.66692V6.02525C2.16433 6.14192 1.33333 6.66692 1.33333 7.33358V15.8119C0.528 16.0283 0 16.4669 0 17.0003V18.6669C0 19.4269 1.075 20.0003 2.5 20.0003C3.77433 20.0003 4.76667 19.5413 4.96233 18.9003C5.53772 19.2049 6.1826 19.3543 6.83333 19.3336C8.25833 19.3336 9.33333 18.7603 9.33333 18.0003V13.6669C9.33333 12.9069 8.25833 12.3336 6.83333 12.3336C6.66635 12.3335 6.49947 12.3418 6.33333 12.3586V7.33358C6.33333 6.60358 5.341 6.04758 4 6.00458V3.58992C4.56708 3.87815 5.19749 4.01924 5.83333 4.00025C6.46917 4.01924 7.09959 3.87815 7.66667 3.58992V5.86325C7.447 6.10892 7.22633 6.37658 7.00867 6.67325C6.90899 6.82168 6.94417 7.02231 7.0884 7.12797C7.23262 7.23364 7.43453 7.2067 7.546 7.06692C7.76009 6.77708 7.98953 6.49891 8.23333 6.23358C8.236 6.23058 8.23833 6.22758 8.241 6.22492C8.87731 5.51774 9.62454 4.91891 10.4533 4.45192C10.6167 4.53074 10.7896 4.58821 10.9677 4.62292L10.1083 5.42492C9.97376 5.55065 9.9666 5.76168 10.0923 5.89625C10.2181 6.03082 10.4291 6.03799 10.5637 5.91225L11.897 4.66858H12.0033V5.66858C12.0033 5.85268 12.1526 6.00192 12.3367 6.00192C12.5208 6.00192 12.67 5.85268 12.67 5.66858V4.66692H12.7763L14.1097 5.91058C14.1967 5.99192 14.3206 6.02064 14.4345 5.98591C14.5485 5.95119 14.6353 5.85831 14.6622 5.74225C14.6891 5.62619 14.6521 5.50459 14.565 5.42325L13.7 4.61792C13.877 4.58288 14.0487 4.52519 14.211 4.44625C15.092 4.92292 17.988 6.80625 19.0727 11.4099C19.5443 13.4139 19.3743 14.9469 18.5677 15.9653C17.5357 17.2669 15.745 17.3336 15.3967 17.3336H10.6667C10.4826 17.3336 10.3333 17.4828 10.3333 17.6669C10.3333 17.851 10.4826 18.0003 10.6667 18.0003H15.3967C15.9633 18.0003 17.8983 17.8833 19.09 16.3793C20.0293 15.1929 20.242 13.4696 19.7213 11.2573ZM2.5 16.3336C3.60233 16.3336 4.33333 16.7336 4.33333 17.0003C4.33333 17.2669 3.60233 17.6669 2.5 17.6669C1.39767 17.6669 0.666667 17.2669 0.666667 17.0003C0.666667 16.7336 1.39767 16.3336 2.5 16.3336ZM2.5 19.3336C1.39767 19.3336 0.666667 18.9336 0.666667 18.6669V17.9233C1.23374 18.2115 1.86416 18.3526 2.5 18.3336C3.13584 18.3526 3.76626 18.2115 4.33333 17.9233V18.6669C4.33333 18.9336 3.60233 19.3336 2.5 19.3336ZM6.83333 18.6669C5.731 18.6669 5 18.2669 5 18.0003V14.5899C5.56708 14.8781 6.19749 15.0192 6.83333 15.0003C7.46917 15.0192 8.09959 14.8781 8.66667 14.5899V18.0003C8.66667 18.2669 7.93567 18.6669 6.83333 18.6669ZM8.66667 13.6669C8.66667 13.9336 7.93567 14.3336 6.83333 14.3336C5.731 14.3336 5 13.9336 5 13.6669C5 13.4003 5.731 13.0003 6.83333 13.0003C7.93567 13.0003 8.66667 13.4003 8.66667 13.6669ZM4.33333 13.6669V16.0773C3.76626 15.789 3.13584 15.6479 2.5 15.6669C2.33302 15.6668 2.16614 15.6751 2 15.6919V8.25658C2.56708 8.54481 3.19749 8.68591 3.83333 8.66692C4.46917 8.68591 5.09959 8.54481 5.66667 8.25658V12.4786C4.86133 12.6949 4.33333 13.1336 4.33333 13.6669ZM5.66667 7.33358C5.66667 7.60025 4.93567 8.00025 3.83333 8.00025C2.731 8.00025 2 7.60025 2 7.33358C2 7.06692 2.731 6.66692 3.83333 6.66692C4.93567 6.66692 5.66667 7.06692 5.66667 7.33358ZM5.83333 3.33358C4.731 3.33358 4 2.93358 4 2.66692C4 2.40025 4.731 2.00025 5.83333 2.00025C6.93567 2.00025 7.66667 2.40025 7.66667 2.66692C7.66667 2.93358 6.93567 3.33358 5.83333 3.33358ZM16.5667 3.00025C16.5667 3.54658 15.975 3.99492 15.2333 4.00025C15.1093 3.99946 14.9857 3.98527 14.8647 3.95792C15.3485 3.44177 15.6847 2.80514 15.8383 2.11458C16.2396 2.2328 16.5282 2.58374 16.5667 3.00025ZM9.62267 0.926915C9.90417 1.19069 10.2762 1.33627 10.662 1.33358C11.048 1.33648 11.4203 1.19088 11.702 0.926915C11.8668 0.760562 12.0912 0.666971 12.3253 0.666971C12.5595 0.666971 12.7839 0.760562 12.9487 0.926915C13.2303 1.19108 13.6029 1.3367 13.989 1.33358C14.3751 1.33657 14.7476 1.19096 15.0293 0.926915C15.1217 0.845274 15.2245 0.776229 15.335 0.721582C15.335 1.34058 15.22 2.87092 14.146 3.70992C13.9044 3.89138 13.6115 3.99162 13.3093 3.99625C13.5979 3.50062 13.8263 2.97233 13.9897 2.42258C14.0216 2.30778 13.9898 2.18467 13.9064 2.09963C13.8229 2.01459 13.7004 1.98054 13.585 2.0103C13.4697 2.04006 13.3789 2.12911 13.347 2.24392C13.1624 2.8705 12.8786 3.46346 12.5063 4.00025H12.1637C11.7922 3.46299 11.5083 2.87017 11.3227 2.24392C11.2732 2.06654 11.0894 1.96282 10.912 2.01225C10.7346 2.06168 10.6309 2.24554 10.6803 2.42292C10.8439 2.97314 11.0725 3.50188 11.3613 3.99792C11.0531 3.99633 10.7537 3.89546 10.5073 3.71025C9.43333 2.87158 9.31833 1.34125 9.31833 0.724249C9.4288 0.777172 9.53125 0.845399 9.62267 0.926915Z" fill="white"/>
<path d="M18.0451 10.5514C18.4402 10.0082 18.6543 9.35439 18.6571 8.68271C18.6614 8.59439 18.6304 8.508 18.5709 8.44254C18.5115 8.37709 18.4285 8.33794 18.3401 8.33371C18.1571 8.32723 18.0022 8.46788 17.9911 8.65071C17.9937 9.18305 17.8297 9.70285 17.5221 10.1374C16.8718 10.9587 15.6378 11.0004 15.3968 11.0004C15.2127 11.0004 15.0635 11.1496 15.0635 11.3337C15.0635 11.5178 15.2127 11.667 15.3968 11.667C15.6915 11.667 17.2038 11.6134 18.0451 10.5514Z" fill="white"/>
</g>
<defs>
<clipPath id="clip0_960_5230">
<rect width="20" height="20" fill="white"/>
</clipPath>
</defs>
</svg>
