<svg width="25" height="24" viewBox="0 0 25 24" fill="none" xmlns="http://www.w3.org/2000/svg">
<path d="M20.7896 8.90323C20.5377 8.66325 20.2031 8.5294 19.8552 8.5294C19.5072 8.5294 19.1726 8.66325 18.9207 8.90323L16.0152 11.8088C16.5932 10.7072 17.0014 9.52451 17.226 8.3009L17.5264 6.64994C17.5414 6.56747 17.5293 6.48236 17.4918 6.40739C17.4543 6.33242 17.3935 6.27164 17.3185 6.23419L16.7425 5.94619C15.9999 5.57378 15.3422 5.05199 14.8106 4.41353C14.2791 3.77507 13.8851 3.03369 13.6535 2.23587C13.5672 0.955742 11.6057 0 9.01646 0C6.42717 0 4.46575 0.955742 4.37943 2.23587C4.14777 3.03369 3.75382 3.77507 3.22227 4.41353C2.69072 5.05199 2.03302 5.57378 1.29039 5.94619L0.714393 6.23419C0.639404 6.27164 0.578597 6.33242 0.541111 6.40739C0.503626 6.48236 0.491488 6.56747 0.506522 6.64994L0.807296 8.30477C1.15494 10.1983 1.93752 11.9852 3.09337 13.5248C4.24923 15.0643 5.74679 16.3144 7.46807 17.1766V19.4102C6.06949 19.5124 3.5971 19.8422 3.5971 20.9032V22.4516C3.5971 23.9566 8.46175 24 9.01646 24C9.57117 24 14.4358 23.9566 14.4358 22.4516V20.9032C14.4358 19.8422 11.9634 19.5124 10.5648 19.4102V17.1774C12.4281 16.2415 14.0263 14.8522 15.2123 13.1373C15.2123 13.1454 15.21 13.1532 15.21 13.1613C15.2095 13.3349 15.2434 13.5069 15.3099 13.6673C15.3763 13.8277 15.474 13.9733 15.5971 14.0957L18.3068 16.8054V19.4485C17.2802 19.5782 15.5971 19.9378 15.5971 20.9032V22.4516C15.5971 23.5154 17.8036 24 19.8552 24C21.9068 24 24.1132 23.5154 24.1132 22.4516V20.9032C24.1132 19.9355 22.4259 19.5778 21.4036 19.4485V16.8054L24.1132 14.0957C24.3611 13.8479 24.5003 13.5118 24.5003 13.1613C24.5003 12.8108 24.3611 12.4747 24.1132 12.2268L20.7896 8.90323ZM13.2745 8.90323C13.2745 8.97979 13.2518 9.05463 13.2093 9.11829C13.1668 9.18194 13.1063 9.23156 13.0356 9.26086C12.9648 9.29015 12.887 9.29782 12.8119 9.28288C12.7368 9.26795 12.6678 9.23108 12.6137 9.17694C12.5596 9.12281 12.5227 9.05383 12.5078 8.97874C12.4928 8.90366 12.5005 8.82582 12.5298 8.75509C12.5591 8.68436 12.6087 8.6239 12.6724 8.58137C12.736 8.53883 12.8109 8.51613 12.8874 8.51613C12.9901 8.51613 13.0886 8.55691 13.1611 8.62951C13.2337 8.7021 13.2745 8.80056 13.2745 8.90323ZM13.127 7.76748C13.0483 7.75052 12.968 7.74195 12.8874 7.74194C12.5941 7.74274 12.312 7.85471 12.098 8.05527C11.8841 8.25584 11.7541 8.53008 11.7343 8.82271C11.3458 9.04377 10.9361 9.22533 10.5114 9.36465C10.3509 9.11152 10.1306 8.90174 9.86986 8.75377C9.60917 8.60581 9.3161 8.5242 9.01646 8.51613C8.71674 8.52428 8.42363 8.60601 8.16293 8.75411C7.90224 8.90222 7.68196 9.11215 7.52149 9.36542C7.09679 9.2261 6.68713 9.04455 6.29865 8.82348C6.27905 8.53072 6.14914 8.25628 5.93512 8.05556C5.7211 7.85483 5.43891 7.74275 5.14549 7.74194C5.06494 7.74195 4.98462 7.75052 4.90588 7.76748C4.22996 7.09712 3.70462 6.29044 3.36484 5.40116C3.96775 4.80322 4.45352 4.0978 4.7971 3.32129C5.51788 4.11716 7.09297 4.64516 9.01646 4.64516C10.9399 4.64516 12.515 4.11716 13.2358 3.32129C13.5794 4.0978 14.0652 4.80322 14.6681 5.40116C14.3283 6.29044 13.803 7.09712 13.127 7.76748ZM10.1777 10.8387C10.1777 11.6926 9.65672 12.3871 9.01646 12.3871C8.3762 12.3871 7.85517 11.6926 7.85517 10.8387C7.85517 9.98477 8.3762 9.29032 9.01646 9.29032C9.65672 9.29032 10.1777 9.98477 10.1777 10.8387ZM5.14549 8.51613C5.22205 8.51613 5.29689 8.53883 5.36055 8.58137C5.42421 8.6239 5.47382 8.68436 5.50312 8.75509C5.53242 8.82582 5.54009 8.90366 5.52515 8.97874C5.51021 9.05383 5.47335 9.12281 5.41921 9.17694C5.36507 9.23108 5.2961 9.26795 5.22101 9.28288C5.14592 9.29782 5.06809 9.29015 4.99735 9.26086C4.92662 9.23156 4.86617 9.18194 4.82363 9.11829C4.7811 9.05463 4.75839 8.97979 4.75839 8.90323C4.75839 8.80056 4.79918 8.7021 4.87177 8.62951C4.94437 8.55691 5.04283 8.51613 5.14549 8.51613ZM9.01646 0.774194C11.2322 0.774194 12.8874 1.59174 12.8874 2.32258C12.8874 3.05342 11.2322 3.87097 9.01646 3.87097C6.80072 3.87097 5.14549 3.05342 5.14549 2.32258C5.14549 1.59174 6.80072 0.774194 9.01646 0.774194ZM9.01646 23.2258C6.25297 23.2258 4.57065 22.7191 4.3713 22.4253V21.7823C5.76717 22.4272 8.6011 22.4516 9.01646 22.4516C9.43181 22.4516 12.2657 22.4272 13.6616 21.7823V22.4253C13.4623 22.7191 11.7799 23.2258 9.01646 23.2258ZM9.01646 21.6774C6.33659 21.6774 4.67323 21.2009 4.39336 20.9032C4.58691 20.7077 5.51826 20.3303 7.4793 20.1844C7.48896 20.266 7.52482 20.3424 7.58149 20.4019C7.73967 20.5613 7.92791 20.6877 8.13529 20.7737C8.34268 20.8598 8.56509 20.9038 8.78962 20.9032H9.2433C9.46777 20.9039 9.69015 20.86 9.89753 20.7741C10.1049 20.6882 10.2932 20.5619 10.4514 20.4027C10.5081 20.3431 10.544 20.2668 10.5536 20.1852C12.5147 20.3311 13.4464 20.7085 13.6396 20.904C13.3597 21.2009 11.6963 21.6774 9.01646 21.6774ZM9.79065 19.9517C9.63115 20.0665 9.43977 20.1285 9.2433 20.129H8.78962C8.59315 20.1285 8.40177 20.0665 8.24226 19.9517V17.5312C8.4571 17.621 8.6731 17.7081 8.89414 17.7859C8.97574 17.8135 9.06428 17.8127 9.14536 17.7836C9.36407 17.7062 9.57814 17.6203 9.79065 17.5312V19.9517ZM9.01646 17.0075C7.11373 16.3087 5.42609 15.1258 4.12008 13.5756C2.81407 12.0254 1.93482 10.1615 1.5691 8.16774L1.3202 6.79819L1.63684 6.63987C2.02837 6.44245 2.39968 6.20727 2.74549 5.93768C3.10112 6.77319 3.60586 7.53699 4.23504 8.19174C4.13925 8.31253 4.06857 8.45124 4.02714 8.59973C3.98571 8.74822 3.97438 8.90349 3.99379 9.05642C4.01321 9.20935 4.063 9.35686 4.14022 9.49028C4.21745 9.6237 4.32056 9.74034 4.44349 9.83336C4.56643 9.92637 4.70671 9.99388 4.85611 10.0319C5.0055 10.07 5.16098 10.0778 5.31343 10.0549C5.46588 10.032 5.61222 9.97885 5.74385 9.89861C5.87548 9.81837 5.98975 9.71263 6.07994 9.58761C6.43698 9.77916 6.80905 9.94125 7.19246 10.0723C7.11894 10.3211 7.0814 10.5792 7.08097 10.8387C7.08097 12.1196 7.94923 13.1613 9.01646 13.1613C10.0837 13.1613 10.9519 12.1196 10.9519 10.8387C10.9518 10.5793 10.9145 10.3212 10.8412 10.0723C11.2247 9.94117 11.5969 9.77909 11.9541 9.58761C12.044 9.71351 12.1582 9.82012 12.2899 9.90113C12.4217 9.98215 12.5683 10.0359 12.7212 10.0593C12.8741 10.0826 13.0302 10.0751 13.1801 10.0371C13.33 9.99913 13.4708 9.93147 13.5942 9.83813C13.7175 9.7448 13.8209 9.62768 13.8982 9.49371C13.9754 9.35973 14.0251 9.21162 14.0442 9.05813C14.0632 8.90464 14.0513 8.74888 14.0092 8.60007C13.967 8.45126 13.8954 8.31241 13.7987 8.19174C14.4276 7.53693 14.932 6.77313 15.2874 5.93768C15.633 6.20683 16.0041 6.44161 16.3953 6.63871L16.7119 6.79703L16.4638 8.16232C16.0986 10.1569 15.2197 12.0218 13.9136 13.573C12.6076 15.1241 10.9197 16.3079 9.01646 17.0075ZM19.081 17.5514C19.3051 17.7171 19.5765 17.8065 19.8552 17.8065C20.1339 17.8065 20.4053 17.7171 20.6294 17.5514V19.9514C20.4699 20.0662 20.2785 20.1283 20.082 20.129H19.6283C19.4319 20.1285 19.2405 20.0665 19.081 19.9517V17.5514ZM19.8552 23.2258C17.5907 23.2258 16.4297 22.6606 16.3713 22.4516V21.8431C17.195 22.2581 18.5557 22.4516 19.8552 22.4516C21.1547 22.4516 22.5157 22.2561 23.339 21.8427V22.4458C23.2806 22.6606 22.1197 23.2258 19.8552 23.2258ZM23.339 20.8974C23.2806 21.1123 22.1197 21.6774 19.8552 21.6774C17.5907 21.6774 16.4336 21.1138 16.3713 20.9102V20.9079C16.4073 20.7848 16.9589 20.4108 18.3265 20.2274C18.3417 20.2931 18.374 20.3536 18.4202 20.4027C18.5784 20.5619 18.7667 20.6882 18.9741 20.7741C19.1815 20.86 19.4039 20.9039 19.6283 20.9032H20.082C20.3065 20.9039 20.5289 20.86 20.7362 20.7741C20.9436 20.6882 21.1319 20.5619 21.2901 20.4027C21.3364 20.3536 21.3689 20.2931 21.3842 20.2274C22.7553 20.4112 23.3061 20.7871 23.339 20.8974ZM23.5659 13.5484L20.2423 16.872C20.1372 16.9701 19.9989 17.0247 19.8552 17.0247C19.7115 17.0247 19.5731 16.9701 19.4681 16.872L16.1445 13.5484C16.0419 13.4457 15.9842 13.3065 15.9842 13.1613C15.9842 13.0161 16.0419 12.8769 16.1445 12.7742L19.4681 9.45058C19.5708 9.34799 19.71 9.29037 19.8552 9.29037C20.0003 9.29037 20.1396 9.34799 20.2423 9.45058L23.5659 12.7742C23.6685 12.8769 23.7261 13.0161 23.7261 13.1613C23.7261 13.3065 23.6685 13.4457 23.5659 13.5484Z" fill="#ED712E"/>
<path d="M21.4029 12.4789V11.2258H20.6288V12.4789C20.3763 12.6249 20.17 12.8389 20.0331 13.0964C19.8963 13.3539 19.8344 13.6446 19.8546 13.9355C19.8546 14.8038 20.3648 15.4839 21.0158 15.4839C21.6669 15.4839 22.1771 14.8038 22.1771 13.9355C22.1973 13.6446 22.1354 13.3539 21.9986 13.0964C21.8617 12.8389 21.6553 12.6249 21.4029 12.4789ZM21.0158 14.7097C20.8579 14.7097 20.6288 14.4082 20.6288 13.9355C20.6288 13.4629 20.8579 13.1613 21.0158 13.1613C21.1738 13.1613 21.4029 13.4629 21.4029 13.9355C21.4029 14.4082 21.1738 14.7097 21.0158 14.7097Z" fill="#ED712E"/>
<path d="M19.0806 12.4789V11.2258H18.3064V12.4789C18.054 12.6249 17.8476 12.8389 17.7107 13.0964C17.5739 13.3539 17.512 13.6446 17.5322 13.9355C17.5322 14.8038 18.0424 15.4839 18.6935 15.4839C19.3446 15.4839 19.8548 14.8038 19.8548 13.9355C19.8749 13.6446 19.813 13.3539 19.6762 13.0964C19.5393 12.8389 19.333 12.6249 19.0806 12.4789ZM18.6935 14.7097C18.5355 14.7097 18.3064 14.4082 18.3064 13.9355C18.3064 13.4629 18.5355 13.1613 18.6935 13.1613C18.8514 13.1613 19.0806 13.4629 19.0806 13.9355C19.0806 14.4082 18.8514 14.7097 18.6935 14.7097Z" fill="#ED712E"/>
</svg>
