<svg width="22" height="24" viewBox="0 0 22 24" fill="none" xmlns="http://www.w3.org/2000/svg">
<path d="M20.2667 10.0085V2.59752C20.2659 2.25855 20.1983 1.92307 20.0677 1.61026C19.9371 1.29745 19.7462 1.01343 19.5058 0.774461C19.2654 0.535489 18.9803 0.346243 18.6667 0.217544C18.3531 0.0888456 18.0172 0.0232183 17.6783 0.0244146C17.6233 0.0243832 17.5688 0.0351963 17.5179 0.0562357C17.4671 0.0772751 17.4209 0.108128 17.382 0.147031C17.3431 0.185933 17.3123 0.232123 17.2912 0.282957C17.2702 0.333792 17.2594 0.388275 17.2594 0.443292V3.509H16.2062V1.40073C16.2058 1.02943 16.0582 0.673443 15.7957 0.410852C15.5332 0.148261 15.1773 0.000506868 14.806 0H1.90048C1.5291 0.000380187 1.17304 0.148078 0.910439 0.410683C0.647834 0.673288 0.500136 1.02935 0.499756 1.40073V22.5995C0.500199 22.9709 0.647925 23.3268 0.910523 23.5894C1.17312 23.852 1.52914 23.9996 1.90048 24H14.806C15.1773 23.9996 15.5332 23.8519 15.7958 23.5893C16.0583 23.3268 16.206 22.9708 16.2065 22.5995V21.0059H17.2596V23.2195C17.2596 23.2745 17.2704 23.329 17.2915 23.3798C17.3125 23.4306 17.3434 23.4768 17.3823 23.5157C17.4212 23.5546 17.4673 23.5855 17.5182 23.6065C17.569 23.6275 17.6235 23.6384 17.6785 23.6383H17.6943C18.3765 23.6376 19.0305 23.3662 19.5129 22.8838C19.9953 22.4015 20.2667 21.7474 20.2674 21.0652V13.654C20.584 13.6468 20.8852 13.5162 21.1068 13.29C21.3284 13.0638 21.4528 12.7599 21.4534 12.4433V11.2197C21.4528 10.9029 21.3283 10.5989 21.1066 10.3726C20.8848 10.1463 20.5834 10.0157 20.2667 10.0085ZM17.2589 4.34675V4.95592H16.2057V4.34675H17.2589ZM17.2589 5.79367V18.7212H16.2057V5.79367H17.2589ZM15.368 22.5995C15.3679 22.7486 15.3086 22.8915 15.2033 22.997C15.0979 23.1025 14.9551 23.1619 14.806 23.1622H1.90048C1.75125 23.1621 1.60817 23.1028 1.50263 22.9973C1.39708 22.8918 1.3377 22.7487 1.33751 22.5995V1.40073C1.3377 1.25148 1.39707 1.10839 1.50261 1.00286C1.60815 0.897319 1.75123 0.837945 1.90048 0.837755H14.806C14.9552 0.837945 15.0983 0.897326 15.2038 1.00287C15.3093 1.10841 15.3686 1.2515 15.3687 1.40073L15.368 22.5995ZM16.2057 20.1681V19.5589H17.2589V20.1681H16.2057ZM19.428 21.0652C19.4275 21.4553 19.2958 21.8338 19.0542 22.14C18.8125 22.4462 18.475 22.6622 18.0957 22.7534V0.909323C18.475 1.0005 18.8125 1.21655 19.0542 1.52274C19.2958 1.82892 19.4275 2.20747 19.428 2.59752V21.0652ZM20.615 12.4431C20.6146 12.5377 20.5785 12.6287 20.514 12.6978C20.4494 12.7669 20.3611 12.8092 20.2667 12.816V10.8461C20.3611 10.8529 20.4495 10.8952 20.5141 10.9645C20.5786 11.0337 20.6147 11.1248 20.615 11.2195V12.4431Z" fill="#ED712E"/>
<path d="M13.6706 1.26489H3.03589C2.75733 1.26515 2.49024 1.3759 2.29324 1.57286C2.09624 1.76981 1.98542 2.03687 1.98511 2.31544V21.6963C1.98542 21.9749 2.09623 22.242 2.29322 22.439C2.49022 22.636 2.7573 22.7468 3.03589 22.7471H13.6706C13.9492 22.7468 14.2162 22.6359 14.4132 22.4389C14.6101 22.2419 14.7209 21.9749 14.7211 21.6963V2.31448C14.7206 2.0361 14.6098 1.76928 14.4128 1.57253C14.2159 1.37578 13.949 1.26515 13.6706 1.26489ZM3.03589 2.10265H13.6706C13.727 2.10271 13.7811 2.12515 13.821 2.16504C13.8609 2.20493 13.8833 2.25902 13.8834 2.31544V7.47074H10.1886C10.6841 6.95917 10.9613 6.27499 10.9615 5.56281V4.6511C10.9616 4.59608 10.9507 4.5416 10.9297 4.49076C10.9087 4.43993 10.8778 4.39374 10.8389 4.35484C10.8 4.31593 10.7538 4.28508 10.703 4.26404C10.6522 4.243 10.5977 4.23219 10.5427 4.23222H5.88162C5.82661 4.23219 5.77213 4.243 5.72129 4.26404C5.67046 4.28508 5.62427 4.31593 5.58536 4.35484C5.54646 4.39374 5.51561 4.43993 5.49457 4.49076C5.47353 4.5416 5.46272 4.59608 5.46275 4.6511V5.56281C5.46414 6.27555 5.74278 6.95979 6.23971 7.47074H2.82286V2.31448C2.82324 2.25821 2.84584 2.20437 2.88575 2.16469C2.92565 2.12501 2.97962 2.10271 3.03589 2.10265ZM11.5432 9.93374H10.5096V9.6793H11.5432V9.93374ZM10.4881 12.4769C10.5628 12.4445 10.6265 12.3911 10.6712 12.323C10.716 12.255 10.7399 12.1754 10.7401 12.094V10.7715H11.3127V12.093C11.3127 12.1754 11.337 12.256 11.3826 12.3246C11.4282 12.3932 11.4931 12.4469 11.569 12.4788C11.6459 12.5115 11.7182 12.5538 11.7844 12.6047C11.8579 12.6542 11.9192 12.7197 11.9636 12.7963C12.0081 12.873 12.0344 12.9587 12.0408 13.0471V15.1632H10.0113V13.0471C10.0279 12.9164 10.0816 12.7932 10.1661 12.6921C10.2506 12.5911 10.3624 12.5164 10.4881 12.4769ZM12.2926 11.9379C12.2474 11.9029 12.1997 11.8702 12.1509 11.8395V10.6717C12.222 10.6217 12.28 10.5554 12.3201 10.4784C12.3602 10.4013 12.3813 10.3157 12.3814 10.2289V9.38489C12.3813 9.24083 12.324 9.1027 12.2221 9.00083C12.1203 8.89896 11.9821 8.84167 11.8381 8.84155H10.2152C10.0711 8.84167 9.93302 8.89896 9.83115 9.00083C9.72928 9.1027 9.67199 9.24083 9.67187 9.38489V10.2282C9.67202 10.315 9.69303 10.4006 9.73314 10.4777C9.77326 10.5547 9.83129 10.621 9.90237 10.671V11.8405C9.68752 11.9621 9.50761 12.137 9.37996 12.3483C9.25231 12.5597 9.18121 12.8003 9.17352 13.0471V15.1632H7.47575C7.78183 14.7822 7.94853 14.308 7.94825 13.8192C7.92402 13.2261 7.67134 12.6652 7.24306 12.2541C6.81478 11.8429 6.24409 11.6133 5.6504 11.6133C5.05672 11.6133 4.48603 11.8429 4.05775 12.2541C3.62947 12.6652 3.37679 13.2261 3.35256 13.8192C3.35297 14.3083 3.52043 14.7824 3.82721 15.1632H2.8219V8.3085H13.8834V15.1632H12.8781V13.0471C12.8735 12.8294 12.8182 12.6158 12.7165 12.4232C12.6149 12.2307 12.4697 12.0645 12.2926 11.9379ZM5.38759 15.1632C5.06099 15.1178 4.76121 14.9577 4.54193 14.7114C4.32265 14.4652 4.19817 14.1489 4.1908 13.8192C4.21501 13.4485 4.37938 13.1008 4.65053 12.8468C4.92169 12.5928 5.27933 12.4514 5.65088 12.4514C6.02244 12.4514 6.38008 12.5928 6.65123 12.8468C6.92239 13.1008 7.08675 13.4485 7.11097 13.8192C7.10421 14.1517 6.97787 14.4705 6.75512 14.7174C6.53237 14.9642 6.22812 15.1225 5.89814 15.1632H5.38759ZM6.3005 5.56281V5.07069H10.1238V5.56353C10.1232 6.04753 9.93944 6.51336 9.60936 6.86734C9.27928 7.22131 8.8274 7.43716 8.34462 7.47146H8.06817V7.47026C7.58781 7.43245 7.13927 7.21523 6.81176 6.86181C6.48424 6.50839 6.30172 6.04466 6.3005 5.56281ZM13.6706 21.9084H3.03589C2.97943 21.9082 2.92532 21.8858 2.8854 21.8458C2.84547 21.8059 2.82299 21.7518 2.82286 21.6953V16.001H13.8834V21.6953C13.8833 21.7518 13.8609 21.8059 13.821 21.8458C13.7811 21.8857 13.727 21.9082 13.6706 21.9084Z" fill="#ED712E"/>
</svg>
