<svg width="21" height="24" viewBox="0 0 21 24" fill="none" xmlns="http://www.w3.org/2000/svg">
<path d="M14.049 10.8385C15.1163 10.8385 15.9845 9.9703 15.9845 8.90308H15.2102C15.2102 9.5434 14.6892 10.0644 14.0489 10.0644C13.4085 10.0644 12.8875 9.54344 12.8875 8.90308H12.1133C12.1136 9.9703 12.9818 10.8385 14.049 10.8385Z" fill="#ED712E"/>
<path d="M7.0811 10.8385C8.14832 10.8385 9.01652 9.9703 9.01652 8.90308H8.24226C8.24226 9.5434 7.72129 10.0644 7.08093 10.0644C6.4406 10.0644 5.91959 9.54344 5.91959 8.90308H5.14551C5.14551 9.9703 6.01387 10.8385 7.0811 10.8385Z" fill="#ED712E"/>
<path d="M18.0577 5.16288L18.7865 4.90155C18.0675 2.89598 16.1545 1.54834 14.0263 1.54834H13.6622V2.32259H14.0263C15.8287 2.32259 17.4489 3.464 18.0579 5.16285L18.0577 5.16288Z" fill="#ED712E"/>
<path d="M18.3064 6.58232L19.0807 6.57847C19.0794 6.29756 19.0546 6.01546 19.007 5.74023L18.2441 5.87198C18.2843 6.10519 18.3053 6.34412 18.3064 6.58232Z" fill="#ED712E"/>
<path d="M20.6296 6.60382C20.6296 2.96249 17.6673 0 14.0258 0H7.10395C3.46261 0 0.500122 2.96231 0.500122 6.60382C0.500122 7.38562 0.636728 8.15053 0.905754 8.88128C0.651793 9.20874 0.500122 9.61924 0.500122 10.0647C0.500122 11.1319 1.36832 12.0001 2.43554 12.0001H2.82259V13.5495C2.35284 13.9029 2.04834 14.4649 2.04834 15.0968C2.04834 15.1499 2.05051 15.203 2.05487 15.2559C1.36097 15.5577 0.887357 16.2545 0.887357 17.0322C0.887357 17.9784 1.5699 18.7681 2.46822 18.9352C2.63529 19.8337 3.42496 20.5162 4.37115 20.5162C4.5471 20.5162 4.72171 20.4921 4.88981 20.4454C4.97552 20.6659 5.10007 20.8658 5.25476 21.0373L3.11894 21.4142C2.05018 21.6028 1.27442 22.5275 1.27442 23.613V24H19.855V23.613C19.855 22.5276 19.0792 21.6029 18.0104 21.4143L14.2339 20.7479C13.6779 20.6498 13.2743 20.1688 13.2743 19.6041V19.5574C16.1583 18.8593 18.3066 16.2566 18.3066 13.1614V12.0001H18.6936C19.7609 12.0001 20.629 11.1319 20.629 10.0647C20.629 9.61919 20.4774 9.2087 20.2234 8.88128C20.4924 8.15052 20.6292 7.38565 20.6292 6.60382L20.6296 6.60382ZM7.10437 0.774425H14.0262C17.2405 0.774425 19.8556 3.38938 19.8556 6.60382C19.8556 7.19996 19.7655 7.78475 19.5881 8.34874C19.3206 8.20879 19.0167 8.1291 18.6943 8.1291H18.3072V7.35485H17.9202C17.025 7.35485 16.1836 7.0063 15.5507 6.37351L15.4178 6.24059C14.6386 5.46145 13.6027 5.03241 12.5008 5.03241H12.1138V5.80666H12.5008C13.3849 5.80666 14.2164 6.14734 14.8466 6.76558C14.5631 7.13422 14.1245 7.35504 13.6475 7.35504H13.519C13.011 7.35504 12.5398 7.10275 12.258 6.68021L11.8392 6.0521C11.4138 5.41362 10.7015 5.03241 9.93423 5.03241H9.40405V5.80666H9.93423C10.4422 5.80666 10.9134 6.05895 11.1952 6.48148L11.4689 6.89197C11.1682 7.18494 10.7601 7.35504 10.3355 7.35504H10.3062C9.65837 7.35504 9.07693 6.99695 8.78885 6.42037L8.55347 5.94946C8.27071 5.38379 7.7022 5.03241 7.06972 5.03241H6.99472C6.73858 5.03241 6.48211 5.09301 6.25278 5.20752L5.9203 5.37392L5.56221 5.19496C5.35061 5.08916 5.11388 5.03241 4.87736 5.03057L4.8345 5.03023H4.82161C4.15416 5.03023 3.56453 5.428 3.31712 6.04659L3.0727 6.65781C2.9073 7.07114 2.82343 7.50659 2.82343 7.9517L2.82359 8.12916H2.43655C2.11428 8.12916 1.81028 8.20885 1.54276 8.3488C1.36531 7.7848 1.27524 7.19985 1.27524 6.60388C1.27524 3.38944 3.8902 0.77448 7.10464 0.77448L7.10437 0.774425ZM2.4364 11.2259C1.79607 11.2259 1.27506 10.705 1.27506 10.0646C1.27506 9.42428 1.79603 8.90327 2.4364 8.90327H2.82345V11.2259L2.4364 11.2259ZM3.59756 7.95142C3.59756 7.60521 3.66285 7.26656 3.79142 6.94497L4.03584 6.33391C4.16474 6.01148 4.47277 5.80424 4.82166 5.80424H4.82836L4.87122 5.80458C4.99024 5.80541 5.10944 5.83404 5.21592 5.88728L5.92023 6.23951L6.59891 5.90017C6.72112 5.83906 6.85789 5.80675 6.99467 5.80675H7.06967C7.407 5.80675 7.71016 5.99409 7.86085 6.29558L8.09623 6.76649C8.51643 7.60705 9.36316 8.12921 10.3062 8.12921H10.3355C10.9338 8.12921 11.5102 7.9007 11.9476 7.50393C12.3677 7.90136 12.9267 8.12921 13.5189 8.12921H13.6475C14.3473 8.12921 14.993 7.81549 15.422 7.28746C16.0349 7.75589 16.7615 8.04011 17.5329 8.11147V12.3873H15.9845V12.7744C15.9845 13.6313 15.751 14.4347 15.3445 15.1246L15.2858 14.7138C15.0966 13.3876 13.9433 12.3873 12.6035 12.3873H10.9524V10.8389H10.1781V12.3873H9.78989C9.43648 11.9176 8.87451 11.6131 8.24254 11.6131C7.46477 11.6131 6.76783 12.0868 6.46616 12.7809C6.41326 12.7766 6.36019 12.7744 6.30712 12.7744C5.7694 12.7744 5.25627 13.0029 4.8937 13.3886C4.6158 13.2406 4.30343 13.1616 3.98483 13.1616C3.85224 13.1616 3.72284 13.175 3.59778 13.2006L3.59756 7.95142ZM17.4815 13.9355H16.6337C16.689 13.6836 16.7267 13.4249 16.7454 13.1613L17.5332 13.1614C17.5332 13.4239 17.5153 13.6822 17.4815 13.9355ZM10.1392 13.1614H12.6035C13.5604 13.1614 14.3843 13.876 14.5195 14.8233L14.6864 15.992C14.4745 16.2125 14.2409 16.4119 13.9893 16.5873L13.7529 14.9329C13.6719 14.3643 13.1777 13.9356 12.6035 13.9356H10.1384C10.1643 13.8092 10.1782 13.6798 10.1782 13.5485C10.1782 13.4159 10.1647 13.2865 10.1392 13.1614ZM10.1516 16.6066C10.2872 16.6319 10.4252 16.6453 10.5653 16.6453C11.168 16.6453 11.7345 16.4105 12.1606 15.9845L12.3874 15.7576L11.84 15.2102L11.6132 15.4371C11.3334 15.717 10.9613 15.8712 10.5653 15.8712C10.4174 15.8712 10.2729 15.8491 10.1333 15.8064C10.0628 15.4525 9.91094 15.119 9.68931 14.8336C9.72463 14.7937 9.75795 14.7524 9.78992 14.7099H12.6036C12.7949 14.7099 12.9596 14.8528 12.9868 15.0422L13.2665 17.0005C12.6792 17.2694 12.0265 17.4195 11.3396 17.4195H10.1805C10.1068 17.3645 10.0293 17.3139 9.9476 17.2694C10.0492 17.0605 10.1173 16.8378 10.1516 16.6066ZM10.7925 18.1936H11.3396C11.4697 18.1936 11.5987 18.1889 11.7266 18.1799V18.9679H10.9524C10.9524 18.6939 10.8958 18.4317 10.7925 18.1936ZM12.5007 18.0682C12.7573 18.012 13.0073 17.9375 13.249 17.8462L13.6465 18.6413C13.2798 18.7702 12.8965 18.8633 12.5007 18.9162L12.5009 18.0682L12.5007 18.0682ZM13.9521 17.5209C14.2058 17.3808 14.4472 17.221 14.674 17.0433L15.3365 17.7059C15.0338 17.9468 14.7069 18.1584 14.3595 18.3359L13.9521 17.5209ZM16.4012 14.7098H17.323C17.2208 15.0783 17.0834 15.4321 16.9142 15.7675L16.1538 15.2606C16.2462 15.0825 16.3287 14.8986 16.4012 14.7098ZM4.37169 19.7421C3.73137 19.7421 3.21035 19.2211 3.21035 18.5807V18.1937H2.8233C2.18298 18.1937 1.66197 17.6727 1.66197 17.0323C1.66197 16.4892 2.04668 16.0119 2.57671 15.8975L2.97983 15.8104L2.86749 15.4137C2.8382 15.3104 2.8233 15.2037 2.8233 15.0969C2.8233 14.4566 3.34427 13.9356 3.98464 13.9356C4.25735 13.9356 4.52253 14.0322 4.73129 14.2078L5.07799 14.4993L5.31186 14.1114C5.52431 13.759 5.89648 13.5485 6.30713 13.5485C6.41377 13.5485 6.52041 13.5634 6.62404 13.5927L7.02063 13.7049L7.10768 13.3019C7.22236 12.7719 7.69949 12.3872 8.24253 12.3872C8.88286 12.3872 9.40387 12.9082 9.40387 13.5485C9.40387 13.9232 9.22106 14.2771 8.91487 14.4951L8.51878 14.7772L8.88256 15.0999C9.21387 15.3941 9.40388 15.8161 9.40388 16.2582C9.40388 16.6111 9.28786 16.9438 9.06839 17.22L8.68853 17.6983L9.28317 17.8377C9.81001 17.9611 10.1782 18.4258 10.1782 18.9679C10.1782 19.6082 9.65719 20.1292 9.01682 20.1292C8.78563 20.1292 8.56232 20.0614 8.37113 19.9332L7.95579 19.6546L7.79022 20.1266C7.62716 20.5911 7.18671 20.9033 6.6942 20.9033C6.10209 20.9033 5.60619 20.4604 5.5404 19.8728L5.47411 19.2791L4.95931 19.5821C4.78169 19.6867 4.57845 19.742 4.3717 19.742L4.37169 19.7421ZM14.0998 21.5104L17.8762 22.1769C18.4429 22.2768 18.8833 22.6937 19.0293 23.226L2.10083 23.2259C2.24681 22.6933 2.68729 22.2767 3.25394 22.1767L6.30531 21.6383C6.43103 21.664 6.56111 21.6777 6.6942 21.6777C7.36603 21.6777 7.97974 21.329 8.32928 20.7777C8.54725 20.8606 8.77945 20.9034 9.01666 20.9034C9.80866 20.9034 10.4907 20.425 10.79 19.7421H11.7264C11.989 19.7421 12.248 19.7262 12.5028 19.696C12.5448 20.5969 13.2033 21.3522 14.0998 21.5104ZM15.9095 17.184L15.2486 16.5231C15.4292 16.3347 15.5964 16.1335 15.7486 15.9209L16.5194 16.4348C16.3369 16.7013 16.1326 16.952 15.9095 17.184ZM18.694 11.2256H18.307V8.90298H18.694C19.3344 8.90298 19.8554 9.42395 19.8554 10.0643C19.8554 10.7046 19.3344 11.2257 18.694 11.2257V11.2256Z" fill="#ED712E"/>
<path d="M6.30701 16.2583C6.30701 16.8986 6.82798 17.4196 7.46834 17.4196C8.10867 17.4196 8.62968 16.8986 8.62968 16.2583C8.62968 15.6179 8.10871 15.0969 7.46834 15.0969C6.82802 15.0969 6.30701 15.6179 6.30701 16.2583ZM7.46834 15.8712C7.68179 15.8712 7.85539 16.0448 7.85539 16.2583C7.85539 16.4717 7.68179 16.6453 7.46834 16.6453C7.2549 16.6453 7.08129 16.4717 7.08129 16.2583C7.08129 16.0448 7.2549 15.8712 7.46834 15.8712Z" fill="#ED712E"/>
<path d="M3.21026 17.0323C3.21026 17.2461 3.03699 17.4195 2.82321 17.4195C2.60943 17.4195 2.43616 17.2461 2.43616 17.0323C2.43616 16.8185 2.60943 16.6453 2.82321 16.6453C3.03699 16.6453 3.21026 16.8185 3.21026 17.0323Z" fill="#ED712E"/>
<path d="M4.37132 15.0968C4.37132 15.3106 4.19805 15.4838 3.98427 15.4838C3.77049 15.4838 3.59705 15.3105 3.59705 15.0968C3.59705 14.883 3.77048 14.7097 3.98427 14.7097C4.19805 14.7097 4.37132 14.883 4.37132 15.0968Z" fill="#ED712E"/>
<path d="M5.14629 17.8062C5.14629 18.02 4.97302 18.1933 4.75924 18.1933C4.54546 18.1933 4.37219 18.02 4.37219 17.8062C4.37219 17.5925 4.54546 17.4192 4.75924 17.4192C4.97302 17.4192 5.14629 17.5925 5.14629 17.8062Z" fill="#ED712E"/>
<path d="M6.69414 14.7098C6.69414 14.9236 6.52087 15.0969 6.30709 15.0969C6.09331 15.0969 5.92004 14.9236 5.92004 14.7098C5.92004 14.496 6.09331 14.3228 6.30709 14.3228C6.52087 14.3228 6.69414 14.496 6.69414 14.7098Z" fill="#ED712E"/>
<path d="M7.08128 19.7415C7.08128 19.9553 6.90784 20.1286 6.69406 20.1286C6.48027 20.1286 6.30701 19.9553 6.30701 19.7415C6.30701 19.5278 6.48028 19.3545 6.69406 19.3545C6.90784 19.3545 7.08128 19.5278 7.08128 19.7415Z" fill="#ED712E"/>
<path d="M8.2426 18.9675C8.2426 19.1813 8.06933 19.3546 7.85555 19.3546C7.64177 19.3546 7.46851 19.1813 7.46851 18.9675C7.46851 18.7538 7.64178 18.5803 7.85555 18.5803C8.06934 18.5803 8.2426 18.7538 8.2426 18.9675Z" fill="#ED712E"/>
</svg>
