<svg width="25" height="24" viewBox="0 0 25 24" fill="none" xmlns="http://www.w3.org/2000/svg">
<path d="M24.0952 0.00491427H11.6977C11.5916 0.00491427 11.4899 0.0470484 11.4149 0.122048C11.3399 0.197047 11.2978 0.298768 11.2978 0.404832V5.20385C11.2978 5.30991 11.3399 5.41164 11.4149 5.48663C11.4899 5.56163 11.5916 5.60377 11.6977 5.60377C11.8038 5.60377 11.9055 5.56163 11.9805 5.48663C12.0555 5.41164 12.0976 5.30991 12.0976 5.20385V0.80475H23.6952V9.20303H15.6969V6.80352C15.6969 6.69746 15.6548 6.59574 15.5798 6.52074C15.5048 6.44574 15.403 6.4036 15.297 6.4036H10.098V2.0045C10.098 1.89844 10.0559 1.79672 9.9809 1.72172C9.9059 1.64672 9.80418 1.60459 9.69812 1.60459H8.26401L9.18102 0.687575C9.21922 0.650683 9.24968 0.606555 9.27064 0.557763C9.2916 0.508971 9.30264 0.456494 9.3031 0.403393C9.30356 0.350292 9.29344 0.297631 9.27333 0.248483C9.25322 0.199334 9.22353 0.154683 9.18598 0.117133C9.14843 0.0795839 9.10378 0.0498888 9.05463 0.0297805C9.00548 0.00967229 8.95282 -0.000446332 8.89972 1.50996e-05C8.84662 0.000476532 8.79414 0.0115088 8.74535 0.0324681C8.69656 0.0534274 8.65243 0.083894 8.61554 0.12209L7.29861 1.43902L5.98168 0.12209C5.90625 0.049242 5.80523 0.00893248 5.70037 0.00984366C5.59552 0.0107548 5.49521 0.0528138 5.42106 0.126962C5.34692 0.20111 5.30486 0.301414 5.30395 0.406272C5.30304 0.511129 5.34334 0.612149 5.41619 0.687575L6.33321 1.60459H1.69975C1.59369 1.60459 1.49197 1.64672 1.41697 1.72172C1.34197 1.79672 1.29984 1.89844 1.29984 2.0045V5.20385C1.29984 5.30991 1.34197 5.41164 1.41697 5.48663C1.49197 5.56163 1.59369 5.60377 1.69975 5.60377C1.80582 5.60377 1.90754 5.56163 1.98254 5.48663C2.05754 5.41164 2.09967 5.30991 2.09967 5.20385V2.40442H4.49918V6.4036H0.899918C0.793853 6.4036 0.692132 6.44574 0.617133 6.52074C0.542134 6.59574 0.5 6.69746 0.5 6.80352V14.8019C0.5 14.9079 0.542134 15.0097 0.617133 15.0847C0.692132 15.1597 0.793853 15.2018 0.899918 15.2018C1.00598 15.2018 1.1077 15.1597 1.1827 15.0847C1.2577 15.0097 1.29984 14.9079 1.29984 14.8019V10.4028H13.6973C13.8034 10.4028 13.9051 10.3607 13.9801 10.2857C14.0551 10.2107 14.0972 10.1089 14.0972 10.0029C14.0972 9.8968 14.0551 9.79508 13.9801 9.72008C13.9051 9.64508 13.8034 9.60295 13.6973 9.60295H6.89869V8.80311H7.69853C7.80459 8.80311 7.90631 8.76098 7.98131 8.68598C8.05631 8.61098 8.09844 8.50926 8.09844 8.4032C8.09844 8.29713 8.05631 8.19541 7.98131 8.12041C7.90631 8.04541 7.80459 8.00328 7.69853 8.00328H6.89869V7.20344H14.8971V23.2002H4.49918V21.2006C4.49918 21.0945 4.45705 20.9928 4.38205 20.9178C4.30705 20.8428 4.20533 20.8007 4.09926 20.8007H1.29984V16.4016C1.29984 16.2955 1.2577 16.1938 1.1827 16.1188C1.1077 16.0438 1.00598 16.0016 0.899918 16.0016C0.793853 16.0016 0.692132 16.0438 0.617133 16.1188C0.542134 16.1938 0.5 16.2955 0.5 16.4016V23.6001C0.5 23.7061 0.542134 23.8079 0.617133 23.8829C0.692132 23.9579 0.793853 24 0.899918 24H15.297C15.403 24 15.5048 23.9579 15.5798 23.8829C15.6548 23.8079 15.6969 23.7061 15.6969 23.6001V22.4003H18.8962C19.1084 22.4003 19.3118 22.3161 19.4618 22.1661C19.6118 22.0161 19.6961 21.8126 19.6961 21.6005V19.201C19.6961 18.9889 19.6118 18.7854 19.4618 18.6354C19.3118 18.4854 19.1084 18.4011 18.8962 18.4011H15.6969V17.6013H22.0956V23.2002H16.8966C16.7906 23.2002 16.6889 23.2423 16.6139 23.3173C16.5389 23.3923 16.4967 23.494 16.4967 23.6001C16.4967 23.7061 16.5389 23.8079 16.6139 23.8829C16.6889 23.9579 16.7906 24 16.8966 24H22.4955C22.6016 24 22.7033 23.9579 22.7783 23.8829C22.8533 23.8079 22.8954 23.7061 22.8954 23.6001V17.2014C22.8954 17.0953 22.8533 16.9936 22.7783 16.9186C22.7033 16.8436 22.6016 16.8015 22.4955 16.8015H15.6969V10.0029H23.6952V23.6001C23.6952 23.7061 23.7374 23.8079 23.8124 23.8829C23.8874 23.9579 23.9891 24 24.0952 24C24.2012 24 24.303 23.9579 24.378 23.8829C24.453 23.8079 24.4951 23.7061 24.4951 23.6001V0.404832C24.4951 0.298768 24.453 0.197047 24.378 0.122048C24.303 0.0470484 24.2012 0.00491427 24.0952 0.00491427ZM6.89869 5.60377H7.69853V6.4036H6.89869V5.60377ZM5.29902 4.0041H6.09885V4.80393H5.29902V4.0041ZM6.89869 4.0041H7.69853V4.80393H6.89869V4.0041ZM7.69853 2.40442V3.20426H6.89869V2.40442H7.69853ZM9.2982 4.80393H8.49836V4.0041H9.2982V4.80393ZM8.49836 5.60377H9.2982V6.4036H8.49836V5.60377ZM9.2982 3.20426H8.49836V2.40442H9.2982V3.20426ZM6.09885 2.40442V3.20426H5.29902V2.40442H6.09885ZM5.29902 5.60377H6.09885V6.4036H5.29902V5.60377ZM1.29984 9.60295V7.20344H6.09885V9.60295H1.29984ZM1.29984 23.2002V21.6005H3.69934V23.2002H1.29984ZM18.8962 21.6005H16.2624L18.6619 19.201H18.8962V21.6005ZM17.5301 19.201L15.6969 21.035V19.201H17.5301Z" fill="#ED712E"/>
<path d="M21.6958 11.2026C21.3777 11.2026 21.0725 11.329 20.8475 11.554C20.6225 11.779 20.4961 12.0842 20.4961 12.4024V14.0021C20.4961 14.3203 20.6225 14.6254 20.8475 14.8504C21.0725 15.0754 21.3777 15.2018 21.6958 15.2018C22.014 15.2018 22.3192 15.0754 22.5442 14.8504C22.7692 14.6254 22.8956 14.3203 22.8956 14.0021V12.4024C22.8956 12.0842 22.7692 11.779 22.5442 11.554C22.3192 11.329 22.014 11.2026 21.6958 11.2026ZM22.0958 14.0021C22.0958 14.1081 22.0536 14.2098 21.9786 14.2848C21.9036 14.3598 21.8019 14.402 21.6958 14.402C21.5898 14.402 21.4881 14.3598 21.4131 14.2848C21.3381 14.2098 21.2959 14.1081 21.2959 14.0021V12.4024C21.2959 12.2963 21.3381 12.1946 21.4131 12.1196C21.4881 12.0446 21.5898 12.0025 21.6958 12.0025C21.8019 12.0025 21.9036 12.0446 21.9786 12.1196C22.0536 12.1946 22.0958 12.2963 22.0958 12.4024V14.0021Z" fill="#ED712E"/>
<path d="M21.6958 6.00354C21.5898 6.00354 21.4881 5.96141 21.4131 5.88641C21.3381 5.81141 21.2959 5.70969 21.2959 5.60363C21.2959 5.49756 21.2538 5.39584 21.1788 5.32084C21.1038 5.24584 21.0021 5.20371 20.896 5.20371C20.7899 5.20371 20.6882 5.24584 20.6132 5.32084C20.5382 5.39584 20.4961 5.49756 20.4961 5.60363C20.4961 5.92182 20.6225 6.22698 20.8475 6.45198C21.0725 6.67698 21.3777 6.80338 21.6958 6.80338C22.014 6.80338 22.3192 6.67698 22.5442 6.45198C22.7692 6.22698 22.8956 5.92182 22.8956 5.60363V4.00395C22.8956 3.68576 22.7692 3.3806 22.5442 3.1556C22.3192 2.9306 22.014 2.8042 21.6958 2.8042C21.3777 2.8042 21.0725 2.9306 20.8475 3.1556C20.6225 3.3806 20.4961 3.68576 20.4961 4.00395C20.4961 4.11002 20.5382 4.21174 20.6132 4.28674C20.6882 4.36174 20.7899 4.40387 20.896 4.40387C21.0021 4.40387 21.1038 4.36174 21.1788 4.28674C21.2538 4.21174 21.2959 4.11002 21.2959 4.00395C21.2959 3.89789 21.3381 3.79617 21.4131 3.72117C21.4881 3.64617 21.5898 3.60404 21.6958 3.60404C21.8019 3.60404 21.9036 3.64617 21.9786 3.72117C22.0536 3.79617 22.0958 3.89789 22.0958 4.00395V5.60363C22.0958 5.70969 22.0536 5.81141 21.9786 5.88641C21.9036 5.96141 21.8019 6.00354 21.6958 6.00354Z" fill="#ED712E"/>
<path d="M13.2974 8.80325C13.5182 8.80325 13.6973 8.6242 13.6973 8.40334C13.6973 8.18247 13.5182 8.00342 13.2974 8.00342C13.0765 8.00342 12.8975 8.18247 12.8975 8.40334C12.8975 8.6242 13.0765 8.80325 13.2974 8.80325Z" fill="#ED712E"/>
<path d="M11.6978 8.80325C11.9186 8.80325 12.0977 8.6242 12.0977 8.40334C12.0977 8.18247 11.9186 8.00342 11.6978 8.00342C11.4769 8.00342 11.2979 8.18247 11.2979 8.40334C11.2979 8.6242 11.4769 8.80325 11.6978 8.80325Z" fill="#ED712E"/>
<path d="M10.0982 8.80325C10.319 8.80325 10.4981 8.6242 10.4981 8.40334C10.4981 8.18247 10.319 8.00342 10.0982 8.00342C9.87729 8.00342 9.69824 8.18247 9.69824 8.40334C9.69824 8.6242 9.87729 8.80325 10.0982 8.80325Z" fill="#ED712E"/>
<path d="M4.89904 8.00342H2.49953C2.39346 8.00342 2.29174 8.04555 2.21674 8.12055C2.14174 8.19555 2.09961 8.29727 2.09961 8.40334C2.09961 8.5094 2.14174 8.61112 2.21674 8.68612C2.29174 8.76112 2.39346 8.80325 2.49953 8.80325H4.89904C5.0051 8.80325 5.10682 8.76112 5.18182 8.68612C5.25682 8.61112 5.29895 8.5094 5.29895 8.40334C5.29895 8.29727 5.25682 8.19555 5.18182 8.12055C5.10682 8.04555 5.0051 8.00342 4.89904 8.00342Z" fill="#ED712E"/>
<path d="M8.09805 11.6025C6.92995 11.6004 5.79503 11.9909 4.87562 12.7115C3.95621 13.432 3.3057 14.4407 3.02858 15.5754C2.75146 16.7102 2.86383 17.9051 3.34764 18.9683C3.83145 20.0315 4.6586 20.9013 5.69621 21.4378C6.73383 21.9742 7.92166 22.1464 9.06888 21.9265C10.2161 21.7066 11.2561 21.1075 12.0218 20.2253C12.7875 19.3432 13.2345 18.2293 13.2909 17.0625C13.3473 15.8958 13.0098 14.744 12.3328 13.7921C12.3027 13.7485 12.2642 13.7114 12.2195 13.6828C12.1749 13.6542 12.1251 13.6348 12.0729 13.6257C12.0207 13.6165 11.9672 13.6178 11.9155 13.6295C11.8639 13.6412 11.815 13.6631 11.7719 13.6938C11.7287 13.7245 11.6921 13.7635 11.6641 13.8085C11.6362 13.8535 11.6175 13.9037 11.609 13.956C11.6006 14.0083 11.6027 14.0617 11.6151 14.1132C11.6275 14.1647 11.65 14.2133 11.6813 14.256C12.3227 15.1564 12.6024 16.2648 12.4651 17.3617C12.3277 18.4586 11.7833 19.4639 10.9397 20.1783C10.0961 20.8927 9.01487 21.2641 7.91034 21.2189C6.8058 21.1737 5.75855 20.7153 4.97612 19.9343C4.19369 19.1534 3.73319 18.107 3.68588 17.0026C3.63857 15.8981 4.0079 14.8162 4.72068 13.9713C5.43346 13.1263 6.43767 12.5799 7.5343 12.4404C8.63092 12.301 9.73993 12.5786 10.6415 13.2182C10.6843 13.2495 10.7328 13.2721 10.7843 13.2845C10.8358 13.2969 10.8893 13.2989 10.9416 13.2905C10.9939 13.2821 11.044 13.2633 11.089 13.2354C11.134 13.2074 11.173 13.1708 11.2037 13.1277C11.2345 13.0845 11.2563 13.0357 11.268 12.984C11.2797 12.9323 11.281 12.8788 11.2719 12.8266C11.2627 12.7745 11.2433 12.7246 11.2147 12.68C11.1862 12.6354 11.149 12.5969 11.1054 12.5668C10.2283 11.9391 9.17661 11.602 8.09805 11.6025Z" fill="#ED712E"/>
<path d="M8.09825 19.6008C7.59874 19.6 7.10859 19.4652 6.67894 19.2104C6.58757 19.1565 6.47851 19.1411 6.37576 19.1676C6.27301 19.194 6.18499 19.2602 6.13105 19.3516C6.07712 19.443 6.06169 19.5521 6.08817 19.6548C6.11464 19.7576 6.18085 19.8456 6.27223 19.8995C7.02843 20.346 7.92154 20.5013 8.78409 20.3363C9.64663 20.1713 10.4194 19.6973 10.9574 19.0032C11.4954 18.3091 11.7617 17.4426 11.7064 16.5662C11.6511 15.6897 11.278 14.8636 10.657 14.2426C10.036 13.6216 9.20987 13.2485 8.33343 13.1932C7.45698 13.1379 6.59047 13.4042 5.89638 13.9422C5.20228 14.4802 4.72829 15.253 4.56328 16.1155C4.39827 16.978 4.55358 17.8712 5.00009 18.6274C5.05402 18.7187 5.14204 18.785 5.24479 18.8114C5.34754 18.8379 5.4566 18.8225 5.54797 18.7685C5.63935 18.7146 5.70556 18.6266 5.73203 18.5238C5.7585 18.4211 5.74308 18.312 5.68914 18.2207C5.37672 17.6889 5.2488 17.0688 5.3253 16.4568C5.40179 15.8449 5.67841 15.2753 6.11211 14.8368C6.54581 14.3983 7.11227 14.1155 7.72338 14.0323C8.33448 13.9491 8.95594 14.0702 9.49109 14.3768C10.0262 14.6833 10.445 15.1582 10.6824 15.7274C10.9197 16.2967 10.9622 16.9284 10.8033 17.5243C10.6445 18.1202 10.2931 18.6469 9.80384 19.0225C9.31462 19.398 8.71499 19.6013 8.09825 19.6008Z" fill="#ED712E"/>
<path d="M13.6973 12.0025C13.8034 12.0025 13.9051 11.9603 13.9801 11.8853C14.0551 11.8103 14.0972 11.7086 14.0972 11.6026C14.0972 11.4965 14.0551 11.3948 13.9801 11.3198C13.9051 11.2448 13.8034 11.2026 13.6973 11.2026H12.4976C12.3915 11.2026 12.2898 11.2448 12.2148 11.3198C12.1398 11.3948 12.0977 11.4965 12.0977 11.6026C12.0977 11.7086 12.1398 11.8103 12.2148 11.8853C12.2898 11.9603 12.3915 12.0025 12.4976 12.0025H13.6973Z" fill="#ED712E"/>
<path d="M3.69928 11.2026H2.49953C2.39346 11.2026 2.29174 11.2448 2.21674 11.3198C2.14174 11.3948 2.09961 11.4965 2.09961 11.6026C2.09961 11.7086 2.14174 11.8103 2.21674 11.8853C2.29174 11.9603 2.39346 12.0025 2.49953 12.0025H3.69928C3.80535 12.0025 3.90707 11.9603 3.98207 11.8853C4.05707 11.8103 4.0992 11.7086 4.0992 11.6026C4.0992 11.4965 4.05707 11.3948 3.98207 11.3198C3.90707 11.2448 3.80535 11.2026 3.69928 11.2026Z" fill="#ED712E"/>
<path d="M20.896 19.201C21.1169 19.201 21.2959 19.0219 21.2959 18.801C21.2959 18.5802 21.1169 18.4011 20.896 18.4011C20.6751 18.4011 20.4961 18.5802 20.4961 18.801C20.4961 19.0219 20.6751 19.201 20.896 19.201Z" fill="#ED712E"/>
<path d="M20.896 20.8008C21.1169 20.8008 21.2959 20.6218 21.2959 20.4009C21.2959 20.18 21.1169 20.001 20.896 20.001C20.6751 20.001 20.4961 20.18 20.4961 20.4009C20.4961 20.6218 20.6751 20.8008 20.896 20.8008Z" fill="#ED712E"/>
<path d="M3.29933 4.00418C3.5202 4.00418 3.69925 3.82513 3.69925 3.60426C3.69925 3.3834 3.5202 3.20435 3.29933 3.20435C3.07846 3.20435 2.89941 3.3834 2.89941 3.60426C2.89941 3.82513 3.07846 4.00418 3.29933 4.00418Z" fill="#ED712E"/>
<path d="M3.29933 5.60379C3.5202 5.60379 3.69925 5.42474 3.69925 5.20387C3.69925 4.983 3.5202 4.80396 3.29933 4.80396C3.07846 4.80396 2.89941 4.983 2.89941 5.20387C2.89941 5.42474 3.07846 5.60379 3.29933 5.60379Z" fill="#ED712E"/>
</svg>
