<?xml version="1.0" encoding="utf-8"?><svg viewBox="0 0 48 312" xmlns="http://www.w3.org/2000/svg" xmlns:xlink="http://www.w3.org/1999/xlink"><style>:root>svg{display:none}:root>svg:target{display:block}</style><svg viewBox="0 0 3 6" id="arrow" xmlns="http://www.w3.org/2000/svg"><path d="M.503 1l2 2-2 2"/></svg><svg viewBox="0 0 4 6" id="arrow-btn" xmlns="http://www.w3.org/2000/svg"><path d="M1.003 1l2 2-2 2"/></svg><svg viewBox="0 0 32 32" id="cashback" xmlns="http://www.w3.org/2000/svg"><path d="M4.219 16.606l2.618 1.872a.468.468 0 00.653-.11l1.872-2.619a.47.47 0 10-.765-.545L7.385 16.9a9.786 9.786 0 1118.635 1.43.467.467 0 10.871.346A10.723 10.723 0 0011.376 5.548 10.721 10.721 0 006.46 17.057l-1.7-1.212a.468.468 0 10-.542.76z"/><path d="M27.967 20.666c-.936-1.107-2.47-.6-3.3-.328-.523.174-1.78.702-3.018 1.226a1.933 1.933 0 00-.145-1.17c-.67-1.528-2.321-1.235-3.529-1.02a6.458 6.458 0 01-1.132.143 4.727 4.727 0 01-1.872-.41 5.77 5.77 0 00-2.427-.467c-1.595.029-3.168.38-4.624 1.034l-.262.107c-2.174.866-3.11 1.063-3.11 1.063a.468.468 0 00-.362.346c-.017.068-.384 1.638.657 3.845.894 1.872 1.94 2.59 2.658 2.85a.47.47 0 00.448-.073s.587-.468 1.036-.73c.297-.18 1.02-.294 2.79.197a21.54 21.54 0 005.012.718 5.85 5.85 0 001.946-.267c1.847-.701 6.34-3.041 8.106-4 .936-.511 1.446-1.061 1.563-1.683a1.639 1.639 0 00-.435-1.381zm-.486 1.21c-.059.316-.447.683-1.09 1.034-1.484.812-6.15 3.257-7.987 3.948-1.29.482-4.535.032-6.38-.468a8.828 8.828 0 00-2.271-.398 2.373 2.373 0 00-1.257.29c-.316.192-.676.454-.903.622-.702-.35-1.369-1.146-1.905-2.274a5.877 5.877 0 01-.627-2.953c1-.292 1.984-.64 2.946-1.04l.27-.11a10.834 10.834 0 014.286-.959 4.8 4.8 0 012.078.415c.69.302 1.433.461 2.185.468a7.52 7.52 0 001.313-.157c1.29-.234 2.16-.32 2.506.468.12.245.133.529.036.784-.131.323-.468.617-.997.856-.468.197-.82.349-.974.41-.992.388-1.846.252-2.672.121l-.454-.07a.472.472 0 10-.126.936c.142.019.287.042.432.066.906.143 1.931.304 3.162-.176.142-.056.428-.175.807-.339a4.08 4.08 0 00.204-.087l.603-.257c1.524-.655 3.611-1.554 4.296-1.778 1.089-.358 1.851-.468 2.29.042.282.332.242.538.229.606zM16.482 9.087v.62c-.162.037-.32.094-.468.169a1.474 1.474 0 00-.812 1.28c-.033 1.027.892 1.371 1.566 1.621.786.293 1.025.443.99.817a.646.646 0 01-.431.573 1.604 1.604 0 01-1.388-.117.469.469 0 00-.58.737c.33.237.719.377 1.123.405v.56a.468.468 0 00.936 0v-.63a2.33 2.33 0 00.288-.094 1.581 1.581 0 00.995-1.343c.112-1.15-.915-1.532-1.594-1.785-.727-.27-.969-.41-.96-.714a.548.548 0 01.319-.484 1.42 1.42 0 011.343.114.468.468 0 10.496-.793 2.484 2.484 0 00-.887-.34v-.596a.468.468 0 10-.936 0z"/><path d="M11.334 12.419a5.616 5.616 0 1011.232 0 5.616 5.616 0 00-11.232 0zm10.296 0a4.68 4.68 0 11-9.36 0 4.68 4.68 0 019.36 0z"/></svg><svg viewBox="0 0 6 10" id="catalog-arrow" xmlns="http://www.w3.org/2000/svg"><path d="M1 1l4 4-4 4"/></svg><svg viewBox="0 0 12 132" id="circle" xmlns="http://www.w3.org/2000/svg"><circle cx="6" cy="6" r="5.5"/><circle cx="6" cy="26" r="5.5"/><circle cx="6" cy="46" r="5.5"/><circle cx="6" cy="66" r="5.5"/><circle cx="6" cy="86" r="5.5"/><circle cx="6" cy="106" r="5.5"/><circle cx="6" cy="126" r="5.5"/></svg><svg viewBox="0 0 12 312" id="circle-long" xmlns="http://www.w3.org/2000/svg"><circle cx="6" cy="6" r="5.5"/><circle cx="6" cy="26" r="5.5"/><circle cx="6" cy="46" r="5.5"/><circle cx="6" cy="66" r="5.5"/><circle cx="6" cy="86" r="5.5"/><circle cx="6" cy="106" r="5.5"/><circle cx="6" cy="126" r="5.5"/><circle cx="6" cy="146" r="5.5"/><circle cx="6" cy="166" r="5.5"/><circle cx="6" cy="186" r="5.5"/><circle cx="6" cy="206" r="5.5"/><circle cx="6" cy="226" r="5.5"/><circle cx="6" cy="246" r="5.5"/><circle cx="6" cy="266" r="5.5"/><circle cx="6" cy="286" r="5.5"/><circle cx="6" cy="306" r="5.5"/></svg><svg viewBox="0 0 24 24" id="favorites" xmlns="http://www.w3.org/2000/svg"><g clip-path="url(#aga)"><mask id="aga" maskUnits="userSpaceOnUse" x="2" y="0" width="24" height="24"><path d="M2 0h24v24H2V0z"/></mask><g mask="url(#aga)"><path d="M6.923 2.885a1.208 1.208 0 00-1.207 1.208v16.082c0 .456.368.825.824.825h.003a.915.915 0 00.65-.27l4.135-4.134a1.453 1.453 0 012.06 0l4.142 4.141a.897.897 0 00.634.263.836.836 0 00.836-.836V4.093a1.207 1.207 0 00-1.208-1.208H6.923z"/></g></g><defs><clipPath id="aga"><path d="M0 0h24v24H0z"/></clipPath></defs></svg><svg viewBox="0 0 32 32" id="fb" xmlns="http://www.w3.org/2000/svg"><path d="M32 16c0-8.838-7.163-16-16-16C7.162 0 0 7.162 0 16c0 8.837 7.162 16 16 16 .094 0 .188 0 .281-.006v-12.45h-3.437v-4.007h3.437v-2.95c0-3.418 2.088-5.28 5.138-5.28 1.462 0 2.718.105 3.081.155v3.575h-2.1c-1.656 0-1.981.788-1.981 1.944v2.55h3.968l-.518 4.007h-3.45V31.38C27.106 29.462 32 23.306 32 16z"/></svg><svg viewBox="0 0 14 14" id="filter" xmlns="http://www.w3.org/2000/svg"><g clip-path="url(#aia)"><path d="M13.247 0H.766a.586.586 0 00-.523.318.595.595 0 00.046.62l4.573 6.44.005.007c.166.225.256.496.256.776v5.251a.584.584 0 00.814.542l2.57-.98a.556.556 0 00.383-.55V8.162c0-.28.09-.551.256-.776l.005-.006L13.724.937a.594.594 0 00.046-.619.586.586 0 00-.523-.318zM8.573 6.964a2.023 2.023 0 00-.394 1.197v4.178l-2.345.894V8.16c0-.431-.14-.85-.395-1.197L1 .711h12.013l-4.44 6.253z"/></g><defs><clipPath id="aia"><path d="M0 0h14v14H0z"/></clipPath></defs></svg><svg viewBox="0 0 24 24" id="filter-arrow" xmlns="http://www.w3.org/2000/svg"><g clip-path="url(#aja)"><path d="M12 15.5a1.003 1.003 0 01-.71-.29l-4-4a1.004 1.004 0 011.42-1.42L12 13.1l3.3-3.18a1 1 0 111.38 1.44l-4 3.86a1 1 0 01-.68.28z"/></g><defs><clipPath id="aja"><path d="M0 0h24v24H0z"/></clipPath></defs></svg><svg viewBox="0 0 48 48" id="footer-fb" xmlns="http://www.w3.org/2000/svg"><path d="M48 24C48 10.744 37.256 0 24 0S0 10.744 0 24s10.744 24 24 24c.14 0 .281 0 .422-.01V29.317h-5.157v-6.01h5.157v-4.425c0-5.128 3.131-7.922 7.706-7.922 2.194 0 4.078.16 4.622.235v5.362H33.6c-2.485 0-2.972 1.181-2.972 2.916v3.825h5.953l-.778 6.01h-5.175v17.765C40.659 44.194 48 34.959 48 24z"/></svg><svg viewBox="0 0 48 48" id="footer-inst" xmlns="http://www.w3.org/2000/svg"><g clip-path="url(#ala)"><path d="M28.594 24a4.594 4.594 0 11-9.188 0 4.594 4.594 0 019.188 0z"/><path d="M34.743 15.872a4.27 4.27 0 00-1.031-1.584 4.267 4.267 0 00-1.585-1.031c-.485-.189-1.215-.413-2.559-.474-1.453-.067-1.889-.08-5.569-.08-3.68 0-4.115.013-5.569.08-1.343.06-2.073.285-2.558.474-.599.22-1.14.573-1.585 1.03-.458.445-.81.987-1.031 1.585-.189.486-.413 1.216-.474 2.56-.066 1.453-.08 1.888-.08 5.569 0 3.68.014 4.115.08 5.569.06 1.343.285 2.073.474 2.558a4.28 4.28 0 001.03 1.585c.445.457.987.81 1.585 1.03.486.19 1.216.414 2.56.475 1.453.066 1.888.08 5.568.08 3.68 0 4.116-.014 5.57-.08 1.343-.06 2.073-.285 2.558-.474a4.564 4.564 0 002.616-2.616c.188-.485.413-1.215.474-2.558.067-1.454.08-1.89.08-5.57 0-3.68-.013-4.115-.08-5.569-.06-1.343-.285-2.073-.474-2.559zM23.999 31.077a7.077 7.077 0 110-14.153 7.077 7.077 0 010 14.153zm7.357-12.78a1.654 1.654 0 110-3.307 1.654 1.654 0 010 3.307z"/><path d="M24 0C10.747 0 0 10.747 0 24s10.747 24 24 24 24-10.747 24-24S37.253 0 24 0zm13.698 29.682c-.067 1.467-.3 2.468-.64 3.345a7.046 7.046 0 01-4.031 4.03c-.876.341-1.878.574-3.345.641-1.47.067-1.94.083-5.682.083-3.743 0-4.212-.016-5.682-.083-1.467-.067-2.469-.3-3.345-.64a6.752 6.752 0 01-2.441-1.59 6.755 6.755 0 01-1.59-2.44c-.34-.877-.573-1.88-.64-3.346-.068-1.47-.083-1.94-.083-5.682 0-3.743.015-4.212.083-5.682.066-1.467.3-2.468.64-3.345a6.751 6.751 0 011.59-2.44 6.75 6.75 0 012.44-1.59c.878-.341 1.88-.574 3.346-.641 1.47-.067 1.94-.083 5.682-.083 3.743 0 4.212.016 5.682.083 1.467.067 2.468.3 3.345.64a6.75 6.75 0 012.441 1.59 6.751 6.751 0 011.59 2.44c.34.878.573 1.88.64 3.346.067 1.47.083 1.94.083 5.682 0 3.743-.016 4.212-.083 5.682z"/></g><defs><clipPath id="ala"><path d="M0 0h48v48H0z"/></clipPath></defs></svg><svg viewBox="0 0 48 48" id="footer-twitter" xmlns="http://www.w3.org/2000/svg"><path d="M24 0C10.766 0 0 10.767 0 24s10.766 24 24 24c13.233 0 24-10.767 24-24S37.234 0 24 0zm10.706 18.507c.011.238.017.478.017.717 0 7.3-5.555 15.714-15.718 15.714-3.12 0-6.024-.911-8.468-2.48.432.052.872.078 1.318.078 2.589 0 4.97-.883 6.86-2.364a5.53 5.53 0 01-5.16-3.837 5.57 5.57 0 002.494-.093 5.525 5.525 0 01-4.43-5.417l.001-.07a5.501 5.501 0 002.5.69 5.52 5.52 0 01-2.456-4.596 5.5 5.5 0 01.748-2.778 15.685 15.685 0 0011.385 5.773 5.514 5.514 0 01-.142-1.26 5.524 5.524 0 019.555-3.78 11.025 11.025 0 003.51-1.34 5.548 5.548 0 01-2.433 3.056 10.98 10.98 0 003.173-.869 11.109 11.109 0 01-2.754 2.856z"/></svg><svg viewBox="0 0 32 32" id="google" xmlns="http://www.w3.org/2000/svg"><path d="M25.6 16.234c0-.661-.064-1.344-.17-1.984h-9.238v3.776h5.291a4.45 4.45 0 01-1.963 2.965l3.158 2.454c1.856-1.728 2.922-4.246 2.922-7.211z"/><path d="M16.192 25.792c2.645 0 4.864-.875 6.485-2.368l-3.157-2.432c-.875.597-2.005.938-3.328.938-2.56 0-4.715-1.728-5.504-4.032l-3.243 2.496a9.782 9.782 0 008.747 5.398z"/><path d="M10.688 17.878a5.95 5.95 0 010-3.755l-3.243-2.518a9.805 9.805 0 000 8.79l3.243-2.517zm5.504-7.788a5.342 5.342 0 013.755 1.472l2.794-2.816a9.423 9.423 0 00-6.549-2.539 9.782 9.782 0 00-8.747 5.398l3.243 2.517c.79-2.325 2.944-4.032 5.504-4.032z"/></svg><svg viewBox="0 0 20 20" id="google-enter" xmlns="http://www.w3.org/2000/svg"><path d="M19.6 10.235c0-.662-.064-1.345-.17-1.985h-9.238v3.777h5.291a4.45 4.45 0 01-1.963 2.965l3.158 2.453c1.856-1.728 2.922-4.245 2.922-7.21z"/><path d="M10.192 19.792c2.645 0 4.864-.875 6.485-2.368l-3.157-2.432c-.875.597-2.005.938-3.328.938-2.56 0-4.715-1.728-5.504-4.032l-3.243 2.496a9.782 9.782 0 008.747 5.398z"/><path d="M4.688 11.877a5.949 5.949 0 010-3.754L1.445 5.605a9.805 9.805 0 000 8.79l3.243-2.518zm5.504-7.787a5.342 5.342 0 013.755 1.473l2.794-2.816a9.424 9.424 0 00-6.549-2.54 9.782 9.782 0 00-8.747 5.398l3.243 2.518c.79-2.326 2.944-4.032 5.504-4.032z"/></svg><svg viewBox="0 0 32 32" id="icon1" xmlns="http://www.w3.org/2000/svg"><path fill-rule="evenodd" clip-rule="evenodd" d="M10.933 28.533a1.598 1.598 0 001.6-1.6V18.4a.533.533 0 01.534-.533h6.4A.533.533 0 0120 18.4v8.533a1.597 1.597 0 001.6 1.6h5.333a1.6 1.6 0 001.6-1.6v-12.8a1.6 1.6 0 00-.6-1.25L17.266 4.35a1.6 1.6 0 00-1.999 0L4.601 12.884A1.6 1.6 0 004 14.134v12.8a1.6 1.6 0 001.6 1.6h5.333zm0-1.066H5.6a.534.534 0 01-.533-.534v-12.8a.53.53 0 01.2-.416l10.666-8.534a.534.534 0 01.667 0l10.667 8.534c.126.101.2.254.2.416v12.8a.534.534 0 01-.534.534H21.6a.533.533 0 01-.533-.534V18.4a1.598 1.598 0 00-1.6-1.6h-6.4a1.598 1.598 0 00-1.6 1.6v8.533a.533.533 0 01-.534.534z"/></svg><svg viewBox="0 0 32 32" id="icon2" xmlns="http://www.w3.org/2000/svg"><path d="M11.846 7.694h5.539a.462.462 0 000-.923h-5.539a.462.462 0 000 .923zm9.693 5.076a.462.462 0 00-.462-.461h-9.23a.462.462 0 000 .923h9.23a.462.462 0 00.462-.462zm-9.693-2.309h1.847a.462.462 0 000-.923h-1.847a.462.462 0 000 .923zm9.232-.923H16a.462.462 0 000 .923h5.077a.462.462 0 000-.923zM22 15.077a6 6 0 100 12 6 6 0 000-12zm0 11.077A5.077 5.077 0 1122 16a5.077 5.077 0 010 10.154z"/><path d="M15.308 24.308h-5.77V6.77c0-.682-.253-1.34-.71-1.846h12.711a1.847 1.847 0 011.846 1.846v6.924a.461.461 0 10.923 0V6.769A2.77 2.77 0 0021.54 4H6.769A2.77 2.77 0 004 6.77v4.153a.462.462 0 00.462.462h4.154V24.77a.462.462 0 00.461.461h6.23a.462.462 0 000-.923h.001zM4.923 6.77a1.846 1.846 0 013.692 0v3.693H4.923V6.769zm17.539 14.116v-2.578a.462.462 0 00-.923 0v2.77c0 .122.05.239.136.325l1.385 1.385a.462.462 0 00.65-.65l-1.248-1.252z"/><path d="M11.846 21.54a.462.462 0 000 .922h1.846a.462.462 0 000-.923h-1.846z"/></svg><svg viewBox="0 0 32 32" id="icon3" xmlns="http://www.w3.org/2000/svg"><path d="M21.231 14.952a1.512 1.512 0 00-1.532 1.452 1.702 1.702 0 001.2 1.432.4.4 0 00.232-.764c-.3-.092-.628-.44-.628-.668a.723.723 0 01.732-.652c.265.06.505.2.688.4a.406.406 0 10.572-.576 2.052 2.052 0 00-1.264-.624z"/><path d="M26.124 17.372a4.725 4.725 0 00-1.2-2.3c.114-.197.174-.42.176-.648a1.448 1.448 0 00-1.456-1.544 1.413 1.413 0 00-1.284.72 10.045 10.045 0 00-4.424-2.516 3.2 3.2 0 10-5.04-3.36 3.202 3.202 0 00-1.656 3.452C7.5 12.376 5 15.328 5 18.612a7.164 7.164 0 002.34 5.2v2.76a1.655 1.655 0 001.72 1.6h1.144a1.656 1.656 0 001.72-1.6v-.308a12 12 0 005.372.076v.232a1.656 1.656 0 001.72 1.6h1.144a1.656 1.656 0 001.72-1.6v-2.464c.37-.317.713-.665 1.024-1.04a4 4 0 002.968-2.524 1.459 1.459 0 001.384-1.404v-.4a1.43 1.43 0 00-1.132-1.368zm-2.504-3.696a.66.66 0 01.66.744c.005.04.005.08 0 .12a3.56 3.56 0 00-1.248-.528.62.62 0 01.604-.336h-.016zm-7.644-7.524a2.4 2.4 0 011.6 4.192 3.172 3.172 0 00-3.684-2.952 2.4 2.4 0 012.084-1.24zm-1.6 2a2.4 2.4 0 110 4.801 2.4 2.4 0 010-4.801zM26.448 19.14a.684.684 0 01-.724.608h-.088a.4.4 0 00-.4.264c-.452 1.284-1.436 2.164-2.576 2.292a.399.399 0 00-.268.148c-.342.429-.728.82-1.152 1.168a.4.4 0 00-.144.308v2.648a.86.86 0 01-.92.8h-1.164a.86.86 0 01-.92-.8v-.744a.4.4 0 00-.504-.4 11.16 11.16 0 01-5.952-.088.4.4 0 00-.516.4v.832a.86.86 0 01-.92.8H9.06a.86.86 0 01-.92-.8v-2.94a.4.4 0 00-.128-.296A6.4 6.4 0 015.8 18.628c0-2.94 2.284-5.6 5.7-6.68.202.416.491.783.848 1.076h-.824a.4.4 0 000 .8h6.252a.4.4 0 000-.8H16.4a3.19 3.19 0 00.924-1.271 9.144 9.144 0 014.88 2.855.4.4 0 00.284.14c1.436.08 2.636 1.328 2.916 3.04a.4.4 0 00.368.337.667.667 0 01.676.603v.412z"/><path d="M15.603 23.8a17.189 17.189 0 01-3.74-.4.402.402 0 00-.48.3.4.4 0 00.3.48c1.193.256 2.409.39 3.628.4h.316a.4.4 0 00.4-.4.4.4 0 00-.424-.38zm2.093-.187l-1 .2a.402.402 0 10.08.8h.08l1-.2a.408.408 0 00-.16-.8zm-5.12-16.861a.4.4 0 00.4-.4V4.4a.4.4 0 00-.8 0v1.952a.4.4 0 00.4.4zm-1.752 2.676a.4.4 0 00.4-.4v-2.3a.4.4 0 00-.8 0v2.3a.4.4 0 00.4.4zm4.791 1.992a.4.4 0 00.4-.4V9.776a.4.4 0 00-.8 0v1.244a.4.4 0 00.4.4zm2.508-5.868a.4.4 0 00.4-.4V4.4a.4.4 0 00-.8 0v.752a.4.4 0 00.4.4zm2.133 4.584a.4.4 0 00.4-.4V6.728a.4.4 0 00-.8 0v3.008a.4.4 0 00.4.4z"/></svg><svg viewBox="0 0 32 32" id="icon4" xmlns="http://www.w3.org/2000/svg"><path d="M16 4C9.373 4 4 9.373 4 16c0 6.628 5.373 12 12 12 6.628 0 12-5.372 12-12 0-6.627-5.372-12-12-12zm0 19.034a7.034 7.034 0 110-14.069 7.034 7.034 0 010 14.07z"/><path d="M9.785 19.29L6.18 22.892a12.06 12.06 0 002.926 2.926l3.604-3.604a7.06 7.06 0 01-2.926-2.926zM22.891 6.18l-3.604 3.604a7.06 7.06 0 012.926 2.926l3.604-3.603a12.048 12.048 0 00-2.926-2.927zm-.627 13.013a7.063 7.063 0 01-2.878 2.973l3.593 3.594a12.066 12.066 0 002.902-2.95l-3.617-3.617zM9.835 12.616a7.059 7.059 0 012.973-2.879L9.192 6.121a12.066 12.066 0 00-2.95 2.901l3.593 3.594z"/></svg><svg viewBox="0 0 32 32" id="icon5" xmlns="http://www.w3.org/2000/svg"><path d="M25.654 16.661a3.84 3.84 0 00.734-2.242.4.4 0 10-.799-.039 3.063 3.063 0 01-.563 1.784c-.78.986-2.26 1.036-2.55 1.036a.4.4 0 000 .8c.354 0 2.168-.064 3.178-1.339zm-8.052.139a.4.4 0 10-.8 0 1.6 1.6 0 001.6 1.6v.4a.4.4 0 00.8 0v-.4a1.6 1.6 0 000-3.2v-1.6a.8.8 0 01.8.8.4.4 0 00.8 0 1.6 1.6 0 00-1.6-1.6v-.4a.4.4 0 00-.8 0v.4a1.6 1.6 0 000 3.2v1.6a.8.8 0 01-.8-.8zm0-2.4a.8.8 0 01.8-.8v1.6a.8.8 0 01-.8-.8zm1.6 1.6a.8.8 0 010 1.6V16z"/><path d="M27.665 17.509c-.985-4.189-3.177-6.616-4.759-7.883 1.985.15 2.623.975 2.642 1a.4.4 0 00.663-.449c-.03-.043-.585-.836-2.2-1.2.413-.34.657-.842.669-1.377a2.054 2.054 0 00-1.53-1.863c.035-.289.053-.58.054-.87a.8.8 0 00-1.113-.736c-.202.092-.39.212-.556.357a1.031 1.031 0 01-.748.312 1.03 1.03 0 01-.747-.312 1.84 1.84 0 00-2.497 0 1.029 1.029 0 01-.749.312c-.28.003-.55-.11-.746-.312a2.288 2.288 0 00-.555-.357.8.8 0 00-1.111.736c0 .995.197 2.77 1.443 3.962A11.05 11.05 0 0014 10.217V7.2c0-.912-1.29-1.6-3-1.6s-3 .688-3 1.6v4.03c-1.403.14-2.4.77-2.4 1.57v10.174c-.966.26-1.6.786-1.6 1.426v2c0 .912 1.29 1.6 3 1.6 1.53 0 2.72-.55 2.955-1.32.69.366 1.464.545 2.245.52 1.71 0 3-.688 3-1.6v-5.2c0-.912-1.29-1.6-3-1.6-.2 0-.4.01-.6.03V12.8c0-.876-1.19-1.543-2.8-1.595V8.308A4.55 4.55 0 0011 8.8a4.555 4.555 0 002.2-.492v2.728c-.264.295-.528.616-.79.972a.4.4 0 00.645.472c.257-.348.532-.681.825-1l.01-.01a10.514 10.514 0 012.654-2.128c.196.095.403.164.617.205l-1.031.963a.4.4 0 00.546.585l1.6-1.493h.128v1.2a.4.4 0 00.8 0V9.6h.127l1.6 1.493a.4.4 0 10.547-.585L20.44 9.54a2.52 2.52 0 00.613-.206c1.057.572 4.532 2.832 5.834 8.357.566 2.404.362 4.244-.606 5.466-1.238 1.562-3.387 1.642-3.805 1.642H16.8a.4.4 0 000 .8h5.676c.68 0 3.002-.14 4.432-1.945 1.127-1.424 1.382-3.492.757-6.146zM7 23.6c1.323 0 2.2.48 2.2.8 0 .32-.877.8-2.2.8-1.323 0-2.2-.48-2.2-.8 0-.32.877-.8 2.2-.8zm0 3.6c-1.323 0-2.2-.48-2.2-.8v-.892A4.55 4.55 0 007 26a4.555 4.555 0 002.2-.492v.892c0 .32-.877.8-2.2.8zm5.2-.8c-1.323 0-2.2-.48-2.2-.8v-4.092a4.55 4.55 0 002.2.492 4.555 4.555 0 002.2-.492V25.6c0 .32-.877.8-2.2.8zm2.2-6c0 .32-.877.8-2.2.8-1.323 0-2.2-.48-2.2-.8 0-.32.877-.8 2.2-.8 1.323 0 2.2.48 2.2.8zm-5.2 0v2.893A4.555 4.555 0 007 22.8c-.2 0-.4.01-.6.03v-8.922a4.55 4.55 0 002.2.492 4.555 4.555 0 002.2-.492v5.066c-.966.26-1.6.786-1.6 1.426zm1.6-7.6c0 .32-.877.8-2.2.8-1.323 0-2.2-.48-2.2-.8 0-.32.877-.8 2.2-.8 1.323 0 2.2.48 2.2.8zM11 8c-1.323 0-2.2-.48-2.2-.8 0-.32.877-.8 2.2-.8 1.323 0 2.2.48 2.2.8 0 .32-.877.8-2.2.8zm12.88-.4c0 .656-.71 1.194-1.6 1.2a2.06 2.06 0 01-.443-.05 4.74 4.74 0 001.169-2.213c.481.142.828.563.874 1.063zm-8.333-2.488a1.8 1.8 0 001.247.488c.463.004.91-.17 1.248-.488a1.053 1.053 0 011.496 0c.338.317.785.492 1.249.488.463.004.91-.17 1.248-.488.11-.098.234-.18.367-.246 0 .743-.138 2.58-1.427 3.586-.29.218-.641.338-1.004.343.346-.594.62-1.228.816-1.888a.4.4 0 10-.77-.214 7.336 7.336 0 01-1.01 2.107h-.41a7.408 7.408 0 01-1.01-2.107.4.4 0 10-.77.214c.195.66.47 1.295.816 1.89a1.72 1.72 0 01-1.024-.345c-1.29-1.006-1.427-2.843-1.427-3.583.132.064.255.145.365.243z"/><path d="M25.654 16.661a3.84 3.84 0 00.734-2.242.4.4 0 10-.799-.039 3.064 3.064 0 01-.563 1.784c-.78.986-2.26 1.036-2.55 1.036a.4.4 0 100 .8c.354 0 2.168-.065 3.178-1.339z"/></svg><svg viewBox="0 0 32 32" id="instagram" xmlns="http://www.w3.org/2000/svg"><g clip-path="url(#aua)"><path d="M19.063 16a3.062 3.062 0 11-6.125 0 3.062 3.062 0 016.124 0z"/><path d="M23.162 10.582a2.847 2.847 0 00-.687-1.057 2.845 2.845 0 00-1.056-.687c-.324-.126-.81-.275-1.706-.316-.97-.044-1.26-.054-3.713-.054-2.453 0-2.744.01-3.713.054-.895.04-1.382.19-1.706.316a2.84 2.84 0 00-1.056.687c-.305.297-.54.658-.687 1.057-.126.323-.276.81-.317 1.706-.044.969-.053 1.26-.053 3.712 0 2.454.01 2.744.053 3.713.041.896.19 1.382.317 1.706.147.4.382.76.687 1.056.296.305.657.54 1.056.688.324.126.81.275 1.706.316.97.044 1.26.053 3.713.053 2.453 0 2.744-.009 3.712-.053.896-.04 1.383-.19 1.707-.316a3.043 3.043 0 001.743-1.744c.126-.324.276-.81.317-1.706.044-.969.053-1.26.053-3.713 0-2.453-.01-2.743-.053-3.712-.041-.896-.19-1.383-.317-1.706zM16 20.718a4.718 4.718 0 110-9.435 4.718 4.718 0 010 9.435zm4.904-8.52a1.103 1.103 0 110-2.205 1.103 1.103 0 010 2.205z"/><path d="M16 0C7.165 0 0 7.165 0 16s7.165 16 16 16 16-7.165 16-16S24.835 0 16 0zm9.132 19.788c-.044.978-.2 1.646-.427 2.23a4.698 4.698 0 01-2.687 2.687c-.584.227-1.252.382-2.23.427-.98.045-1.293.055-3.788.055s-2.808-.01-3.788-.055c-.978-.045-1.646-.2-2.23-.427a4.501 4.501 0 01-1.627-1.06 4.504 4.504 0 01-1.06-1.627c-.227-.584-.382-1.252-.427-2.23-.045-.98-.056-1.293-.056-3.788s.011-2.808.056-3.788c.044-.978.2-1.646.427-2.23a4.5 4.5 0 011.06-1.627 4.5 4.5 0 011.627-1.06c.584-.227 1.252-.382 2.23-.427.98-.045 1.293-.056 3.788-.056s2.808.011 3.788.056c.978.045 1.646.2 2.23.427.613.23 1.168.592 1.627 1.06.468.459.83 1.014 1.06 1.627.227.584.383 1.252.427 2.23.045.98.055 1.293.055 3.788s-.01 2.808-.055 3.788z"/></g><defs><clipPath id="aua"><path d="M0 0h32v32H0z"/></clipPath></defs></svg><svg viewBox="0 0 25 24" id="link-icon" xmlns="http://www.w3.org/2000/svg"><path d="M20.5 11a1 1 0 00-1 1v6a1 1 0 01-1 1h-12a1 1 0 01-1-1V6a1 1 0 011-1h6a1 1 0 100-2h-6a3 3 0 00-3 3v12a3 3 0 003 3h12a3 3 0 003-3v-6a1 1 0 00-1-1z"/><path d="M16.5 5h1.58l-6.29 6.28a1.002 1.002 0 00.325 1.639.999.999 0 001.095-.219l6.29-6.28V8a1 1 0 002 0V4a1 1 0 00-1-1h-4a1 1 0 000 2z"/></svg><svg viewBox="0 0 32 32" id="log-out" xmlns="http://www.w3.org/2000/svg"><path d="M12 28H6.667A2.667 2.667 0 014 25.333V6.667A2.667 2.667 0 016.667 4H12m9.332 18.666L27.999 16l-6.667-6.667M28 16H12"/></svg><svg viewBox="0 0 24 24" id="login" xmlns="http://www.w3.org/2000/svg"><path fill-rule="evenodd" clip-rule="evenodd" d="M16 5.6a4 4 0 10-8 0 4 4 0 008 0zm-4-2.4A2.4 2.4 0 1112 8a2.4 2.4 0 010-4.8z"/><path d="M12 12a4.8 4.8 0 014.8 4.8.8.8 0 101.6 0 6.4 6.4 0 00-6.4-6.4.8.8 0 000 1.6zm-.234 2.966l-1.6 1.6a.8.8 0 01-1.132-1.132l.235-.234H6.4a.8.8 0 110-1.6h2.87l-.235-.234a.8.8 0 011.132-1.132l1.6 1.6a.8.8 0 010 1.132z"/></svg><svg viewBox="0 0 24 24" id="login-mobile" xmlns="http://www.w3.org/2000/svg"><path fill-rule="evenodd" clip-rule="evenodd" d="M17.625 6.5c0-3.038-2.519-5.5-5.626-5.5-3.106 0-5.625 2.462-5.625 5.5C6.374 9.537 8.893 12 12 12s5.626-2.463 5.626-5.5zm-5.626-3.3c1.864 0 3.375 1.477 3.375 3.3 0 1.822-1.51 3.3-3.375 3.3-1.864 0-3.375-1.478-3.375-3.3 0-1.823 1.511-3.3 3.375-3.3z"/><path d="M12 15.3c3.728 0 6.75 2.955 6.75 6.6 0 .608.504 1.1 1.125 1.1S21 22.508 21 21.9c0-4.86-4.03-8.8-9-8.8-.621 0-1.125.492-1.125 1.1 0 .607.504 1.1 1.125 1.1zm-.33 4.078l-2.25 2.2c-.439.43-1.151.43-1.59 0a1.083 1.083 0 010-1.556l.33-.322H4.124A1.113 1.113 0 013 18.6c0-.608.504-1.1 1.125-1.1H8.16l-.33-.322a1.083 1.083 0 010-1.556c.44-.43 1.152-.43 1.592 0l2.25 2.2c.439.43.439 1.126 0 1.556z"/></svg><svg viewBox="0 0 32 32" id="profile-bookmark" xmlns="http://www.w3.org/2000/svg"><mask id="aza" maskUnits="userSpaceOnUse" x="5" y="4" width="23" height="23"><path d="M5 4h23v23H5V4z"/></mask><g mask="url(#aza)"><path d="M23.625 4.674H9.385a2.358 2.358 0 00-2.359 2.358V25.91l7.12-3.56 7.12 3.56V7.032a2.358 2.358 0 012.359-2.358zm0 0a2.358 2.358 0 012.358 2.358V15.5h-4.716"/></g></svg><svg viewBox="0 0 32 32" id="profile-help" xmlns="http://www.w3.org/2000/svg"><path d="M16 4C9.373 4 4 9.373 4 16c0 6.628 5.373 12 12 12 6.628 0 12-5.372 12-12 0-6.627-5.372-12-12-12zm0 19.034a7.034 7.034 0 110-14.069 7.034 7.034 0 010 14.07z"/><path d="M9.785 19.29l-3.603 3.602a12.058 12.058 0 002.926 2.927l3.603-3.604a7.06 7.06 0 01-2.926-2.926zM22.89 6.18l-3.603 3.604a7.059 7.059 0 012.926 2.926l3.604-3.603A12.048 12.048 0 0022.89 6.18zm-.626 13.013a7.063 7.063 0 01-2.878 2.974l3.593 3.593a12.065 12.065 0 002.902-2.95l-3.617-3.617zm-12.43-6.577a7.06 7.06 0 012.974-2.879L9.19 6.121a12.066 12.066 0 00-2.95 2.901l3.593 3.594z"/></svg><svg viewBox="0 0 32 32" id="profile-income" xmlns="http://www.w3.org/2000/svg"><path d="M21.231 14.952a1.512 1.512 0 00-1.532 1.452 1.702 1.702 0 001.2 1.432.4.4 0 00.232-.764c-.3-.092-.628-.44-.628-.668a.723.723 0 01.732-.652c.265.06.505.2.688.4a.406.406 0 10.572-.576 2.052 2.052 0 00-1.264-.624z"/><path d="M26.124 17.372a4.726 4.726 0 00-1.2-2.3c.114-.197.174-.42.176-.648a1.449 1.449 0 00-1.456-1.544 1.412 1.412 0 00-1.284.72 10.045 10.045 0 00-4.424-2.516 3.2 3.2 0 10-5.04-3.36 3.202 3.202 0 00-1.656 3.452C7.5 12.376 5 15.328 5 18.612a7.164 7.164 0 002.34 5.2v2.76a1.656 1.656 0 001.72 1.6h1.144a1.657 1.657 0 001.72-1.6v-.308a12 12 0 005.372.076v.232a1.656 1.656 0 001.72 1.6h1.144a1.657 1.657 0 001.72-1.6v-2.464c.37-.317.713-.665 1.024-1.04a4 4 0 002.968-2.524 1.46 1.46 0 001.384-1.404v-.4a1.43 1.43 0 00-1.132-1.368zm-2.504-3.696a.66.66 0 01.66.744c.005.04.005.08 0 .12a3.56 3.56 0 00-1.248-.528.62.62 0 01.604-.336h-.016zm-7.644-7.524a2.4 2.4 0 011.6 4.192 3.172 3.172 0 00-3.684-2.952 2.4 2.4 0 012.084-1.24zm-1.6 2a2.4 2.4 0 110 4.801 2.4 2.4 0 010-4.8zM26.448 19.14a.684.684 0 01-.724.608h-.088a.4.4 0 00-.4.264c-.452 1.284-1.436 2.164-2.576 2.292a.399.399 0 00-.268.148 7.76 7.76 0 01-1.152 1.168.4.4 0 00-.144.308v2.648a.86.86 0 01-.92.8h-1.164a.86.86 0 01-.92-.8v-.744a.4.4 0 00-.504-.4c-1.955.51-4.013.48-5.952-.088a.399.399 0 00-.516.4v.832a.86.86 0 01-.92.8H9.06a.86.86 0 01-.92-.8v-2.94a.4.4 0 00-.128-.296A6.4 6.4 0 015.8 18.628c0-2.94 2.284-5.6 5.7-6.68.202.416.491.783.848 1.077h-.824a.4.4 0 000 .8h6.252a.4.4 0 000-.8H16.4a3.2 3.2 0 00.924-1.272 9.145 9.145 0 014.88 2.855.4.4 0 00.284.14c1.436.08 2.636 1.329 2.916 3.04a.4.4 0 00.368.337.668.668 0 01.676.604v.411z"/><path d="M15.603 23.8a17.189 17.189 0 01-3.74-.4.402.402 0 00-.48.3.4.4 0 00.3.48c1.193.256 2.409.39 3.628.4h.316a.4.4 0 00.4-.4.4.4 0 00-.424-.38zm2.093-.187l-1 .2a.402.402 0 10.08.8h.08l1-.2a.408.408 0 00-.16-.8zm-5.12-16.861a.4.4 0 00.4-.4V4.4a.4.4 0 00-.8 0v1.952a.4.4 0 00.4.4zm-1.752 2.676a.4.4 0 00.4-.4v-2.3a.4.4 0 00-.8 0v2.3a.4.4 0 00.4.4zm4.791 1.992a.4.4 0 00.4-.4V9.776a.4.4 0 00-.8 0v1.244a.4.4 0 00.4.4zm2.508-5.868a.4.4 0 00.4-.4V4.4a.4.4 0 00-.8 0v.752a.4.4 0 00.4.4zm2.133 4.584a.4.4 0 00.4-.4V6.728a.4.4 0 00-.8 0v3.008a.4.4 0 00.4.4z"/></svg><svg viewBox="0 0 32 32" id="profile-logout" xmlns="http://www.w3.org/2000/svg"><path d="M12 28H6.667A2.667 2.667 0 014 25.333V6.667A2.667 2.667 0 016.667 4H12m9.332 18.666L27.999 16l-6.667-6.667M28 16H12"/></svg><svg viewBox="0 0 32 32" id="profile-main" xmlns="http://www.w3.org/2000/svg"><path fill-rule="evenodd" clip-rule="evenodd" d="M10.933 28.533a1.598 1.598 0 001.6-1.6V18.4a.533.533 0 01.534-.533h6.4A.533.533 0 0120 18.4v8.533a1.597 1.597 0 001.6 1.6h5.333a1.6 1.6 0 001.6-1.6v-12.8a1.6 1.6 0 00-.6-1.25L17.266 4.35a1.6 1.6 0 00-1.999 0L4.601 12.884A1.6 1.6 0 004 14.134v12.8a1.6 1.6 0 001.6 1.6h5.333zm0-1.066H5.6a.534.534 0 01-.533-.534v-12.8a.53.53 0 01.2-.416l10.666-8.534a.534.534 0 01.667 0l10.667 8.534c.126.101.2.254.2.416v12.8a.534.534 0 01-.534.534H21.6a.533.533 0 01-.533-.534V18.4a1.598 1.598 0 00-1.6-1.6h-6.4a1.598 1.598 0 00-1.6 1.6v8.533a.533.533 0 01-.534.534z"/></svg><svg viewBox="0 0 32 32" id="profile-money" xmlns="http://www.w3.org/2000/svg"><path d="M25.654 16.661a3.84 3.84 0 00.735-2.242.4.4 0 10-.8-.039 3.063 3.063 0 01-.563 1.784c-.78.986-2.26 1.036-2.55 1.036a.4.4 0 100 .8c.354 0 2.169-.065 3.178-1.339zm-8.051.139a.4.4 0 00-.8 0 1.6 1.6 0 001.6 1.6v.4a.4.4 0 00.8 0v-.4a1.6 1.6 0 000-3.2v-1.6a.8.8 0 01.8.8.4.4 0 00.8 0 1.6 1.6 0 00-1.6-1.6v-.4a.4.4 0 00-.8 0v.4a1.6 1.6 0 000 3.2v1.6a.8.8 0 01-.8-.8zm0-2.4a.8.8 0 01.8-.8v1.6a.8.8 0 01-.8-.8zm1.6 1.6a.8.8 0 010 1.6V16z"/><path d="M27.665 17.509c-.985-4.189-3.177-6.616-4.759-7.883 1.985.15 2.623.975 2.642 1a.4.4 0 00.663-.449c-.03-.043-.585-.836-2.2-1.2.413-.34.657-.842.669-1.377a2.054 2.054 0 00-1.53-1.863c.035-.289.053-.58.054-.87a.8.8 0 00-1.113-.736c-.202.092-.39.212-.556.357a1.031 1.031 0 01-.748.312 1.03 1.03 0 01-.747-.312 1.84 1.84 0 00-2.497 0 1.029 1.029 0 01-.749.312c-.28.003-.55-.11-.746-.312a2.287 2.287 0 00-.555-.357.8.8 0 00-1.111.736c0 .995.197 2.77 1.443 3.962A11.05 11.05 0 0014 10.217V7.2c0-.912-1.29-1.6-3-1.6s-3 .688-3 1.6v4.03c-1.403.14-2.4.77-2.4 1.57v10.174c-.966.26-1.6.786-1.6 1.426v2c0 .912 1.29 1.6 3 1.6 1.53 0 2.72-.55 2.955-1.32.69.366 1.464.545 2.245.52 1.71 0 3-.688 3-1.6v-5.2c0-.912-1.29-1.6-3-1.6-.2 0-.4.01-.6.03V12.8c0-.876-1.19-1.543-2.8-1.595V8.308A4.55 4.55 0 0011 8.8a4.555 4.555 0 002.2-.492v2.728c-.264.295-.528.616-.79.972a.4.4 0 00.645.472c.257-.348.532-.681.825-1l.01-.01a10.514 10.514 0 012.654-2.128c.196.095.403.164.617.205l-1.031.963a.4.4 0 00.546.585l1.6-1.493h.128v1.2a.4.4 0 00.8 0V9.6h.127l1.6 1.493a.4.4 0 10.547-.585L20.44 9.54a2.52 2.52 0 00.613-.206c1.057.572 4.532 2.832 5.834 8.357.566 2.404.362 4.244-.606 5.466-1.238 1.562-3.387 1.642-3.805 1.642H16.8a.4.4 0 000 .8h5.676c.68 0 3.002-.14 4.432-1.945 1.127-1.424 1.382-3.492.757-6.146zM7 23.6c1.323 0 2.2.48 2.2.8 0 .32-.877.8-2.2.8-1.323 0-2.2-.48-2.2-.8 0-.32.877-.8 2.2-.8zm0 3.6c-1.323 0-2.2-.48-2.2-.8v-.892A4.55 4.55 0 007 26a4.555 4.555 0 002.2-.492v.892c0 .32-.877.8-2.2.8zm5.2-.8c-1.323 0-2.2-.48-2.2-.8v-4.092a4.55 4.55 0 002.2.492 4.555 4.555 0 002.2-.492V25.6c0 .32-.877.8-2.2.8zm2.2-6c0 .32-.877.8-2.2.8-1.323 0-2.2-.48-2.2-.8 0-.32.877-.8 2.2-.8 1.323 0 2.2.48 2.2.8zm-5.2 0v2.893A4.555 4.555 0 007 22.8c-.2 0-.4.01-.6.03v-8.922a4.55 4.55 0 002.2.492 4.556 4.556 0 002.2-.492v5.066c-.966.26-1.6.786-1.6 1.426zm1.6-7.6c0 .32-.877.8-2.2.8-1.323 0-2.2-.48-2.2-.8 0-.32.877-.8 2.2-.8 1.323 0 2.2.48 2.2.8zM11 8c-1.323 0-2.2-.48-2.2-.8 0-.32.877-.8 2.2-.8 1.323 0 2.2.48 2.2.8 0 .32-.877.8-2.2.8zm12.88-.4c0 .656-.71 1.194-1.6 1.2a2.06 2.06 0 01-.443-.05 4.74 4.74 0 001.169-2.213c.481.142.828.563.874 1.063zm-8.333-2.488a1.8 1.8 0 001.247.488c.463.004.91-.171 1.248-.488a1.053 1.053 0 011.496 0c.338.317.785.492 1.249.488.463.004.91-.17 1.248-.488.11-.098.234-.18.367-.246 0 .743-.138 2.58-1.427 3.586-.29.218-.641.338-1.004.343.346-.594.62-1.228.816-1.888a.4.4 0 10-.77-.214 7.336 7.336 0 01-1.01 2.107h-.41a7.408 7.408 0 01-1.01-2.107.4.4 0 10-.77.214c.195.66.47 1.295.816 1.89a1.72 1.72 0 01-1.024-.345c-1.29-1.006-1.427-2.843-1.427-3.583.132.064.255.145.365.243z"/><path d="M25.654 16.66a3.84 3.84 0 00.735-2.241.4.4 0 00-.38-.42.405.405 0 00-.42.381 3.062 3.062 0 01-.563 1.784c-.78.986-2.26 1.036-2.55 1.036a.4.4 0 000 .8c.354 0 2.169-.065 3.178-1.34z"/></svg><svg viewBox="0 0 32 32" id="profile-payment" xmlns="http://www.w3.org/2000/svg"><path d="M11.846 7.694h5.539a.462.462 0 000-.923h-5.539a.462.462 0 000 .923zm9.693 5.076a.461.461 0 00-.462-.461h-9.23a.462.462 0 000 .923h9.23a.461.461 0 00.462-.462zm-9.693-2.309h1.847a.462.462 0 000-.923h-1.847a.462.462 0 000 .923zm9.232-.923H16a.462.462 0 000 .923h5.077a.462.462 0 000-.923zM22 15.077a6 6 0 100 12 6 6 0 000-12zm0 11.077A5.077 5.077 0 1122 16a5.077 5.077 0 010 10.154z"/><path d="M15.308 24.308h-5.77V6.77c0-.682-.253-1.34-.71-1.846h12.711a1.847 1.847 0 011.846 1.846v6.924a.461.461 0 10.923 0V6.769A2.77 2.77 0 0021.54 4H6.769A2.77 2.77 0 004 6.77v4.153a.462.462 0 00.462.462h4.154V24.77a.462.462 0 00.461.461h6.23a.462.462 0 000-.923h.001zM4.923 6.77a1.846 1.846 0 013.692 0v3.693H4.923V6.769zm17.539 14.116v-2.578a.462.462 0 00-.923 0v2.77c0 .122.05.239.136.325l1.385 1.385a.462.462 0 00.65-.651l-1.248-1.251z"/><path d="M11.846 21.54a.461.461 0 100 .922h1.847a.462.462 0 000-.923h-1.847z"/></svg><svg viewBox="0 0 32 32" id="promocode" xmlns="http://www.w3.org/2000/svg"><path fill-rule="evenodd" clip-rule="evenodd" d="M16.216 4a.532.532 0 00-.377.155l-8.549 8.55a.533.533 0 10.754.754l8.172-8.172 1.534 1.535c-1.132 1.492-1.036 3.605.293 4.934 1.33 1.33 3.444 1.427 4.936.294l1.378 1.378a.534.534 0 00.754-.755l-1.73-1.729a.534.534 0 00-.754 0c-1.07 1.07-2.787 1.101-3.83.058-1.043-1.043-1.011-2.76.059-3.83a.533.533 0 000-.753l-2.263-2.262A.532.532 0 0016.216 4zM5.534 14.468A.534.534 0 005 15v3.2c0 .294.24.533.534.533 1.513 0 2.748 1.192 2.748 2.667 0 1.475-1.235 2.667-2.748 2.667A.534.534 0 005 24.6v3.2c0 .295.24.533.534.533h21.333a.533.533 0 00.534-.533v-3.2a.534.534 0 00-.534-.533c-1.513 0-2.749-1.192-2.749-2.667 0-1.475 1.236-2.667 2.75-2.667a.533.533 0 00.533-.533V15a.534.534 0 00-.534-.533H5.534zm.533 1.066h5.498v1.867a.533.533 0 101.067 0v-1.867h13.702v2.17c-1.856.254-3.282 1.817-3.282 3.697 0 1.88 1.426 3.443 3.282 3.697v2.17H12.632V25.4a.534.534 0 00-1.067 0v1.867H6.067v-2.17c1.856-.254 3.282-1.817 3.282-3.697 0-1.88-1.426-3.443-3.282-3.697v-2.17zm10.134 2.135a.533.533 0 00-.534.532v6.4a.533.533 0 001.067 0v-6.4a.533.533 0 00-.534-.532zm3.282 0a.533.533 0 00-.534.532v6.4a.533.533 0 001.067 0v-6.4a.532.532 0 00-.533-.532zm-7.384 2.399a.533.533 0 00-.534.533v1.6a.533.533 0 101.067 0v-1.6a.534.534 0 00-.533-.533z"/></svg><svg viewBox="0 0 24 24" id="search" xmlns="http://www.w3.org/2000/svg"><g clip-path="url(#bha)"><path d="M20.71 19.29l-3.4-3.39A7.92 7.92 0 0019 11a8 8 0 10-8 8 7.92 7.92 0 004.9-1.69l3.39 3.4a1.002 1.002 0 001.639-.325 1 1 0 00-.219-1.095zM5 11a6 6 0 1112 0 6 6 0 01-12 0z"/></g><defs><clipPath id="bha"><path d="M0 0h24v24H0z"/></clipPath></defs></svg><svg viewBox="0 0 6 10" id="slider-arrow" xmlns="http://www.w3.org/2000/svg"><path d="M4.666 1.667L1.333 5l3.333 3.333"/></svg><svg viewBox="0 0 32 32" id="twitter" xmlns="http://www.w3.org/2000/svg"><path d="M16 0C7.178 0 0 7.178 0 16s7.178 16 16 16 16-7.178 16-16S24.823 0 16 0zm7.138 12.338c.007.159.01.318.01.478 0 4.867-3.703 10.476-10.478 10.476a10.41 10.41 0 01-5.645-1.653 7.391 7.391 0 005.452-1.525 3.686 3.686 0 01-3.44-2.558 3.707 3.707 0 001.663-.061 3.683 3.683 0 01-2.954-3.612v-.046a3.668 3.668 0 001.668.46 3.68 3.68 0 01-1.638-3.064c0-.676.181-1.309.499-1.853a10.457 10.457 0 007.59 3.85 3.683 3.683 0 016.275-3.36 7.35 7.35 0 002.34-.894 3.699 3.699 0 01-1.622 2.038 7.319 7.319 0 002.115-.58 7.407 7.407 0 01-1.835 1.904z"/></svg></svg>